<svg id="Capa_1" data-name="Capa 1" xmlns="http://www.w3.org/2000/svg" xmlns:xlink="http://www.w3.org/1999/xlink" viewBox="0 0 350.77 432"><defs><style>.cls-1{fill:url(#Degradado_sin_nombre_122);}.cls-2{fill:url(#Degradado_sin_nombre_123);}.cls-3{fill:url(#Degradado_sin_nombre_9);}.cls-4{fill:url(#Degradado_sin_nombre_9-2);}.cls-5{fill:url(#Degradado_sin_nombre_2);}.cls-6{fill:url(#Degradado_sin_nombre_2-2);}.cls-7{fill:url(#Degradado_sin_nombre_2-3);}.cls-8{fill:url(#Degradado_sin_nombre_2-4);}.cls-9{fill:url(#Degradado_sin_nombre_2-5);}.cls-10{fill:url(#Degradado_sin_nombre_2-6);}.cls-11,.cls-47{fill:#1d1d1b;}.cls-12{fill:url(#Degradado_sin_nombre_12);}.cls-13{fill:url(#Degradado_sin_nombre_12-2);}.cls-14{fill:url(#Degradado_sin_nombre_12-3);}.cls-15{fill:url(#Degradado_sin_nombre_12-4);}.cls-16{fill:url(#Degradado_sin_nombre_12-5);}.cls-17{fill:url(#Degradado_sin_nombre_12-6);}.cls-18{fill:url(#Degradado_sin_nombre_12-7);}.cls-19{fill:url(#Degradado_sin_nombre_12-8);}.cls-20{fill:url(#Degradado_sin_nombre_12-9);}.cls-21{fill:url(#Degradado_sin_nombre_12-10);}.cls-22{fill:url(#Degradado_sin_nombre_12-11);}.cls-23{fill:url(#Degradado_sin_nombre_12-12);}.cls-24{fill:#fff;}.cls-24,.cls-47{stroke:#1d1d1b;stroke-miterlimit:10;}.cls-25{fill:url(#Degradado_sin_nombre_13);}.cls-26{fill:url(#Degradado_sin_nombre_12-13);}.cls-27{fill:url(#Degradado_sin_nombre_12-14);}.cls-28{fill:url(#Degradado_sin_nombre_12-15);}.cls-29{fill:url(#Degradado_sin_nombre_12-16);}.cls-30{fill:url(#Degradado_sin_nombre_12-17);}.cls-31{fill:url(#Degradado_sin_nombre_12-18);}.cls-32{fill:url(#Degradado_sin_nombre_12-19);}.cls-33{fill:url(#Degradado_sin_nombre_12-20);}.cls-34{fill:url(#Degradado_sin_nombre_12-21);}.cls-35{fill:url(#Degradado_sin_nombre_12-22);}.cls-36{fill:url(#Degradado_sin_nombre_12-23);}.cls-37{fill:url(#Degradado_sin_nombre_12-24);}.cls-38{fill:url(#Degradado_sin_nombre_12-25);}.cls-39{fill:url(#Degradado_sin_nombre_12-26);}.cls-40{fill:url(#Degradado_sin_nombre_12-27);}.cls-41{fill:url(#Degradado_sin_nombre_13-2);}.cls-42{fill:url(#Degradado_sin_nombre_12-28);}.cls-43{fill:url(#Degradado_sin_nombre_12-29);}.cls-44{fill:url(#Degradado_sin_nombre_12-30);}.cls-45{fill:url(#Degradado_sin_nombre_12-31);}.cls-46{fill:url(#Degradado_sin_nombre_12-32);}.cls-48{fill:#0b759a;}.cls-49{fill:none;}</style><linearGradient id="Degradado_sin_nombre_122" x1="21.2" y1="226.7" x2="215.87" y2="242.99" gradientUnits="userSpaceOnUse"><stop offset="0" stop-color="#cbbba0"/><stop offset="0.02" stop-color="#c7b59c"/><stop offset="0.14" stop-color="#b49e8a"/><stop offset="0.26" stop-color="#a88f7f"/><stop offset="0.35" stop-color="#a48a7b"/><stop offset="1" stop-color="#cbbba0"/></linearGradient><linearGradient id="Degradado_sin_nombre_123" x1="217.1" y1="242.64" x2="324.55" y2="232.82" gradientUnits="userSpaceOnUse"><stop offset="0" stop-color="#cbbba0"/><stop offset="0.54" stop-color="#a78e7e"/><stop offset="0.58" stop-color="#a48a7b"/><stop offset="0.67" stop-color="#af9886"/><stop offset="0.88" stop-color="#c3b199"/><stop offset="1" stop-color="#cbbba0"/></linearGradient><linearGradient id="Degradado_sin_nombre_9" x1="214.48" y1="242.87" x2="249.4" y2="242.87" gradientUnits="userSpaceOnUse"><stop offset="0" stop-color="#936037"/><stop offset="0.12" stop-color="#794e2d"/><stop offset="0.29" stop-color="#5b3a21"/><stop offset="0.43" stop-color="#492d1a"/><stop offset="0.53" stop-color="#432918"/><stop offset="0.66" stop-color="#462b19"/><stop offset="0.75" stop-color="#50321d"/><stop offset="0.84" stop-color="#613e24"/><stop offset="0.93" stop-color="#794e2d"/><stop offset="1" stop-color="#936037"/></linearGradient><linearGradient id="Degradado_sin_nombre_9-2" x1="304.13" y1="235.36" x2="326.7" y2="235.36" xlink:href="#Degradado_sin_nombre_9"/><linearGradient id="Degradado_sin_nombre_2" x1="263.52" y1="139.39" x2="293.06" y2="128.37" gradientUnits="userSpaceOnUse"><stop offset="0" stop-color="#1d71b8"/><stop offset="1" stop-color="#29235c"/></linearGradient><linearGradient id="Degradado_sin_nombre_2-2" x1="262.8" y1="185.81" x2="293.76" y2="174.26" xlink:href="#Degradado_sin_nombre_2"/><linearGradient id="Degradado_sin_nombre_2-3" x1="262.24" y1="231.76" x2="294.32" y2="219.79" xlink:href="#Degradado_sin_nombre_2"/><linearGradient id="Degradado_sin_nombre_2-4" x1="261.68" y1="277.71" x2="294.89" y2="265.32" xlink:href="#Degradado_sin_nombre_2"/><linearGradient id="Degradado_sin_nombre_2-5" x1="261.11" y1="323.66" x2="295.45" y2="310.85" xlink:href="#Degradado_sin_nombre_2"/><linearGradient id="Degradado_sin_nombre_2-6" x1="263.02" y1="369.55" x2="294.8" y2="357.7" xlink:href="#Degradado_sin_nombre_2"/><linearGradient id="Degradado_sin_nombre_12" x1="164.63" y1="382.36" x2="196.45" y2="370.5" gradientUnits="userSpaceOnUse"><stop offset="0" stop-color="#29235c"/><stop offset="1" stop-color="#1d71b8"/></linearGradient><linearGradient id="Degradado_sin_nombre_12-2" x1="163.98" y1="333.14" x2="197.11" y2="320.79" xlink:href="#Degradado_sin_nombre_12"/><linearGradient id="Degradado_sin_nombre_12-3" x1="163.32" y1="283.92" x2="197.77" y2="271.08" xlink:href="#Degradado_sin_nombre_12"/><linearGradient id="Degradado_sin_nombre_12-4" x1="162.47" y1="234.2" x2="198.64" y2="220.71" xlink:href="#Degradado_sin_nombre_12"/><linearGradient id="Degradado_sin_nombre_12-5" x1="162" y1="185.48" x2="199.08" y2="171.65" xlink:href="#Degradado_sin_nombre_12"/><linearGradient id="Degradado_sin_nombre_12-6" x1="162.54" y1="135.9" x2="199.77" y2="122.02" xlink:href="#Degradado_sin_nombre_12"/><linearGradient id="Degradado_sin_nombre_12-7" x1="121.98" y1="142.45" x2="152.75" y2="130.98" xlink:href="#Degradado_sin_nombre_12"/><linearGradient id="Degradado_sin_nombre_12-8" x1="122.27" y1="187.27" x2="152.5" y2="175.99" xlink:href="#Degradado_sin_nombre_12"/><linearGradient id="Degradado_sin_nombre_12-9" x1="122.79" y1="231.15" x2="151.98" y2="220.27" xlink:href="#Degradado_sin_nombre_12"/><linearGradient id="Degradado_sin_nombre_12-10" x1="123.31" y1="275.04" x2="151.46" y2="264.54" xlink:href="#Degradado_sin_nombre_12"/><linearGradient id="Degradado_sin_nombre_12-11" x1="123.83" y1="318.92" x2="150.94" y2="308.82" xlink:href="#Degradado_sin_nombre_12"/><linearGradient id="Degradado_sin_nombre_12-12" x1="124.36" y1="362.81" x2="150.41" y2="353.09" xlink:href="#Degradado_sin_nombre_12"/><linearGradient id="Degradado_sin_nombre_13" x1="50.13" y1="216.59" x2="102.39" y2="216.59" gradientUnits="userSpaceOnUse"><stop offset="0" stop-color="#936037"/><stop offset="0.07" stop-color="#794e2d"/><stop offset="0.17" stop-color="#5b3a21"/><stop offset="0.25" stop-color="#492d1a"/><stop offset="0.31" stop-color="#432918"/><stop offset="0.61" stop-color="#452a19"/><stop offset="0.73" stop-color="#4c2f1c"/><stop offset="0.82" stop-color="#583820"/><stop offset="0.9" stop-color="#6a4427"/><stop offset="0.96" stop-color="#805330"/><stop offset="1" stop-color="#936037"/></linearGradient><linearGradient id="Degradado_sin_nombre_12-13" x1="79.77" y1="112.22" x2="95.24" y2="106.45" xlink:href="#Degradado_sin_nombre_12"/><linearGradient id="Degradado_sin_nombre_12-14" x1="79.88" y1="149.81" x2="95.13" y2="144.13" xlink:href="#Degradado_sin_nombre_12"/><linearGradient id="Degradado_sin_nombre_12-15" x1="80.15" y1="187.81" x2="94.85" y2="182.32" xlink:href="#Degradado_sin_nombre_12"/><linearGradient id="Degradado_sin_nombre_12-16" x1="80.4" y1="225.75" x2="94.6" y2="220.46" xlink:href="#Degradado_sin_nombre_12"/><linearGradient id="Degradado_sin_nombre_12-17" x1="80.73" y1="262.7" x2="94.26" y2="257.65" xlink:href="#Degradado_sin_nombre_12"/><linearGradient id="Degradado_sin_nombre_12-18" x1="80.73" y1="301.19" x2="94.27" y2="296.14" xlink:href="#Degradado_sin_nombre_12"/><linearGradient id="Degradado_sin_nombre_12-19" x1="81.26" y1="337.75" x2="93.72" y2="333.1" xlink:href="#Degradado_sin_nombre_12"/><linearGradient id="Degradado_sin_nombre_12-20" x1="54.89" y1="120.9" x2="76.86" y2="112.71" xlink:href="#Degradado_sin_nombre_12"/><linearGradient id="Degradado_sin_nombre_12-21" x1="55.27" y1="155.32" x2="76.48" y2="147.41" xlink:href="#Degradado_sin_nombre_12"/><linearGradient id="Degradado_sin_nombre_12-22" x1="55.67" y1="190.53" x2="76.07" y2="182.92" xlink:href="#Degradado_sin_nombre_12"/><linearGradient id="Degradado_sin_nombre_12-23" x1="56.08" y1="225.27" x2="75.65" y2="217.97" xlink:href="#Degradado_sin_nombre_12"/><linearGradient id="Degradado_sin_nombre_12-24" x1="56.33" y1="260.59" x2="75.4" y2="253.48" xlink:href="#Degradado_sin_nombre_12"/><linearGradient id="Degradado_sin_nombre_12-25" x1="56.66" y1="295.62" x2="75.07" y2="288.75" xlink:href="#Degradado_sin_nombre_12"/><linearGradient id="Degradado_sin_nombre_12-26" x1="57" y1="330.65" x2="74.74" y2="324.03" xlink:href="#Degradado_sin_nombre_12"/><linearGradient id="Degradado_sin_nombre_12-27" x1="27.94" y1="160.56" x2="45.4" y2="154.05" xlink:href="#Degradado_sin_nombre_12"/><linearGradient id="Degradado_sin_nombre_13-2" x1="102.38" y1="216.9" x2="113.36" y2="216.9" xlink:href="#Degradado_sin_nombre_13"/><linearGradient id="Degradado_sin_nombre_12-28" x1="28.21" y1="191.97" x2="45.14" y2="185.66" xlink:href="#Degradado_sin_nombre_12"/><linearGradient id="Degradado_sin_nombre_12-29" x1="28.52" y1="223.51" x2="44.82" y2="217.43" xlink:href="#Degradado_sin_nombre_12"/><linearGradient id="Degradado_sin_nombre_12-30" x1="28.81" y1="254.56" x2="44.54" y2="248.69" xlink:href="#Degradado_sin_nombre_12"/><linearGradient id="Degradado_sin_nombre_12-31" x1="29.01" y1="286.19" x2="44.34" y2="280.48" xlink:href="#Degradado_sin_nombre_12"/><linearGradient id="Degradado_sin_nombre_12-32" x1="29.28" y1="317.6" x2="44.07" y2="312.09" xlink:href="#Degradado_sin_nombre_12"/></defs><polygon class="cls-1" points="23.97 122.22 214.48 54.75 214.48 431 23.97 331.77 23.97 122.22"/><polygon class="cls-2" points="326.8 372.5 214.48 431 214.48 54.75 326.8 94.53 326.8 372.5"/><polygon class="cls-3" points="249.4 388.12 214.48 404.13 214.48 81.63 249.4 91.81 249.4 388.12"/><polygon class="cls-4" points="304.61 362.82 326.8 352.65 326.8 114.38 304.61 107.91 304.61 362.82"/><polygon class="cls-5" points="292.3 147.52 264.82 142.88 264.82 120.03 292.3 126.33 292.3 147.52"/><polygon class="cls-6" points="292.3 192.37 264.82 191.22 264.82 167.49 292.3 170.36 292.3 192.37"/><polygon class="cls-7" points="292.3 236.39 264.82 238.68 264.82 214.95 292.3 214.38 292.3 236.39"/><polygon class="cls-8" points="292.3 280.41 264.82 286.14 264.82 262.41 292.3 258.4 292.3 280.41"/><polygon class="cls-9" points="292.3 324.44 264.82 333.6 264.82 309.87 292.3 302.42 292.3 324.44"/><polygon class="cls-10" points="292.3 368.46 264.82 381.05 264.82 357.32 292.3 346.45 292.3 368.46"/><polygon class="cls-11" points="214.48 1 326.8 54.82 326.8 74.67 214.48 27.88 214.48 1"/><polygon class="cls-12" points="164.15 357.32 196.28 370.05 196.28 395.78 164.15 381.05 164.15 357.32"/><polygon class="cls-13" points="164.15 309.87 196.28 318.57 196.28 344.31 164.15 333.6 164.15 309.87"/><polygon class="cls-14" points="164.15 286.14 196.28 292.83 196.28 267.1 164.15 262.41 164.15 286.14"/><polygon class="cls-15" points="164.15 238.68 196.28 241.36 196.28 214.38 164.15 213.81 164.15 238.68"/><polygon class="cls-16" points="164.15 191.22 196.28 189.88 196.28 164.15 164.15 167.49 164.15 191.22"/><polygon class="cls-17" points="165.4 143.56 196.28 138.41 196.28 112.67 165.4 119.75 165.4 143.56"/><polygon class="cls-18" points="124.36 148.83 149.89 144.46 149.89 123.3 124.36 129.15 124.36 148.83"/><polygon class="cls-19" points="149.89 168.98 124.36 171.64 124.36 192.88 149.89 191.82 149.89 168.98"/><polygon class="cls-20" points="149.89 214.65 124.36 214.12 124.36 235.37 149.89 237.49 149.89 214.65"/><polygon class="cls-21" points="149.89 260.33 124.36 256.61 124.36 277.85 149.89 283.17 149.89 260.33"/><polygon class="cls-22" points="149.89 306.01 124.36 299.09 124.36 320.33 149.89 328.84 149.89 306.01"/><polygon class="cls-23" points="149.89 351.68 124.36 341.58 124.36 362.82 149.89 374.52 149.89 351.68"/><polygon class="cls-24" points="36.54 117.77 179.56 67.12 179.56 42.42 36.54 102.02 36.54 117.77"/><polygon class="cls-25" points="50.13 333.6 102.39 358.5 102.39 74.67 50.13 96.44 50.13 333.6"/><polygon class="cls-26" points="92.12 117.31 82.69 120.06 82.69 101.43 92.12 98.09 92.12 117.31"/><polygon class="cls-27" points="82.69 157.34 92.12 155.77 92.12 136.07 82.69 138.24 82.69 157.34"/><polygon class="cls-28" points="92.12 194.22 82.69 194.62 82.69 175.98 92.12 175 92.12 194.22"/><polygon class="cls-29" points="82.69 231.89 92.12 232.68 92.12 213.81 82.69 213.6 82.69 231.89"/><polygon class="cls-30" points="92.12 269.89 82.69 267.96 82.69 250.53 92.12 251.91 92.12 269.89"/><polygon class="cls-31" points="82.69 306.44 92.12 309.59 92.12 290.36 82.69 287.81 82.69 306.44"/><polygon class="cls-32" points="82.69 341.58 92.12 345.83 92.12 328.81 82.69 325.08 82.69 341.58"/><polygon class="cls-33" points="57.58 128.11 73.82 123.42 73.82 104.57 57.58 110.32 57.58 128.11"/><polygon class="cls-34" points="57.58 161.53 73.82 158.82 73.82 140.29 57.58 144.04 57.58 161.53"/><polygon class="cls-35" points="57.58 195.66 73.82 194.99 73.82 176.9 57.58 178.59 57.58 195.66"/><polygon class="cls-36" points="57.58 229.31 73.82 230.64 73.82 213.07 57.58 212.73 57.58 229.31"/><polygon class="cls-37" points="57.58 263.94 73.82 267.32 73.82 249.24 57.58 246.87 57.58 263.94"/><polygon class="cls-38" points="57.58 298.07 73.82 303.49 73.82 285.4 57.58 281.01 57.58 298.07"/><polygon class="cls-39" points="57.58 332.21 73.82 339.66 73.82 321.57 57.58 315.14 57.58 332.21"/><polygon class="cls-40" points="30.02 166.12 43.06 163.94 43.06 147.78 30.02 150.77 30.02 166.12"/><polygon class="cls-41" points="102.39 74.67 113.36 77.35 113.35 356.03 102.38 359.13 102.39 74.67"/><polygon class="cls-42" points="30.02 196.81 43.06 196.27 43.06 180.11 30.02 181.47 30.02 196.81"/><polygon class="cls-43" points="30.02 227.5 43.06 228.59 43.06 212.73 30.02 212.44 30.02 227.5"/><polygon class="cls-44" points="30.02 257.8 43.06 260.5 43.06 244.75 30.02 242.85 30.02 257.8"/><polygon class="cls-45" points="30.02 288.89 43.06 293.24 43.06 277.07 30.02 273.54 30.02 288.89"/><polygon class="cls-46" points="30.02 319.58 43.06 325.56 43.06 309.4 30.02 304.23 30.02 319.58"/><polygon class="cls-11" points="23.97 107.25 214.48 27.88 214.48 1 23.97 92.29 23.97 107.25"/><polygon class="cls-24" points="249.4 67.12 304.61 86.67 304.61 65.43 249.4 42.42 249.4 67.12"/><polyline class="cls-24" points="214.48 54.75 231.94 60.93 249.4 67.02 249.4 42.42"/><polygon class="cls-11" points="36.54 107.25 23.97 107.25 23.97 107.25 50.13 96.44 50.13 102.23 36.54 107.25"/><polygon class="cls-47" points="326.8 74.67 304.61 65.43 304.61 65.43 214.48 27.88 102.39 74.67 113.36 77.35 179.56 51.25 205.33 57.99 214.48 54.75 223.94 58.1 249.4 50.72 304.61 71.95 304.61 78.17 326.8 74.67"/><path class="cls-48" d="M234.18,117.11v21l-2.71-.56v-21Z"/><path class="cls-48" d="M229.37,168l-1.89,5.7-2.66-.35,6.65-19.58,2.41.63,7.24,21.08-2.54-.42-2.08-6.1Zm6.57-1.16-2.06-6c-.47-1.37-.78-2.62-1.09-3.83h-.06c-.31,1.24-.66,2.52-1.06,3.8L229.88,166Z"/><path class="cls-48" d="M238.4,203.07l-8.16-.56v7.57l9.1.56v2.27l-11.82-.56v-21l11.35.56v2.27l-8.63-.56v6.64l8.16.56Z"/><path class="cls-48" d="M224.94,253.07v-21l3-.46,6.21,9.36c1.56,2.46,2.94,4,4.34,6,0,0-.22-4.68-.22-7.95V230.2l2.48-.89v21l-2.66.89L230.9,241c-1.47-2.6-2.25-3.72-3.53-6l-.09-2.26c.15,2.65.21,7.46.21,11v9Z"/><polygon class="cls-49" points="227.03 288.02 227.03 288.2 232.18 287.21 232.18 280.63 227.03 288.02"/><polygon class="cls-49" points="232.18 280.63 232.18 287.21 237.33 286.23 237.33 279.5 232.34 280.4 232.18 280.63"/><polygon class="cls-49" points="232.34 280.4 237.33 279.5 237.33 273.25 232.34 280.4"/><polygon class="cls-49" points="237.33 273.25 237.33 279.5 241.94 278.66 241.94 271.61 238.04 272.23 237.33 273.25"/><polygon class="cls-49" points="232.18 280.43 227.02 281.37 227.03 288.02 232.18 280.63 232.18 280.43"/><polygon class="cls-49" points="232.18 280.63 232.34 280.4 232.18 280.43 232.18 280.63"/><polygon class="cls-49" points="226.88 288.23 227.03 288.2 227.03 288.02 226.88 288.23"/><polygon class="cls-49" points="238.04 272.23 237.33 272.35 237.33 273.25 238.04 272.23"/><polygon class="cls-49" points="241.94 271.61 241.94 271.61 239.96 269.49 238.04 272.23 241.94 271.61"/><polygon class="cls-49" points="232.34 280.4 237.33 273.25 237.33 272.35 232.18 273.17 232.18 280.43 232.34 280.4"/><polygon class="cls-49" points="232.18 273.17 227.02 274 227.02 281.37 232.18 280.43 232.18 273.17"/><polygon class="cls-49" points="232.18 287.21 232.18 293.19 237.33 292.12 237.33 286.23 232.18 287.21"/><polygon class="cls-49" points="221.94 289.17 221.94 295.31 226.88 288.23 221.94 289.17"/><polygon class="cls-49" points="226.88 288.23 221.94 295.31 221.94 295.33 227.03 294.27 227.03 288.2 226.88 288.23"/><polygon class="cls-49" points="227.03 288.2 227.03 294.27 232.18 293.19 232.18 287.21 227.03 288.2"/><polygon class="cls-49" points="237.33 279.5 237.33 286.23 241.94 285.35 241.94 278.66 237.33 279.5"/><polygon class="cls-49" points="237.33 292.12 241.94 291.16 241.94 285.35 237.33 286.23 237.33 292.12"/><polygon class="cls-49" points="227.02 268.1 221.94 268.84 221.94 274.81 227.02 274 227.02 268.1"/><polygon class="cls-49" points="237.33 272.35 237.33 266.6 232.18 267.35 232.18 273.17 237.33 272.35"/><polygon class="cls-49" points="232.18 273.17 232.18 267.35 227.02 268.1 227.02 274 232.18 273.17"/><polygon class="cls-49" points="227.03 288.02 227.02 281.37 221.94 282.29 221.94 289.17 226.88 288.23 227.03 288.02"/><polygon class="cls-49" points="238.04 272.23 239.96 269.49 239.69 269.21 237.33 266.6 237.33 272.35 238.04 272.23"/><polygon class="cls-49" points="227.02 274 221.94 274.81 221.94 282.29 227.02 281.37 227.02 274"/></svg>