<svg xmlns="http://www.w3.org/2000/svg" xmlns:xlink="http://www.w3.org/1999/xlink" viewBox="0 0 498.64 432"><defs><style>.cls-1{fill:#fffae3;}.cls-2{fill:url(#Degradado_sin_nombre_70);}.cls-3{fill:#00443a;}.cls-4{fill:#cbc6a9;}.cls-5{fill:#0c8271;}.cls-6{fill:url(#Degradado_sin_nombre_71);}.cls-7{fill:url(#Degradado_sin_nombre_57);}.cls-8{fill:url(#Degradado_sin_nombre_57-2);}.cls-9{fill:url(#Degradado_sin_nombre_56);}.cls-10{fill:url(#Degradado_sin_nombre_56-2);}.cls-11{fill:url(#Degradado_sin_nombre_56-3);}.cls-12{fill:url(#Degradado_sin_nombre_56-4);}.cls-13{fill:url(#Degradado_sin_nombre_56-5);}.cls-14{fill:url(#Degradado_sin_nombre_56-6);}.cls-15{fill:url(#Degradado_sin_nombre_64);}.cls-16{fill:url(#Degradado_sin_nombre_64-2);}.cls-17{fill:url(#Degradado_sin_nombre_64-3);}.cls-18{fill:url(#Degradado_sin_nombre_64-4);}.cls-19{fill:url(#Degradado_sin_nombre_64-5);}.cls-20{fill:url(#Degradado_sin_nombre_64-6);}.cls-21{fill:url(#Degradado_sin_nombre_64-7);}.cls-22{fill:url(#Degradado_sin_nombre_70-2);}.cls-23{fill:url(#Degradado_sin_nombre_70-3);}.cls-24{fill:url(#Degradado_sin_nombre_70-4);}.cls-25{fill:url(#Degradado_sin_nombre_63);}.cls-26{fill:url(#Degradado_sin_nombre_39);}.cls-27{fill:url(#Degradado_sin_nombre_39-2);}.cls-28{fill:url(#Degradado_sin_nombre_39-3);}.cls-29{fill:url(#Degradado_sin_nombre_42);}.cls-30{fill:url(#Degradado_sin_nombre_48);}</style><linearGradient id="Degradado_sin_nombre_70" x1="359.59" y1="185.86" x2="504.11" y2="202.76" gradientUnits="userSpaceOnUse"><stop offset="0" stop-color="#00443a"/><stop offset="0.01" stop-color="#00453b"/><stop offset="0.25" stop-color="#056053"/><stop offset="0.49" stop-color="#097364"/><stop offset="0.74" stop-color="#0b7e6e"/><stop offset="1" stop-color="#0c8271"/></linearGradient><linearGradient id="Degradado_sin_nombre_71" x1="366.8" y1="365.2" x2="488.34" y2="379.41" gradientUnits="userSpaceOnUse"><stop offset="0" stop-color="#00443a"/><stop offset="0.06" stop-color="#01493e"/><stop offset="0.68" stop-color="#097263"/><stop offset="1" stop-color="#0c8271"/></linearGradient><linearGradient id="Degradado_sin_nombre_57" x1="400.91" y1="355.03" x2="437.67" y2="361.64" gradientUnits="userSpaceOnUse"><stop offset="0" stop-color="#195488"/><stop offset="0.07" stop-color="#1f669b"/><stop offset="0.19" stop-color="#287fb5"/><stop offset="0.33" stop-color="#2e91c8"/><stop offset="0.48" stop-color="#339fd6"/><stop offset="0.67" stop-color="#35a7df"/><stop offset="1" stop-color="#36a9e1"/></linearGradient><linearGradient id="Degradado_sin_nombre_57-2" x1="449.23" y1="333.97" x2="479.33" y2="339.39" xlink:href="#Degradado_sin_nombre_57"/><linearGradient id="Degradado_sin_nombre_56" x1="399.2" y1="275.23" x2="439.19" y2="282.42" gradientUnits="userSpaceOnUse"><stop offset="0" stop-color="#195488"/><stop offset="0.06" stop-color="#1e6296"/><stop offset="0.2" stop-color="#267bb1"/><stop offset="0.34" stop-color="#2d90c6"/><stop offset="0.51" stop-color="#329ed5"/><stop offset="0.7" stop-color="#35a6de"/><stop offset="1" stop-color="#36a9e1"/></linearGradient><linearGradient id="Degradado_sin_nombre_56-2" x1="447.82" y1="265.73" x2="480.39" y2="271.59" xlink:href="#Degradado_sin_nombre_56"/><linearGradient id="Degradado_sin_nombre_56-3" x1="445.94" y1="190.88" x2="482.04" y2="197.38" xlink:href="#Degradado_sin_nombre_56"/><linearGradient id="Degradado_sin_nombre_56-4" x1="396.95" y1="187.96" x2="441.16" y2="195.91" xlink:href="#Degradado_sin_nombre_56"/><linearGradient id="Degradado_sin_nombre_56-5" x1="396.82" y1="85.15" x2="442.26" y2="93.33" xlink:href="#Degradado_sin_nombre_56"/><linearGradient id="Degradado_sin_nombre_56-6" x1="445.86" y1="102.86" x2="482.91" y2="109.53" xlink:href="#Degradado_sin_nombre_56"/><linearGradient id="Degradado_sin_nombre_64" x1="401.07" y1="136.74" x2="447.1" y2="136.42" gradientUnits="userSpaceOnUse"><stop offset="0" stop-color="#cbc6a9"/><stop offset="0.08" stop-color="#d6d1b6"/><stop offset="0.24" stop-color="#e8e3ca"/><stop offset="0.42" stop-color="#f5f0d8"/><stop offset="0.63" stop-color="#fdf8e0"/><stop offset="1" stop-color="#fffae3"/></linearGradient><linearGradient id="Degradado_sin_nombre_64-2" x1="446.86" y1="146.41" x2="485.3" y2="146.15" xlink:href="#Degradado_sin_nombre_64"/><linearGradient id="Degradado_sin_nombre_64-3" x1="401.06" y1="239.17" x2="446.58" y2="238.86" xlink:href="#Degradado_sin_nombre_64"/><linearGradient id="Degradado_sin_nombre_64-4" x1="446.27" y1="234.92" x2="485.35" y2="234.65" xlink:href="#Degradado_sin_nombre_64"/><linearGradient id="Degradado_sin_nombre_64-5" x1="401.03" y1="322.77" x2="446.62" y2="322.46" xlink:href="#Degradado_sin_nombre_64"/><linearGradient id="Degradado_sin_nombre_64-6" x1="446.24" y1="307.21" x2="485.38" y2="306.95" xlink:href="#Degradado_sin_nombre_64"/><linearGradient id="Degradado_sin_nombre_64-7" x1="129.83" y1="184.52" x2="253.04" y2="183.69" xlink:href="#Degradado_sin_nombre_64"/><linearGradient id="Degradado_sin_nombre_70-2" x1="166.79" y1="239.23" x2="255.19" y2="249.57" xlink:href="#Degradado_sin_nombre_70"/><linearGradient id="Degradado_sin_nombre_70-3" x1="169" y1="139.07" x2="253.83" y2="148.99" xlink:href="#Degradado_sin_nombre_70"/><linearGradient id="Degradado_sin_nombre_70-4" x1="167.98" y1="324.68" x2="253.95" y2="334.73" xlink:href="#Degradado_sin_nombre_70"/><linearGradient id="Degradado_sin_nombre_63" x1="157.45" y1="392.57" x2="252.73" y2="362.87" gradientUnits="userSpaceOnUse"><stop offset="0" stop-color="#cbc6a9"/><stop offset="0.26" stop-color="#dcd7bc"/><stop offset="0.73" stop-color="#f5f0d8"/><stop offset="1" stop-color="#fffae3"/></linearGradient><linearGradient id="Degradado_sin_nombre_39" x1="169.75" y1="91.1" x2="244.81" y2="104.61" gradientUnits="userSpaceOnUse"><stop offset="0" stop-color="#195488"/><stop offset="0.17" stop-color="#2370a5"/><stop offset="0.37" stop-color="#2b89bf"/><stop offset="0.57" stop-color="#319bd2"/><stop offset="0.77" stop-color="#35a6dd"/><stop offset="1" stop-color="#36a9e1"/></linearGradient><linearGradient id="Degradado_sin_nombre_39-2" x1="164.45" y1="188.59" x2="247.79" y2="203.59" xlink:href="#Degradado_sin_nombre_39"/><linearGradient id="Degradado_sin_nombre_39-3" x1="166.53" y1="280.08" x2="245.95" y2="294.37" xlink:href="#Degradado_sin_nombre_39"/><linearGradient id="Degradado_sin_nombre_42" x1="170.8" y1="345.67" x2="242.54" y2="358.58" gradientUnits="userSpaceOnUse"><stop offset="0" stop-color="#195488"/><stop offset="0.19" stop-color="#1b598d"/><stop offset="0.42" stop-color="#1f669b"/><stop offset="0.65" stop-color="#277cb2"/><stop offset="0.9" stop-color="#319ad1"/><stop offset="1" stop-color="#36a9e1"/></linearGradient><linearGradient id="Degradado_sin_nombre_48" x1="128.86" y1="367.06" x2="141.31" y2="369.3" gradientUnits="userSpaceOnUse"><stop offset="0" stop-color="#36a9e1"/><stop offset="0.04" stop-color="#33a0d7"/><stop offset="0.19" stop-color="#2984ba"/><stop offset="0.35" stop-color="#226fa4"/><stop offset="0.53" stop-color="#1d6094"/><stop offset="0.73" stop-color="#1a578b"/><stop offset="1" stop-color="#195488"/></linearGradient></defs><g id="Capa_1" data-name="Capa 1"><polygon class="cls-1" points="367.5 17.44 254.04 53.83 254.04 388.35 367.5 431 367.5 359.21 379.68 362.31 379.68 13.54 367.5 17.44"/><polyline class="cls-2" points="490.79 96.65 490.79 74.8 401.23 25.87 379.68 14.09 379.68 362.31 401.23 352.92 401.23 55.77 485.21 94.11 485.21 316.6 491.1 314.02 490.79 96.27"/><polygon class="cls-3" points="401.23 55.77 401.23 60.63 479.16 95.07 479.16 315.17 485.21 316.09 485.21 94.11 401.23 55.77"/><polygon class="cls-4" points="401.23 300.02 479.16 278.45 485.21 280.92 401.23 305.56 401.23 300.02"/><polygon class="cls-4" points="401.23 164.16 479.16 174.37 485.21 171.94 401.23 159.85 401.23 164.16"/><polygon class="cls-5" points="443.22 119.47 449.61 121.41 449.61 77.86 443.22 74.94 443.22 119.47"/><polygon class="cls-3" points="437.85 117.84 443.22 119.47 443.22 74.94 437.85 76 437.85 117.84"/><polygon class="cls-5" points="443.22 165.9 449.61 166.82 449.61 214.03 443.22 214.17 443.22 165.9"/><polygon class="cls-5" points="443.22 293.24 449.61 291.36 449.61 255.78 443.22 256.86 443.22 293.24"/><polygon class="cls-3" points="437.85 214.17 443.22 214.17 443.22 165.9 437.85 168.96 437.85 214.17"/><polygon class="cls-3" points="437.85 289.88 443.22 293.24 443.22 256.86 437.85 257.76 437.85 289.88"/><polygon class="cls-6" points="491.1 314.02 379.52 362.75 367.5 359.21 367.5 431 491.1 355.8 491.1 314.02"/><polygon class="cls-7" points="401.23 379.49 437.85 360.61 437.85 337.27 401.23 353.27 401.23 379.49"/><polygon class="cls-8" points="479.36 339.22 449.61 354.55 449.61 331.85 479.36 318.88 479.36 339.22"/><polygon class="cls-3" points="443.22 334.93 437.85 337.27 437.85 360.61 443.22 361.85 443.22 334.93"/><polygon class="cls-5" points="449.61 358.38 443.22 361.76 443.22 334.93 449.61 332.14 449.61 358.38"/><polygon class="cls-9" points="437.85 289.88 401.23 300.02 401.23 263.93 437.85 257.76 437.85 289.88"/><polygon class="cls-10" points="479.16 278.45 449.61 286.62 449.61 255.78 479.16 250.8 479.16 278.45"/><polygon class="cls-11" points="449.61 214.03 479.16 213.39 479.16 174.37 449.61 170.5 449.61 214.03"/><polygon class="cls-12" points="401.23 215.09 437.85 214.29 437.85 168.96 401.23 164.16 401.23 215.09"/><polygon class="cls-13" points="437.85 117.84 401.23 106.72 401.23 60.63 437.85 76.82 437.85 117.84"/><polygon class="cls-14" points="479.16 130.38 449.61 121.41 449.61 82.02 479.16 95.07 479.16 130.38"/><polygon class="cls-15" points="401.23 106.72 401.23 159.85 447 166.44 447 120.61 401.23 106.72"/><polygon class="cls-16" points="485.21 132.21 447 120.61 447 166.44 485.21 171.94 485.21 132.21"/><polygon class="cls-17" points="401.23 215.09 401.23 263.93 446.42 256.32 446.42 214.1 401.23 215.09"/><polygon class="cls-18" points="485.21 213.25 446.42 214.1 446.42 256.32 485.21 249.78 485.21 213.25"/><polygon class="cls-19" points="401.23 305.56 401.23 352.92 446.42 333.24 446.42 292.3 401.23 305.56"/><polygon class="cls-20" points="485.21 280.92 446.42 292.3 446.42 333.24 485.21 316.34 485.21 280.92"/><polygon class="cls-1" points="310.26 67.24 326.18 72.52 326.18 30.7 310.26 23.78 310.26 67.24"/><polygon class="cls-1" points="254.04 82.02 310.26 67.29 310.26 23.78 254.04 43.07 254.04 82.02"/><polygon class="cls-4" points="254.04 82.02 310.26 67.24 326.18 72.52 269.93 86.3 254.04 82.02"/><polygon class="cls-21" points="254.04 82.02 254.04 43.81 128.69 1 128.69 49.18 128.69 326.6 128.69 330.52 128.69 368.05 254.04 334.89 254.04 302.02 168.68 318.76 168.68 59.66 254.04 82.02"/><polygon class="cls-5" points="310.26 314.02 254.04 302.02 254.04 334.89 310.26 349.76 310.26 314.02"/><polygon class="cls-5" points="326.18 343.75 310.26 349.06 310.26 314.02 326.18 310.04 326.18 343.75"/><polygon class="cls-5" points="310.26 222.27 253.98 220.76 253.98 258.7 310.26 264.67 310.26 222.27"/><polygon class="cls-5" points="310.26 121.41 253.98 130.47 253.98 168.66 310.26 164.08 310.26 121.41"/><polygon class="cls-5" points="326.18 165.9 310.26 164.26 310.26 121.41 326.18 124.65 326.18 165.9"/><polygon class="cls-5" points="326.18 262.47 310.26 264.56 310.26 222.27 326.18 221.73 326.18 262.47"/><polygon class="cls-4" points="253.98 302.03 310.26 314.02 326.18 310.04 269.93 299.63 253.98 302.03"/><polygon class="cls-4" points="326.18 165.9 269.93 169.58 253.98 168.66 310.26 164.08 326.18 165.9"/><polygon class="cls-4" points="326.18 221.73 269.93 220.28 254.04 220.76 310.26 222.27 326.18 221.73"/><polygon class="cls-1" points="244.94 84.36 254.04 82.02 253.98 302.03 244.89 300.24 244.94 84.36"/><polygon class="cls-4" points="244.94 84.36 168.68 65.12 168.68 59.66 254.04 82.02 244.94 84.36"/><polygon class="cls-4" points="244.89 300.24 168.68 314.63 168.68 318.76 254.04 302.02 244.89 300.24"/><polygon class="cls-22" points="168.68 268.14 254.08 259.03 254.08 220.76 168.68 223.06 168.68 268.14"/><polygon class="cls-23" points="168.68 161.37 254.08 168.38 254.08 130.46 168.68 116.7 168.68 161.37"/><polygon class="cls-4" points="244.92 170.34 168.68 165.07 168.68 161.37 253.98 168.38 244.92 170.34"/><polygon class="cls-4" points="244.89 219.72 168.68 220.84 168.68 223.06 253.98 220.76 244.89 219.72"/><polygon class="cls-24" points="168.68 357.47 253.93 334.92 253.93 302.02 168.68 318.73 168.68 357.47"/><polygon class="cls-25" points="154.24 361.29 254.04 334.89 254.04 388.35 154.24 425.86 154.24 361.29"/><polygon class="cls-5" points="7.54 71.6 128.69 1 128.69 368.05 7.54 313.36 7.54 71.6"/><polygon class="cls-1" points="17.29 317.76 128.69 368.05 154.24 361.29 154.24 425.86 17.29 347.38 17.29 317.76"/><polygon class="cls-4" points="269.93 127.9 310.26 121.41 321.07 123.27 321.07 73.77 269.93 86.3 269.93 127.9"/><polygon class="cls-4" points="321.07 221.73 269.93 220.28 269.93 169.58 321.07 166.23 321.07 221.73"/><polygon class="cls-4" points="321.07 263.14 310.26 264.85 269.93 260.56 269.93 299.63 321.07 309.09 321.07 263.14"/><polygon class="cls-26" points="168.68 116.7 244.94 128.98 244.94 84.36 168.68 65.12 168.68 116.7"/><polygon class="cls-27" points="244.89 219.72 168.68 221.58 168.68 165.07 244.89 170.83 244.89 219.72"/><polygon class="cls-28" points="168.68 268.14 244.89 260.01 244.89 300.24 168.68 314.63 168.68 268.14"/><polygon class="cls-4" points="321.07 345.45 310.26 349.06 254.04 335.15 254.04 388.35 321.07 413.55 321.07 345.45"/><polygon class="cls-29" points="244.89 345.54 168.68 366.99 168.68 357.47 244.89 337.31 244.89 345.54"/><polygon class="cls-30" points="140.57 364.91 128.69 368.05 140.57 373.42 140.57 364.91"/><polygon class="cls-1" points="269.93 339.09 254.04 334.89 254.04 388.35 269.93 382.37 269.93 339.09"/><polygon class="cls-1" points="321.07 413.55 321.07 402.57 269.93 382.37 228.31 398.02 302.23 429.54 329.51 416.72 321.07 413.55"/><path class="cls-1" d="M17.29,97.17,19.93,96v1l-2,.91v3.2l1.86-.81v1l-1.86.8v4.37l-.62.26Z"/><path class="cls-1" d="M22.49,104.63l-.06-.86h0a2.4,2.4,0,0,1-1.1,1.5c-.73.3-1.1-.54-1.1-1.55a3.58,3.58,0,0,1,2.16-3.54V100c0-.58-.08-1.59-.82-1.27a2.33,2.33,0,0,0-.93.94l-.15-.78a2.69,2.69,0,0,1,1.18-1.14c1.11-.5,1.38.86,1.38,2.28v2.64a16.63,16.63,0,0,0,.06,1.67Zm-.1-3.56a2.23,2.23,0,0,0-1.53,2.24c0,.82.28,1.1.62,1a2,2,0,0,0,.87-1.55,3.13,3.13,0,0,0,0-.42Z"/><path class="cls-1" d="M26.76,102.59a2.53,2.53,0,0,1-1.08.86c-1.12.47-1.84-.68-1.84-2.85s.78-4.12,2-4.66a1.15,1.15,0,0,1,.94,0L26.62,97a.83.83,0,0,0-.79,0c-.85.37-1.31,1.78-1.31,3.27,0,1.64.55,2.43,1.29,2.12a2.1,2.1,0,0,0,.83-.71Z"/><path class="cls-1" d="M30.77,99.21c0,.75,0,1.41,0,2l-.62.26,0-1.17h0a2.88,2.88,0,0,1-1.27,1.88c-.6.24-1.31-.08-1.31-2.61V95.33l.69-.3v4c0,1.37.22,2.2.85,1.94A2.23,2.23,0,0,0,30,99.38a3.86,3.86,0,0,0,.07-.7V94.21l.7-.31Z"/><path class="cls-1" d="M32,90l.71-.33v10.78l-.71.3Z"/><path class="cls-1" d="M34.75,90v2.13l1-.47v1l-1,.46v4c0,.92.14,1.38.55,1.21a1.52,1.52,0,0,0,.42-.27l0,1a1.81,1.81,0,0,1-.64.45.57.57,0,0,1-.79-.24A3.7,3.7,0,0,1,34,97.5v-4l-.62.27v-1l.62-.28V90.68Z"/><path class="cls-1" d="M38.89,97.83l-.06-.93h0a2.65,2.65,0,0,1-1.26,1.64c-.82.34-1.24-.54-1.24-1.62a3.93,3.93,0,0,1,2.45-3.84v-.15c0-.62-.09-1.7-.93-1.33a2.63,2.63,0,0,0-1.06,1l-.17-.82a3.23,3.23,0,0,1,1.34-1.26c1.26-.56,1.57.88,1.57,2.39v2.82c0,.66,0,1.29.07,1.78ZM38.78,94a2.48,2.48,0,0,0-1.73,2.43c0,.88.32,1.17.7,1a2.26,2.26,0,0,0,1-1.68,3.58,3.58,0,0,0,0-.45Z"/><path class="cls-1" d="M44.4,84.27v9.29c0,.68,0,1.45,0,2l-.7.29,0-1.32h0a3,3,0,0,1-1.45,2.1c-1,.43-1.8-.8-1.8-3.1,0-2.51.86-4.44,1.89-4.9a.89.89,0,0,1,1.28.6h0V84.63Zm-.78,7a5.44,5.44,0,0,0,0-.57c-.12-.83-.54-1.37-1.12-1.12-.8.35-1.27,1.81-1.27,3.49s.42,2.63,1.25,2.28a2.66,2.66,0,0,0,1.14-2.13,6.13,6.13,0,0,0,0-.62Z"/><path class="cls-1" d="M51.49,81v9.53c0,.7,0,1.49,0,2l-.73.3,0-1.35h0a3.17,3.17,0,0,1-1.53,2.18c-1.07.44-1.89-.81-1.89-3.16,0-2.58.9-4.58,2-5.06a.94.94,0,0,1,1.36.6h0v-4.7Zm-.82,7.24a3.6,3.6,0,0,0,0-.58c-.12-.86-.57-1.41-1.18-1.14-.84.37-1.33,1.87-1.33,3.59s.44,2.7,1.31,2.33a2.75,2.75,0,0,0,1.2-2.2,4.35,4.35,0,0,0,0-.63Z"/><path class="cls-1" d="M53.33,88.13c0,1.94.74,2.45,1.58,2.09a3.31,3.31,0,0,0,1.29-1l.15,1a4,4,0,0,1-1.55,1.14c-1.42.59-2.27-.66-2.27-3s.82-4.63,2.16-5.22c1.52-.68,1.93,1.45,1.93,2.92,0,.3,0,.54,0,.69ZM55.8,86c0-.93-.22-2.26-1.18-1.85s-1.22,1.89-1.28,2.91Z"/><path class="cls-1" d="M60.67,77.45V88.79l-.86.36V77.84Z"/><path class="cls-1" d="M62.27,82.15c0-.84,0-1.53,0-2.2L63,79.6l0,1.34h0a3.53,3.53,0,0,1,1.64-2.27c.69-.31,1.77-.1,1.77,2.75v5l-.91.38V82c0-1.34-.3-2.32-1.16-1.94a2.8,2.8,0,0,0-1.2,2,4.07,4.07,0,0,0-.06.73v4.93l-.9.37Z"/><path class="cls-1" d="M72.45,75.43c0,.62,0,1.31,0,2.35V82.7a8.74,8.74,0,0,1-.74,4.17,3.71,3.71,0,0,1-1.89,1.77,1.9,1.9,0,0,1-1.7,0l.23-1.25a1.68,1.68,0,0,0,1.51,0c1-.39,1.66-1.5,1.66-3.63v-.94h0A3.31,3.31,0,0,1,69.81,85c-1.28.52-2.18-.86-2.18-3.17,0-2.82,1.13-4.93,2.3-5.45a1.11,1.11,0,0,1,1.62.75h0l0-1.29Zm-1,3.77a3.43,3.43,0,0,0,0-.68c-.17-.81-.63-1.34-1.32-1-.89.39-1.52,1.9-1.52,3.83,0,1.65.5,2.8,1.51,2.38a2.88,2.88,0,0,0,1.31-2.12,5.12,5.12,0,0,0,.07-.85Z"/><path class="cls-1" d="M74.53,79.05c0,2.09.86,2.61,1.84,2.2a4.12,4.12,0,0,0,1.49-1.07l.17,1a5,5,0,0,1-1.8,1.28c-1.64.68-2.62-.64-2.62-3.2s1-5,2.5-5.7c1.77-.79,2.24,1.49,2.24,3.08a6.24,6.24,0,0,1,0,.74Zm2.86-2.34c0-1-.25-2.44-1.36-1.95s-1.41,2.07-1.49,3.18Z"/><path class="cls-1" d="M79.58,74.61c0-.89,0-1.62,0-2.33l.89-.39,0,1.41h0a3.83,3.83,0,0,1,1.84-2.45c.77-.34,2-.16,2,2.87V79l-1,.43V74.33c0-1.41-.34-2.44-1.3-2a3,3,0,0,0-1.35,2.21,3.67,3.67,0,0,0-.07.77v5.24l-1,.41Z"/><path class="cls-1" d="M87.19,66.39a1.37,1.37,0,0,1-.67,1.29c-.37.17-.63-.15-.63-.7a1.5,1.5,0,0,1,.65-1.31C86.94,65.5,87.19,65.82,87.19,66.39ZM86,78.27V69.41l1-.46v8.89Z"/><path class="cls-1" d="M89.41,72.68c0,2.19,1,2.72,2,2.27a4.62,4.62,0,0,0,1.65-1.16l.19,1.1a5.69,5.69,0,0,1-2,1.38c-1.82.76-2.89-.61-2.89-3.3s1-5.28,2.75-6c1.95-.86,2.47,1.51,2.47,3.18,0,.34,0,.61,0,.79Zm3.15-2.53c0-1.05-.28-2.54-1.49-2s-1.56,2.2-1.65,3.37Z"/><path class="cls-1" d="M95,68.28c0-1.07,0-2,0-2.82l1-.43,0,1.78,0,0A3.85,3.85,0,0,1,97.68,64,.88.88,0,0,1,98,64v1.58a1.12,1.12,0,0,0-.38.11,3.41,3.41,0,0,0-1.5,2.79c0,.24-.05.51-.05.8V74.1L95,74.56Z"/><path class="cls-1" d="M101.5,58.53,99.92,62l-.81.36,1.13-3.24ZM99.18,72.81V63.58l1.14-.51v9.27Z"/><path class="cls-1" d="M105.77,70.08l-.09-1.15,0,0a4.07,4.07,0,0,1-2,2.21c-1.29.54-2-.52-2-1.86,0-2.26,1.37-4.08,3.85-5.13V64c0-.77-.15-2.11-1.47-1.53a4.42,4.42,0,0,0-1.66,1.42l-.26-1a5.49,5.49,0,0,1,2.1-1.76c2-.87,2.46.88,2.46,2.78v3.53a18.35,18.35,0,0,0,.1,2.22Zm-.18-4.74c-1.27.51-2.71,1.46-2.71,3.27,0,1.1.5,1.42,1.09,1.17a3.11,3.11,0,0,0,1.56-2.23,2.91,2.91,0,0,0,.06-.57Z"/><path class="cls-1" d="M20.73,115.74l.78,3.86c.09.44.18,1,.23,1.36h0c.07-.44.14-1,.23-1.55l.72-4.4.7-.26-1,5.4A19.64,19.64,0,0,1,21.18,125a3,3,0,0,1-.8,1.1l-.16-1a3.42,3.42,0,0,0,.57-.81,6.61,6.61,0,0,0,.54-1.61,2,2,0,0,0,.06-.33,1.87,1.87,0,0,0-.05-.31L20,116Z"/><path class="cls-1" d="M29.35,119.45a3.11,3.11,0,0,1-1.4,1c-1.48.51-2.59-.88-2.59-4.14,0-3.11,1.11-5.65,2.74-6.27a1.44,1.44,0,0,1,1.26,0l-.17,1.13a1.27,1.27,0,0,0-1.07,0c-1.24.47-2.05,2.27-2.05,4.89,0,2.44.74,3.75,2,3.3a2.55,2.55,0,0,0,1.12-.8Z"/><path class="cls-1" d="M31,109.88a1,1,0,0,1-.45,1c-.25.09-.42-.2-.42-.65s.18-.9.43-1S31,109.41,31,109.88Zm-.79,9.62v-7.28l.71-.26v7.29Z"/><path class="cls-1" d="M32.45,115.28c0,1.8.64,2.33,1.36,2.08a2.44,2.44,0,0,0,1.1-.77l.13.92a3.08,3.08,0,0,1-1.33.92c-1.22.42-1.94-.82-1.94-3s.7-4.2,1.85-4.63c1.3-.49,1.65,1.51,1.65,2.88,0,.27,0,.49,0,.63Zm2.12-1.72c0-.86-.19-2.11-1-1.81s-1,1.63-1.1,2.57Z"/><path class="cls-1" d="M36.18,112c0-.77,0-1.39,0-2l.65-.24,0,1.22h0a2.74,2.74,0,0,1,1.35-1.91c.57-.21,1.46.08,1.46,2.67v4.5l-.75.26v-4.33c0-1.22-.25-2.14-1-1.88A2.23,2.23,0,0,0,37,112a4.19,4.19,0,0,0,0,.65v4.49l-.74.26Z"/><path class="cls-1" d="M43.93,114.47a2.82,2.82,0,0,1-1.23.87c-1.27.44-2.1-.83-2.1-3.15s.89-4.35,2.27-4.86a1.37,1.37,0,0,1,1.08,0l-.18,1.14a1,1,0,0,0-.9,0c-1,.36-1.49,1.84-1.49,3.42,0,1.76.62,2.63,1.46,2.33a2.22,2.22,0,0,0,1-.71Z"/><path class="cls-1" d="M45.73,104.25a1.09,1.09,0,0,1-.51,1c-.27.11-.47-.2-.47-.68a1.16,1.16,0,0,1,.49-1.06C45.54,103.45,45.73,103.76,45.73,104.25Zm-.88,10.19v-7.69l.79-.3v7.72Z"/><path class="cls-1" d="M49.4,112.87l-.06-1h0A2.58,2.58,0,0,1,48,113.55c-.89.3-1.34-.65-1.34-1.76a3.82,3.82,0,0,1,2.66-3.85v-.16c0-.64-.11-1.77-1-1.43a2.52,2.52,0,0,0-1.15,1l-.18-.87a3.2,3.2,0,0,1,1.44-1.23c1.37-.5,1.7,1,1.7,2.58v2.93c0,.68,0,1.34.07,1.86Zm-.12-4a2.42,2.42,0,0,0-1.87,2.42c0,.92.34,1.23.75,1.09a2.16,2.16,0,0,0,1.08-1.68,2.63,2.63,0,0,0,0-.47Z"/><path class="cls-1" d="M51.28,110.76a1.22,1.22,0,0,0,1.09.19,1.47,1.47,0,0,0,.89-1.49,1,1,0,0,0-.85-1.15,1.64,1.64,0,0,1-1.2-1.8,3,3,0,0,1,1.57-2.9,1.27,1.27,0,0,1,1.13.07l-.21,1.13a1,1,0,0,0-.94-.11,1.41,1.41,0,0,0-.77,1.36c0,.65.28.84.87,1,.8.24,1.21.78,1.21,2a3,3,0,0,1-1.72,3,1.41,1.41,0,0,1-1.27-.1Z"/><path class="cls-1" d="M58.3,106.27,57.62,110l-.88.3L59,98.3l1-.4,2.31,10.52-.94.32-.72-3.32Zm2.19-1.93-.65-3c-.15-.69-.25-1.32-.35-1.94h0c-.1.71-.21,1.44-.34,2.17l-.65,3.5Z"/><path class="cls-1" d="M63.28,102.56c0-1.06,0-1.9,0-2.67l.8-.3,0,1.4h0a3.26,3.26,0,0,1,1.77-2.26c1.21-.46,2.14.91,2.14,3.44,0,3-1.11,4.87-2.3,5.28a1.16,1.16,0,0,1-1.53-.77h0v4.48l-.89.29Zm.89,1.87a5.32,5.32,0,0,0,0,.6c.16,1,.71,1.51,1.36,1.28,1-.34,1.52-1.84,1.52-3.75,0-1.67-.53-2.9-1.49-2.54a2.94,2.94,0,0,0-1.37,2.36,4.48,4.48,0,0,0-.06.64Z"/><path class="cls-1" d="M69.19,93.75l.94-.36v12.34l-.94.32Z"/><path class="cls-1" d="M72.77,94a1.2,1.2,0,0,1-.6,1.17c-.34.13-.57-.2-.57-.72a1.26,1.26,0,0,1,.59-1.19C72.55,93.07,72.77,93.41,72.77,94Zm-1.06,11.23V96.73l1-.36v8.49Z"/><path class="cls-1" d="M78.09,102.67a3.85,3.85,0,0,1-1.56,1c-1.61.56-2.65-.83-2.65-3.43s1.12-4.94,2.87-5.6a2,2,0,0,1,1.36-.06l-.22,1.3a1.34,1.34,0,0,0-1.14,0c-1.24.45-1.9,2.15-1.9,3.93,0,2,.8,2.92,1.86,2.55a3.13,3.13,0,0,0,1.21-.85Z"/><path class="cls-1" d="M82.32,101.53l-.08-1.08,0,0a3.17,3.17,0,0,1-1.7,1.88c-1.12.39-1.68-.65-1.68-1.91A4.51,4.51,0,0,1,82.15,96v-.18c0-.72-.13-2-1.27-1.56a3.31,3.31,0,0,0-1.43,1.18l-.23-1A4.2,4.2,0,0,1,81,93.06c1.71-.64,2.13,1,2.13,2.79v3.29a18.23,18.23,0,0,0,.09,2.07Zm-.15-4.42a3,3,0,0,0-2.35,2.8c0,1,.44,1.36,1,1.18a2.52,2.52,0,0,0,1.34-1.93,2.39,2.39,0,0,0,.06-.53Z"/><path class="cls-1" d="M89.81,85.79V96.63c0,.8,0,1.7,0,2.3l-1,.33-.05-1.53h0a3.52,3.52,0,0,1-2,2.43c-1.38.48-2.44-1-2.44-3.64,0-2.93,1.16-5.17,2.56-5.69a1.27,1.27,0,0,1,1.75.71h0V86.2ZM88.75,94a4.8,4.8,0,0,0,0-.67c-.16-1-.74-1.61-1.53-1.32-1.08.4-1.72,2.1-1.72,4,0,1.79.57,3.08,1.7,2.68a3,3,0,0,0,1.55-2.47,5.55,5.55,0,0,0,0-.72Z"/><path class="cls-1" d="M94.91,97.19l-.08-1.12,0,0a3.42,3.42,0,0,1-1.84,2c-1.21.42-1.82-.65-1.82-2a4.81,4.81,0,0,1,3.6-4.65v-.19c0-.75-.14-2.06-1.37-1.6a3.68,3.68,0,0,0-1.56,1.25l-.24-1a4.46,4.46,0,0,1,2-1.54c1.85-.69,2.3,1,2.3,2.88v3.42a17.51,17.51,0,0,0,.1,2.16Zm-.16-4.59a3.14,3.14,0,0,0-2.54,3c0,1.06.47,1.4,1,1.21a2.69,2.69,0,0,0,1.46-2,2.64,2.64,0,0,0,.06-.55Z"/><path class="cls-1" d="M97.47,94.6a1.78,1.78,0,0,0,1.48.15,1.82,1.82,0,0,0,1.21-1.8c0-.8-.32-1.13-1.16-1.29a1.82,1.82,0,0,1-1.63-2,3.69,3.69,0,0,1,2.13-3.49,1.93,1.93,0,0,1,1.54,0l-.28,1.33a1.49,1.49,0,0,0-1.28-.06,1.71,1.71,0,0,0-1,1.64c0,.76.37,1,1.18,1.13,1.09.22,1.64.83,1.64,2.21A3.64,3.64,0,0,1,98.92,96a2.22,2.22,0,0,1-1.73,0Z"/></g></svg>