<?xml version="1.0" encoding="utf-8"?>
<!-- Generator: Adobe Illustrator 19.2.1, SVG Export Plug-In . SVG Version: 6.00 Build 0)  -->
<svg version="1.1" id="Capa_1" xmlns="http://www.w3.org/2000/svg" xmlns:xlink="http://www.w3.org/1999/xlink" x="0px" y="0px"
	 viewBox="0 0 841.9 595.3" style="enable-background:new 0 0 841.9 595.3;" xml:space="preserve">
<style type="text/css">
	.st0{clip-path:url(#SVGID_2_);fill:#ADBEC4;}
	.st1{clip-path:url(#SVGID_4_);fill:#0E3945;}
	.st2{clip-path:url(#SVGID_4_);fill:#EE6F4D;}
	.st3{clip-path:url(#SVGID_4_);fill:#F18969;}
	.st4{clip-path:url(#SVGID_4_);fill:#174453;}
	.st5{clip-path:url(#SVGID_4_);fill:#CFD8DC;}
	.st6{clip-path:url(#SVGID_4_);fill:#DC624D;}
	.st7{clip-path:url(#SVGID_4_);fill:#1C4851;}
	.st8{clip-path:url(#SVGID_4_);fill:#6297B2;}
	.st9{clip-path:url(#SVGID_4_);fill:#225361;}
	.st10{clip-path:url(#SVGID_4_);fill:#8C3940;}
	.st11{clip-path:url(#SVGID_4_);fill:#662C33;}
	.st12{clip-path:url(#SVGID_4_);fill:#CE364D;}
	.st13{clip-path:url(#SVGID_4_);fill:#E94354;}
	.st14{clip-path:url(#SVGID_4_);fill:#A12F45;}
	.st15{clip-path:url(#SVGID_4_);fill:#F8B77A;}
	.st16{clip-path:url(#SVGID_4_);fill:#ADBEC4;}
	.st17{clip-path:url(#SVGID_4_);fill:#10476B;}
	.st18{clip-path:url(#SVGID_4_);fill:#115F9B;}
	.st19{clip-path:url(#SVGID_4_);fill:#245967;}
	.st20{clip-path:url(#SVGID_4_);fill:#8BBDDB;}
	.st21{clip-path:url(#SVGID_4_);fill:#406676;}
</style>
<g>
	<defs>
		<rect id="SVGID_1_" x="19.1" y="13.3" width="744.5" height="558.4"/>
	</defs>
	<clipPath id="SVGID_2_">
		<use xlink:href="#SVGID_1_"  style="overflow:visible;"/>
	</clipPath>
	<path class="st0" d="M173.1,571.7H83.6c-0.8,0-1.5-0.7-1.5-1.5v-4.1c0-0.8,0.7-1.5,1.5-1.5h89.5c0.8,0,1.5,0.7,1.5,1.5v4.1
		C174.6,571,173.9,571.7,173.1,571.7"/>
	<path class="st0" d="M723.8,571.7h-26.4c-0.8,0-1.5-0.7-1.5-1.5v-4.1c0-0.8,0.7-1.5,1.5-1.5h26.4c0.8,0,1.5,0.7,1.5,1.5v4.1
		C725.3,571,724.6,571.7,723.8,571.7"/>
	<path class="st0" d="M336.7,571.7h-89.5c-0.8,0-1.5-0.7-1.5-1.5v-4.1c0-0.8,0.7-1.5,1.5-1.5h89.5c0.8,0,1.5,0.7,1.5,1.5v4.1
		C338.1,571,337.5,571.7,336.7,571.7"/>
	<path class="st0" d="M464.3,571.7h-89.5c-0.8,0-1.5-0.7-1.5-1.5v-4.1c0-0.8,0.7-1.5,1.5-1.5h89.5c0.8,0,1.5,0.7,1.5,1.5v4.1
		C465.7,571,465.1,571.7,464.3,571.7"/>
	<path class="st0" d="M620.6,571.7H499.5c-0.8,0-1.5-0.7-1.5-1.5v-4.1c0-0.8,0.7-1.5,1.5-1.5h121.1c0.8,0,1.5,0.7,1.5,1.5v4.1
		C622,571,621.4,571.7,620.6,571.7"/>
</g>
<g>
	<defs>
		<rect id="SVGID_3_" x="48.7" y="18.5" width="744.5" height="558.4"/>
	</defs>
	<clipPath id="SVGID_4_">
		<use xlink:href="#SVGID_3_"  style="overflow:visible;"/>
	</clipPath>
	<path class="st1" d="M230.5,126.4c0,0-9.2-6.2-22.6-1.4c-13.4,4.8-16.4,22.9-13.1,37.6c3.3,14.7-15.2,64.8-15.2,64.8
		s9.6,13.5,43.2,8.3c0,0,25-45.5,23.2-78.2C244.1,124.8,230.5,126.4,230.5,126.4"/>
	<path class="st2" d="M241.1,182.8c12.6-4,20.3,6.5,27.6,26c7.2,19.6,9.7,21.5,9.7,21.5l27.9,17.9l-2.3,10.5c0,0-26.6-10.4-33-17
		c-6.4-6.6-24.9-40.1-24.9-40.1L241.1,182.8z"/>
	<path class="st3" d="M179.6,309.2c0,0-5.5,27.7-4.6,69.5c0,0-21.6,31.8-3.8,122.6h9.3c0,0,7.6-77.2,13.5-98.2
		c5.8-20.9,27.4-27.3,28.6-91L179.6,309.2z"/>
	<path class="st3" d="M136.9,390.7c-5.4-17.9-19.4-47.8-55.2-88.4c0,0-2.1-1.1-5,0.7c-3,1.9-3,4-3,4s17.9,39.1,29.4,67.8
		c3.9,9.6,13.2,16,23.6,16H136.9z"/>
	<path class="st4" d="M202.1,425.3c0,0,0.1,13.3-8.6,13.6c-12.4,0.3-12.8-13.1-26.8-12.7c-14,0.4-42.9,3.9-52.1-18
		c-4.7-11.3,1.8-25.8-13.6-36.8c-15.3-10.9-7.9-23.2,0-29.8c7.9-6.5-3.4-13.7,4.8-17.1c2-0.8,3.9-0.7,5.7-0.1c1.1,0.4,2,0.9,3,1.5
		c4.3,2.9,7.4,7.9,7.4,7.9c23.2-63.6,64.5-71.9,64.5-71.9l40.9,14.1C228.1,374.9,202.1,425.3,202.1,425.3"/>
	<path class="st5" d="M241.1,182.8c0,0-9.5,3.2-23.1,1.2c-13.6-2.1-18-10.6-27.5-5.1c-14.3,8.2-7.6,36.5-4,51.3
		c1.3,5.5,3,19.9-0.2,31.8c0,0,19.1,14.8,40.9,14.1l11.9-25.9C239,250.2,264.9,219.2,241.1,182.8"/>
	<path class="st2" d="M216.9,159.1c0,0,1.6,13.4-3.4,25.6c0,0,7.1,10.4,13.8,3.6c0,0,0.6-12.3,8.2-26.2
		C240.6,152.8,216.9,159.1,216.9,159.1"/>
	<path class="st3" d="M206,159.5c0,0-6-3.8-5.3,2c0.8,6.7,7.4,8.1,8.1,5.7C209.5,164.9,206,159.5,206,159.5"/>
	<path class="st3" d="M240.3,152.2c0,0,3.8-6,5.7-0.4c2.2,6.4-3.2,10.4-4.9,8.6C239.4,158.6,240.3,152.2,240.3,152.2"/>
	<path class="st3" d="M228,179.7c-10.8,2.4-18.5-3.3-23.3-24.5c-2.4-10.9,1.6-18.9,13.7-21.6c12.1-2.7,18.7,2.8,21.2,13.8
		C244.7,170.2,239.1,177.2,228,179.7"/>
	<path class="st6" d="M237.7,155.8c0.4,1-0.3,2.3-1.6,2.9c-1.3,0.5-2.7,0.1-3.2-0.9c-0.4-1,0.3-2.3,1.6-2.9
		C235.9,154.3,237.3,154.7,237.7,155.8"/>
	<path class="st6" d="M215.6,161.3c0.2,1.1-0.8,2.2-2.2,2.4c-1.4,0.2-2.7-0.5-2.8-1.6c-0.2-1.1,0.8-2.2,2.2-2.4
		C214.1,159.5,215.4,160.2,215.6,161.3"/>
	<path class="st1" d="M230.2,145.9c-0.1,0-0.2,0-0.3-0.1c-1.9-1.2-4.5-0.6-4.5-0.6c-0.3,0.1-0.6-0.1-0.7-0.4
		c-0.1-0.3,0.1-0.6,0.4-0.7c0.1,0,3.1-0.8,5.4,0.7c0.3,0.2,0.3,0.5,0.2,0.8C230.5,145.8,230.4,145.9,230.2,145.9"/>
	<path class="st1" d="M209.8,150.5c-0.1,0-0.2,0-0.3-0.1c-0.3-0.2-0.3-0.5-0.2-0.8c1.4-2.3,4.4-2.9,4.6-3c0.3,0,0.6,0.1,0.6,0.4
		c0.1,0.3-0.1,0.6-0.4,0.6c0,0-2.7,0.5-3.8,2.4C210.2,150.4,210,150.5,209.8,150.5"/>
	<path class="st7" d="M230.7,151.8c0.3,1.3-0.1,2.6-0.8,2.7c-0.7,0.2-1.6-0.8-1.9-2.1c-0.3-1.3,0.1-2.6,0.8-2.7
		C229.5,149.5,230.4,150.5,230.7,151.8"/>
	<path class="st7" d="M215.6,155.1c0.3,1.3-0.1,2.6-0.8,2.7c-0.7,0.2-1.6-0.8-1.9-2.1c-0.3-1.3,0.1-2.6,0.8-2.7
		C214.5,152.8,215.3,153.7,215.6,155.1"/>
	<path class="st7" d="M220.5,167.8c0,0,7-0.6,10-3.2c0,0-0.8,5.4-4.6,5.8C222.1,170.8,220.5,167.8,220.5,167.8"/>
	<path class="st7" d="M226.9,152c0,0,0.2-3.5,1.6-3.6c1.4-0.1,3,2.6,3,2.6l1.7-1.4l-1.9,0.7c0,0-1.7-2.7-2.9-2.5
		C226.5,148.1,226.9,152,226.9,152"/>
	<path class="st7" d="M216.5,154.7c0,0-1.7-3.1-3-2.6c-1.2,0.5-1.6,3.6-1.6,3.6l-2.1-0.6l2-0.2c0,0,0.3-3.2,1.6-3.5
		C215.2,151.1,216.5,154.7,216.5,154.7"/>
	<path class="st6" d="M224,161.5l-0.6-1.1c0.9-0.5,1-1.1,0.9-1.6c-0.1-0.6-0.7-1.1-1-1.2c-0.2,0-0.4,0.2-0.5,0.6l-1.1-0.4
		c0.5-1.3,1.4-1.4,1.8-1.3c1,0.1,1.9,1,2.1,2.1C225.7,159.8,225.2,160.9,224,161.5"/>
	<path class="st1" d="M206.9,163.4c0,0-3.3-12.3-1.4-21c0,0,9.4-13.1,27.6-6.6c0,0,5.4,8.7,8.1,20.8c0,0,0.7-4.4-1.1-14.1
		c-1.8-9.7-10.4-15.8-22.2-13.8C206,130.6,193.3,142.4,206.9,163.4"/>
	<path class="st1" d="M226,133c0,0,0.7,3.2-2.4,11.5c0,0-2.2-2.3-4.9,0c-2.6,2.3-8,1.6-9.8,2.8c-1.8,1.3-1.8,4.2-1.8,4.2
		s-1.6-3.6,0-7.9c0,0-3.5,4.5-3.1,10.1c0,0-4.8-0.8-4.6-8.7c0.2-7.9,11.5-20.8,24.1-19.9c12.6,0.8,15.7,20.9,15.7,20.9
		s-1.2-0.9-3-0.5c0,0-0.3-4.2-3.1-9.6c0,0,1.3,3.9,0,8c0,0-3.5-1.8-6.3-1.3C226.8,142.5,228.5,139.1,226,133"/>
	<path class="st3" d="M187.3,181.4c6.2-4.9,10.9,1.3,12.1,9.9c1.2,8.5-10,58.9-18.5,57c-3.3-0.7-4.7-13.9-4.7-13.9
		s3.4-14.2,5.5-35.5C182.7,189.1,184.1,184,187.3,181.4"/>
	<path class="st3" d="M169.4,241.2c-8.3-7.9-23.1-34.1-26.9-47.4l6.3-2.5c0,0,18.9,27.1,27.6,33.9c8.6,6.8,11.7,14.4,7.8,20.9
		C180.3,252.6,171.1,242.8,169.4,241.2"/>
	<path class="st3" d="M145.1,176.3c-0.4,8.6,6.5,10.6,3.4,17.2c-0.6,1.4-1.6,2.1-2.6,2.4c-1.9,0.7-4,0-5.5-1.4
		c-3.3-3.4-8.4-6.9-11.2-8.5c-3.1-1.8-1.3-2.3-1.3-2.3c-0.3-0.1-0.6-0.3-0.9-0.4c-2.2-0.9-4-1.3-2.4-2.3c1.8-1.1,8.2,1.2,8.2,1.2
		c-8.3-5.6-10.6-4.2-9.1-5.4c2.1-1.6,10,2.1,10.2,2.2c-4.4-4.2-7.6-5.1-5.9-5.7c1.8-0.6,10.5,5.7,13.7,8c0.7,0.5,1.2,0.9,1.2,0.9
		C142.9,175.3,145.1,176.3,145.1,176.3"/>
	<path class="st2" d="M141.8,181.5c0.7,0.5,1.2,0.9,1.2,0.9s-1.5,2.5,0.4,5.8C143.4,188.1,139.9,185.8,141.8,181.5"/>
	<path class="st2" d="M134.5,186.4c-0.7-0.4-4.9-2.8-6.6-2.6c-0.3-0.1-0.6-0.3-0.9-0.4C128.1,181.9,133.7,185.8,134.5,186.4"/>
	<path class="st8" d="M167.6,313.5c0,0.9-0.8,1.7-1.7,1.7c-0.9,0-1.7-0.8-1.7-1.7s0.8-1.7,1.7-1.7
		C166.8,311.8,167.6,312.5,167.6,313.5"/>
	<path class="st8" d="M197.6,325.1c0,0.9-0.8,1.7-1.7,1.7c-0.9,0-1.7-0.8-1.7-1.7s0.8-1.7,1.7-1.7
		C196.9,323.4,197.6,324.1,197.6,325.1"/>
	<path class="st8" d="M223.2,331.3c0,0.9-0.8,1.7-1.7,1.7c-0.9,0-1.7-0.8-1.7-1.7s0.8-1.7,1.7-1.7
		C222.4,329.6,223.2,330.3,223.2,331.3"/>
	<path class="st8" d="M183.9,291.5c0,0.9-0.8,1.7-1.7,1.7c-0.9,0-1.7-0.8-1.7-1.7s0.8-1.7,1.7-1.7
		C183.1,289.8,183.9,290.6,183.9,291.5"/>
	<path class="st8" d="M189.5,307.5c0,0.9-0.8,1.7-1.7,1.7c-0.9,0-1.7-0.8-1.7-1.7s0.8-1.7,1.7-1.7
		C188.8,305.8,189.5,306.5,189.5,307.5"/>
	<path class="st8" d="M216.2,316.6c0,0.9-0.8,1.7-1.7,1.7c-0.9,0-1.7-0.8-1.7-1.7s0.8-1.7,1.7-1.7
		C215.4,314.9,216.2,315.7,216.2,316.6"/>
	<path class="st8" d="M219.8,289c0,0.9-0.8,1.7-1.7,1.7c-0.9,0-1.7-0.8-1.7-1.7s0.8-1.7,1.7-1.7C219.1,287.3,219.8,288.1,219.8,289"
		/>
	<path class="st8" d="M202.4,283.3c0,0.9-0.8,1.7-1.7,1.7c-0.9,0-1.7-0.8-1.7-1.7s0.8-1.7,1.7-1.7
		C201.6,281.6,202.4,282.3,202.4,283.3"/>
	<path class="st8" d="M152.7,346.3c0,0.9-0.8,1.7-1.7,1.7s-1.7-0.8-1.7-1.7s0.8-1.7,1.7-1.7S152.7,345.4,152.7,346.3"/>
	<path class="st8" d="M128.7,339.1c0,0.9-0.8,1.7-1.7,1.7c-0.9,0-1.7-0.8-1.7-1.7s0.8-1.7,1.7-1.7
		C127.9,337.5,128.7,338.2,128.7,339.1"/>
	<path class="st8" d="M114.4,326c-0.3,0.5-0.8,0.8-1.4,0.8c-0.9,0-1.7-0.8-1.7-1.7c0-0.2,0-0.4,0.1-0.6
		C112.5,324.8,113.4,325.4,114.4,326"/>
	<path class="st8" d="M161.3,368.3c0,0.9-0.8,1.7-1.7,1.7s-1.7-0.8-1.7-1.7c0-0.9,0.8-1.7,1.7-1.7S161.3,367.3,161.3,368.3"/>
	<path class="st8" d="M118.2,392.1c0,0.9-0.8,1.7-1.7,1.7c-0.9,0-1.7-0.8-1.7-1.7c0-0.9,0.8-1.7,1.7-1.7
		C117.5,390.4,118.2,391.2,118.2,392.1"/>
	<path class="st8" d="M135.8,377.7c0,0.9-0.8,1.7-1.7,1.7c-0.9,0-1.7-0.8-1.7-1.7c0-0.9,0.8-1.7,1.7-1.7
		C135.1,376,135.8,376.7,135.8,377.7"/>
	<path class="st8" d="M109.6,364.9c0,0.9-0.8,1.7-1.7,1.7s-1.7-0.8-1.7-1.7c0-0.9,0.8-1.7,1.7-1.7S109.6,363.9,109.6,364.9"/>
	<path class="st8" d="M130.8,415.2c0,0.9-0.8,1.7-1.7,1.7c-0.9,0-1.7-0.8-1.7-1.7s0.8-1.7,1.7-1.7
		C130,413.6,130.8,414.3,130.8,415.2"/>
	<path class="st8" d="M146.8,326.7c0,0.9-0.8,1.7-1.7,1.7c-0.9,0-1.7-0.8-1.7-1.7s0.8-1.7,1.7-1.7C146,325,146.8,325.8,146.8,326.7"
		/>
	<path class="st8" d="M163,298.4c0,0.9-0.8,1.7-1.7,1.7c-0.9,0-1.7-0.8-1.7-1.7s0.8-1.7,1.7-1.7C162.2,296.7,163,297.5,163,298.4"/>
	<path class="st8" d="M181.3,274.8c0,0.9-0.8,1.7-1.7,1.7s-1.7-0.8-1.7-1.7s0.8-1.7,1.7-1.7S181.3,273.9,181.3,274.8"/>
	<path class="st8" d="M144.2,309.2c0,0.9-0.8,1.7-1.7,1.7c-0.9,0-1.7-0.8-1.7-1.7s0.8-1.7,1.7-1.7
		C143.4,307.5,144.2,308.2,144.2,309.2"/>
	<path class="st8" d="M164.6,281.6c0,0.9-0.8,1.7-1.7,1.7s-1.7-0.8-1.7-1.7s0.8-1.7,1.7-1.7S164.6,280.6,164.6,281.6"/>
	<path class="st8" d="M132.4,357.4c0,0.9-0.8,1.7-1.7,1.7c-0.9,0-1.7-0.8-1.7-1.7s0.8-1.7,1.7-1.7
		C131.7,355.7,132.4,356.4,132.4,357.4"/>
	<path class="st8" d="M111.3,342.5c0,0.9-0.8,1.7-1.7,1.7c-0.9,0-1.7-0.8-1.7-1.7s0.8-1.7,1.7-1.7
		C110.5,340.8,111.3,341.6,111.3,342.5"/>
	<path class="st8" d="M172.6,337.5c0,0.9-0.8,1.7-1.7,1.7c-0.9,0-1.7-0.8-1.7-1.7c0-0.9,0.8-1.7,1.7-1.7
		C171.9,335.8,172.6,336.5,172.6,337.5"/>
	<path class="st8" d="M207.4,346.3c0,0.9-0.8,1.7-1.7,1.7c-0.9,0-1.7-0.8-1.7-1.7s0.8-1.7,1.7-1.7
		C206.7,344.6,207.4,345.4,207.4,346.3"/>
	<path class="st8" d="M205.7,298.4c0,0.9-0.8,1.7-1.7,1.7c-0.9,0-1.7-0.8-1.7-1.7s0.8-1.7,1.7-1.7
		C205,296.7,205.7,297.5,205.7,298.4"/>
	<path class="st8" d="M226,301.9c0,0.9-0.8,1.7-1.7,1.7s-1.7-0.8-1.7-1.7s0.8-1.7,1.7-1.7S226,301,226,301.9"/>
	<path class="st8" d="M185.6,359.1c0,0.9-0.8,1.7-1.7,1.7c-0.9,0-1.7-0.8-1.7-1.7s0.8-1.7,1.7-1.7
		C184.8,357.4,185.6,358.1,185.6,359.1"/>
	<path class="st8" d="M170.9,389c0,0.9-0.8,1.7-1.7,1.7s-1.7-0.8-1.7-1.7s0.8-1.7,1.7-1.7S170.9,388.1,170.9,389"/>
	<path class="st8" d="M145.1,393.8c0,0.9-0.8,1.7-1.7,1.7s-1.7-0.8-1.7-1.7c0-0.9,0.8-1.7,1.7-1.7S145.1,392.9,145.1,393.8"/>
	<path class="st8" d="M216.2,368.3c0,0.9-0.8,1.7-1.7,1.7c-0.9,0-1.7-0.8-1.7-1.7c0-0.9,0.8-1.7,1.7-1.7
		C215.4,366.6,216.2,367.3,216.2,368.3"/>
	<path class="st8" d="M192.9,381c0,0.9-0.8,1.7-1.7,1.7c-0.9,0-1.7-0.8-1.7-1.7s0.8-1.7,1.7-1.7C192.2,379.3,192.9,380.1,192.9,381"
		/>
	<path class="st8" d="M157.9,418.6c0,0.9-0.8,1.7-1.7,1.7c-0.9,0-1.7-0.8-1.7-1.7c0-0.9,0.8-1.7,1.7-1.7
		C157.2,416.9,157.9,417.7,157.9,418.6"/>
	<path class="st8" d="M183.9,409.8c0,0.9-0.8,1.7-1.7,1.7c-0.9,0-1.7-0.8-1.7-1.7c0-0.9,0.8-1.7,1.7-1.7
		C183.1,408.2,183.9,408.9,183.9,409.8"/>
	<path class="st8" d="M208.9,399.9c0,0.9-0.8,1.7-1.7,1.7s-1.7-0.8-1.7-1.7c0-0.9,0.8-1.7,1.7-1.7S208.9,399,208.9,399.9"/>
	<path class="st8" d="M197.6,428.9c0,0.9-0.8,1.7-1.7,1.7c-0.9,0-1.7-0.8-1.7-1.7c0-0.9,0.8-1.7,1.7-1.7
		C196.9,427.2,197.6,428,197.6,428.9"/>
	<path class="st4" d="M195.8,517.5h-27.7c-1.8-5.1,1.5-10.3,1-14.9c-1-7.7,3.5-3.4,3.5-3.4c0.8-8.2,12.4-9.8,12.3-6.1
		c-0.2,5.4,0.9,8.8,2.4,11c3.1,4.5,8.2,4.5,9.1,7.7c0.1,0.3,0.2,0.6,0.2,0.9C197.4,516.8,195.8,517.5,195.8,517.5"/>
	<path class="st9" d="M196.6,512.7c-5.7,1.3-18.9-0.4-19.5-3.7c-0.5-3.2,6.6-4.7,10.1-4.9c3.1,4.5,8.2,4.5,9.1,7.7
		C196.4,512.1,196.5,512.5,196.6,512.7"/>
	<path class="st4" d="M82.1,303.4c-2.9-2.7-7.7,1.8-7.7,1.8s2.6,3.8,0.9,5.4c-1.7,1.5-3.6-2-6.9-0.4c-0.3,0.1-0.5,0.3-0.8,0.5
		c-2.6,1.5-5.2,4.7-7.4,7.2c-0.4,0.5-0.9,0.9-1.2,1.3c-2.5,2.6-9,4.2-10.2-2.8c-1.2-7,6.7-15.2,15.3-22.8c8.7-7.5,14.2-3.1,14.2-3.1
		s2,3.2,2,5.1c0,2,1.8,2.9,2.7,4.8C84.1,302.1,82.1,303.4,82.1,303.4"/>
	<path class="st9" d="M67.6,310.5c-2.6,1.5-5.2,4.7-7.4,7.2c-3.2,0.8-6.1,0.5-6.6-2.5c-1.1-7.4,13.6-16.7,12.4-11.5
		C65.4,306.2,66.5,308.7,67.6,310.5"/>
	<path class="st5" d="M579.7,505.6c-1.4-0.7-2.6-2.3-3.7-4.3c0,0-1-5.9,0-12.1c1-6.2-1.7-11.2-10.5-13.1
		c-8.5-1.8-13.6,2.3-11.6,19.4c0,0,0,0,0,0c-1.3,7.1-1.6,15.2,1.4,22.1h26.2C581.4,517.5,585.6,508.7,579.7,505.6"/>
	<path class="st3" d="M602.6,413.4c0,0,0,17.1-9.6,34.6c-9.8,17.8-21.9,42.3-21.9,42.3s-8.1,7.9-13.2-5.2c0,0,3.6-45.5,11.9-62.1
		C578.1,406.3,602.6,413.4,602.6,413.4"/>
	<path class="st3" d="M728.3,357.8c0,0,15.6,65.6,25.5,82.9c0,0-2.3,7.2-13,9.4c0,0-34-49.9-36.1-70.9
		C702.5,358.2,728.3,357.8,728.3,357.8"/>
	<path class="st10" d="M735.8,373.2c-4.2,10-36.2,10.5-36.2,10.5l-2.5-3.6l-0.6-0.9l-5-7.4c0,0-53.1-52.1-63.5-47.7h0
		c-0.3,0.1-0.6,0.3-0.9,0.5c-7.1,5.1-7.8,32.9-16.2,79.6c-0.8,4.4-2.6,9.6-3.9,13.2c-0.2,0.4-0.3,0.8-0.4,1.1
		c-0.8,2-1.3,3.2-1.3,3.2c-32.4,13.1-43.1-12.8-43.1-12.8s0.4-0.8,0.9-2c0.1-0.3,0.3-0.6,0.4-0.9c1.7-3.7,4.4-10.2,4.4-13.7
		c0-3.8-0.1-7.4-0.1-10.9c0-0.3,0-0.6,0-0.9c-0.1-11.2,0-21,0-29.5v-0.9c0-3.7,0.1-7.1,0.2-10.4v-0.9c0.3-14.8,0.8-24.6,1.3-31.2
		c0-0.3,0.1-0.6,0.1-0.9c0.9-11.1,1.8-12.1,1.8-12.1l-6.5-45.2h70.9c0,0,10.6,10.7,24.5,24.7c0.3,0.3,0.6,0.6,0.9,0.9
		c5,5.1,10.4,10.6,15.8,16.3c0.2,0.2,0.4,0.4,0.6,0.6c2.1,2.2,4.3,4.4,6.4,6.6c0.3,0.3,0.5,0.5,0.8,0.8c7.1,7.4,14,14.6,19.9,21
		c0.2,0.2,0.4,0.4,0.6,0.6c8.1,8.7,14.2,15.7,16.3,19c5.6,8.6,10,19.8,12.4,26.7v0c0.1,0.3,0.2,0.6,0.3,0.9
		C735.2,371,735.8,373.2,735.8,373.2"/>
	<path class="st11" d="M581.7,301.5c-2.9,3.4-7.1,5.5-12.5,6.3c0-0.3,0.1-0.6,0.1-0.9c5.1-0.7,9.1-2.7,11.8-6
		c4.9-5.7,4.1-13.5,4.1-13.6l0.9-0.1C586,287.5,586.8,295.4,581.7,301.5"/>
	<path class="st11" d="M660.8,275.1c-0.3,0-0.5,0-0.8,0c-7.9,0-16.1-8.6-16.5-9.1l0.6-0.6c0.1,0.1,8.3,8.7,15.9,8.8
		C660.3,274.6,660.6,274.8,660.8,275.1"/>
	<path class="st11" d="M607,417.3c-0.2,0.4-0.3,0.8-0.4,1.1c-5.3,1.9-10.1,2.7-14.5,2.7c-14,0-23.7-8.1-29-14.3
		c0.1-0.3,0.3-0.6,0.4-0.9C570.3,414,584.8,425.8,607,417.3"/>
	<path class="st11" d="M626.1,307.8c1.2,5,1.9,10.5,2,16.3c-0.3,0.1-0.6,0.3-0.9,0.5c0-26.4-15.3-47.1-15.5-47.3l0.7-0.5
		c0.1,0.2,9.2,12.4,13.5,30.1c1.8-1.2,3-2.9,3.5-5c2.2-9.3-7.8-24.4-7.9-24.6l0.7-0.5c0.4,0.6,10.3,15.6,8.1,25.3
		C629.6,304.5,628.2,306.5,626.1,307.8"/>
	<path class="st11" d="M705,321.1c-2.6,2.8-5.1,5.3-5.3,5.5l-0.5,0.5l-0.2-0.6c-3.4-9-25.5-28.5-25.7-28.6l-0.3-0.2l3.7-6.1
		c0.2,0.2,0.4,0.4,0.6,0.6l-3.1,5.1c4.3,1.5,7.3,1.8,9.5,1.5c0.3,0.3,0.5,0.5,0.8,0.8c-0.7,0.1-1.5,0.2-2.3,0.2
		c-2,0-4.2-0.4-6.8-1.2c5,4.5,20.6,18.9,24.1,27c1.4-1.4,3.1-3.2,4.8-5C704.6,320.7,704.8,320.9,705,321.1"/>
	<path class="st11" d="M583.9,381.3l-0.3,0.1c-0.3,0.1-4.3,0.9-8.9,0.9c-2.3,0-4.7-0.2-6.9-0.8c0-0.3,0-0.6,0-0.9
		c5.8,1.7,13.5,0.4,15.3,0.1l-1.5-36.4c-0.8,2-2.5,4.7-5.5,6.2c-1.5,0.7-3.1,1.1-4.9,1.1c-1.1,0-2.2-0.1-3.4-0.4v-0.9
		c3,0.7,5.7,0.5,7.8-0.6c3.7-1.8,5.2-5.8,5.6-7.3c-2.9,0.4-8.8-1.1-13.3-2.4v-0.9c4.9,1.5,11.4,3.2,13.8,2.3l0.6-0.2L583.9,381.3z"
		/>
	<path class="st11" d="M734.1,367.7c-5.1,5-15.5,12.7-31.6,12.7c-1.7,0-3.5-0.1-5.3-0.3l-0.6-0.9c19.5,2.2,31.8-6.9,37.2-12.4
		C733.9,367.1,734,367.4,734.1,367.7"/>
	<path class="st12" d="M648.6,57.5c0,0-1.9-4.5-10.2-4.5c-6.3,0-8.8,3.5-8.8,3.5c-3.8,11.1-7.9,53.6-9.3,55.1
		c-0.7,0.8-47.8,32.5-47.8,32.5C598.1,144.5,614,176,614,176c0.8-10.3,29.7-51.3,30-55C644.6,114.1,656.8,83.4,648.6,57.5"/>
	<path class="st12" d="M566.9,279.6c0,0-0.2,8.9,2.6,9.4c2.9,0.6,26.2,7.5,53.1-4.7c26.9-12.2,31.5-21.3,23.6-28
		C638.4,249.6,566.9,279.6,566.9,279.6"/>
	<path class="st13" d="M556.2,150.2c0,0-24.4-2.9-38.4,3.2c0,0-3.9,17.3,15.3,56.1c19.2,38.8,14.8,63.2,36.5,72.4
		c19.2,8.2,76-16.1,77.8-24.2c4.5-20.3-30.2-55.8-32.4-76.4C612.7,160.7,592.6,129.8,556.2,150.2"/>
	<path class="st12" d="M517.7,153.4c-17.1,6.1-36.3,25.2-36.3,34.5c0,9.2,16,12.8,16,12.8l26.3-12.8c0,0,7.5-5.3,2.7-20.6
		C521.7,152,517.7,153.4,517.7,153.4"/>
	<path class="st5" d="M587.9,170.4c-5.1,0-11.4-1.8-15.4-4.6c-2.2-1.5-3.5-3.3-3.7-5c-1-6.1,4.9-9.1,5.2-9.3l0.8,1.6
		c-0.2,0.1-5,2.6-4.3,7.4c0.2,1.3,1.2,2.6,3,3.9c4.4,3.1,12,5,17,4.1c2.2-0.4,3.7-1.2,4.3-2.4c0.8-1.5,0.1-3.1,0.1-3.1l1.6-0.7
		c0,0.1,1,2.4-0.2,4.6c-0.9,1.7-2.8,2.8-5.6,3.3C589.9,170.4,588.9,170.4,587.9,170.4"/>
	<path class="st5" d="M566.2,188.9c-3.8,0-10.1-1.6-10.9-7.8c-0.4-3.2-0.2-5.8,0.1-8.1c0.4-3.4,0.7-6.1-1.3-9.4
		c-3.3-5.3-7.8-5.7-8-5.7l0.1-1.7c0.2,0,5.6,0.4,9.3,6.5c2.3,3.7,1.9,7,1.6,10.5c-0.3,2.3-0.5,4.7-0.1,7.7c0.9,6.7,9.5,6.3,9.8,6.3
		l0.1,1.7C566.8,188.9,566.5,188.9,566.2,188.9"/>
	<path class="st12" d="M571.6,157.5c0,0,12.9-8.8,9.9-18.3c-3.1-9.5-44.7-8.9-55.4,2.5c-10.7,11.4,23.2,18.9,23.2,18.9
		C551.9,155.3,568.6,154.8,571.6,157.5"/>
	<path class="st14" d="M548.3,156c-6.1-2.1-9.8-6.5-8.4-11.6c1.3-5.1,27.7-5.2,32.7-1.2C577.5,147.3,570.5,163.5,548.3,156"/>
	<path class="st2" d="M545.4,141.7c0,0,5.4,9.3,2.9,14.4c0,0,18.6,6.4,18.6-4c0,0-3.5-7.8-2.2-12.8L545.4,141.7z"/>
	<path class="st15" d="M539.2,133.6c0,0-9.1-14.6-8.3-28.6c0.4-7,4-9.7,4-9.7s-2.9-4,0.2-10.2c0,0,4.3,5,19.4,3.4
		c14.6-1.5,16,8.9,16,8.9c10.4,1.5,3.4,33-3.9,36.3H539.2z"/>
	<path class="st3" d="M535.3,120c0,0-5.3-5.2-5.9,0.9c-0.7,7.1,5.7,10,7,7.7C537.7,126.4,535.3,120,535.3,120"/>
	<path class="st3" d="M572.1,120.4c0,0,5.3-5.2,5.9,0.9c0.7,7.1-5.7,10-7,7.7C569.8,126.7,572.1,120.4,572.1,120.4"/>
	<path class="st3" d="M553.2,145.8c-11.7,0-18.2-7.6-18.2-30.4c0-11.8,6-19,19-19c13.1,0,18.6,7.2,18.6,19
		C572.5,139.8,565.2,145.8,553.2,145.8"/>
	<path class="st6" d="M568.7,123.5c0.2,1.2-0.8,2.3-2.3,2.6c-1.5,0.3-2.8-0.5-3-1.7c-0.2-1.2,0.8-2.3,2.3-2.6
		C567.1,121.5,568.5,122.3,568.7,123.5"/>
	<path class="st6" d="M544.7,124.1c-0.1,1.2-1.3,2.1-2.8,2c-1.5-0.1-2.6-1.1-2.5-2.3c0.1-1.2,1.3-2.1,2.8-2
		C543.7,121.9,544.8,122.9,544.7,124.1"/>
	<path class="st15" d="M563.6,111.2c-0.2,0-0.3,0-0.4-0.1c-1.9-1.4-4.6-0.9-4.7-0.9c-0.3,0.1-0.6-0.1-0.7-0.5
		c-0.1-0.3,0.1-0.6,0.5-0.7c0.1,0,3.3-0.6,5.6,1.1c0.3,0.2,0.3,0.6,0.1,0.8C563.8,111.1,563.7,111.2,563.6,111.2"/>
	<path class="st15" d="M541.2,111.3c-0.1,0-0.3-0.1-0.4-0.2c-0.2-0.3-0.2-0.6,0.1-0.8c2.2-1.8,5.4-1.3,5.6-1.3
		c0.3,0.1,0.5,0.3,0.5,0.7c0,0.3-0.4,0.5-0.7,0.5c0,0-2.9-0.4-4.6,1.1C541.6,111.3,541.4,111.3,541.2,111.3"/>
	<path class="st7" d="M562.3,117.8c0,1.4-0.7,2.6-1.5,2.6c-0.8,0-1.5-1.2-1.5-2.6c0-1.4,0.7-2.6,1.5-2.6
		C561.7,115.2,562.3,116.3,562.3,117.8"/>
	<path class="st7" d="M546.8,117.8c0,1.4-0.7,2.6-1.5,2.6c-0.8,0-1.5-1.2-1.5-2.6c0-1.4,0.7-2.6,1.5-2.6
		C546.1,115.2,546.8,116.3,546.8,117.8"/>
	<path class="st15" d="M538.5,98.8c0,0,12.4,4.5,30.2,3.3c0,0,3.8,4.7,3.3,21.4c0,0,10.4-30.1-20-30.1c-30.4,0-16.7,29.4-16.7,29.4
		S532.9,104.5,538.5,98.8"/>
	<path class="st6" d="M553.9,125.6l-0.9-0.9l2.3-2.3c-2.2-3.2-2.2-10.5-2.2-10.8l1.2,0c0,0.1,0,7.9,2.3,10.4l0.4,0.4L553.9,125.6z"
		/>
	<path class="st7" d="M546.2,129.4c0,0,11.5,0.5,17.3-1c0,0,1,8.3-7.9,8.8C546.2,137.5,546.2,129.4,546.2,129.4"/>
	<path class="st5" d="M595.2,160.9c2.2-0.4,2,5.3,0,3.7C593.2,162.9,593,161.3,595.2,160.9"/>
	<path class="st5" d="M568.8,188.7c-0.3,2.2-5.7,0.1-3.5-1.2C567.6,186.2,569.1,186.5,568.8,188.7"/>
	<path class="st2" d="M545.3,200.6c0,0-3.5,8.9-3.3,13.9c0.2,5,1.8,4.4,1.8,4.4s-2.6,1-3.1,3.9c-0.5,2.9,6.8,5,7.3,5
		c0.5,0,5.7-2,5.7-2l1.1-16.5l-4.6-2.9L545.3,200.6z"/>
	<path class="st3" d="M548.1,199.5c0,0,6.3,3.9,8.8,6.3c2.5,2.4,1.1,21,0,21.9c-1.1,0.9-9.1,2.7-10.7,1.7c-1.5-1,0.6-6.5,0.6-6.5
		s4.1-0.9,3.5,0.7c-0.6,1.5,0,2.8,0,2.8l1.7-0.7c0,0-0.8-4.2,0-7.2c0.8-3.1-5.7-6.3-6.5-11.9C544.6,201,548.1,199.5,548.1,199.5"/>
	<path class="st12" d="M482.5,190.4c-2-8.7,6.7-11.8,18.7-10.4c14,1.7,42.8,5.4,49,20.6c0,0,2,6-3.2,8.9
		C532.2,217.5,486.3,206.9,482.5,190.4"/>
	<path class="st14" d="M526.3,184.6c0,0-16.7-6.9-25-7.6C493,176.3,512.8,183.5,526.3,184.6"/>
	<path class="st3" d="M651.5,34.3c-1.3,1.4-3.3,7-3.3,7c-0.9,4.7-1.4,7.3-3,9.4c-1.6,2.2-0.8,6-0.8,6s-6.4,3.3-11.7-0.8
		c0,0,0.6-3.8,0-4.8c-1.1-2.1-4.6-3.3-5.8-7.6c-1.2-4.3-4.8-9.1-4.8-9.1s1-2.2,2.9-0.9c1.9,1.4,3.1,4.8,4.2,5.2
		c0.2,0.1,0.4,0.1,0.6,0.1c0,0,0,0,0.1,0c0.8,0.1,1.6-0.1,2.1-0.5c0,0,0.1-0.1,0.1-0.1c1.7-2,2.1-7.9,2.1-10.6
		c-0.1-3.7,0-8.8,2.3-7.9c2.2,0.9,0.2,2.9,1.9,11l0.8,0.1c0.2,0.6,1.7-4.9,2.1-10.1c0.3-3.6,2.6-2.2,3.1-1.1
		c0.5,1.1-0.3,4.7-0.4,7.2c-0.1,1.7-0.3,3.5-0.3,4.5l1,0.5c3.5-6.2,2.3-8.7,4.4-8.8c2-0.1,1.3,5.1,0.2,7.1c-0.5,0.9-0.9,2.6-1.3,4.4
		c3.6-4.2,3.2-6.4,4.9-6.1C654.3,28.7,652.7,32.9,651.5,34.3"/>
	<path class="st2" d="M635.8,44c-1.2-3.4-5.6-4.9-6.1-5.1c0.8,0.1,1.6-0.1,2.1-0.5C636,40.2,635.8,44,635.8,44"/>
	<path class="st5" d="M559.7,491.9c0,0-2.4-4.9-0.3-7.1c2.2-2.1,4.7,1.8,8.4,0.9c3.7-0.9,4.5-3.5,5.5,0.1
		C574.3,489.4,573.2,500.6,559.7,491.9"/>
	<path class="st16" d="M573.6,491.6c0,0-9.9,3.5-15,0l1.3,4.3c0,0,10.8,1.1,12.3-1.6L573.6,491.6z"/>
	<path class="st16" d="M573.5,497c0,0-9.1-1.3-13.5,1v2.1c0,0,11.8-2.8,15.7,0L573.5,497z"/>
	<path class="st16" d="M559.6,504.5c0,0,1.8-4.3,7.3-4.6c5.5-0.3,9.2,2.7,9.2,2.7S567.4,499,559.6,504.5"/>
	<path class="st5" d="M793.2,444.9c-17.4,23.3-41.1,27.7-41.1,27.7c-6.9-5.5-7.1-12-7.1-12s-6.6-5.9-7.5-8.8
		c-0.9-2.8,5.7-11.4,9.6-10.5c2.7,0.6,4.3,2.8,5,4c-3.3-7.3-0.6-9.9,4-9.3c4.8,0.6,0.3,1.8,3.7,5.7c0.2,0.3,0.5,0.5,0.8,0.7
		c0.6,0.4,1.4,0.7,2.2,0.9c0.8,0.1,1.6,0.2,2.5,0.1c0.5,0,0.9-0.1,1.4-0.1c0.9-0.1,1.8-0.4,2.7-0.7c1.5-0.5,3-1.1,4.4-1.9
		c6-3.3,8.6-4.4,13.2-3.2c4.6,1.2,4.5,4.6,4.5,4.6L793.2,444.9z"/>
	<path class="st16" d="M793.2,444.9c-17.4,23.3-41.1,27.7-41.1,27.7c12.1-5.2,23.2-12,30.8-20.4
		C790.5,443.9,793.2,444.9,793.2,444.9"/>
	<path class="st16" d="M760.6,442.5c0.6,0.4,1.4,0.7,2.2,0.9c-4.6,0.9-4.9,5-4.9,5l-2-0.6C756.4,442.9,760.3,442.5,760.6,442.5"/>
	<path class="st16" d="M763.7,449l-2,0.1c-0.8-2.9,0.2-4.6,1.2-5.6c0.8,0.1,1.6,0.2,2.5,0.1C762.9,445.9,763.7,449,763.7,449"/>
	<path class="st16" d="M768.8,447.8l-2,0.3c-0.8-2.1-0.6-3.6,0-4.7c0.9-0.1,1.8-0.4,2.7-0.7C767.8,445.2,768.8,447.8,768.8,447.8"/>
	<path class="st12" d="M573.8,231.9c0,0,4.5,24.3-4.6,33.9c-9.1,9.7-3.1,1.7-0.4-10.7C571.6,242.6,569.5,229.5,573.8,231.9"/>
	<path class="st12" d="M615.8,221.1c0,0,14.3,4.7,21.8,17.9C637.6,239,627.6,217.4,615.8,221.1"/>
	<path class="st3" d="M243.5,40.7c1.9,0,7.4,2.2,7.4,2.2c4.1,2.5,6.3,3.9,9,4.1c2.7,0.2,3.8,4.9,3.8,4.9s10.6,2.3,11.2-4.4
		c0,0-5.9-8.4-6.3-9.5c-0.8-2.3,0.7-5.6-1.7-9.4c-2.4-3.8-3.5-9.7-3.5-9.7s-2.4-0.7-2.6,1.6c-0.3,2.3,1.5,5.6,1.1,6.6
		c-0.1,0.2-0.2,0.4-0.3,0.6c0,0,0,0,0,0.1c-0.5,0.7-1.1,1.1-1.8,1.2c0,0-0.1,0-0.2,0c-2.7-0.1-7.3-3.7-9.2-5.6
		c-2.7-2.5-6.5-5.9-7.4-3.6c-0.9,2.2,2,2.1,6.9,8.8l-0.5,0.7c0.3,0.5-4.8-2-8.9-5.2c-2.8-2.2-3.4,0.4-2.9,1.5
		c0.5,1.1,3.6,2.9,5.6,4.5c1.3,1,2.7,2.1,3.6,2.8l-0.3,1.1c-6.9-1.5-8-4.1-9.5-2.7c-1.5,1.4,2.9,4.4,5.1,4.9c1,0.2,2.6,1.1,4.1,2
		c-5.5-0.1-6.9-1.9-7.8-0.5C237.4,39.1,241.5,40.7,243.5,40.7"/>
	<path class="st2" d="M261.1,35.6c-1.7-3.2,0.1-7.5,0.3-8c-0.5,0.7-1.1,1.1-1.8,1.2C258.2,33.3,261.1,35.6,261.1,35.6"/>
	<path class="st3" d="M555.5,40.7c-1.9,0-7.4,2.2-7.4,2.2c-4.1,2.5-6.3,3.9-9,4.1c-2.7,0.2-3.8,4.9-3.8,4.9s-10.6,2.3-11.2-4.4
		c0,0,5.9-8.4,6.3-9.5c0.8-2.3-0.7-5.6,1.7-9.4c2.4-3.8,3.5-9.7,3.5-9.7s2.4-0.7,2.6,1.6c0.3,2.3-1.5,5.6-1.1,6.6
		c0.1,0.2,0.2,0.4,0.3,0.6c0,0,0,0,0,0.1c0.5,0.7,1.1,1.1,1.8,1.2c0,0,0.1,0,0.2,0c2.7-0.1,7.3-3.7,9.2-5.6c2.7-2.5,6.5-5.9,7.4-3.6
		c0.9,2.2-2,2.1-6.9,8.8l0.5,0.7c-0.3,0.5,4.8-2,8.9-5.2c2.8-2.2,3.4,0.4,2.9,1.5c-0.5,1.1-3.6,2.9-5.6,4.5c-1.3,1-2.7,2.1-3.6,2.8
		l0.3,1.1c6.9-1.5,8-4.1,9.5-2.7c1.5,1.4-2.9,4.4-5.1,4.9c-1,0.2-2.6,1.1-4.1,2c5.5-0.1,6.9-1.9,7.8-0.5
		C561.6,39.1,557.4,40.7,555.5,40.7"/>
	<path class="st2" d="M537.9,35.6c1.7-3.2-0.1-7.5-0.3-8c0.5,0.7,1.1,1.1,1.8,1.2C540.8,33.3,537.9,35.6,537.9,35.6"/>
	<path class="st1" d="M462.3,362.3l-20.4-126.2l-40.8,4.6l-40.8-4.6L340,362.3l-9.8,122.4c0,0,3.1,10.1,23.5,3.1
		c0,0,15.1-113.5,17.4-116c2.3-2.5,26.3-76.6,26.3-76.6h7.5c0,0,24,74.1,26.3,76.6c2.3,2.5,17.4,116,17.4,116
		c20.4,7,23.5-3.1,23.5-3.1L462.3,362.3z"/>
	<path class="st17" d="M388.3,113.9c2.6,2.5,15.3,7,22,0l4.5,4.5c0,0-5.2,12.2-14.3,12.6c-9.1,0.4-15.7-10.8-15.7-10.8L388.3,113.9z
		"/>
	<path class="st17" d="M424.2,112.5c15.2-6.5,64.2-23.9,64.2-23.9s33-41.3,39.7-47.4c0,0,7.3,1.3,9.4,10.4c0,0-21.2,45.4-32.8,58.5
		c-11.5,13-70,41.2-70,41.2L424.2,112.5z"/>
	<path class="st15" d="M371.1,111.6c4.5-2.9,27.2,12.3,27.2,12.3s29.5-15.6,36.4-12.6c0,0,6.2,8.3,8.7,29.8
		c2.5,21.4,2.7,109.7,2.7,109.7s-19.8,7-46.6,7c-30.6,0-47-8.8-47-8.8S347,126.8,371.1,111.6"/>
	<path class="st2" d="M389.5,109.3c0,0,3.3,10.3,0,14.2c0,0,3.4,7.1,9.5,7.4c7,0.4,9.5-7.4,9.5-7.4s-3.7-9.9,0-13.4L389.5,109.3z"/>
	<path class="st10" d="M381.3,99.2c0,0-6.9-13.2-5.5-27.4c1.4-14.1,22.6-17.4,37-10.4c0,0-4.3-4.2-2.6-5.3c1.7-1.2,4.5,6.2,4.5,6.2
		s4.5-1.4,5.2,0c0.7,1.4-4.6,2.1-4.6,2.1s9.3,5.1,0.6,32.5L381.3,99.2z"/>
	<path class="st3" d="M380.3,90.8c0,0-5.1-5.1-5.8,0.9c-0.7,6.9,5.6,9.7,6.8,7.5C382.6,97,380.3,90.8,380.3,90.8"/>
	<path class="st3" d="M416.2,91.2c0,0,5.1-5.1,5.8,0.9c0.7,6.9-5.6,9.7-6.8,7.5C413.9,97.4,416.2,91.2,416.2,91.2"/>
	<path class="st3" d="M397.7,115.9c-11.4,0-17.8-7.4-17.8-29.7c0-11.5,5.8-18.5,18.6-18.5s18.1,7,18.1,18.5
		C416.6,110.2,409.4,115.9,397.7,115.9"/>
	<path class="st6" d="M412.8,94.2c0.2,1.1-0.8,2.3-2.2,2.5c-1.4,0.2-2.7-0.5-2.9-1.6c-0.2-1.1,0.8-2.3,2.2-2.5
		C411.3,92.3,412.6,93,412.8,94.2"/>
	<path class="st6" d="M389.5,94.8c-0.1,1.2-1.3,2-2.8,1.9c-1.4-0.1-2.6-1.1-2.5-2.3c0.1-1.2,1.3-2,2.8-1.9
		C388.4,92.6,389.5,93.6,389.5,94.8"/>
	<path class="st10" d="M407.6,82.6c-0.1,0-0.3-0.1-0.4-0.2c-1.6-1.7-4.3-1.6-4.4-1.6c-0.3,0-0.6-0.2-0.6-0.6c0-0.3,0.2-0.6,0.5-0.6
		c0.1,0,3.3-0.1,5.2,1.9c0.2,0.2,0.2,0.6,0,0.8C407.9,82.6,407.8,82.6,407.6,82.6"/>
	<path class="st10" d="M386.2,82.6c-0.1,0-0.3-0.1-0.4-0.2c-0.2-0.2-0.2-0.6,0-0.8c1.9-2,5.1-1.9,5.2-1.9c0.3,0,0.6,0.3,0.5,0.6
		c0,0.3-0.3,0.6-0.6,0.6c0,0-2.8-0.1-4.4,1.6C386.5,82.6,386.4,82.6,386.2,82.6"/>
	<path class="st7" d="M406.6,88.6c0,1.4-0.6,2.6-1.4,2.6c-0.8,0-1.4-1.1-1.4-2.6s0.6-2.6,1.4-2.6C406,86.1,406.6,87.2,406.6,88.6"/>
	<path class="st7" d="M391.5,88.6c0,1.4-0.6,2.6-1.4,2.6c-0.8,0-1.4-1.1-1.4-2.6c0-1.4,0.6-2.6,1.4-2.6
		C390.8,86.1,391.5,87.2,391.5,88.6"/>
	<path class="st7" d="M391.5,103.7c0,0,10,1.3,15.2-1.2c0,0-2.9,6.8-8.4,6.2C392.8,108.2,391.5,103.7,391.5,103.7"/>
	<path class="st10" d="M415.4,93.7c0,0-0.4-12.4-5.2-21.9c0,0-8.5,3.9-10.3,3c-1.9-0.9,1.8-3,1.8-3s-14,4.6-14.8,3.7
		c-0.8-0.9,4.6-3.7,4.6-3.7l-8.7,3c0,0-2.7,11.1-1.6,18.9c0,0-3.7-6.5-4.2-10.9c-0.5-4.5,1.5-17.2,14.6-18.1
		c13.1-0.9,20.5,2.1,23.8,8.1C418.6,78.8,418.2,86.2,415.4,93.7"/>
	<path class="st6" d="M399.7,100.2c-1.1,0-2.2-0.3-2.6-0.4l0.3-1.2c1.2,0.3,3.1,0.5,3.5,0c0.1-0.2,0.1-0.6-0.2-1.1
		c-1.6-3.5-2-12.3-2-12.7l1.2,0c0,0.1,0.3,9,1.9,12.2c0.5,1,0.5,1.8,0,2.4C401.4,100,400.5,100.2,399.7,100.2"/>
	<path class="st18" d="M412.3,117.2c0,0,20.6,63.8,22.5,115.8c0,0,7.4,2,15.8-9.3c8.4-11.4,3.4-101.5-12.6-116.6
		C437.9,107.1,430.7,105.4,412.3,117.2"/>
	<path class="st17" d="M415.6,128.3c0,0,3.7-8.6,2-14.4c-1.6-5.9-7.4,0-7.4,0S412.6,123.5,415.6,128.3"/>
	<path class="st17" d="M374.3,112.5c-15.2-6.5-64.2-23.9-64.2-23.9s-33-42.5-39.8-48.6c0,0-8.3,4.7-8.9,14.4
		c0,0,20.8,42.6,32.3,55.6c11.5,13,70,41.2,70,41.2L374.3,112.5z"/>
	<path class="st18" d="M386.3,117.2c0,0-20.6,63.8-22.5,115.8c0,0-7.4,2-15.8-9.3c-8.4-11.4-3.4-101.5,12.6-116.6
		C360.6,107.1,367.8,105.4,386.3,117.2"/>
	<path class="st17" d="M382.9,128.3c0,0-3.7-8.6-2-14.4c1.6-5.9,7.4,0,7.4,0S385.9,123.5,382.9,128.3"/>
	<path class="st11" d="M490.2,517.5h-40.8c-2.9-16.2,1.7-32.5,1.7-32.5l18.7-3.2c1.7,10.3,3.7,14.3,6.6,16.4h0
		c2.1,1.5,4.5,2,7.6,3.1c3.5,1.2,5.4,3.4,6.3,5.9C492.1,512,490.2,517.5,490.2,517.5"/>
	<path class="st10" d="M490.3,507.2c-10.1,1.3-32.2,3.4-30.8-2.4c1.1-4.9,10.5-6.2,16.9-6.5h0c2.1,1.5,4.5,2,7.6,3.1
		C487.5,502.5,489.4,504.8,490.3,507.2"/>
	<path class="st11" d="M353.5,517.5h-40.8c0,0-1.3-3.8-0.7-7.9c0.5-3.3,2.2-6.7,7-8.4c3.5-1.2,6.3-1.7,8.5-3.8
		c2.4-2.3,4.2-6.5,5.7-15.7l18.7,3.2C351.8,485.1,356.3,501.3,353.5,517.5"/>
	<path class="st10" d="M311.9,509.7c0.5-3.3,2.2-6.7,7-8.4c3.5-1.2,6.3-1.7,8.5-3.8c5.2,1.6,12.4,4.5,14.6,8.9
		C345.1,512.6,321.3,511.6,311.9,509.7"/>
	<path class="st4" d="M646.7,514.6c0,1.7-0.2,2.9-0.2,2.9h-49.6c0-1,0-2,0.1-2.9c0.6-13,4.7-24.2,4.7-24.2l12.4-5.3
		c1.1,6.4,3.8,10.5,7.3,13.1c0.9,0.7,1.9,1.3,2.8,1.8c0.5,0.2,0.9,0.5,1.4,0.7c1,0.5,2.1,0.9,3.2,1.2c4.4,1.3,8.8,1.6,11.9,2.1
		C645.9,504.8,646.7,510.9,646.7,514.6"/>
	<path class="st19" d="M646.7,514.6c0,1.7-0.2,2.9-0.2,2.9h-49.6c0-1,0-2,0.1-2.9H646.7z"/>
	<path class="st19" d="M624.1,500l-6.9,2.2l-1.5-2.5l5.5-1.5C622.2,498.9,623.1,499.5,624.1,500"/>
	<path class="st19" d="M628.7,501.9L624,505l-2.9-1.1l4.3-3.1C626.5,501.2,627.6,501.6,628.7,501.9"/>
	<path class="st4" d="M457.1,514.6c-0.1,1.7-0.6,2.9-0.6,2.9h-33c-0.4-1-0.7-1.9-0.9-2.9c-3.3-15.8,18.7-35.2,18.7-35.2l7,9.3
		c0,0-0.8,14.9,5.1,18C456.9,508.6,457.3,512.1,457.1,514.6"/>
	<path class="st19" d="M422.6,514.6h34.5c-0.1,1.7-0.6,2.9-0.6,2.9h-33C423.1,516.6,422.8,515.6,422.6,514.6"/>
	<path class="st19" d="M451.8,505.6c0,0-13.9-3.2-20.3,0.9v-2.3C431.6,504.2,443.3,498.5,451.8,505.6"/>
	<path class="st19" d="M449.1,502c0,0-8.9-4.1-17.5,0l1-2.3C432.6,499.7,442.9,495.8,449.1,502"/>
	<path class="st20" d="M631.7,374c0,13.3-11.8,121.7-11.8,121.7c-11.8,1.2-21.3-1.2-21.3-1.2c-3.2-54.9-3.6-102.1-3.6-102.1
		L538.5,350l-0.1-0.1c0,0-0.2,1-0.6,2.7C535,365,523.1,417,518.2,429c-5.6,13.6-67.1,70.7-67.1,70.7c-11.4-1.6-21.1-9.8-21.1-9.8
		c22.1-36.6,52.2-73.3,52.2-73.3c2.3-13.2,4-42.5,5-64.4c0-0.3,0-0.7,0.1-1c0.7-14.9,1-26.1,1-26.1l-10.4-21.3l65.9-24.2l14.8,18.9
		c0,0,3.4,3.1,8.7,8.1l0.7,0.7C587.7,325.9,631.7,368.1,631.7,374"/>
	<path class="st8" d="M487.2,352.1c0-0.3,0-0.7,0.1-1c13.9-7.5,11.5-19.5,11.5-19.7l0.9-0.2C499.6,331.4,502.1,344.3,487.2,352.1"/>
	<path class="st8" d="M537.5,341.5c0.5,2.6,0.8,5.5,1,8.5l-0.1-0.1c0,0-0.2,1-0.6,2.7c-0.6-20.6-9.1-32.8-9.2-32.9l0.7-0.5
		c0.1,0.1,5.4,7.8,8,21.3c10-8.9,0.2-27.1,0.1-27.3l0.8-0.4C538.3,312.9,548.7,332.2,537.5,341.5"/>
	<path class="st8" d="M567.9,307.3C567.9,307.3,567.9,307.3,567.9,307.3c-0.5,0.2-0.9,0.3-1.4,0.3c-4.9,0-13-6.8-13.4-7.1l0.6-0.7
		c2.6,2.2,10,7.6,13.5,6.8L567.9,307.3z"/>
	<path class="st16" d="M482.5,190.4c0,0,20-3.2,30.1,3.2c10,6.4,23.2,23.1,23.2,23.1s-15.6,2.1-17.4,12.7
		C518.4,229.4,507,202.3,482.5,190.4"/>
	<path class="st5" d="M452.3,200.9c-8.5,4.6-22.6,21.8-23.3,32.4c-0.6,10.3,7,19.8,12.2,27.9c16.1,25.2,33,47.4,40.2,76.9
		c0,0.2,36.8,14.8,79.9-37.1c0,0-24.4-32.8-32.8-60.7c-3.4-11.4-6.9-23.4-13.5-33.4c-7.2-11-19.7-17.5-32.6-16.5
		C471.6,191.3,460.7,196.4,452.3,200.9"/>
	<path class="st2" d="M448.8,190.3c0,0,5.4,9.3,2.9,14.4c0,0,18.6,6.4,18.6-4c0,0-3.5-7.8-2.2-12.8L448.8,190.3z"/>
	<path class="st2" d="M490.1,253.7c0,0-10.3,2.9-13,6.6c-2.6,3.7-4.9,11.9-4.9,11.9h17.9l3.4-6.2l3.9-8.2L490.1,253.7z"/>
	<path class="st4" d="M473,180c0,0,7.3-3,2.6-24.9c-3.1-14.5-7.6-16.6-10.5-16.8c0,0-3.5-5.3-15.8-2.8c-8.4,1.8-15.1,6.9-18.1,16.3
		c-3.1,9.9,3.1,31.1,11.2,33.2L473,180z"/>
	<path class="st3" d="M474.7,165.2c0,0,4.6-6.4,6.3-0.1c2,7.3-4.2,11.4-5.9,9.2C473.4,172.2,474.7,165.2,474.7,165.2"/>
	<path class="st3" d="M436.4,171.9c0,0-6.4-4.6-6,1.9c0.4,7.5,7.7,9.4,8.6,6.8C439.9,178.1,436.4,171.9,436.4,171.9"/>
	<path class="st3" d="M460.5,195.1c12.2-2,17.7-11.1,13.8-34.9c-2-12.3-9.5-18.8-23.1-16.5c-13.6,2.2-18.1,10.7-16.1,23
		C439.3,192.3,448,197.2,460.5,195.1"/>
	<path class="st6" d="M440.5,174.5c0,1.3,1.3,2.3,2.8,2.3c1.6,0,2.9-1,2.9-2.3c0-1.3-1.3-2.3-2.8-2.3
		C441.8,172.3,440.5,173.3,440.5,174.5"/>
	<path class="st6" d="M465.7,171.1c0.3,1.2,1.8,1.9,3.3,1.6c1.5-0.4,2.5-1.6,2.3-2.9c-0.3-1.2-1.8-1.9-3.3-1.6
		C466.4,168.5,465.4,169.8,465.7,171.1"/>
	<path class="st7" d="M444,161.2c-0.1,0-0.2,0-0.3-0.1c-0.3-0.2-0.4-0.6-0.2-0.9c1.7-2.5,5.1-3,5.3-3c0.4,0,0.6,0.2,0.7,0.5
		c0,0.3-0.2,0.6-0.5,0.7c0,0-3,0.4-4.4,2.5C444.3,161.2,444.2,161.2,444,161.2"/>
	<path class="st7" d="M466.8,157.5c-0.1,0-0.3,0-0.4-0.1c-2-1.5-4.9-0.9-5-0.9c-0.3,0.1-0.7-0.2-0.7-0.5c-0.1-0.3,0.2-0.7,0.5-0.7
		c0.1,0,3.5-0.7,5.9,1.1c0.3,0.2,0.3,0.6,0.1,0.9C467.2,157.4,467,157.5,466.8,157.5"/>
	<path class="st7" d="M446.2,167.5c0.2,1.5,1.1,2.6,2,2.5c0.8-0.1,1.3-1.5,1.1-3c-0.2-1.5-1.1-2.6-2-2.5
		C446.4,164.7,445.9,166,446.2,167.5"/>
	<path class="st7" d="M462.4,164.8c0.2,1.5,1.1,2.6,2,2.5c0.8-0.1,1.3-1.5,1.1-3c-0.2-1.5-1.1-2.6-2-2.5
		C462.6,162,462.2,163.3,462.4,164.8"/>
	<path class="st7" d="M467,178.5c0,0-10.5,2.8-16.4,1.7c0,0,4,5.1,9.8,3.6C466.2,182.4,467,178.5,467,178.5"/>
	<path class="st1" d="M467.5,149.2c0,0-13.7,9.9-30.9,10.7l0.5,15.3c0,0-16.1-29.6,15.7-34.8c31.8-5.2,22.5,27.8,22.5,27.8
		S474.2,153.9,467.5,149.2"/>
	<path class="st6" d="M456.2,174.4l-0.1-1.3c0,0,1.9-0.1,2.3-1.3c0.2-0.5-0.6-2-1.3-3.3c-1-1.8-2.1-4.1-2.7-6.6l1.3-0.3
		c0.5,2.3,1.6,4.5,2.5,6.3c1,1.9,1.8,3.4,1.3,4.4C458.9,174.2,456.3,174.4,456.2,174.4"/>
	<path class="st12" d="M474.9,149.2C451.8,139.2,430,160,430,160s-2.5-16.8,1.9-20.8c1.2-1,2.4-1.9,3.7-2.7
		c10.2-6.4,23.7-6.3,30-4.1c1.3,0.5,2.3,1,2.8,1.6C472.1,137.7,474.9,149.2,474.9,149.2"/>
	<path class="st5" d="M472.1,145.5c0,0-19.4-3.8-37.5,8.1c0,0-1.2-10.9,1-17.1c10.2-6.4,23.7-6.3,30-4.1
		C469.2,136.5,472.1,145.5,472.1,145.5"/>
	<path class="st14" d="M432,158c0,0,3.1-13.1,7.2-16.7c6.9-6.1,26.2-8.2,36.4-4.5c10.2,3.7,0,14.8,0,14.8S459.4,139.9,432,158"/>
	<path class="st3" d="M461.9,244.7c0,0,7.9,12.3,21.4,19.5c0,0,16.9-14.7,38.8-13.3c0,0-18.1,32.7-33.7,36.4
		c-8.2,1.9-37.8-17.7-37.8-17.7S456.5,248.7,461.9,244.7"/>
	<path class="st16" d="M432.7,222.5c7.3-11.8,24,5.6,29.7,18.1c5.7,12.5,9.8,15.1,9.8,15.1s-16.7,7-16.6,19.5
		C455.6,275.2,416.9,248.2,432.7,222.5"/>
	<path class="st2" d="M483.3,258.8c0,0,10.2-10,43.7-23l-4.3-13.6c3.8-5.1,10.9-5.1,10.9-5.1s17.1,24.2,14.2,31.5
		C545.9,253.1,510.1,257.8,483.3,258.8"/>
	<path class="st3" d="M520,239c0,0,0.3-1.4,1.5-3.2c1.2-1.7,0.9-4.9,1.3-5.9c0.4-1,3.1-5,4.8-5.8c1.7-0.8,4-2.1,4.5,0.2
		c0.5,2.2-3.1,1.6-4.8,4.8c0,0,3.6-1.1,6.4-0.5c2.8,0.7,3.6,3.2,0.1,3.2c-2.8-0.1-6.4,1.9-6.4,1.9s3.6,0.5,3,2.2
		C529.8,238.2,525.4,236.8,520,239"/>
	<path class="st21" d="M272.4,284.6c3,7.7,15.3,20.8,15.3,20.8s29.9-17.9,43.8-10.4c13.8,7.6,24.8,12.2,33.8,8.9
		c9-3.3-29.5-73.2-29.5-73.2l-49.8-19c0,0-1.1,12.6-6.8,14.8c-5.7,2.2-11.8,23-11.4,27C268.2,257.5,272.4,284.6,272.4,284.6"/>
	<path class="st2" d="M328.4,305.9c0,0-12.8,25.2-39.4,57.4c0,0-2.7,38.3-72.8,98.7l-7.3-5.8c0,0,41.8-65.4,50.1-85.5
		c8.4-20.1-4.6-38.4,33.8-89.2L328.4,305.9z"/>
	<path class="st11" d="M287.6,261.3c-11.1,21.2-14.8,48.3-14.8,48.3l-5,12.7c0,0,17.9,9.6,38.5,13.1l8.3-21.9L287.6,261.3z"/>
	<path class="st3" d="M345.2,303.9c0,0,5.5,27.7,4.6,69.5c0,0,21.6,31.8,3.8,122.6h-9.3c0,0-7.6-77.2-13.5-98.2
		c-5.8-20.9-27.4-27.3-28.6-91L345.2,303.9z"/>
	<path class="st10" d="M350.7,333.7c0,0-17.6,3.2-48.5,1.7l-0.5-3.5l-0.1-0.9l-3.2-22.6c0,0-3-3.7-6-9.7c-0.4-0.7-0.7-1.4-1.1-2.2
		c-4.2-8.9-7.9-21.8-3.7-35.3l6.5,0.3l0.9,0.1l21.9,1l0.9,0.1l7.2,0.3l1.1,0.1l4.7,0.2c0,0,23.7,21.3,19.5,60.7l0.3,5.5l0,0.9
		L350.7,333.7z"/>
	<path class="st11" d="M295,261.7c-0.6,1.8-4.7,15.2-2.7,37.1c-0.4-0.7-0.7-1.4-1.1-2.2c-1.6-20,2-32.5,2.8-35
		c0.1-0.3,0.2-0.4,0.2-0.5l0.8,0.3C295.1,261.5,295,261.6,295,261.7"/>
	<path class="st11" d="M350.5,330.4c-6.2,1.6-16.8,2-26.8,2c-9,0-17.5-0.4-22-0.6l-0.1-0.9c7.9,0.4,28.6,1.2,41.9-0.3l-0.9-14.1
		c0.2-16.4-4.8-30.5-9.6-40.2c-12.2-2.2-15.5-11.2-16.2-13.7c-0.1-0.4-0.2-0.6-0.2-0.7l0.9-0.1c0,0,0.1,0.3,0.2,0.9
		c0.8,2.6,4,10.5,14.8,12.7c-3.2-6.3-6.3-10.6-7.6-12.4c-0.4-0.5-0.6-0.8-0.6-0.8l0.7-0.6c0,0,0.4,0.5,1.1,1.5
		c4.1,5.5,17.8,26.3,17.4,53.5l0.9,14c2.3-0.3,4.4-0.6,6.1-1.1L350.5,330.4z"/>
	<path class="st20" d="M305.8,166.3c-7-3.8-57.2,15.9-57.2,15.9s-7.4,13.3-2.8,18.5c4.6,5.2,21.1,2.9,26.1,0
		c5-2.9,18.4-5.1,18.4-5.1L305.8,166.3z"/>
	<path class="st13" d="M350.2,124.5c0,0,10.4,4,14.2,16c3.8,12-7.6,42.2-3.6,56.1c3.9,13.9,3.3,40.2-8.9,45.7
		c-12.2,5.5-37.4-4.4-42.8-19.6c-5.4-15.2-3.1-72.7,7.3-92.2C326.7,111,347.7,120.8,350.2,124.5"/>
	<path class="st20" d="M338.3,176.1c2.7,2.9,9.8-2.3,9.8-2.3s-0.1,26.1-7.7,28.1c-7.6,2-26.9-20.5-26.1-26.7
		C315,169.1,332.2,169.5,338.3,176.1"/>
	<path class="st1" d="M309,169.6c0,0,7.7,6.5,21,9.6c13.4,3.1,20.6-3.2,27.4,5.4c10.3,12.9-6.4,36.8-15.2,49.1
		c-3.3,4.6-10.2,17.4-11.6,29.6c0,0-23.2,6.7-43.2-2l-1.5-28.4C286.1,232.9,273.5,194.6,309,169.6"/>
	<path class="st20" d="M333,197.2c0,0,10.6-25.2,13.7-26.9c3.1-1.6,10.8,2.3,12.4,5.7c1.6,3.5,0,11,0,11S350.7,177.5,333,197.2"/>
	<path class="st8" d="M383.7,303.9c-4.8,9.9-16.6,12.7-16.6,12.7s-0.9-1.4-2.4-3.8c-0.2-0.2-0.3-0.5-0.5-0.8
		c-9.3-15.1-37.7-63.3-37.2-88.4c0.6-30,20.2-46.4,20.2-46.4c9.9,2.4,13.1,5.1,13.1,5.1s3.3,17.1,0.3,37.6
		c-3.1,20.5-8.6,25.9-5.8,27.5c2.8,1.5,0,4.6,0,4.6s16.5,23,19.6,30.1c2,4.7,5.4,12.6,7.5,17.5c0.1,0.3,0.3,0.7,0.4,1
		C383.2,302.6,383.7,303.9,383.7,303.9"/>
	<path class="st3" d="M355.1,182.2c0,0-11.8,8.7-4.9,22.1l32.7,33.9c-17.9,19.1-19.7,27-32.7,35.8l4.9,7.6c0,0,45.4-34.9,45.5-43.4
		C400.7,234.5,372.9,190.5,355.1,182.2"/>
	<path class="st3" d="M349.5,274c0,0-6.2,0.7-10.2,1.7c-3.9,1-9.2,2-9.3,2.8c-0.2,0.8,8.7,0,8.7,0s-7.2,3-7.4,4.1
		c-0.2,1.1,9.2-0.8,9.2-0.8s-5.9,3.6-5.6,4.6c0.3,1,7.6-1.5,7.6-1.5s-1.3,3.4-2.7,5.1c0,0,1.4,0.8,4.3-2.4c2.9-3.2,7.4-2.1,11-5
		C358.6,279.7,352.8,273.5,349.5,274"/>
	<path class="st8" d="M316.1,173.8c0,0-9,5.8-14.6,19.8c-5.7,14-23.6,40.4-27.7,47.2c-4.2,6.8-1.3,43.9-1.3,43.9s-5.3-22.5-7.6-31.2
		c-2.3-8.8,7.5-30.4,9-31.5c1.5-1.1,9.1,1,7.6-7.8c-1.5-8.8,18.9-46.6,24.3-47.7C305.8,166.3,314.5,168,316.1,173.8"/>
	<path class="st8" d="M288.3,175.7c-0.2,0.3-0.3,0.6-0.5,0.9c-2,2.9-5.8,5.3-5.8,5.3s-6.8,9.6-6.9,10.7c-0.1,0.9-11.9,9.5-17.1,9.4
		h0c-0.7,0-1.3-0.2-1.7-0.6c-3.1-2.9,10.6-27.6,13.6-33c0.2-0.4,0.4-0.6,0.5-0.8c0.1-0.1,0.1-0.2,0.1-0.2s-2.4-9,7.7-7.3
		c8.4,1.4,10.1,8.1,10.9,12.5C289.2,173.5,288.9,174.6,288.3,175.7"/>
	<path class="st3" d="M253.1,185c6.9-9.1,31.3-26.8,44.2-32l3.2,6c0,0-24.8,21.8-30.6,31.2c-5.8,9.3-13.1,13.2-20,10.1
		C242.9,197.1,251.6,186.9,253.1,185"/>
	<path class="st20" d="M285.9,173.8l-1.3,1.5l-0.7,0.8l-2.2,2.5c0,0-5.5,6.6-5.3,9.3c0.2,1.9-10.4,10.5-18.6,14
		c-3.3,1.5-6.3,2.1-8.1,1.1c-6-3.4-4.6-13.7-1.2-20.7c2.9-6.1,16-14,19.3-15.9c0.4-0.3,0.7-0.4,0.8-0.5l0,0l1.2-4.8
		c0,0,4.5-2.7,8.1-1.1c0,0-7.9,0.3-6.6,3.4C272.8,166.4,283.7,173.7,285.9,173.8"/>
	<path class="st3" d="M314.5,148.5c-7.9,3.3-6.8,10.4-14.1,10.4c-4.5,0-5.1-5.1-5.1-5.1c2-4.4,3.3-11.9,3.6-15.5
		c0.3-3.6,1.5-2.2,1.5-2.2c0-0.3,0-0.6,0-1c-0.1-2.4-0.5-4.1,1-3.1c1.8,1.2,2.4,8,2.4,8c1.5-9.9-0.7-11.4,1-10.5
		c2.3,1.2,2.4,9.9,2.4,10.2c1.9-5.8,1.4-9.1,2.7-7.7c1.3,1.3-0.7,11.9-1.5,15.8c-0.2,0.9-0.3,1.4-0.3,1.4
		C314.4,146.1,314.5,148.5,314.5,148.5"/>
	<path class="st2" d="M308.4,147.8c-0.2,0.9-0.3,1.4-0.3,1.4s-2.9-0.3-5,2.9C303.1,152.1,303.7,147.9,308.4,147.8"/>
	<path class="st2" d="M300.9,143.3c0.1-0.8,0.4-5.7-0.4-7.1c0-0.3,0-0.6,0-1C302.2,135.6,301.1,142.2,300.9,143.3"/>
	<path class="st20" d="M305.8,185c0,0,5.4-14.5,7.1-17.8c1.7-3.2,10.6-2.7,17.3-1.4c6.7,1.3,8.1,10.3,8.1,10.3
		S317.8,166.4,305.8,185"/>
	<path class="st2" d="M340.3,156.4c0,0-6.4,11.9-6.3,25c0,0-10.4,7.1-14.2-1.8c0,0,4-11.6,2-27.3
		C320.6,141.8,340.3,156.4,340.3,156.4"/>
	<path class="st3" d="M319.8,140c0,0-1.9-6.8-5.3-2c-3.9,5.5,0.1,10.9,2.2,9.6C318.8,146.3,319.8,140,319.8,140"/>
	<path class="st3" d="M350.2,157.5c0,0,6.8-1.9,4.5,3.5c-2.7,6.2-9.4,5.6-9.4,3.1C345.3,161.6,350.2,157.5,350.2,157.5"/>
	<path class="st3" d="M322.6,169.6c-9.7-5.4-11.6-14.8-0.9-33.8c5.5-9.8,13.8-13,24.7-6.9c10.8,6.1,12,14.7,6.5,24.4
		C341.4,173.8,332.6,175.3,322.6,169.6"/>
	<path class="st6" d="M345.9,158.4c-0.4,1.1-1.8,1.5-3.1,1.1c-1.3-0.5-2.1-1.7-1.7-2.8c0.4-1.1,1.8-1.5,3.1-1.1
		C345.5,156.1,346.3,157.3,345.9,158.4"/>
	<path class="st6" d="M325.7,147.7c-0.6,0.9-2.1,1.1-3.3,0.3c-1.2-0.8-1.6-2.2-1-3.1c0.6-0.9,2.1-1.1,3.3-0.3
		C325.9,145.4,326.3,146.8,325.7,147.7"/>
	<path class="st7" d="M347.3,146.1c-0.2,0-0.5-0.2-0.5-0.4c-0.5-2.2-2.9-3.4-3-3.4c-0.3-0.1-0.4-0.5-0.2-0.7
		c0.1-0.3,0.5-0.4,0.7-0.2c0.1,0.1,2.9,1.5,3.5,4.1c0.1,0.3-0.1,0.6-0.4,0.7C347.4,146.1,347.3,146.1,347.3,146.1"/>
	<path class="st7" d="M334,136.7c-0.1,0-0.2,0-0.3-0.1c0,0-2.4-1.4-4.5-0.7c-0.3,0.1-0.6-0.1-0.7-0.4c-0.1-0.3,0.1-0.6,0.4-0.7
		c2.6-0.8,5.3,0.8,5.4,0.9c0.3,0.2,0.3,0.5,0.2,0.8C334.4,136.6,334.2,136.7,334,136.7"/>
	<path class="st7" d="M343.3,150.7c-0.7,1.2-1.8,1.9-2.4,1.5c-0.7-0.4-0.7-1.7,0-2.9c0.7-1.2,1.8-1.9,2.4-1.5
		C344,148.3,344,149.5,343.3,150.7"/>
	<path class="st7" d="M329.7,143.5c-0.7,1.2-1.8,1.9-2.4,1.5c-0.7-0.4-0.7-1.7,0-2.9c0.7-1.2,1.8-1.9,2.4-1.5
		C330.4,141,330.4,142.3,329.7,143.5"/>
	<path class="st7" d="M325,155.8c0,0,5.5,4.2,9.6,4.4c0,0-4.3,3.5-7.3,1.2C324.2,159.1,325,155.8,325,155.8"/>
	<path class="st7" d="M340.4,148.3c0,0,2.5-2.5,3.6-1.6c1,0.9,0.5,3.9,0.5,3.9l2.2,0.1l-1.8-0.7c0,0,0.6-3.1-0.6-3.8
		C342.6,145.2,340.4,148.3,340.4,148.3"/>
	<path class="st7" d="M330.8,143.4c0,0,0.8-3.5-0.5-3.9c-1.3-0.4-3.6,1.6-3.6,1.6l-1.2-1.9l1.6,1.2c0,0,2.4-2.1,3.5-1.5
		C332.2,139.8,330.8,143.4,330.8,143.4"/>
	<path class="st13" d="M348.9,133.1c0,0-3.5-4.8-8.2-1c-4.8,3.8-15.6,9.9-20.9,7.9c-5.3-2,11.6-24.6,26.3-18
		c14.7,6.6,13.4,28.2,7.3,35c-6.1,6.9-3.2,0.5-3.2,0.5s0.4-9.7,2.4-16.2C354.6,134.9,348.9,133.1,348.9,133.1"/>
	<path class="st6" d="M332.7,153.6c-0.3,0-0.5,0-0.8-0.1l0.3-1.2c1,0.3,1.5-0.2,1.7-0.6c0.3-0.6,0.3-1.3,0-1.6
		c-0.2-0.2-0.4-0.1-0.8,0l-0.6-1.1c1.2-0.6,1.9-0.1,2.2,0.2c0.7,0.7,0.7,2,0.1,3C334.4,153.1,333.6,153.6,332.7,153.6"/>
	<path class="st20" d="M403.4,236.8c-0.6,8.5-21.6,36.1-25.1,37.1c-0.9,0.2-1.8,0.8-2.7,1.3c-0.4,0.3-0.7,0.5-1.1,0.8
		c-2,1.6-3.5,3.5-3.5,3.5c-6.1-0.4-23.3-8.4-17.8-10.1c0.3-0.1,0.7-0.3,1.1-0.6c0.2-0.2,0.5-0.3,0.7-0.6
		c6.5-5.5,19.2-27.6,19.3-29.3c0.1-1.8,2.3-2.2,2.3-2.2s-12-17.6-18.9-19.7c-6.9-2.1-10.4-10.5-10.4-10.5
		c-6.8-29,13.1-24.4,13.1-24.4C375,190.9,404,228.3,403.4,236.8"/>
	<path class="st21" d="M375.6,275.3c-0.4,0.3-0.7,0.5-1.1,0.8c-9.4-0.6-17.3-5.3-20.2-7.2c0.2-0.2,0.5-0.3,0.7-0.6
		C358.2,270.4,366.2,274.9,375.6,275.3"/>
	<path class="st21" d="M288.3,175.7c-0.2,0.3-0.3,0.6-0.5,0.9c-1.3-0.1-2.6-0.2-3.9-0.5c-6.2-1.3-11-4.7-14.1-7.8
		c-0.7-0.7-1.3-1.4-1.9-2c0.4-0.3,0.7-0.4,0.8-0.5c0.5,0.5,1,1.1,1.6,1.6c3.1,3.1,8,6.6,14.3,7.8C285.8,175.5,287,175.6,288.3,175.7
		"/>
	<path class="st21" d="M382.3,300.5c-2.9,4.9-8.2,10.8-17.6,12.3c-0.2-0.2-0.3-0.5-0.5-0.8c9.6-1.4,14.9-7.7,17.6-12.5
		C382,299.8,382.1,300.2,382.3,300.5"/>
	<path class="st5" d="M222.9,459.8c0,0-2.2,2.2-4.5,6.1c-2.3,4,0.2,7.6-10.8,16.8c0,0-22.2-13-32.3-29.7c0,0,0.2-4.8,5-5.9
		c2.6-0.6,9.8,2.8,16.7,4.1c1,0.2,2,0.3,2.9,0.4c1.2,0.1,2.4,0.1,3.5,0c1.1-0.1,2-0.3,3-0.7h0c2.3-1,4.2-2.9,5.2-6.2
		c0,0,5.9,3.4,2,9.1C213.7,453.6,220.7,450.6,222.9,459.8"/>
	<path class="st16" d="M207.6,482.7c0,0-22.2-13-32.3-29.7c0,0,3.7-0.8,6.8,4.7C185.3,463.3,209.4,475.9,207.6,482.7"/>
	<path class="st16" d="M207.7,456.4c-1.8,2.9-1.8-2.4-4.2-4.9c1.1-0.1,2-0.3,3-0.7h0C207.6,451.9,209.1,454.2,207.7,456.4"/>
	<path class="st16" d="M200.7,456.6c-1.9,1.8-2.5-2.9-3.6-5.4c1,0.2,2,0.3,2.9,0.4C201.1,453.1,202.2,455.2,200.7,456.6"/>
	<path class="st5" d="M359.6,517.5h-31.4c0,0-1.3-4.4,0-9.2c0.6-2.1,3.8-4,6.8-6.7c0.8-0.8,1.6-1.5,2.4-2.4c0.6-0.7,1.1-1.5,1.6-2.3
		c0.6-1,1-2.1,1.3-3.3c0.5-2.4,0.3-5.2-1.1-8.5c0,0,10.7-2.2,14.5,3.6c0,0,0.4-2.7,3.8-0.9c0,0-0.5,5.4,0.2,9.9
		C358.4,502.2,362.6,503.5,359.6,517.5"/>
	<path class="st16" d="M351.4,498.6c-0.3,0.3-0.7,0.5-1.1,0.5c-0.3,0-0.6-0.1-0.9-0.3c-1.6-1.3-5.2-3.3-10.4-1.9
		c0.6-1,1-2.1,1.3-3.3c2.1-0.8,6.1-1.2,10.9,2.9C351.9,497.1,352,498,351.4,498.6"/>
	<path class="st16" d="M348.8,503.8l-0.2,0.3c-0.4,0.6-1.3,0.9-1.9,0.5c-2.1-1.3-6.9-3.6-11.7-3c0.8-0.8,1.6-1.5,2.4-2.4
		c2.3-0.5,6.7-0.8,11.1,2.7C349,502.4,349.2,503.2,348.8,503.8"/>
</g>
</svg>
