<?xml version="1.0" encoding="UTF-8"?>
<svg id="Layer_1" data-name="Layer 1" xmlns="http://www.w3.org/2000/svg" viewBox="0 0 595.28 595.28">
  <defs>
    <style>
      .cls-1 {
        fill: #fff;
      }

      .cls-2 {
        fill: #50c9f1;
      }

      .cls-3 {
        fill: #f7ec21;
      }

      .cls-4 {
        fill: #ee3024;
      }

      .cls-5 {
        fill: #b99a30;
      }

      .cls-6 {
        fill: #76c043;
      }
    </style>
  </defs>
  <g>
    <path class="cls-5" d="M298.72,497.07c-109.36,0-198.32-88.97-198.32-198.31S189.36,100.43,298.72,100.43s198.32,88.97,198.32,198.33-88.97,198.31-198.32,198.31Z"/>
    <path class="cls-2" d="M298.72,109.6c-104.3,0-189.16,84.86-189.16,189.16s84.86,189.14,189.16,189.14,189.15-84.86,189.15-189.14-84.85-189.16-189.15-189.16Z"/>
  </g>
  <g>
    <path class="cls-5" d="M262.54,548.15c.82,1.02,1.75,1.89,2.8,2.62l-2.09,3.15c-.55-.32-1.07-.73-1.57-1.2-.12-.1-.87-.98-2.27-2.64-1.43,.45-2.97,.52-4.64,.21-2.84-.52-4.94-2.01-6.29-4.45-1.36-2.45-1.67-5.68-.92-9.71,.75-4.04,2.2-6.96,4.36-8.75,2.16-1.79,4.67-2.43,7.53-1.9,2.83,.52,4.92,2.01,6.28,4.45,1.36,2.45,1.67,5.69,.92,9.71-.37,1.96-.87,3.6-1.52,4.94-.65,1.34-1.51,2.53-2.58,3.57Zm-2.69-3.32c1.29-1.23,2.18-3.21,2.69-5.92,.52-2.82,.4-5-.37-6.54-.77-1.54-1.95-2.46-3.54-2.75-1.6-.29-3.03,.14-4.3,1.31-1.27,1.16-2.17,3.15-2.69,5.96-.53,2.85-.41,5.05,.36,6.61,.77,1.56,1.91,2.47,3.43,2.75,.57,.11,1.13,.09,1.69-.04-.71-.81-1.44-1.46-2.18-1.96l1.62-2.56c1.21,.79,2.31,1.83,3.29,3.14Z"/>
    <path class="cls-5" d="M274.72,528.3l4.02,.3-.99,13.18c-.16,2.05-.21,3.38-.15,4.01,.1,1.09,.46,1.95,1.08,2.59,.63,.63,1.49,1,2.59,1.08,.93,.07,1.71-.08,2.33-.45,.62-.38,1.06-.92,1.34-1.64,.27-.72,.5-2.29,.68-4.72l1.02-13.47,4.02,.3-.97,12.79c-.24,3.27-.6,5.61-1.05,7.04-.46,1.43-1.33,2.55-2.62,3.36-1.29,.81-2.94,1.14-4.94,.99-2.08-.15-3.68-.65-4.79-1.48-1.11-.83-1.88-1.95-2.3-3.34-.43-1.4-.5-3.91-.22-7.56l.98-12.99Z"/>
    <path class="cls-5" d="M297.74,553.96l-.04-24.42,4.03-.07,.04,24.42-4.03,.06Z"/>
    <path class="cls-5" d="M314.56,553.47l-1.43-20.23-5.93,.41-.29-4.12,15.86-1.1,.29,4.12-5.91,.41,1.43,20.23-4.02,.28Z"/>
    <path class="cls-5" d="M328.94,540.21c-.49-2.87-.47-5.3,.06-7.3,.53-2,1.4-3.57,2.62-4.71,1.21-1.14,2.79-1.88,4.74-2.21,2.82-.48,5.31,.21,7.45,2.06,2.15,1.86,3.56,4.78,4.24,8.76,.69,4.03,.28,7.33-1.21,9.92-1.31,2.28-3.38,3.66-6.21,4.14-2.86,.48-5.28-.12-7.27-1.82-2.27-1.95-3.74-4.89-4.41-8.85Zm4.08-.86c.47,2.77,1.35,4.76,2.64,5.96,1.29,1.2,2.71,1.68,4.27,1.41,1.57-.27,2.75-1.17,3.54-2.72,.79-1.55,.95-3.75,.46-6.59-.48-2.79-1.33-4.77-2.56-5.93-1.23-1.16-2.66-1.61-4.28-1.33-1.62,.27-2.83,1.17-3.62,2.69-.79,1.52-.94,3.69-.46,6.51Z"/>
  </g>
  <g>
    <polygon class="cls-5" points="298.31 114.61 299.75 119.07 304.44 119.07 300.65 121.82 302.1 126.27 298.31 123.52 294.52 126.27 295.96 121.82 292.18 119.07 296.86 119.07 298.31 114.61"/>
    <polygon class="cls-5" points="319.8 118.83 321.25 123.28 325.93 123.28 322.14 126.03 323.59 130.49 319.8 127.73 316.01 130.49 317.46 126.03 313.67 123.28 318.35 123.28 319.8 118.83"/>
    <polygon class="cls-5" points="276.18 118.83 277.63 123.28 282.31 123.28 278.53 126.03 279.97 130.49 276.18 127.73 272.4 130.49 273.84 126.03 270.05 123.28 274.74 123.28 276.18 118.83"/>
    <polygon class="cls-5" points="336.86 130.49 338.31 134.94 342.99 134.94 339.21 137.69 340.65 142.15 336.86 139.4 333.08 142.15 334.52 137.69 330.73 134.94 335.42 134.94 336.86 130.49"/>
    <polygon class="cls-5" points="260.59 130.49 262.04 134.94 266.72 134.94 262.94 137.69 264.38 142.15 260.59 139.4 256.8 142.15 258.25 137.69 254.46 134.94 259.15 134.94 260.59 130.49"/>
    <polygon class="cls-5" points="345.71 146.92 347.16 151.37 351.84 151.37 348.05 154.13 349.5 158.58 345.71 155.83 341.92 158.58 343.37 154.13 339.58 151.37 344.26 151.37 345.71 146.92"/>
    <polygon class="cls-5" points="250.06 148.61 251.51 153.06 256.19 153.06 252.4 155.81 253.85 160.27 250.06 157.52 246.27 160.27 247.72 155.81 243.93 153.06 248.61 153.06 250.06 148.61"/>
    <polygon class="cls-5" points="249.37 166.19 250.82 170.64 255.5 170.64 251.71 173.4 253.16 177.85 249.37 175.1 245.59 177.85 247.03 173.4 243.24 170.64 247.93 170.64 249.37 166.19"/>
    <polygon class="cls-5" points="254.46 183.47 255.91 187.92 260.59 187.92 256.8 190.67 258.25 195.13 254.46 192.38 250.67 195.13 252.12 190.67 248.33 187.92 253.02 187.92 254.46 183.47"/>
    <polygon class="cls-5" points="271.53 195.13 272.98 199.58 277.66 199.58 273.87 202.34 275.32 206.79 271.53 204.04 267.74 206.79 269.19 202.34 265.4 199.58 270.08 199.58 271.53 195.13"/>
    <polygon class="cls-5" points="289.44 202.92 290.88 207.38 295.57 207.38 291.78 210.13 293.23 214.58 289.44 211.83 285.65 214.58 287.1 210.13 283.31 207.38 287.99 207.38 289.44 202.92"/>
    <polygon class="cls-5" points="310.57 201.87 312.02 206.32 316.7 206.32 312.91 209.08 314.36 213.53 310.57 210.78 306.78 213.53 308.23 209.08 304.44 206.32 309.12 206.32 310.57 201.87"/>
    <polygon class="cls-5" points="328.69 193.02 330.13 197.47 334.82 197.47 331.03 200.23 332.48 204.68 328.69 201.93 324.9 204.68 326.35 200.23 322.56 197.47 327.24 197.47 328.69 193.02"/>
    <polygon class="cls-5" points="341.96 180.38 343.41 184.83 348.09 184.83 344.3 187.59 345.75 192.04 341.96 189.29 338.17 192.04 339.62 187.59 335.83 184.83 340.51 184.83 341.96 180.38"/>
    <polygon class="cls-5" points="348.09 163.95 349.54 168.4 354.22 168.4 350.43 171.15 351.88 175.61 348.09 172.85 344.3 175.61 345.75 171.15 341.96 168.4 346.64 168.4 348.09 163.95"/>
  </g>
  <g>
    <path class="cls-5" d="M65.4,344.24c-1.27,.29-2.13,.54-2.61,.76-.47,.22-.83,.53-1.06,.92-.23,.39-.37,1.07-.41,2.05l-1.67,.38-2.52-11.07,1.67-.38c.31,.57,.6,1,.87,1.31,.27,.31,.61,.52,.99,.62,.39,.11,.85,.12,1.4,.05,.54-.07,1.22-.2,2.03-.38l15.82-3.6c2.09-.48,3.88-.71,5.37-.69,1.49,.02,2.79,.27,3.91,.75,1.12,.49,2.1,1.19,2.93,2.1s1.52,2,2.07,3.25,1.01,2.69,1.38,4.32c.54,2.38,.75,4.45,.63,6.21-.12,1.76-.57,3.27-1.34,4.53-.77,1.26-1.82,2.3-3.14,3.12-1.32,.82-3.11,1.49-5.38,2l-16.38,3.73c-.79,.18-1.45,.35-1.99,.52-.53,.17-.95,.37-1.24,.63s-.51,.58-.64,.99c-.13,.41-.2,.95-.23,1.63l-1.67,.38-3.01-13.21,1.67-.38c.34,.65,.66,1.11,.94,1.39,.29,.28,.6,.47,.94,.57,.34,.1,.77,.12,1.27,.08,.51-.04,1.23-.17,2.18-.39l16.71-3.8c1.33-.3,2.53-.66,3.59-1.08,1.06-.42,1.93-.94,2.61-1.56,.68-.62,1.15-1.38,1.39-2.26,.24-.88,.22-1.95-.06-3.19-.39-1.71-1.02-2.91-1.91-3.59-.88-.68-1.98-1.05-3.3-1.12-1.32-.06-3.21,.19-5.67,.75l-16.15,3.68Z"/>
    <path class="cls-5" d="M54.03,301.42l1.71-.13c.28,.67,.51,1.14,.68,1.41,.18,.27,.4,.5,.68,.67,.27,.18,.68,.3,1.21,.36,.54,.06,1.34,.05,2.43-.03l28.83-2.26,.51,6.54-19.23,13.15c-2.6,1.77-4.65,3.09-6.15,3.95l.02,.23c3.7-.46,7.61-.85,11.73-1.18l8.33-.65c1.29-.1,2.2-.24,2.7-.41,.51-.17,.9-.43,1.18-.79,.28-.36,.5-1.01,.67-1.95l1.71-.13,.76,9.72-1.71,.13c-.22-.62-.45-1.11-.69-1.46-.24-.35-.54-.61-.91-.76-.37-.15-.82-.23-1.36-.24-.54,0-1.21,.02-2.03,.08l-22.39,1.75c-1.29,.1-2.18,.23-2.67,.38s-.88,.41-1.18,.79c-.3,.38-.54,1.03-.71,1.96l-1.71,.13-.81-10.42,15.21-10.35c.96-.64,2.25-1.49,3.89-2.53s3.19-1.97,4.65-2.8l-.03-.41c-4.11,.51-8.61,.96-13.49,1.34l-4.81,.38c-1.12,.09-1.93,.19-2.42,.32-.49,.12-.86,.29-1.11,.49-.24,.2-.44,.46-.59,.77-.15,.31-.3,.83-.45,1.55l-1.71,.13-.76-9.72Z"/>
    <path class="cls-5" d="M83.61,287.58c.61,.02,1.17,.01,1.69,0,.52-.02,.95-.08,1.28-.17,.33-.09,.61-.24,.84-.43,.23-.19,.43-.46,.61-.8,.17-.34,.33-.76,.46-1.25l1.71,.05-.36,13.54-1.71-.05c-.16-.64-.33-1.15-.52-1.52-.19-.38-.46-.66-.81-.85-.35-.19-.8-.32-1.34-.38s-1.23-.11-2.06-.13l-22.4-.6c-.83-.02-1.51-.02-2.05,0-.54,.03-.99,.13-1.35,.3-.36,.17-.65,.44-.87,.8-.22,.36-.42,.87-.61,1.52l-1.71-.05,.36-13.54,1.71,.05c.17,.71,.36,1.24,.57,1.58,.21,.34,.46,.6,.77,.78,.31,.18,.71,.31,1.21,.39,.5,.08,1.24,.14,2.2,.16l22.37,.6Z"/>
    <path class="cls-5" d="M65.94,259.25c-.69-.35-1.34-.64-1.96-.86-.62-.23-1.28-.38-1.98-.48-.84-.11-1.51,.03-2.01,.41-.5,.38-.85,1.01-1.03,1.91l-1.7-.22,1.41-11.03,1.7,.22c.02,.66,.16,1.24,.42,1.73,.26,.49,.66,.96,1.21,1.4,.54,.44,1.46,1,2.73,1.66l27.37,14.4-.76,5.91-29.92,4.75c-1.34,.21-2.29,.41-2.86,.6-.57,.19-1.05,.46-1.44,.83-.39,.37-.7,.91-.95,1.62l-1.7-.22,1.81-14.16,1.7,.22c-.01,.9,.15,1.59,.49,2.07,.34,.48,.87,.76,1.59,.85,.57,.07,1.13,.09,1.68,.06,.55-.03,1.44-.14,2.67-.31l19.14-2.7-17.6-8.68Z"/>
    <path class="cls-5" d="M65.83,222.15l7.99,2.09-.9,3.42c-1.73,.13-2.93,.32-3.59,.55-.66,.24-1.22,.58-1.69,1.02-.46,.45-.87,1.31-1.2,2.59l-1.43,5.44,12.05,3.16,.86-3.29c.19-.73,.24-1.33,.14-1.8-.1-.47-.36-.91-.77-1.31-.41-.4-1.1-.86-2.05-1.38l.74-2.82,10.2,2.67-.74,2.82c-1.03-.02-1.84,.04-2.42,.19-.59,.15-1.04,.39-1.36,.72-.32,.33-.58,.89-.79,1.67l-.86,3.3,13.41,3.51,1.42-5.42c.15-.58,.24-1.08,.27-1.5,.03-.42,0-.81-.11-1.18-.1-.36-.27-.73-.52-1.11-.24-.37-.52-.72-.83-1.04-.31-.32-.73-.69-1.27-1.09-.54-.41-1.29-.9-2.27-1.48l.9-3.42,9.04,2.88-6.43,24.54-1.66-.43c0-.66-.06-1.19-.16-1.6-.1-.41-.3-.74-.59-1.01-.3-.26-.7-.49-1.22-.68-.51-.19-1.17-.39-1.98-.6l-21.65-5.67c-.79-.21-1.45-.36-2-.46-.55-.1-1.01-.1-1.39-.02-.38,.09-.72,.28-1.03,.59-.3,.3-.62,.75-.95,1.34l-1.66-.43,6.49-24.76Z"/>
    <path class="cls-5" d="M105.18,218.36l-5.14,12.54-1.59-.65c.08-.65,.1-1.19,.06-1.61-.04-.42-.2-.78-.46-1.08-.26-.3-.63-.58-1.12-.83-.49-.25-1.11-.54-1.88-.85l-20.71-8.49c-.75-.31-1.39-.55-1.92-.72-.53-.17-.99-.24-1.38-.2-.39,.04-.75,.18-1.09,.44-.34,.26-.71,.66-1.12,1.2l-1.59-.65,5.71-13.92c.77-1.88,1.56-3.42,2.36-4.62,.8-1.21,1.68-2.19,2.63-2.95,.79-.64,1.64-1.11,2.56-1.41,.91-.29,1.89-.41,2.92-.35,1.03,.06,2.15,.34,3.35,.83,1.57,.64,2.8,1.47,3.7,2.48,.9,1.01,1.53,2.13,1.89,3.37,.36,1.24,.55,2.77,.57,4.6l.24,.1c1-.97,2.08-1.66,3.25-2.08,1.17-.42,2.54-.67,4.11-.75l3.88-.17c1.73-.07,3.1-.29,4.1-.65,1-.36,1.77-.96,2.3-1.81l1.59,.65-3.77,9.19c-1.66,.4-3.99,.66-7,.78l-4.87,.18c-1.45,.06-2.51,.18-3.18,.37-.68,.19-1.2,.45-1.56,.8-.37,.34-.73,.95-1.09,1.83l-.57,1.38,7.73,3.17c1.2,.49,2.07,.78,2.59,.87,.53,.09,1,.03,1.42-.17,.42-.2,.92-.68,1.49-1.45l1.59,.65Zm-30.99-9.69l13.36,5.48,.97-2.36c.52-1.27,.78-2.39,.78-3.36,0-.97-.22-1.82-.63-2.56-.42-.74-1-1.37-1.76-1.89s-1.63-.99-2.63-1.4c-2.18-.89-4.02-1.05-5.53-.48-1.51,.57-2.67,1.86-3.49,3.87-.56,1.37-.91,2.27-1.06,2.72Z"/>
    <path class="cls-5" d="M105.51,196.31c2.01,.63,3.7,.76,5.07,.38,1.38-.38,2.54-1.42,3.49-3.12,.5-.88,.79-1.76,.89-2.64,.09-.87-.07-1.71-.51-2.52-.43-.8-1.15-1.49-2.16-2.06-.94-.53-1.84-.81-2.72-.85-.88-.04-1.84,.15-2.89,.57-1.05,.42-2.3,1.11-3.76,2.09-1.25,.84-2.45,1.55-3.62,2.14-1.16,.59-2.31,1-3.45,1.24-1.14,.24-2.26,.29-3.37,.15s-2.23-.53-3.37-1.16c-1.86-1.04-3.18-2.38-3.96-4.03-.78-1.64-1.03-3.52-.72-5.63,.3-2.11,1.09-4.3,2.37-6.59,.75-1.33,1.54-2.57,2.36-3.71,.83-1.13,1.86-2.38,3.09-3.74l6.57,3.69-1.73,3.08c-1.35-.38-2.5-.55-3.45-.5-.95,.05-1.78,.31-2.48,.78-.7,.47-1.34,1.21-1.9,2.22-.48,.86-.76,1.71-.83,2.55-.08,.84,.07,1.63,.45,2.35,.38,.73,.99,1.32,1.83,1.8,.88,.49,1.73,.75,2.56,.77,.83,.02,1.78-.19,2.83-.64,1.06-.45,2.4-1.21,4.04-2.29,2-1.3,3.76-2.22,5.29-2.76,1.52-.54,2.97-.75,4.35-.64,1.38,.11,2.79,.57,4.24,1.39,1.86,1.04,3.23,2.37,4.11,4,.89,1.62,1.24,3.46,1.05,5.5-.19,2.05-.88,4.14-2.08,6.29-.86,1.53-1.84,3.08-2.95,4.64-1.1,1.56-2.23,2.98-3.38,4.24l-6.97-3.91,1.73-3.08Z"/>
    <path class="cls-5" d="M123.55,171.11c.5,.34,.97,.64,1.42,.91,.45,.26,.84,.45,1.17,.55,.33,.1,.64,.13,.94,.1,.3-.04,.61-.15,.94-.34,.33-.19,.68-.46,1.07-.8l1.42,.97-7.63,11.19-1.42-.97c.21-.62,.34-1.14,.39-1.56,.04-.42-.03-.8-.22-1.15s-.5-.7-.92-1.05c-.42-.35-.97-.76-1.66-1.23l-18.51-12.62c-.69-.47-1.26-.84-1.73-1.1-.47-.27-.9-.43-1.29-.48-.39-.05-.78,.02-1.16,.21-.38,.19-.83,.5-1.34,.95l-1.41-.97,7.63-11.19,1.42,.97c-.24,.69-.37,1.23-.37,1.63,0,.4,.06,.76,.22,1.08,.16,.32,.43,.65,.8,.99,.38,.34,.96,.78,1.77,1.33l18.49,12.61Z"/>
    <path class="cls-5" d="M112.17,138.6c1.87-2.18,3.6-3.86,5.2-5.03,1.6-1.17,3.25-2.01,4.96-2.52,1.71-.51,3.37-.67,4.99-.5,1.62,.17,3.25,.67,4.88,1.48,1.64,.81,3.31,1.95,5,3.4,2.05,1.76,3.69,3.57,4.91,5.44,1.22,1.87,2,3.78,2.34,5.73,.31,1.74,.27,3.51-.12,5.32-.39,1.81-1.13,3.64-2.23,5.48-.95,1.59-2.33,3.43-4.13,5.54l-7.62,8.9-1.3-1.11c.28-.6,.47-1.1,.56-1.51,.09-.41,.06-.8-.09-1.17-.15-.37-.42-.75-.8-1.14-.38-.39-.89-.86-1.52-1.4l-17-14.56c-.62-.53-1.15-.96-1.6-1.29-.45-.33-.86-.54-1.24-.62-.38-.09-.77-.06-1.18,.08-.41,.14-.89,.4-1.44,.79l-1.3-1.11,8.73-10.19Zm22.8,23.03c.24-.2,.77-.78,1.59-1.73,1.23-1.44,2.06-2.83,2.47-4.17,.31-1,.41-1.99,.29-2.98-.18-1.63-.81-3.27-1.88-4.94-1.17-1.82-2.9-3.71-5.17-5.65-2.5-2.14-4.86-3.58-7.08-4.33-2.22-.75-4.24-.85-6.06-.31-1.82,.54-3.45,1.65-4.89,3.34-.69,.81-1.18,1.4-1.45,1.78l22.18,19Z"/>
    <path class="cls-5" d="M156.63,128.26l-8.25,7.31,1,2.41c.28,.68,.58,1.31,.89,1.9,.32,.59,.71,1.15,1.2,1.7,1.13,1.27,2.4,1.36,3.82,.26l1.14,1.28-8.25,7.31-1.14-1.28c.43-.47,.7-1.01,.81-1.62,.11-.6,.09-1.28-.05-2.04-.14-.75-.45-1.74-.93-2.96l-11.09-28.72,5.16-4.57,25.66,16.11c1.14,.72,1.99,1.2,2.55,1.44,.55,.24,1.1,.34,1.63,.32,.53-.02,1.13-.22,1.78-.59l1.14,1.28-10.66,9.45-1.14-1.28c.6-.67,.93-1.3,.99-1.88,.06-.58-.15-1.15-.64-1.69-.36-.4-.8-.81-1.32-1.22-.53-.41-1.23-.9-2.1-1.47l-2.21-1.44Zm-9.53,4.39l6.95-6.16-12.79-8.2,5.84,14.36Z"/>
    <path class="cls-5" d="M164.14,91.91c2.41-1.57,4.54-2.7,6.4-3.37,1.86-.68,3.68-1.02,5.46-1.03,1.78,0,3.43,.3,4.93,.92,1.5,.62,2.93,1.55,4.27,2.79,1.34,1.24,2.63,2.8,3.85,4.66,1.48,2.26,2.54,4.46,3.19,6.6,.65,2.14,.86,4.19,.64,6.15-.19,1.76-.72,3.45-1.6,5.08-.88,1.63-2.1,3.17-3.68,4.64-1.36,1.26-3.19,2.65-5.51,4.16l-9.81,6.41-.94-1.43c.44-.49,.76-.92,.96-1.29,.2-.37,.28-.75,.24-1.15-.04-.4-.19-.84-.45-1.32-.26-.48-.61-1.07-1.06-1.77l-12.24-18.73c-.45-.68-.84-1.24-1.18-1.68-.34-.44-.68-.76-1.02-.95-.34-.19-.72-.28-1.15-.25-.43,.02-.96,.14-1.61,.35l-.94-1.43,11.23-7.34Zm15.44,28.49c.29-.13,.96-.53,2.01-1.22,1.58-1.04,2.77-2.14,3.54-3.31,.58-.87,.95-1.8,1.12-2.78,.28-1.61,.14-3.37-.43-5.27-.62-2.08-1.75-4.37-3.38-6.88-1.8-2.75-3.66-4.8-5.58-6.14-1.92-1.34-3.83-2-5.73-1.99s-3.77,.62-5.63,1.83c-.89,.58-1.52,1.02-1.89,1.3l15.98,24.45Z"/>
    <path class="cls-5" d="M224.93,62.94l2.7,7.03-3.28,1.26c-1.09-1.68-2.21-2.79-3.38-3.33-1.17-.54-2.43-.56-3.77-.04-2.54,.97-3.99,2.93-4.35,5.88-.36,2.95,.38,6.83,2.23,11.64,1.72,4.48,3.61,7.64,5.69,9.48,2.07,1.85,4.26,2.33,6.55,1.45,1.17-.45,2.05-1.01,2.64-1.69,.59-.68,.95-1.5,1.09-2.46,.14-.96,.09-2.22-.14-3.78l3.3-1.27,2.82,7.34c-1.61,1.1-3.1,2.03-4.49,2.78-1.39,.76-2.87,1.43-4.44,2.04-3.34,1.28-6.3,1.72-8.88,1.32-2.58-.4-4.84-1.63-6.78-3.7-1.94-2.06-3.63-4.97-5.07-8.72-1.35-3.51-1.93-6.78-1.74-9.83s1.16-5.71,2.91-8c1.76-2.29,4.23-4.04,7.43-5.27,1.62-.62,3.13-1.1,4.51-1.43,1.38-.33,2.87-.56,4.46-.71Z"/>
    <path class="cls-5" d="M253.72,54.72l1.98,8.01-3.43,.85c-.95-1.46-1.68-2.42-2.2-2.89-.52-.47-1.09-.8-1.71-.99-.62-.2-1.57-.13-2.85,.18l-5.46,1.35,2.99,12.1,3.31-.82c.73-.18,1.29-.43,1.65-.74,.37-.31,.63-.75,.78-1.3,.16-.56,.23-1.38,.23-2.46l2.83-.7,2.53,10.23-2.83,.7c-.48-.92-.92-1.6-1.33-2.04-.41-.44-.84-.72-1.29-.85-.45-.12-1.06-.08-1.85,.11l-3.31,.82,3.33,13.46,5.44-1.34c.58-.14,1.07-.3,1.45-.48,.38-.17,.71-.39,.98-.66,.27-.26,.51-.59,.73-.98,.21-.39,.39-.8,.52-1.23,.13-.43,.25-.97,.35-1.64,.1-.67,.17-1.57,.21-2.7l3.43-.85,1.8,9.32-24.62,6.09-.41-1.66c.58-.32,1.02-.62,1.33-.9,.31-.28,.51-.62,.6-1,.09-.39,.09-.85,.01-1.39-.08-.54-.22-1.22-.42-2.02l-5.37-21.72c-.2-.79-.38-1.45-.56-1.98-.17-.53-.39-.94-.65-1.23-.26-.29-.59-.5-1-.62-.41-.12-.95-.19-1.63-.2l-.41-1.66,24.85-6.15Z"/>
    <path class="cls-5" d="M289.72,50.36l.18,1.7c-.66,.3-1.12,.54-1.39,.72-.27,.19-.48,.42-.65,.7-.17,.28-.28,.69-.32,1.22-.05,.54-.01,1.35,.1,2.43l3.07,28.76-6.52,.69-13.69-18.85c-1.85-2.55-3.22-4.57-4.12-6.04l-.23,.02c.57,3.68,1.07,7.58,1.51,11.69l.89,8.31c.14,1.29,.3,2.19,.48,2.69,.18,.5,.46,.89,.82,1.15,.37,.27,1.02,.47,1.97,.61l.18,1.7-9.7,1.03-.18-1.7c.61-.24,1.09-.48,1.44-.73,.35-.25,.59-.55,.73-.93,.14-.37,.21-.83,.21-1.37,0-.54-.05-1.21-.14-2.02l-2.38-22.33c-.14-1.29-.29-2.18-.45-2.65-.16-.48-.44-.86-.82-1.15-.39-.29-1.04-.51-1.98-.65l-.18-1.7,10.39-1.11,10.78,14.91c.67,.94,1.55,2.21,2.64,3.82,1.09,1.61,2.06,3.13,2.93,4.57l.41-.04c-.63-4.09-1.2-8.58-1.72-13.45l-.51-4.8c-.12-1.12-.25-1.92-.39-2.41-.14-.49-.31-.85-.52-1.09-.21-.24-.47-.43-.79-.57-.32-.14-.84-.28-1.56-.41l-.18-1.7,9.7-1.03Z"/>
    <path class="cls-5" d="M300.59,85.97l.06-1.71c.73-.1,1.3-.24,1.73-.42,.43-.18,.75-.45,.97-.81,.22-.36,.36-.81,.44-1.37,.07-.56,.12-1.26,.15-2.09l.92-25.87-2.09-.07c-1.03-.04-1.83,.06-2.38,.28-.56,.22-1.05,.59-1.47,1.09-.42,.5-.79,1.19-1.12,2.05-.32,.86-.59,1.68-.81,2.45l-3.53-.12,.32-9.11,30.36,1.08-.32,9.11-3.53-.13c-.29-1.19-.51-2.06-.68-2.62-.17-.56-.36-1.04-.58-1.44-.22-.4-.45-.73-.7-1-.25-.27-.52-.49-.8-.65-.29-.17-.65-.3-1.08-.39-.44-.09-1.01-.15-1.71-.18l-1.86-.07-.92,25.87c-.03,.92-.03,1.61,0,2.09,.03,.48,.12,.87,.24,1.16,.13,.3,.29,.54,.48,.73s.46,.36,.81,.52c.35,.16,.82,.29,1.42,.4l-.06,1.71-14.24-.5Z"/>
    <path class="cls-5" d="M335.62,89.08l-13.34-2.38,.3-1.69c.66-.06,1.18-.15,1.58-.29,.4-.13,.72-.36,.96-.67,.24-.32,.43-.74,.58-1.27,.15-.53,.29-1.2,.44-2.02l3.92-22.03c.14-.8,.24-1.48,.3-2.03,.05-.55,.02-1.02-.09-1.39-.12-.37-.34-.7-.66-.98-.33-.28-.8-.56-1.41-.84l.3-1.69,14.81,2.64c2,.36,3.67,.8,5.02,1.33,1.35,.53,2.49,1.18,3.44,1.94,.8,.63,1.43,1.37,1.92,2.2,.48,.83,.8,1.76,.96,2.78,.16,1.02,.12,2.17-.1,3.45-.3,1.67-.84,3.05-1.64,4.14-.8,1.09-1.76,1.94-2.89,2.56-1.13,.62-2.59,1.13-4.37,1.53l-.05,.26c1.16,.77,2.06,1.68,2.72,2.74,.66,1.06,1.19,2.34,1.61,3.86l.98,3.76c.43,1.68,.93,2.97,1.5,3.87,.56,.9,1.31,1.52,2.25,1.86l-.3,1.69-9.78-1.74c-.74-1.54-1.49-3.76-2.25-6.68l-1.2-4.72c-.36-1.4-.71-2.41-1.03-3.03-.33-.62-.7-1.07-1.11-1.36-.41-.28-1.08-.51-2.02-.68l-1.47-.26-1.47,8.23c-.23,1.28-.33,2.18-.3,2.72,.03,.53,.18,.98,.47,1.35,.28,.37,.86,.75,1.73,1.15l-.3,1.69Zm2.93-32.34l-2.53,14.21,2.52,.45c1.35,.24,2.51,.26,3.45,.05,.95-.21,1.74-.6,2.37-1.16,.63-.56,1.13-1.27,1.48-2.12,.35-.85,.62-1.81,.81-2.86,.41-2.32,.18-4.15-.7-5.5-.88-1.35-2.38-2.22-4.52-2.6-1.46-.26-2.42-.41-2.88-.46Z"/>
    <path class="cls-5" d="M372.85,87.37l-10.46-3.47-1.58,2.07c-.45,.58-.85,1.16-1.2,1.72-.35,.57-.64,1.2-.87,1.89-.53,1.61,.03,2.75,1.69,3.43l-.54,1.63-10.46-3.47,.54-1.63c.62,.13,1.23,.1,1.8-.11,.58-.21,1.16-.56,1.74-1.06,.58-.5,1.28-1.26,2.09-2.29l19.29-24,6.54,2.17-1.06,30.28c-.05,1.35-.04,2.33,.04,2.93,.07,.6,.25,1.12,.54,1.57,.29,.45,.76,.87,1.41,1.25l-.54,1.63-13.52-4.48,.54-1.63c.88,.18,1.59,.15,2.12-.09,.53-.24,.92-.71,1.14-1.4,.17-.51,.3-1.09,.39-1.76,.09-.66,.17-1.51,.22-2.55l.14-2.63Zm-8.57-6.04l8.82,2.92,.68-15.17-9.5,12.25Z"/>
    <path class="cls-5" d="M407.75,75.54l-.75,1.54c-.63-.11-1.16-.16-1.57-.14-.41,.02-.78,.15-1.11,.37-.33,.23-.64,.57-.93,1.04-.29,.46-.62,1.07-.98,1.82l-11.24,23.29,4.51,2.18c.9,.43,1.69,.64,2.36,.62,.68-.02,1.36-.23,2.03-.62,.68-.39,1.39-.99,2.13-1.8,.74-.8,1.4-1.58,1.97-2.32l3.18,1.54-5.07,9.2-22.15-10.69,.75-1.54c.65,.12,1.18,.17,1.61,.14,.42-.03,.79-.16,1.11-.4,.32-.24,.62-.6,.9-1.06,.28-.47,.61-1.08,.97-1.83l9.72-20.13c.35-.73,.63-1.36,.83-1.88,.2-.52,.3-.97,.29-1.36-.01-.39-.14-.76-.38-1.12-.24-.36-.62-.75-1.13-1.19l.75-1.54,12.2,5.89Z"/>
    <path class="cls-5" d="M440.45,94.84c2.34,1.67,4.15,3.25,5.46,4.74,1.3,1.49,2.28,3.06,2.93,4.72,.65,1.66,.96,3.3,.93,4.93-.03,1.63-.39,3.29-1.06,4.99-.67,1.7-1.66,3.46-2.96,5.28-1.57,2.19-3.24,3.98-5,5.36-1.76,1.38-3.6,2.32-5.5,2.83-1.71,.46-3.48,.57-5.31,.34-1.83-.23-3.72-.81-5.65-1.75-1.66-.81-3.62-2.02-5.87-3.63l-9.52-6.83,1-1.39c.62,.23,1.13,.37,1.55,.43,.42,.05,.8-.01,1.16-.19,.35-.18,.71-.48,1.07-.89,.36-.41,.78-.96,1.26-1.63l13.04-18.19c.47-.66,.85-1.23,1.14-1.7,.29-.48,.46-.91,.51-1.29,.05-.39,0-.78-.18-1.17-.18-.39-.48-.85-.91-1.37l1-1.39,10.91,7.82Zm-20.98,24.7c.22,.22,.84,.7,1.86,1.43,1.54,1.1,2.99,1.81,4.36,2.11,1.03,.22,2.02,.24,2.99,.04,1.61-.32,3.19-1.09,4.76-2.3,1.71-1.33,3.44-3.21,5.19-5.64,1.92-2.67,3.15-5.15,3.7-7.42,.55-2.28,.48-4.3-.21-6.06-.69-1.76-1.94-3.29-3.75-4.59-.87-.62-1.5-1.05-1.9-1.3l-17.02,23.74Z"/>
    <path class="cls-5" d="M478.09,126.85l-5.68,5.99-2.56-2.43c.72-1.58,1.14-2.72,1.25-3.41,.11-.69,.08-1.35-.08-1.98s-.73-1.39-1.69-2.3l-4.08-3.87-8.58,9.04,2.47,2.35c.55,.52,1.05,.85,1.52,.99,.46,.14,.97,.12,1.52-.04,.55-.17,1.29-.55,2.2-1.14l2.12,2.01-7.26,7.65-2.12-2.01c.52-.89,.85-1.63,1-2.22,.15-.58,.16-1.1,.02-1.54-.14-.44-.5-.94-1.09-1.5l-2.47-2.35-9.54,10.06,4.06,3.85c.44,.41,.83,.74,1.19,.96,.35,.23,.71,.39,1.08,.47,.37,.09,.77,.12,1.22,.08,.44-.03,.88-.1,1.31-.22,.43-.12,.95-.31,1.57-.59,.62-.27,1.41-.7,2.39-1.28l2.56,2.43-6.88,6.54-18.4-17.46,1.18-1.24c.58,.31,1.07,.52,1.48,.63,.41,.11,.8,.1,1.17-.03,.38-.13,.77-.38,1.18-.74,.41-.36,.91-.84,1.48-1.44l15.41-16.23c.56-.59,1.01-1.1,1.37-1.53,.35-.43,.58-.83,.69-1.21,.11-.38,.1-.77-.02-1.18-.12-.41-.36-.9-.71-1.48l1.18-1.24,18.57,17.62Z"/>
    <path class="cls-5" d="M489.81,140.61l-1.32,1.09c-.53-.37-.99-.62-1.37-.78s-.77-.19-1.16-.12c-.39,.07-.82,.25-1.28,.56-.46,.3-1.01,.72-1.65,1.25l-19.9,16.51,3.2,3.85c.64,.77,1.27,1.28,1.89,1.55,.62,.26,1.33,.36,2.11,.28,.78-.08,1.67-.33,2.68-.75,1.01-.42,1.93-.86,2.75-1.3l2.26,2.72-8.43,6.26-15.71-18.92,1.32-1.09c.54,.38,1.01,.64,1.4,.8,.4,.15,.79,.18,1.18,.1,.39-.09,.81-.29,1.26-.59,.45-.31,1-.73,1.64-1.26l17.2-14.28c.63-.52,1.14-.97,1.54-1.36,.4-.39,.67-.76,.82-1.12,.15-.36,.19-.75,.12-1.17-.07-.42-.25-.94-.53-1.55l1.32-1.09,8.65,10.42Z"/>
    <path class="cls-5" d="M517.58,181.82l-7.09,4.23-1.81-3.04c1.12-1.33,1.83-2.31,2.13-2.95,.29-.64,.45-1.28,.46-1.92,0-.65-.33-1.54-1.01-2.68l-2.88-4.83-10.7,6.38,1.74,2.93c.39,.65,.78,1.1,1.19,1.36,.41,.26,.9,.38,1.47,.37,.58-.01,1.38-.18,2.42-.5l1.49,2.5-9.05,5.4-1.49-2.5c.74-.72,1.26-1.34,1.56-1.86,.3-.52,.45-1.01,.43-1.48-.01-.46-.23-1.04-.64-1.74l-1.74-2.93-11.91,7.1,2.87,4.81c.31,.52,.6,.93,.88,1.25,.28,.31,.58,.56,.91,.75,.33,.18,.71,.32,1.15,.41,.44,.09,.88,.14,1.32,.14,.45,0,1-.04,1.67-.14,.67-.1,1.55-.29,2.64-.58l1.81,3.04-8.39,4.43-12.99-21.79,1.47-.88c.47,.46,.89,.79,1.25,1.01,.36,.22,.74,.31,1.14,.28,.4-.03,.84-.16,1.34-.39,.5-.23,1.1-.56,1.81-.99l19.22-11.46c.7-.42,1.27-.79,1.73-1.11,.45-.32,.78-.65,.99-.98s.31-.71,.3-1.14c0-.43-.1-.97-.29-1.62l1.47-.88,13.11,21.99Z"/>
    <path class="cls-5" d="M529.09,209.13l-6.88,3.06-1.43-3.21c1.62-1.17,2.67-2.35,3.15-3.55,.48-1.19,.43-2.45-.16-3.77-1.1-2.48-3.14-3.83-6.1-4.04s-6.8,.73-11.51,2.83c-4.38,1.95-7.44,4-9.18,6.17-1.74,2.16-2.11,4.37-1.11,6.62,.51,1.15,1.12,2,1.83,2.55,.71,.55,1.55,.87,2.51,.96,.97,.09,2.22-.02,3.77-.33l1.44,3.23-7.19,3.19c-1.18-1.55-2.18-2.99-3.01-4.34-.83-1.35-1.58-2.79-2.27-4.33-1.45-3.27-2.05-6.2-1.78-8.8,.27-2.59,1.38-4.92,3.34-6.96,1.96-2.05,4.77-3.89,8.44-5.52,3.43-1.53,6.67-2.27,9.73-2.25,3.05,.03,5.77,.86,8.14,2.5,2.37,1.64,4.26,4.02,5.65,7.15,.71,1.59,1.26,3.06,1.66,4.43,.4,1.37,.71,2.84,.94,4.41Z"/>
    <path class="cls-5" d="M531.71,236.81c1.25-.36,2.1-.67,2.56-.92s.79-.58,1-.98c.21-.4,.3-1.09,.29-2.07l1.64-.48,3.18,10.9-1.64,.48c-.34-.55-.66-.96-.95-1.26-.29-.29-.64-.48-1.03-.56-.39-.08-.86-.07-1.4,.03-.54,.1-1.21,.27-2,.5l-15.58,4.55c-2.06,.6-3.83,.94-5.32,1.01-1.48,.07-2.8-.1-3.95-.51-1.15-.42-2.17-1.06-3.05-1.92-.88-.86-1.64-1.9-2.26-3.12-.62-1.22-1.17-2.62-1.64-4.23-.69-2.35-1.02-4.4-1-6.16,.02-1.76,.37-3.29,1.06-4.6,.69-1.3,1.67-2.41,2.94-3.31,1.27-.9,3.02-1.67,5.25-2.32l16.12-4.71c.78-.23,1.43-.44,1.95-.64,.52-.2,.92-.43,1.2-.7,.28-.27,.47-.61,.58-1.03,.1-.42,.15-.96,.13-1.64l1.64-.48,3.8,13-1.64,.48c-.38-.62-.72-1.07-1.02-1.33-.3-.26-.63-.43-.97-.51-.35-.08-.77-.08-1.27,0-.5,.07-1.22,.25-2.15,.52l-16.45,4.8c-1.31,.38-2.48,.81-3.52,1.3-1.03,.48-1.87,1.05-2.51,1.72s-1.06,1.44-1.25,2.34c-.19,.9-.1,1.96,.25,3.18,.49,1.68,1.2,2.84,2.12,3.47,.92,.63,2.04,.93,3.36,.91,1.32-.02,3.19-.38,5.62-1.09l15.9-4.64Z"/>
    <path class="cls-5" d="M519.28,266.67l-1.69-10.89-2.57-.46c-.72-.13-1.41-.23-2.08-.28-.66-.05-1.36-.02-2.08,.09-1.68,.26-2.44,1.28-2.28,3.07l-1.69,.26-1.69-10.89,1.69-.26c.16,.62,.47,1.14,.92,1.55,.45,.42,1.03,.77,1.74,1.06,.71,.29,1.71,.56,2.99,.82l30.15,6.22,1.05,6.81-27.43,12.86c-1.23,.57-2.09,1.03-2.59,1.37-.5,.34-.88,.74-1.15,1.2-.27,.46-.43,1.07-.47,1.82l-1.69,.26-2.18-14.08,1.69-.26c.24,.87,.59,1.48,1.05,1.85,.46,.36,1.05,.49,1.77,.38,.53-.08,1.11-.23,1.74-.45,.63-.22,1.42-.54,2.37-.97l2.41-1.08Zm1.47-10.38l1.42,9.18,13.81-6.32-15.23-2.86Z"/>
    <path class="cls-5" d="M545.77,292.34c.05,2.87-.14,5.28-.56,7.21-.42,1.93-1.1,3.66-2.05,5.17-.95,1.51-2.08,2.74-3.41,3.68-1.33,.94-2.87,1.65-4.64,2.13-1.77,.47-3.77,.73-6,.77-2.7,.04-5.13-.23-7.28-.82-2.16-.59-4.01-1.51-5.55-2.74-1.38-1.1-2.53-2.45-3.44-4.06-.91-1.61-1.56-3.47-1.96-5.58-.34-1.82-.53-4.11-.58-6.88l-.19-11.71,1.71-.03c.18,.63,.38,1.13,.58,1.5,.2,.37,.49,.64,.84,.81,.36,.17,.81,.28,1.36,.33,.55,.04,1.23,.06,2.07,.04l22.38-.36c.81-.01,1.5-.05,2.05-.1,.55-.05,1-.17,1.34-.36,.34-.19,.62-.47,.83-.84,.21-.37,.4-.89,.56-1.54l1.71-.03,.22,13.42Zm-32.34-2.14c-.05,.31-.06,1.09-.04,2.35,.03,1.89,.33,3.48,.91,4.76,.43,.96,1.02,1.76,1.75,2.42,1.21,1.1,2.77,1.92,4.69,2.45,2.09,.59,4.63,.86,7.62,.81,3.29-.05,6.01-.54,8.17-1.45,2.16-.91,3.74-2.17,4.74-3.78,1-1.61,1.49-3.52,1.45-5.74-.02-1.07-.05-1.83-.09-2.3l-29.2,.47Z"/>
    <path class="cls-5" d="M507.93,327.13c.71-5.01,2.71-8.56,6.02-10.66,3.3-2.1,7.89-2.73,13.77-1.9,3.86,.54,7.06,1.62,9.63,3.22,2.56,1.61,4.39,3.69,5.47,6.26s1.4,5.49,.94,8.76c-.72,5.09-2.73,8.71-6.03,10.85-3.3,2.14-7.85,2.8-13.64,1.98-3.24-.46-5.97-1.23-8.18-2.32-2.22-1.09-3.97-2.43-5.26-4.04-1.29-1.61-2.15-3.44-2.58-5.49-.43-2.05-.47-4.28-.13-6.68Zm19.33-4.33c-5.18-.73-9.12-.66-11.82,.22-2.7,.88-4.23,2.59-4.59,5.12-.18,1.31,.01,2.48,.59,3.5,.58,1.02,1.47,1.9,2.67,2.66,1.2,.75,2.65,1.37,4.36,1.87,1.71,.49,3.62,.89,5.71,1.18,3.41,.48,6.31,.62,8.69,.41,2.38-.21,4.23-.78,5.56-1.69,1.33-.92,2.11-2.22,2.35-3.9,.35-2.47-.58-4.47-2.78-6.01-2.2-1.54-5.78-2.65-10.74-3.36Z"/>
    <path class="cls-5" d="M502.13,356.48l3.83-12.99,1.64,.48c-.01,.66,.02,1.2,.11,1.61,.09,.41,.27,.75,.56,1.03,.29,.27,.69,.51,1.2,.72,.51,.2,1.16,.42,1.96,.66l21.46,6.33c.78,.23,1.44,.4,1.99,.52,.54,.12,1.01,.13,1.39,.06,.38-.08,.73-.26,1.04-.55,.31-.29,.64-.73,1-1.31l1.64,.49-4.26,14.43c-.57,1.95-1.2,3.56-1.87,4.84-.68,1.28-1.45,2.35-2.31,3.21-.72,.72-1.52,1.27-2.4,1.66-.88,.38-1.84,.6-2.87,.64-1.03,.04-2.17-.12-3.42-.48-1.63-.48-2.94-1.18-3.93-2.09-.99-.91-1.74-1.96-2.22-3.16-.49-1.19-.83-2.7-1.04-4.52l-.25-.07c-.89,1.06-1.9,1.87-3.02,2.4-1.12,.54-2.46,.93-4.01,1.17l-3.85,.56c-1.71,.25-3.05,.6-4.01,1.06-.96,.46-1.66,1.14-2.1,2.03l-1.64-.49,2.81-9.53c1.61-.56,3.9-1.06,6.88-1.49l4.83-.68c1.43-.2,2.47-.44,3.13-.69,.65-.26,1.14-.57,1.47-.95,.33-.38,.63-1.02,.89-1.93l.42-1.44-8.02-2.37c-1.25-.37-2.13-.57-2.67-.6-.53-.03-1,.07-1.39,.32-.4,.24-.84,.77-1.34,1.6l-1.64-.48Zm31.82,6.48l-13.84-4.08-.72,2.45c-.39,1.32-.53,2.46-.43,3.43,.1,.96,.4,1.79,.89,2.48,.49,.69,1.14,1.26,1.95,1.71,.81,.44,1.73,.82,2.75,1.12,2.26,.67,4.11,.64,5.55-.08,1.44-.72,2.47-2.12,3.08-4.2,.42-1.42,.68-2.36,.78-2.81Z"/>
  </g>
  <g>
    <path class="cls-5" d="M199.84,501.38l6.01-13.12,9,4.12-1.02,2.22-6.35-2.91-1.42,3.11,5.48,2.51-1.02,2.22-5.48-2.51-2.55,5.58-2.65-1.21Z"/>
    <path class="cls-5" d="M218.87,494.07l2.73,1.02-2.73,7.33c-.43,1.16-.68,1.93-.74,2.3-.09,.6,.02,1.15,.34,1.64,.31,.5,.85,.89,1.62,1.18,.77,.29,1.42,.35,1.93,.18,.51-.17,.89-.47,1.14-.9,.25-.43,.58-1.18,.98-2.25l2.79-7.48,2.73,1.02-2.65,7.11c-.61,1.62-1.11,2.74-1.5,3.36-.4,.62-.88,1.08-1.45,1.39-.57,.31-1.24,.48-2,.51-.77,.03-1.68-.16-2.75-.56-1.29-.48-2.22-1-2.77-1.54-.56-.55-.94-1.13-1.15-1.75-.21-.62-.28-1.21-.21-1.79,.11-.84,.45-2.02,1.01-3.53l2.69-7.22Z"/>
    <path class="cls-5" d="M230.54,513.56l3.97-13.88,2.73,.78,3.03,10.89,2.65-9.27,2.6,.74-3.96,13.88-2.81-.8-3.01-10.65-2.59,9.05-2.6-.74Z"/>
    <path class="cls-5" d="M250.43,504.03l5.22,1.06c1.18,.24,2.06,.51,2.64,.82,.78,.41,1.4,.99,1.87,1.74,.47,.74,.76,1.6,.89,2.57s.05,2.11-.21,3.44c-.24,1.17-.58,2.14-1.04,2.92-.56,.96-1.24,1.69-2.02,2.19-.59,.38-1.34,.62-2.24,.72-.67,.07-1.53,0-2.59-.21l-5.38-1.09,2.87-14.15Zm2.37,2.97l-1.9,9.37,2.13,.43c.8,.16,1.38,.23,1.75,.21,.49-.02,.91-.14,1.27-.35,.36-.21,.7-.62,1.02-1.21,.32-.59,.59-1.44,.82-2.53,.22-1.09,.29-1.95,.22-2.58-.07-.62-.25-1.14-.53-1.54-.28-.4-.68-.71-1.19-.94-.38-.17-1.15-.37-2.32-.61l-1.28-.26Z"/>
    <path class="cls-5" d="M277.87,523.05l-3.15-.39-.85-3.41-5.73-.7-1.58,3.11-3.07-.38,7.34-13.64,3.06,.38,3.98,15.03Zm-4.63-6.32l-1.32-5.56-2.59,5.08,3.91,.48Z"/>
    <path class="cls-5" d="M283.15,508.97l5.32,.24c1.2,.05,2.11,.19,2.73,.4,.83,.29,1.54,.76,2.12,1.43,.57,.66,1,1.46,1.27,2.4,.27,.94,.38,2.08,.32,3.43-.05,1.19-.25,2.2-.58,3.05-.41,1.03-.96,1.86-1.66,2.48-.53,.47-1.23,.82-2.1,1.06-.65,.17-1.52,.24-2.59,.19l-5.48-.25,.65-14.42Zm2.8,2.57l-.43,9.55,2.17,.1c.81,.04,1.4,.02,1.77-.06,.48-.1,.88-.28,1.2-.55,.32-.27,.6-.72,.83-1.36,.22-.64,.36-1.51,.41-2.63,.05-1.12,0-1.98-.18-2.58-.17-.61-.42-1.08-.76-1.43-.34-.35-.78-.6-1.32-.74-.4-.11-1.2-.19-2.38-.24l-1.31-.06Z"/>
    <path class="cls-5" d="M313.27,523.54l-3.17,.1-1.36-3.24-5.77,.18-1.09,3.32-3.09,.1,5.16-14.61,3.08-.1,6.24,14.25Zm-5.55-5.54l-2.16-5.29-1.78,5.42,3.94-.12Z"/>
    <path class="cls-5" d="M325.04,522.44l-1.98-14.3,10.6-1.47,.33,2.42-7.72,1.07,.44,3.17,7.18-1,.33,2.41-7.18,1,.54,3.89,7.99-1.11,.33,2.41-10.88,1.51Z"/>
    <path class="cls-5" d="M341.39,519.96l-3.05-14.11,2.77-.6,7.81,8.17-2.04-9.42,2.65-.57,3.05,14.11-2.86,.62-7.68-7.97,1.99,9.2-2.65,.57Z"/>
    <path class="cls-5" d="M372.29,511.74l-2.63,.87-3.27-9.9c-.66,1.21-1.58,2.25-2.74,3.11l-.79-2.38c.61-.45,1.22-1.12,1.81-2.02,.6-.89,.91-1.8,.93-2.74l2.13-.7,4.54,13.77Z"/>
    <path class="cls-5" d="M383.54,495.8l-2.38,1.27c-.27-.49-.58-.8-.93-.94-.35-.14-.73-.13-1.14,.03-.54,.22-.9,.64-1.08,1.28-.18,.64,0,1.75,.51,3.33,.34-1.01,.98-1.71,1.93-2.09,1.07-.43,2.16-.39,3.25,.12,1.09,.51,1.9,1.41,2.41,2.7,.55,1.37,.59,2.63,.12,3.78-.47,1.15-1.34,1.98-2.6,2.48-1.35,.54-2.68,.46-3.97-.24-1.29-.7-2.42-2.25-3.38-4.65-.98-2.46-1.24-4.41-.77-5.86,.47-1.45,1.44-2.46,2.89-3.05,1.02-.41,1.97-.46,2.87-.16,.9,.3,1.65,.96,2.27,1.97Zm-3.58,7.94c.33,.83,.79,1.4,1.35,1.7,.56,.3,1.09,.35,1.59,.15,.48-.19,.8-.54,.97-1.03,.17-.5,.08-1.17-.26-2.02-.35-.87-.78-1.44-1.28-1.71-.5-.27-1.01-.3-1.52-.1-.49,.2-.83,.56-1.02,1.08-.19,.52-.13,1.16,.17,1.92Z"/>
    <path class="cls-5" d="M390.35,500.66l2.37-1.44c.34,.53,.76,.88,1.27,1.04,.51,.16,.99,.13,1.44-.08,.52-.25,.86-.67,1.02-1.27,.16-.6,.04-1.32-.37-2.17-.38-.8-.84-1.32-1.39-1.55-.55-.23-1.11-.21-1.69,.07-.72,.34-1.21,.96-1.48,1.87l-2.17,.67-1.94-7.4,6.61-3.14,1.11,2.34-4.71,2.24,.66,2.4c.43-.54,.93-.95,1.51-1.23,1.11-.53,2.24-.57,3.39-.13,1.15,.44,2.04,1.3,2.65,2.59,.51,1.07,.65,2.18,.43,3.32-.3,1.55-1.21,2.69-2.71,3.4-1.2,.57-2.34,.71-3.4,.43s-1.93-.94-2.6-1.96Z"/>
    <path class="cls-5" d="M410.73,494.46l-2.42,1.34-5.05-9.13c-.43,1.32-1.13,2.51-2.11,3.57l-1.21-2.2c.52-.56,.99-1.33,1.41-2.32,.42-.99,.56-1.94,.41-2.87l1.96-1.09,7.02,12.69Z"/>
  </g>
  <g>
    <path class="cls-5" d="M298.21,574.07c-151.81,0-275.32-123.51-275.32-275.3S146.4,23.44,298.21,23.44s275.32,123.51,275.32,275.33-123.51,275.3-275.32,275.3Zm0-538.71c-145.24,0-263.4,118.17-263.4,263.41s118.16,263.38,263.4,263.38,263.4-118.16,263.4-263.38S443.45,35.35,298.21,35.35Z"/>
    <g>
      <g>
        <path class="cls-1" d="M389.44,364.71s-.32,50.42-13,72.12l13-11,2.6,22.31s22.46-48.59,16.35-83.42c0,0,.92-4.58-4.58-4.89h-8.25s-4.58,0-6.11,4.89Z"/>
        <path class="cls-5" d="M391.51,451.47l-2.78-23.84-15.77,13.35,2.7-4.62c12.4-21.24,12.87-71.16,12.87-71.66l.04-.27c1.37-4.38,5.17-5.53,6.99-5.53h8.25c2.11,.12,3.63,.79,4.57,2.01,1.13,1.46,1.02,3.21,.94,3.79,6,34.71-16.22,83.33-16.44,83.82l-1.37,2.96Zm-1.35-27.45l2.4,20.63c4.74-11.23,20.04-50.64,14.93-79.78l-.03-.17,.04-.17s.26-1.45-.57-2.51c-.61-.77-1.67-1.2-3.16-1.29h-8.2c-.15,0-3.86,.09-5.2,4.12-.03,3.33-.6,45.54-10.99,68.29l10.79-9.13Z"/>
      </g>
      <g>
        <path class="cls-1" d="M387.99,229.43s46.37,23.45,50.65,67.15c0,0,6.11,58.65-28.11,98.38,0,0-1.31,.94-2.41,0l-12.76-14.61s-.49-.06,2.26-1.82c0,0,26.05-31.47,18.72-79.78,0,0-7.53-48.99-57.09-54.46,0,0-1.6-.67-.92-1.75l.5-6.11,29.17-7.01Z"/>
        <path class="cls-5" d="M409.23,396.3c-.63,0-1.22-.22-1.71-.64l-12.62-14.44-.29-.04-.17-.66c-.15-.68,.18-1.15,2.57-2.68,1.63-2.06,25.4-33.02,18.43-78.95-.07-.48-8.02-48.36-56.28-53.69l-.26-.07c-.21-.09-1.26-.57-1.57-1.54-.1-.32-.15-.79,.1-1.32l.54-6.58,30.14-7.24,.3,.15c.47,.24,46.87,24.19,51.15,67.88,.06,.59,5.76,59.5-28.33,99.07l-.16,.15c-.08,.06-.85,.59-1.83,.59Zm-12.66-15.94l12.23,14c.16,.11,.91,.02,1.12-.1,33.46-38.96,27.87-97,27.81-97.58-4-40.88-45.92-64.18-49.86-66.27l-28.19,6.77-.46,5.67-.12,.19c0,.1,.22,.27,.4,.37,49.54,5.57,57.66,54.72,57.74,55.22,7.31,48.15-18.65,80.18-18.92,80.5l-.21,.19c-.76,.49-1.24,.82-1.54,1.05Z"/>
      </g>
      <g>
        <path class="cls-1" d="M394.73,374.95s-1.5,10.51,3.88,2.29c0,0,8.12-11.69,9.38-16.41,0,0-.02-1.25-1.79-1.59l-10.64,.58-.82,15.13Z"/>
        <path class="cls-5" d="M395.52,381.3h0c-.45,0-.87-.19-1.17-.55-1.09-1.26-.68-4.86-.52-5.93l.86-15.87,11.57-.63,.11,.02c1.99,.38,2.53,1.79,2.54,2.47v.13s-.03,.12-.03,.12c-1.28,4.82-9.18,16.22-9.51,16.7-1.62,2.47-2.77,3.53-3.84,3.53Zm.91-20.61l-.78,14.3c-.26,1.84-.25,3.76,0,4.39,.28-.18,.96-.76,2.2-2.65,.09-.13,7.86-11.34,9.21-15.97-.05-.14-.24-.45-.93-.61l-9.7,.53Z"/>
      </g>
      <path class="cls-5" d="M359.45,244.64l-.44-.51-1.08-.44c.17-.42,.49-1.2,29.67-15.08l.79,1.66c-10.57,5.03-27.78,13.38-28.93,14.38Z"/>
    </g>
    <g>
      <g>
        <path class="cls-1" d="M208.08,366.75s.32,50.42,13,72.12l-13-11-2.6,22.31s-22.46-48.59-16.35-83.42c0,0-.92-4.58,4.58-4.89h8.25s4.58,0,6.11,4.89Z"/>
        <path class="cls-5" d="M206.01,453.51l-1.37-2.96c-.22-.49-22.45-49.11-16.44-83.82-.08-.58-.19-2.33,.94-3.79,.94-1.22,2.46-1.89,4.52-2.01h8.3c1.82,0,5.62,1.15,6.99,5.53l.04,.27c0,.5,.47,50.43,12.87,71.66l2.7,4.62-15.77-13.35-2.78,23.84Zm-4.05-90.73h-8.25c-1.44,.08-2.51,.51-3.11,1.28-.83,1.06-.58,2.5-.57,2.51l.03,.16-.03,.17c-5.11,29.15,10.19,68.55,14.93,79.78l2.4-20.63,10.79,9.13c-10.39-22.76-10.96-64.97-10.99-68.3-1.34-4.03-5.04-4.12-5.2-4.12Z"/>
      </g>
      <g>
        <path class="cls-1" d="M209.53,231.47s-46.37,23.45-50.65,67.15c0,0-6.11,58.65,28.11,98.38,0,0,1.31,.95,2.41,0l12.76-14.61s.49-.06-2.26-1.82c0,0-26.05-31.47-18.72-79.77,0,0,7.53-48.99,57.09-54.46,0,0,1.6-.67,.92-1.75l-.5-6.11-29.17-7.01Z"/>
        <path class="cls-5" d="M188.29,398.34h0c-.98,0-1.75-.53-1.83-.59l-.16-.14c-34.09-39.57-28.39-98.48-28.33-99.07,4.28-43.69,50.68-67.64,51.15-67.88l.3-.15,30.14,7.24,.54,6.58c.26,.54,.2,1.01,.1,1.32-.31,.97-1.36,1.45-1.57,1.54l-.25,.07c-48.3,5.33-56.21,53.21-56.28,53.69-6.98,45.96,16.8,76.89,18.43,78.94,2.38,1.53,2.72,2,2.57,2.68l-.14,.63-.31,.05-12.54,14.36c-.58,.51-1.17,.73-1.81,.73Zm-.69-2.04c.14,.08,.42,.2,.69,.2h0c.2,0,.36-.06,.52-.2l12.14-13.91c-.3-.22-.77-.56-1.54-1.05l-.21-.19c-.26-.32-26.23-32.35-18.92-80.5,.08-.5,8.19-49.65,57.74-55.22,.2-.11,.4-.27,.43-.36l-.17-.43-.44-5.45-28.19-6.77c-3.94,2.1-45.86,25.39-49.86,66.27-.06,.59-5.66,58.63,27.81,97.59Z"/>
      </g>
      <g>
        <path class="cls-1" d="M202.79,376.99s1.5,10.51-3.88,2.29c0,0-8.12-11.69-9.38-16.41,0,0,.02-1.25,1.79-1.59l10.64,.58,.82,15.13Z"/>
        <path class="cls-5" d="M202,383.34c-1.07,0-2.23-1.06-3.86-3.56-.32-.46-8.22-11.86-9.5-16.68l-.03-.12v-.13c.01-.69,.55-2.1,2.54-2.47l.11-.02h.11s11.46,.63,11.46,.63l.87,15.95c.15,1,.56,4.6-.53,5.85-.31,.35-.72,.55-1.17,.55Zm-11.53-20.52c1.36,4.63,9.12,15.82,9.2,15.94,1.25,1.9,1.93,2.49,2.21,2.67,.24-.64,.26-2.55,0-4.31l-.78-14.38-9.7-.53c-.67,.15-.87,.45-.93,.62Z"/>
      </g>
      <path class="cls-5" d="M238.07,246.68c-1.16-1-18.36-9.35-28.93-14.38l.79-1.66c29.18,13.88,29.5,14.66,29.67,15.08l-1.7,.69,.85-.35-.68,.61Z"/>
    </g>
    <g>
      <path class="cls-1" d="M208.54,211.79s84.9,29.71,179.45-3.03v20.68s-93.28,29.57-178.3,2.06l-1.15-19.71Z"/>
      <path class="cls-5" d="M289.91,244.12c-29.31,0-56.39-3.95-80.51-11.76l-.6-.19-1.26-21.71,1.3,.45c.35,.12,35.74,12.3,85.4,12.3,32.63,0,64.06-5.16,93.44-15.33l1.22-.42v22.64l-.64,.2c-.44,.14-44.22,13.82-98.36,13.82Zm-79.35-13.31c23.78,7.61,50.47,11.47,79.35,11.47,50.3,0,91.58-11.86,97.16-13.54v-18.72c-29.22,9.96-60.44,15.01-92.83,15.01-44.65,0-77.87-9.79-84.71-11.98l1.03,17.74Z"/>
    </g>
  </g>
  <g>
    <g>
      <g>
        <rect class="cls-3" x="218" y="247.25" width="160.43" height="80.05"/>
        <path class="cls-6" d="M218,327.29v83.6s2.75,9.11,11.69,10.04h57.98s10.2,1.58,11.52,18.68c0,0-.06-19.14,11.17-18.91h57.52s10.08,1.63,10.54-10.74v-82.67H218Z"/>
      </g>
      <path class="cls-5" d="M375.31,250.37v159.54c-.2,5.14-2.32,7.75-6.28,7.75-.39,0-.64-.03-.65-.03h0s-.25-.04-.25-.04h-57.71s-.27,0-.27,0c-3.11,0-5.91,1.17-8.11,3.37-1.46,1.46-2.56,3.28-3.4,5.2-4.11-7.21-10.14-8.25-10.5-8.3l-.24-.04h-58.05c-5.78-.69-8.18-5.97-8.74-7.45V250.37h154.19m3.12-3.12H218v163.65s2.75,9.11,11.69,10.04h57.98s10.2,1.58,11.52,18.68c0,0-.06-18.91,10.97-18.91,.07,0,.13,0,.2,0h57.52s.44,.07,1.14,.07c2.65,0,9.04-1.03,9.4-10.81V247.25h0Z"/>
      <rect class="cls-5" x="218" y="325.74" width="160.43" height="3.12"/>
    </g>
    <g>
      <g>
        <g>
          <g>
            <path class="cls-1" d="M261.51,386.55l32.05-12.82,65.85,1.42s5.73,2.71,2.17,6.88l-27.78,18.41h-75.96s7.93-4.99,3.66-13.89Z"/>
            <path class="cls-5" d="M334.02,401.12h-78.54l2-1.27c.3-.19,7.36-4.78,3.41-13.01l-.32-.66,32.87-13.15h.14s66,1.43,66,1.43l.13,.06c.12,.06,3.11,1.49,3.65,4.01,.28,1.31-.14,2.63-1.25,3.93l-.14,.13-27.95,18.53Zm-74.25-1.38h73.84l27.52-18.24c.77-.93,1.07-1.83,.89-2.67-.34-1.61-2.26-2.73-2.77-3l-65.56-1.42-31.26,12.5c2.7,6.37-.54,10.79-2.66,12.83Z"/>
          </g>
          <g>
            <polyline class="cls-1" points="261.75 387.08 335.62 387.08 358.38 375.15"/>
            <polygon class="cls-5" points="335.79 387.77 261.75 387.77 261.75 386.39 335.46 386.39 358.06 374.54 358.7 375.76 335.79 387.77"/>
          </g>
        </g>
        <rect class="cls-5" x="327.98" y="393.07" width="13.48" height="1.38" transform="translate(-100.57 672.33) rotate(-82.25)"/>
      </g>
      <g>
        <path class="cls-5" d="M235.64,336.06c4.89,2.44,10.24,9.78,10.24,9.78,14.97,17.72,48.59,32.09,48.59,32.09,8.55,2.9,12.15,1.46,12.15,1.46l4.72,2c.22-.28,.41-.67,.61-1.06-40.78-34.12-76.3-44.27-76.3-44.27Z"/>
        <path class="cls-5" d="M322.36,390.99l-5.56-1.51-5.44-3.61-.59-4.16-.6-.74,.02-.02s0-.01,0-.02c-.07-.16-.11-.42,.05-.75l.39-.78,.55,.46c.12,.01,.29,.02,.45,.03,.42,.02,.69,.03,.9,.1l3.43,.39,4.48,6.03,1.94,4.58Zm-4.9-2.72l2.55,.68-.78-1.87-4.04-5.4-3.1-.36h0s.53,3.74,.53,3.74l4.83,3.2Z"/>
        <path class="cls-1" d="M252.43,349.18c1.87,.15,3.74,.27,5.61,.37-.19,.44-.62,.77-1.02,1.05,1.13,.07,2.66,.24,3.58,.79-.29,.37-.73,.48-1.04,.82,.72,.06,1.56,.03,2.16,.45-.43,.13-.94,.36-1.21,.63,.61,.29,1.39,.22,1.97,.45-.23,.13-.42,.41-.67,.53,.79,.06,1.66,0,2.41,.19-.5,.03-.54,.09-.62,.45,.78,.47,1.83,.63,2.74,.71-.26,.17-.47,.38-.76,.5,.23,.45,1.12,.41,1.67,.56-.37,.49-1.21,.7-.51,1.33-.87,.35-5.11,.7-5.51-.07,.07-.05,.14-.08,.22-.1-.69-.34-1.59-.19-2.36-.29,.03-.01,.36-.29,.44-.33-.84-.47-.33-1.01-1.45-1.4,.11-.02,.23-.04,.36-.05-.93-.65-2.24-.97-3.29-1.43,.09-.03,.18-.06,.27-.1,.16-.92-.84-1.21-1.76-1.42-.02-.04,0-.07,.06-.08-.35-.18-.74-.32-1.07-.5,.4-1.22-1.1-1.77-1.67-2.61,.5-.24,1.38-.21,1.95-.25"/>
        <path class="cls-1" d="M266.52,359.95c1.45-.11,2.9-.25,4.34-.4-.09,.39-.38,.73-.64,1.02,.87-.08,2.07-.13,2.85,.22-.17,.34-.5,.5-.69,.82,.56-.04,1.2-.18,1.71,.11-.31,.17-.67,.42-.85,.69,.51,.16,1.09,.02,1.57,.14-.16,.14-.27,.4-.44,.53,.61-.04,1.27-.21,1.87-.14-.38,.09-.4,.14-.42,.46,.66,.31,1.49,.31,2.2,.25-.18,.18-.31,.39-.52,.52,.24,.35,.91,.2,1.35,.27-.22,.46-.84,.75-.22,1.19-.62,.41-3.82,1.24-4.23,.63,.04-.05,.1-.09,.16-.11-.57-.21-1.24,.04-1.85,.05,.02-.01,.23-.29,.3-.34-.71-.29-.38-.81-1.29-1,.08-.04,.17-.07,.27-.09-.8-.44-1.84-.54-2.71-.8,.07-.04,.13-.07,.2-.12,0-.8-.81-.92-1.53-.98-.02-.03,0-.06,.04-.07-.29-.11-.61-.18-.88-.29,.15-1.09-1.08-1.36-1.62-2,.35-.27,1.03-.36,1.46-.46"/>
        <path class="cls-1" d="M283.77,370.11c1.12-.26,2.24-.55,3.36-.84-.02,.33-.2,.64-.37,.91,.68-.17,1.61-.36,2.26-.16-.09,.3-.33,.47-.43,.75,.44-.1,.92-.29,1.36-.12-.22,.17-.47,.42-.57,.66,.42,.07,.86-.12,1.25-.07-.11,.13-.16,.36-.28,.49,.47-.11,.97-.32,1.45-.34-.29,.12-.3,.16-.27,.43,.55,.17,1.2,.07,1.76-.06-.12,.17-.19,.35-.34,.49,.23,.25,.74,.06,1.1,.06-.11,.4-.56,.71-.02,1-.43,.4-2.84,1.46-3.24,1.02,.03-.05,.06-.08,.11-.11-.47-.1-.97,.18-1.44,.26,.02-.02,.14-.27,.19-.31-.59-.16-.41-.62-1.14-.66,.06-.04,.12-.08,.2-.11-.69-.26-1.52-.22-2.23-.33,.05-.04,.09-.07,.14-.12-.1-.65-.75-.66-1.33-.62-.02-.02-.01-.04,.02-.06-.24-.05-.5-.07-.73-.13-.03-.9-1.02-.98-1.54-1.44,.24-.26,.76-.41,1.09-.55"/>
        <path class="cls-1" d="M289.27,372.69c1.12-.26,2.24-.55,3.36-.84-.02,.33-.2,.64-.37,.91,.68-.17,1.61-.36,2.26-.16-.09,.3-.33,.46-.43,.75,.44-.1,.92-.28,1.36-.12-.22,.18-.47,.42-.57,.66,.42,.07,.86-.12,1.25-.08-.11,.13-.16,.36-.28,.49,.47-.11,.97-.32,1.45-.33-.29,.12-.3,.16-.27,.42,.55,.17,1.2,.07,1.75-.05-.12,.17-.19,.35-.34,.49,.23,.25,.74,.06,1.1,.06-.11,.4-.56,.71-.02,1-.43,.4-2.83,1.46-3.24,1.02,.03-.05,.06-.08,.11-.11-.47-.1-.97,.18-1.44,.26,.02-.01,.15-.27,.19-.31-.59-.16-.41-.62-1.14-.66,.06-.04,.12-.08,.2-.11-.69-.26-1.52-.22-2.23-.33,.05-.04,.09-.07,.14-.12-.1-.65-.75-.66-1.33-.62-.02-.02-.01-.05,.02-.06-.24-.06-.5-.08-.73-.13-.03-.9-1.02-.98-1.54-1.44,.24-.26,.76-.41,1.09-.55"/>
      </g>
      <path class="cls-5" d="M317.52,381.73l29.1-30.39-.92,9.25-13.63,47.48,17.3-47.48v-16.13l7.56-11.69s-.9-2.47-2.69-.65l-5.75,12.28-28.07,30.62-6.11,11.16,3.21-4.45Z"/>
    </g>
    <g>
      <g>
        <path class="cls-5" d="M325.45,263.37c.81,2.21,2.49,3.75,2.51,6.11,.01,1.03,.05,2.08-.02,3.11-.13,1.92-.47,3.88-1.04,5.74,.55-.15,1.32-.26,1.74-.74-.2,1.31-.59,2.55-.69,3.91-.05,.81,.01,1.68-.4,2.34,.61,.27,1.43,.05,2-.25,.11,1.5-1.4,3.49-1.97,4.84-.9,2.13-1.43,4.27-1.95,6.5,.77-.59,1.68-.99,2.49-1.55,.43-.3,.91-.72,1.4-.99-.17,.86-.62,1.53-.8,2.36-.13,.59-.28,1.14-.7,1.66,.61,.57,5.73,.49,6.67,.09-.04,.78-1.07,1.72-1.31,2.54,1.99,1.1,2.74,.75,3.11,3.23,.15,1.01,.05,2.28,.35,3.21-.87,.14-1.89-.1-2.78-.08-.12,.64,.59,1.47,.09,1.94-.4,.38-1.75-.02-2.24-.02-1.85,0-1.61,1.64-1.64,3.08-.8,0-1.7,.19-2.49,.3-.22,.03-1.26,.05-1.45,.21-.46,.38-.49,2.01-.69,2.57-.44,1.24-.64,2.12-1.98,2.24-.67,.06-1.28,.24-1.89,.31-1.04,.12-1.55-.62-2.48-1.16-1.05-.62-1.96-1.11-3.23-1.09-1.95,.04-3.49,1.42-5.59,1.25,0-.13-.04-.34-.02-.46-2.29-.23-4.75,.09-7.07,.09-1.11,0-2.13,.14-3-.48-.69,.83-.77,.85-1.89,1.01-1.15,.16-4.17,.82-4.95-.43-1.14,.43-8.55,2.34-8.32-.96-1-.07-1.41-.04-1.91,.67-.7,1-.25,1.24-1.49,1.47-1.43,.27-2.81,.29-4.25,.37-1.21,.07-1.29,.18-2.08,1.04-.79-1.15-2.38-1.43-3.46-2.27-.4-.31-.72-.72-1.12-1.02-.43-.32-.84-.45-1.45-.71,.05-.78,.69-1.18,1.1-1.81,1.03-1.58-.87-2.06-2.38-2.35-1.64-.32-2.23-.26-3.34-1.62-1.01-1.25-.45-1.22,.21-2.18-.8-.38-2.44-.35-3.04-1.05,.19-.25,.39-.52,.58-.77-.75-.81-2.49-.46-3.31-1.23-.55-.53-.35-.24-.45-.95-.15-1.12,.57-1.73,1.09-2.64,1.12,.98,1.54,1.36,3.19,1.51,1.16,.1,2.23,.1,3.38,.28,.45,.07,.97,.15,1.41,.08,.08-1.63,.53-3.66,1.67-4.87-.09,.57,.66,1.16,1.23,.94,.79-.3,1.18-2.38,1.25-3.05,.18-1.79,.24-3.82,.2-5.6,.09,.39,.24,.76,.59,.91,1.2-1.25,.87-2.7,1.12-4.25,.35-2.18,1.53-3.49,2.68-5.18-.21,1.53,.31,2.59,.57,4.05,.89-.5,2.13-1.82,2.1-2.94-.01-.44-.2-.56-.32-.94-.23-.81-.22-.84,.12-1.77,.89-2.44,1.69-4.66,2.04-7.21,.07-.54,.17-1,.51-1.36,.08,.81-.22,1.8,.13,2.61,.71,1.62,3.47,1.8,4.96,2.35,.03,.45,.02,.95-.08,1.38,.59-.69,1.18-1.9,2.02-2.24-.19,1.19-.59,2.41-.9,3.57-.17,.66-.64,1.4-.55,2.08,2.25,.28,3.34-2.7,3.38-4.43,.03-1.1,0-2.24,0-3.33,.26,.56,1.17,1.22,1.55,.55,.37-.65-.51-1.41-.76-1.86-1.27-2.3-2.46-4.91-2.55-7.63,.23,1.3,1.54,2.01,1.78,3.09,.44-.49,.27-1.4,.27-2.04,.01-1.41,.24-2.79,.79-4.04,.6-1.37,1.15-2.29,1.02-3.81-.41,1.25,1.06,3.57,2.03,4.32,.64,.49,.59,.51,1.42-.26,.52-.48,.94-1.05,1.39-1.58,.05,2.94-.8,6.38,.13,9.25,1.12-.62,1.34-2.19,2.4-2.89-1.55,4.51,.38,8.85,.68,13.43,1.77-1.41,3.2-3.28,3.67-5.51,.02,1.46-.05,3.33-.39,4.76-.26,1.1-.99,2.27-.97,3.45,1.07-.29,2.96-1.62,3.39-2.82,.29-.8-.1-1.7,.43-2.46,.35-.51,.98-.71,1.37-1.14,.33-.36,.53-.87,.79-1.27-.06,1.41-.52,2.75-.35,4.17,2.03-2.06,2.2-4.23,2.3-6.89,.26,.57,.3,1.18,.54,1.72,.34,.81,1.09,1.3,1.41,2.12,1.11-.99,.05-5.01-.19-6.27-.26-1.42-.33-2.89-.11-4.34,.16,.64,.3,2.44,1.33,2.29,.47-1.72-.71-1.76-1.54-2.9-1.19-1.64-.35-5.24,.18-6.89,.09,1.35,.66,2.6,1.11,3.85,.55-.49,.49-.96,.65-1.6,.44-1.76,1.27-3.82,2.5-5.17-1.21,2.66,.07,5.34-.59,8.1-.27,1.14-.52,2.24,.16,3.26,.35,.52,1.09,.82,1.32,1.36,.19,.44-.03,.96-.02,1.42-.34-.16-.65-.39-.76-.72-.14,1.01-.27,1.71,.32,2.48,.71,.92,2.43,1.35,2.87,2.25,0-.01-.1-.19-.11-.2-1.2-.42-.7,1.04-.39,1.5,.38,.57,.95,.81,1.42,1.2,.39-.39,.4-1.23,.62-1.72-.02,1.65,0,3.3,0,4.95,0,.57-.21,1.62,0,2.16,.16,.41,.72,.79,1.03,1.15,1.3-.64,.37-3.8,.32-4.86,.66,.85,.84,1.93,1.68,2.61,1.16-2.12-1.75-3.75-1.08-5.73,.99,1.19,.9,2.09,2.61,2.47-.06-1.17-1.25-2.25-1.57-3.38-.32-1.13-.62-2.07-.56-3.25,.1-2,1.15-3.73,1.16-5.78,0,1.01,0,1.55,.77,2.2"/>
        <path class="cls-5" d="M261.75,313.65c-2.61,0-4.74-2.13-4.74-4.74s2.13-4.73,4.74-4.73,4.74,2.12,4.74,4.73-2.13,4.74-4.74,4.74Zm0-7.64c-1.6,0-2.91,1.3-2.91,2.9s1.3,2.9,2.91,2.9,2.91-1.3,2.91-2.9-1.3-2.9-2.91-2.9Z"/>
        <path class="cls-5" d="M271.06,323.39c-2.62,0-4.74-2.13-4.74-4.74s2.13-4.74,4.74-4.74,4.74,2.13,4.74,4.74-2.13,4.74-4.74,4.74Zm0-7.65c-1.6,0-2.91,1.3-2.91,2.91s1.31,2.91,2.91,2.91,2.91-1.3,2.91-2.91-1.31-2.91-2.91-2.91Z"/>
        <path class="cls-5" d="M326,323.39c-2.62,0-4.74-2.13-4.74-4.74s2.13-4.74,4.74-4.74,4.74,2.13,4.74,4.74-2.13,4.74-4.74,4.74Zm0-7.65c-1.6,0-2.91,1.3-2.91,2.91s1.31,2.91,2.91,2.91,2.91-1.3,2.91-2.91-1.31-2.91-2.91-2.91Z"/>
        <path class="cls-5" d="M334.33,313.65c-2.32,0-4.21-1.89-4.21-4.21s1.89-4.21,4.21-4.21,4.21,1.89,4.21,4.21-1.89,4.21-4.21,4.21Zm0-6.58c-1.31,0-2.38,1.07-2.38,2.38s1.07,2.37,2.38,2.37,2.38-1.06,2.38-2.37-1.07-2.38-2.38-2.38Z"/>
      </g>
      <path class="cls-5" d="M300.04,321.51c-11.71,0-20.06-5.69-20.41-5.93l-3.01-2.09,3.64,.42c5.91,.69,11.77,1.04,17.41,1.04,14.65,0,23.19-2.36,23.27-2.39l4.96-1.4-4.17,3.02c-6.71,4.86-14,7.32-21.69,7.32Zm-15.44-5.31c3.46,1.59,8.95,3.48,15.44,3.48,5.73,0,11.23-1.45,16.43-4.32-4.02,.67-10.39,1.42-18.81,1.42-4.25,0-8.63-.19-13.06-.58Z"/>
      <g>
        <path class="cls-4" d="M287.69,309.44s1.1,3.34,5.98,.91c.1-.05,.21-.11,.32-.16,5.15-2.74-.57-4.31-1-7.17,0,0-.29-8.15,1.72-10.15,0,0-2-7.44,.43-8.16,2.43-.71,.84,.43,.99,0,.15-.43,4.88-7.87,.37-16.45,0,0,.35,6.15-2.08,8.72-2.43,2.57-.29,.71-.29,.71,0,0-4.29,3.29-4.72,6.44l-2.43-1.29s3,3.15,.71,5.72c0,0,.14,.86-.71-.29,0,0,.86,4.58-1,3.58,0,0-1.57,2.01,.57,5.15l1.14,12.43Z"/>
        <path class="cls-4" d="M282.26,275.7s5.29,6.15,2.29,12.73c0,0-3.15-.43-4.15,3.86,0,0-1.29,5.72,3.86,6.87,0,0,1.86,6.15,.14,6.29,0,0-3.29,3.28-4.15-.86-.86-4.14,0-.71,0-.71,0,0,.77-2.23-1.4-2.69-2.17-.46-.74,0-.74,0,0,0-1.57,1.97-1.86,2.83-.29,.86,.29-.86,.29-.86,0,0-2.86,4.34-1.14-1.97,0,0,1.19-1.6-.55-5.03,0,0,1.55,1,1.98,2.57,0,0,2.14,2.43-.71-6.72,0,0-1.29-3.72,.86-4.29,0,0-1.01,1.85,1.55,7.45,0,0-1.41-4.18-.19-5.52,.03-.03,.06-.06,.09-.09,1.37-1.23-.03-2.64-.43-3.07,0,0,2.26,.43,1.75,2.81,0,0,1.8-1.4,.89-8.17,0,0,2.86,3.55,2.18,5.16l-.54-10.59Z"/>
        <path class="cls-4" d="M294.14,260.86s-1.03,3.7,0,7.41c0,0-2.48-2.48-2.21-4.31,0,0,1.24,0,1.1,1.38,0,0,.48-1.4-.78-4.13,0,0,1.03,1.23,1.06,1.66,0,0-.09-.89,.83-2.01Z"/>
        <path class="cls-4" d="M303.44,283.32s-2.77,2.65-3.78,6.37c0,0-.86-3.39,.3-4.84,0,0,1.07,.63,.24,1.74,0,0,1.13-.96,1.44-3.94,0,0,.26,1.59,.06,1.97,0,0,.38-.81,1.74-1.3Z"/>
        <path class="cls-4" d="M316.37,271.05c.5,2.24,2.08,3.45,2.63,5.73,.46,1.91,.54,5.44-1.13,6.76,1.37,.34,2.36-.75,3.24-1.56,.83-.77,1.14-.74,2.44-.74-1.95-.45-.99,1.95-1.58,2.75-.48,.65-1.49,.21-2.05,.56-.76,.49-.98,1.78-.9,2.6,.91-.27,2.17,.04,2.78-.64-.29,.7-.81,1.04-1.24,1.61-.76,1-1.03,2.56-1.29,3.76,1.38-.5,3.41,.35,4.31-1.08-1.03,1-2.72,2.86-2.98,4.25,1.36-.79,3.11-.17,4.52-.5-1.16,1.3-2.8,.55-3.26,2.12-.15,.52-.09,1.12-.11,1.66-.04,.78,.08,1.54-.12,2.3-.16,.6-.6,1.05-.69,1.65,.82-1.13,1.75-1.34,2.92-2-.36,1.77-2.91,3.82-4.47,4.58-.41,.2-.92,.55-1.31,.66-1.04,.29-2.6-.21-3.4,.46,.35,.34,.74,.23,1.12,.46,1.01,.6,1.85,1.73,2.4,2.71-3.22-.04-6.35-.85-9.63-.54-1.21,.11-2.35,.47-3.56,.68-1.74,.29-4.48,.07-5.96,1.09,.97-.58,1.85-1.15,2.72-1.88,.3-.25,1.33-1.02,1.39-1.43,.1-.69-1.14-1.62-1.61-2.12-2.19-2.33-1-5.39-3.21-7.66,1.23,.49,2.51,.92,2.78,2.26,.26,1.32-.17,1.96,1.47,2.29,.52-1.71,.85-3.37-.32-4.87-1.02-1.29-1.81-1.85-1.83-3.65-.32,2.05,1.92,.96,2.84,1.88,.86,.87,.64,2.5,1.29,3.24,1.78-1.99-.53-6.22-.82-8.55,.05,.83,1.54,1.86,1.98,2.68,.71-.53,.53-2.52,.45-3.35-.11-1.16-.52-1.87-1.25-2.71-.38-.44-.84-.48-.97-1.15,1.77,.96,3.81,1.84,4.5,3.92,.4-.74,.59-2.19,.24-3-.48-1.1-1.86-1.39-2.29-2.57-.61-1.7-.07-3.6,1.01-4.85-.13,.92-.41,1.79-.34,2.72,1.12-.66,1.75-2.08,2.53-3.08,.84-1.08,2.45-2.4,2.3-3.91-.38,3.36-3.08,10.96,1.95,12.21,.6-1.48,.34-3.21,.8-4.7,.39-1.24,1.12-1.5,2.05-2.19,0,.81-.09,2.05-.35,2.76,.93-.47,1.73-1.83,1.6-2.91-.11-.96-1.21-1.65-1.49-2.64-.59-2.07-.61-4.21-.11-6.09"/>
      </g>
    </g>
  </g>
  <g>
    <path class="cls-5" d="M225.07,229.48c-.09,.32-.14,.55-.16,.69-.01,.14,0,.26,.03,.36,.03,.1,.09,.19,.18,.27,.09,.08,.24,.18,.45,.28l-.14,.48-3.94-1.12,.14-.48c.19,0,.35,0,.47-.04s.22-.08,.3-.17c.08-.09,.15-.2,.21-.35,.06-.15,.12-.34,.19-.58l1.79-6.31c.06-.23,.11-.42,.14-.58,.03-.16,.04-.3,.01-.41-.02-.11-.08-.21-.17-.3-.09-.09-.22-.19-.39-.29l.14-.48,4.25,1.21c1.24,.35,2.1,.83,2.59,1.45,.49,.62,.6,1.38,.34,2.3-.18,.65-.49,1.17-.91,1.57-.42,.4-.94,.64-1.56,.73-.62,.09-1.34,.02-2.16-.21-.47-.13-.86-.25-1.16-.36l-.66,2.34Zm.9-3.17l.63,.18c.49,.14,.9,.18,1.22,.12,.33-.06,.6-.22,.83-.48,.23-.26,.41-.65,.56-1.16,.14-.51,.19-.93,.13-1.27-.05-.34-.2-.61-.43-.81-.23-.2-.56-.36-.98-.48-.34-.1-.61-.17-.79-.21l-1.17,4.12Z"/>
    <path class="cls-5" d="M239.03,234.95c-1.46-.3-2.47-.95-3.03-1.95-.56-1-.66-2.36-.32-4.06,.23-1.12,.6-2.04,1.12-2.76,.52-.72,1.16-1.22,1.94-1.49,.78-.27,1.64-.31,2.59-.12,1.49,.3,2.51,.96,3.09,1.96,.57,1,.69,2.35,.35,4.03-.19,.94-.47,1.72-.83,2.35-.36,.63-.79,1.12-1.28,1.47-.5,.35-1.05,.57-1.66,.66-.61,.09-1.27,.06-1.97-.08Zm-.94-5.74c-.31,1.5-.35,2.66-.14,3.46,.21,.81,.69,1.29,1.43,1.44,.38,.08,.73,.04,1.04-.11,.31-.15,.59-.4,.83-.73,.24-.34,.45-.75,.62-1.24,.18-.49,.33-1.04,.45-1.65,.2-.99,.29-1.83,.27-2.53-.02-.7-.15-1.25-.4-1.66-.25-.4-.62-.66-1.11-.76-.72-.15-1.33,.09-1.82,.71-.49,.62-.88,1.64-1.17,3.08Z"/>
    <path class="cls-5" d="M250.95,236.96l.07-.5c.22,0,.39-.03,.52-.07,.13-.04,.23-.11,.31-.21,.08-.1,.13-.23,.17-.39,.04-.16,.07-.36,.11-.6l1.08-7.51-.61-.09c-.3-.04-.54-.04-.71,0-.17,.05-.33,.14-.47,.27-.14,.13-.27,.32-.39,.56-.12,.24-.23,.47-.31,.69l-1.03-.15,.38-2.64,8.87,1.27-.38,2.64-1.03-.15c-.05-.36-.09-.62-.12-.79-.03-.17-.07-.31-.12-.44-.05-.12-.11-.23-.17-.31-.06-.09-.14-.16-.21-.22-.08-.06-.18-.11-.31-.15s-.29-.08-.5-.11l-.54-.08-1.08,7.51c-.04,.27-.06,.47-.06,.61,0,.14,0,.26,.03,.35,.03,.09,.07,.17,.12,.23,.05,.06,.12,.12,.22,.18,.1,.06,.23,.11,.4,.16l-.07,.5-4.16-.6Z"/>
    <path class="cls-5" d="M270.81,228.8l-.22,2.41-1.04-.1c-.12-.5-.23-.83-.33-1.01s-.23-.33-.38-.44c-.15-.11-.42-.19-.81-.22l-1.65-.15-.34,3.64,1,.09c.22,.02,.4,0,.53-.05,.13-.05,.25-.15,.34-.29,.1-.14,.2-.36,.3-.66l.86,.08-.29,3.08-.86-.08c-.04-.3-.1-.53-.17-.69-.07-.16-.16-.28-.28-.36-.11-.08-.29-.13-.53-.15l-1-.09-.38,4.05,1.64,.15c.18,.02,.33,.02,.45,0,.12-.01,.24-.04,.34-.09,.1-.05,.2-.11,.3-.2,.1-.09,.18-.18,.26-.29,.08-.1,.16-.24,.26-.42,.09-.17,.2-.42,.32-.73l1.04,.1-.4,2.75-7.45-.69,.05-.5c.19-.03,.34-.07,.46-.12,.11-.05,.2-.12,.27-.22,.06-.1,.11-.23,.14-.38s.06-.36,.08-.6l.61-6.53c.02-.24,.04-.44,.04-.6,0-.16-.02-.3-.06-.4-.04-.11-.12-.2-.22-.27-.1-.07-.25-.14-.43-.21l.05-.5,7.52,.7Z"/>
    <path class="cls-5" d="M284.47,229.54l-.02,.5c-.21,.06-.35,.11-.44,.15-.09,.04-.16,.1-.22,.17-.06,.07-.11,.19-.15,.34-.04,.15-.06,.39-.08,.71l-.38,8.47-1.93-.09-3.16-6.07c-.43-.82-.74-1.46-.93-1.93h-.07c0,1.09-.03,2.24-.08,3.45l-.11,2.45c-.02,.38-.01,.65,.02,.8,.03,.15,.09,.28,.19,.37,.1,.09,.28,.18,.55,.26l-.02,.5-2.87-.13,.02-.5c.19-.04,.34-.09,.45-.15,.11-.06,.2-.13,.25-.24,.06-.1,.1-.23,.12-.39,.02-.16,.04-.35,.05-.59l.29-6.58c.02-.38,.01-.64-.01-.79-.03-.15-.09-.27-.19-.37-.1-.1-.28-.19-.55-.28l.02-.5,3.08,.14,2.48,4.8c.15,.3,.35,.71,.6,1.22,.25,.51,.46,1,.65,1.45h.12c0-1.21,.03-2.53,.09-3.97l.06-1.41c.01-.33,.01-.57,0-.72-.02-.15-.05-.26-.1-.34-.05-.08-.12-.15-.21-.2-.09-.05-.23-.12-.44-.19l.02-.5,2.87,.13Z"/>
    <path class="cls-5" d="M291.03,239.99v-.5c.21-.04,.38-.08,.5-.14,.12-.06,.22-.14,.28-.25,.06-.11,.1-.24,.11-.41,.02-.17,.02-.37,.02-.61l-.03-7.59h-.62c-.3,0-.54,.04-.7,.11-.16,.07-.3,.18-.42,.34-.12,.15-.22,.36-.31,.61-.08,.26-.16,.5-.21,.73h-1.04s0-2.67,0-2.67l8.96-.03v2.67s-1.03,0-1.03,0c-.1-.34-.17-.6-.23-.76-.06-.16-.12-.3-.19-.41-.07-.11-.14-.21-.22-.28s-.16-.14-.24-.18c-.09-.05-.2-.08-.32-.1-.13-.02-.3-.03-.51-.03h-.55s.03,7.59,.03,7.59c0,.27,0,.47,.03,.61,.02,.14,.04,.25,.08,.34,.04,.09,.09,.16,.15,.21,.06,.05,.14,.1,.24,.14,.1,.04,.25,.08,.42,.1v.5s-4.2,.02-4.2,.02Z"/>
    <path class="cls-5" d="M305.43,237.77c0,.18,.02,.34,.04,.49,.02,.15,.04,.27,.08,.37,.04,.09,.08,.17,.14,.24,.06,.06,.14,.12,.25,.16,.1,.04,.23,.08,.38,.11l.02,.5-3.99,.17-.02-.5c.19-.06,.33-.12,.44-.18,.11-.06,.18-.15,.23-.25,.05-.11,.08-.24,.09-.4,0-.16,0-.36,0-.61l-.28-6.56c0-.24-.03-.44-.04-.6-.02-.16-.06-.29-.12-.39-.06-.1-.14-.18-.25-.24-.11-.06-.26-.11-.46-.15l-.02-.5,3.99-.17,.02,.5c-.21,.06-.36,.13-.45,.2-.1,.07-.17,.15-.21,.24-.05,.09-.08,.21-.09,.36-.01,.15-.01,.36,0,.65l.28,6.55Z"/>
    <path class="cls-5" d="M315.85,239.13c-1.49,.12-2.64-.22-3.46-1.03-.82-.81-1.3-2.08-1.44-3.81-.09-1.14,0-2.12,.3-2.96,.29-.84,.78-1.49,1.45-1.97,.67-.48,1.49-.76,2.46-.84,1.51-.12,2.68,.22,3.51,1.02,.83,.8,1.31,2.06,1.46,3.77,.08,.96,.03,1.79-.13,2.49-.17,.7-.44,1.29-.82,1.77-.38,.47-.85,.84-1.41,1.09-.56,.25-1.2,.41-1.91,.47Zm-2.5-5.25c.13,1.53,.4,2.65,.83,3.36,.43,.72,1.02,1.04,1.77,.98,.39-.03,.71-.16,.97-.4,.26-.23,.45-.54,.59-.93,.14-.39,.22-.85,.25-1.37,.03-.52,.02-1.09-.03-1.71-.08-1.01-.23-1.84-.45-2.51-.22-.67-.5-1.16-.85-1.48-.35-.32-.78-.46-1.28-.42-.73,.06-1.25,.46-1.55,1.19-.3,.73-.39,1.83-.27,3.29Z"/>
    <path class="cls-5" d="M329.52,237.57l-3.96,.52-.07-.5c.18-.07,.32-.15,.42-.22,.1-.07,.17-.16,.21-.27,.04-.11,.06-.25,.05-.41,0-.16-.02-.36-.06-.6l-.85-6.5c-.03-.24-.06-.43-.1-.59-.03-.16-.08-.29-.15-.38-.07-.09-.16-.16-.27-.21-.12-.05-.27-.09-.47-.11l-.07-.5,4.4-.57c.59-.08,1.1-.1,1.53-.07,.43,.03,.81,.11,1.14,.24,.28,.11,.52,.25,.73,.45,.21,.19,.38,.42,.52,.69,.14,.27,.23,.6,.28,.97,.06,.49,.03,.93-.09,1.3-.13,.38-.32,.7-.59,.97-.26,.27-.63,.54-1.09,.81v.08c.4,.11,.74,.29,1.02,.52,.28,.24,.54,.55,.79,.94l.61,.96c.27,.43,.53,.75,.76,.95,.24,.2,.5,.31,.8,.32l.06,.5-2.9,.38c-.34-.36-.75-.92-1.22-1.67l-.76-1.21c-.23-.36-.41-.61-.56-.76s-.29-.24-.43-.28c-.14-.04-.35-.05-.63-.01l-.44,.06,.32,2.43c.05,.38,.1,.64,.16,.79,.05,.15,.14,.26,.25,.34,.11,.08,.31,.13,.59,.17l.06,.5Zm-2.04-9.3l.55,4.2,.75-.1c.4-.05,.73-.15,.98-.29,.25-.14,.43-.32,.56-.53,.13-.21,.2-.46,.23-.72,.02-.27,.01-.56-.03-.87-.09-.68-.32-1.18-.68-1.48-.37-.3-.87-.41-1.5-.33-.43,.06-.72,.1-.85,.13Z"/>
    <path class="cls-5" d="M351.49,223.31l.47,2.37-1.02,.2c-.26-.44-.46-.73-.61-.88-.15-.14-.31-.25-.49-.31-.18-.06-.46-.06-.84,.02l-1.63,.32,.72,3.58,.99-.2c.22-.04,.38-.11,.5-.2,.11-.09,.19-.21,.25-.37,.05-.16,.09-.4,.1-.72l.84-.17,.61,3.03-.84,.17c-.13-.27-.25-.48-.36-.61-.12-.13-.24-.22-.37-.26-.13-.04-.31-.04-.55,0l-.98,.2,.79,3.98,1.62-.32c.17-.03,.32-.08,.43-.12,.12-.05,.21-.11,.3-.18,.08-.07,.16-.17,.23-.28,.07-.11,.12-.23,.17-.35,.05-.12,.09-.28,.13-.48,.04-.19,.07-.46,.1-.79l1.02-.2,.4,2.75-7.34,1.46-.1-.49c.17-.09,.31-.17,.4-.25,.1-.08,.16-.17,.19-.29,.03-.11,.04-.25,.02-.41-.02-.16-.05-.36-.1-.6l-1.28-6.43c-.05-.23-.09-.43-.14-.59-.04-.16-.1-.28-.17-.37-.07-.09-.17-.15-.29-.19-.12-.04-.28-.07-.48-.08l-.1-.49,7.4-1.48Z"/>
    <path class="cls-5" d="M358.7,229.7c.27,.56,.58,.94,.94,1.16,.36,.22,.82,.26,1.37,.13,.29-.07,.54-.18,.75-.34,.21-.15,.36-.36,.44-.61s.09-.55,.01-.88c-.07-.31-.19-.56-.36-.75-.17-.2-.4-.37-.7-.51-.3-.14-.7-.27-1.2-.39-.43-.1-.83-.22-1.19-.35-.36-.13-.68-.3-.96-.49-.28-.2-.52-.43-.71-.69-.19-.27-.33-.58-.42-.95-.15-.61-.12-1.16,.08-1.65,.2-.5,.56-.92,1.07-1.28,.52-.36,1.15-.63,1.9-.81,.44-.11,.86-.18,1.27-.23,.41-.05,.89-.08,1.43-.08l.52,2.14-1.01,.24c-.19-.37-.38-.65-.58-.84-.2-.19-.42-.32-.67-.38-.24-.06-.53-.04-.86,.04-.28,.07-.52,.18-.72,.33-.2,.15-.34,.34-.42,.57-.08,.23-.09,.48-.02,.75,.07,.29,.18,.52,.35,.7,.16,.18,.4,.34,.71,.48,.31,.14,.74,.27,1.3,.41,.68,.17,1.23,.36,1.66,.58,.42,.22,.76,.49,1.01,.81,.25,.32,.43,.71,.55,1.19,.15,.61,.13,1.17-.04,1.68-.17,.51-.5,.96-.98,1.32-.48,.37-1.07,.64-1.78,.81-.5,.12-1.04,.22-1.59,.29-.56,.07-1.09,.12-1.59,.12l-.55-2.28,1.01-.24Z"/>
    <path class="cls-5" d="M371.45,229.09l-.14-.48c.2-.09,.35-.18,.45-.27,.1-.09,.17-.19,.2-.31,.03-.12,.03-.26,0-.42-.03-.16-.08-.36-.15-.6l-2.08-7.3-.59,.17c-.29,.08-.51,.18-.64,.29-.14,.11-.24,.26-.31,.44-.07,.18-.12,.4-.13,.67-.01,.27-.02,.52,0,.76l-1,.29-.73-2.57,8.62-2.45,.73,2.57-1,.28c-.19-.31-.33-.53-.43-.67-.1-.14-.2-.26-.29-.35-.1-.09-.19-.16-.29-.22-.09-.05-.19-.09-.28-.11-.1-.02-.21-.02-.34-.01-.13,.01-.3,.05-.5,.11l-.53,.15,2.07,7.3c.07,.26,.14,.45,.19,.58,.05,.13,.11,.23,.17,.3,.06,.07,.13,.13,.2,.16,.07,.04,.16,.06,.27,.07,.11,.01,.26,0,.43-.02l.14,.48-4.04,1.15Z"/>
  </g>
  <g>
    <path class="cls-5" d="M389.87,247.64c-.32,.73-.43,1.37-.34,1.9,.09,.54,.44,1.02,1.05,1.45,.32,.22,.64,.37,.97,.44,.33,.07,.65,.04,.97-.09,.32-.13,.61-.38,.86-.73,.23-.33,.38-.66,.43-1,.05-.33,.02-.7-.1-1.12-.12-.41-.33-.91-.65-1.51-.27-.5-.49-.99-.67-1.45-.18-.46-.29-.92-.34-1.36-.05-.44-.02-.87,.07-1.28,.1-.41,.29-.82,.57-1.23,.47-.66,1.03-1.1,1.68-1.33,.65-.23,1.37-.25,2.16-.05,.79,.2,1.59,.59,2.4,1.16,.48,.34,.92,.69,1.31,1.04,.4,.36,.83,.8,1.3,1.32l-1.65,2.33-1.1-.78c.2-.5,.3-.92,.32-1.29,.02-.36-.05-.68-.2-.97-.15-.28-.41-.55-.77-.81-.3-.22-.62-.36-.93-.42-.32-.06-.62-.04-.91,.08-.29,.11-.54,.32-.75,.62-.22,.31-.35,.62-.39,.94-.04,.31,0,.68,.13,1.1,.13,.42,.37,.96,.71,1.62,.42,.81,.7,1.51,.84,2.11,.14,.6,.17,1.15,.07,1.67-.1,.52-.32,1.03-.69,1.55-.47,.66-1.02,1.12-1.67,1.39-.65,.27-1.36,.33-2.12,.17-.77-.15-1.54-.5-2.3-1.04-.55-.39-1.09-.82-1.64-1.3-.55-.48-1.04-.96-1.48-1.45l1.75-2.48,1.1,.78Z"/>
    <path class="cls-5" d="M404.1,264.13l.48-.44c.27,.2,.5,.3,.67,.32,.18,.02,.35-.05,.52-.21,.12-.11,.24-.25,.35-.42,.12-.17,.24-.37,.38-.6l.22-.4-2.49-2.7c-.34,.14-.61,.26-.8,.36-.19,.11-.36,.22-.5,.35-.21,.19-.32,.41-.35,.65-.02,.24,.05,.48,.21,.71l-.48,.44-2.61-2.83,.48-.45c.25,.14,.49,.21,.72,.22,.24,0,.53-.04,.87-.14,.35-.1,.8-.24,1.35-.43l7.83-2.74,1.59,1.72-4.22,7.67c-.12,.2-.21,.38-.29,.54-.08,.15-.14,.31-.19,.45-.05,.15-.08,.28-.09,.41,0,.12,0,.25,.03,.36,.03,.12,.08,.24,.16,.37l-.48,.44-3.38-3.66Zm1.15-4.85l2.03,2.2,2.11-3.74-4.14,1.54Z"/>
    <path class="cls-5" d="M423.84,273.78c.49,.9,.81,1.68,.94,2.34,.13,.66,.09,1.23-.12,1.7-.21,.47-.62,.87-1.22,1.21-.45,.25-.9,.39-1.36,.43-.45,.04-.92-.04-1.4-.23-.48-.19-.91-.5-1.29-.92-.38-.42-.74-.94-1.08-1.56-.31-.56-.55-1.02-.73-1.39l-1.31,.72c-.54,.3-.91,.52-1.1,.68-.19,.15-.32,.32-.38,.5-.06,.18-.05,.43,.04,.76l-.57,.31-2.36-4.29,.57-.31c.19,.21,.36,.35,.5,.41,.14,.06,.29,.09,.45,.07,.16-.02,.34-.08,.54-.17,.2-.09,.51-.25,.92-.48l4.28-2.35c.55-.3,.91-.52,1.1-.67,.19-.15,.31-.31,.38-.49,.06-.18,.05-.44-.04-.78l.57-.31,2.66,4.84Zm-1.76-.91l-3.59,1.97,.41,.75c.32,.58,.62,.95,.92,1.14,.3,.18,.61,.27,.93,.25,.32-.02,.69-.15,1.11-.38,.34-.19,.6-.4,.78-.62,.17-.23,.28-.46,.31-.71,.04-.25,.02-.5-.06-.77-.08-.27-.19-.54-.34-.81-.17-.32-.34-.59-.49-.82Z"/>
    <path class="cls-5" d="M420.88,295.01l-1.36-4.7,.62-.18c.14,.25,.27,.42,.4,.51,.13,.09,.27,.15,.43,.16,.16,.02,.34,0,.56-.04,.21-.05,.55-.13,1-.27l4.69-1.36c.6-.17,1.01-.31,1.22-.42,.22-.1,.37-.23,.48-.39,.1-.16,.14-.41,.13-.77l.62-.18,1.36,4.7-.62,.18c-.09-.16-.18-.29-.27-.38-.08-.09-.17-.16-.26-.2s-.18-.07-.27-.08c-.09-.01-.19-.01-.3,0-.1,0-.25,.03-.43,.07-.19,.04-.47,.12-.86,.23l-4.69,1.36c-.6,.17-1.01,.31-1.22,.42-.22,.1-.37,.23-.47,.39-.1,.16-.15,.41-.13,.77l-.62,.18Z"/>
    <path class="cls-5" d="M422.56,303.31l.65-.05c.09,.27,.18,.46,.29,.58,.1,.12,.23,.2,.39,.25,.15,.05,.34,.07,.56,.07,.22,0,.57-.02,1.04-.06l4.87-.38c.62-.05,1.05-.1,1.28-.16,.23-.06,.41-.16,.54-.29,.13-.13,.23-.38,.28-.72l.65-.05,.68,8.64-2.52,.2-.1-1.21c.23-.1,.43-.2,.59-.29,.17-.09,.29-.18,.38-.27,.08-.09,.16-.18,.22-.28,.06-.1,.1-.22,.12-.35,.02-.13,.02-.33,0-.57l-.15-1.91-3.47,.27,.08,1c.02,.24,.06,.43,.13,.56,.07,.13,.18,.24,.33,.31,.15,.07,.37,.13,.66,.17l.08,1.01-3.13,.25-.08-1.01c.26-.09,.45-.18,.59-.27,.14-.09,.23-.21,.29-.34s.08-.34,.06-.6l-.08-1-3.87,.3,.16,2c.02,.26,.06,.46,.13,.61,.06,.15,.16,.29,.3,.4,.13,.12,.32,.23,.56,.33,.24,.1,.56,.19,.97,.27l.1,1.23-2.9,.07-.69-8.7Z"/>
    <path class="cls-5" d="M422.2,327.63l6.48-3.01,1.67-.74v-.1c-.87-.06-1.86-.16-2.95-.3l-1.8-.22c-.62-.08-1.05-.11-1.29-.1-.24,0-.44,.07-.59,.17-.15,.11-.3,.32-.42,.65l-.65-.08,.43-3.45,.64,.08c.03,.28,.09,.49,.17,.62,.08,.13,.19,.24,.33,.32,.14,.08,.32,.14,.53,.18,.22,.04,.56,.09,1.03,.15l4.85,.6c.62,.08,1.05,.11,1.29,.1,.24-.01,.44-.07,.59-.18,.15-.11,.3-.32,.42-.65l.65,.08-.46,3.74-7.59,3.46v.09c.86,.06,1.86,.16,3,.3l1.23,.15c.62,.08,1.05,.11,1.29,.1,.24,0,.44-.07,.59-.17,.16-.11,.3-.32,.42-.65l.64,.08-.43,3.45-.64-.08c-.02-.19-.06-.34-.1-.46-.04-.12-.09-.21-.16-.29-.06-.07-.14-.13-.22-.18-.08-.05-.17-.09-.27-.12-.1-.04-.24-.07-.43-.1-.19-.03-.48-.07-.88-.12l-7.67-.95,.29-2.38Z"/>
    <path class="cls-5" d="M430.19,342l-2.9,9.91-2.74-.8,.34-1.16c.31,.04,.6,.04,.88,0,.28-.04,.49-.09,.65-.18s.29-.19,.38-.32c.1-.13,.19-.34,.27-.63l.23-.79-6.39-1.87c-.36-.1-.64-.18-.84-.22-.2-.04-.36-.07-.47-.08-.11,0-.22,0-.32,0-.1,.02-.19,.05-.28,.09-.09,.05-.17,.12-.26,.23-.08,.11-.16,.25-.24,.43l-.62-.18,1.43-4.9,.62,.18c-.02,.2-.03,.36-.01,.5,.02,.13,.05,.25,.09,.34,.04,.09,.11,.16,.18,.23,.08,.06,.16,.12,.26,.17,.09,.05,.23,.11,.41,.18,.18,.07,.47,.16,.86,.27l6.39,1.87,.23-.79c.09-.3,.12-.52,.11-.68-.01-.16-.06-.32-.16-.48-.09-.16-.25-.33-.47-.51-.22-.18-.46-.32-.72-.44l.34-1.16,2.74,.8Z"/>
    <path class="cls-5" d="M412.3,361.4l1.87-4.53,.6,.25c-.04,.28-.05,.5,0,.65,.04,.15,.12,.28,.23,.39,.12,.11,.27,.22,.47,.31,.2,.1,.51,.24,.95,.42l4.52,1.86c.58,.24,.98,.38,1.22,.44,.23,.05,.44,.05,.62-.01,.18-.06,.37-.23,.58-.52l.6,.25-1.87,4.53-.6-.25c.03-.19,.04-.34,.03-.47,0-.12-.04-.23-.08-.32-.04-.09-.1-.17-.17-.23-.07-.07-.15-.13-.23-.19-.08-.06-.21-.13-.39-.21-.17-.08-.44-.2-.81-.35l-4.52-1.86c-.58-.24-.98-.38-1.21-.44-.23-.05-.44-.05-.62,.01-.18,.06-.37,.23-.58,.52l-.6-.25Z"/>
    <path class="cls-5" d="M406.11,374.39l.58,.3c-.09,.32-.12,.57-.07,.74,.04,.17,.17,.31,.37,.42,.15,.08,.32,.14,.52,.19,.2,.05,.43,.1,.69,.15l.45,.08,1.68-3.26c-.24-.27-.45-.48-.61-.63-.17-.14-.33-.26-.5-.35-.25-.13-.49-.16-.73-.1-.23,.06-.43,.21-.6,.44l-.58-.3,1.76-3.42,.59,.3c-.05,.28-.03,.53,.04,.75,.08,.22,.22,.48,.43,.77,.21,.29,.5,.67,.87,1.12l5.25,6.42-1.07,2.08-8.65-1.34c-.23-.04-.43-.07-.6-.09-.17-.02-.33-.03-.49-.03-.16,0-.29,.02-.41,.05-.12,.03-.23,.08-.33,.15-.1,.07-.19,.16-.29,.27l-.58-.3,2.28-4.43Zm4.95-.58l-1.37,2.66,4.24,.7-2.87-3.36Z"/>
  </g>
  <g>
    <path class="cls-5" d="M183.2,357.51c.7,1.8,.71,3.35,0,4.67-.7,1.31-2.1,2.38-4.19,3.2-1.38,.54-2.64,.78-3.78,.73s-2.14-.41-2.98-1.06c-.84-.65-1.49-1.56-1.95-2.74-.72-1.83-.73-3.4-.04-4.73,.69-1.33,2.07-2.4,4.13-3.21,1.16-.45,2.2-.71,3.13-.76,.94-.05,1.77,.07,2.5,.36,.73,.29,1.35,.74,1.88,1.34,.52,.6,.96,1.33,1.29,2.2Zm-5.57,5.05c1.85-.72,3.13-1.48,3.86-2.28,.73-.8,.91-1.65,.56-2.56-.19-.47-.47-.82-.85-1.05-.38-.23-.84-.36-1.38-.38-.54-.03-1.13,.04-1.79,.19-.66,.16-1.36,.38-2.11,.67-1.22,.48-2.2,.97-2.94,1.49-.75,.52-1.25,1.05-1.52,1.6-.27,.55-.28,1.13-.04,1.73,.35,.89,1.03,1.38,2.04,1.48,1.02,.1,2.41-.2,4.17-.89Z"/>
    <path class="cls-5" d="M166.7,336.47l-.72-4.47,.64-.1c.07,.17,.15,.31,.22,.41,.07,.1,.15,.18,.23,.23,.08,.05,.17,.09,.26,.11,.09,.02,.19,.04,.29,.04,.11,0,.25,0,.44-.02,.19-.02,.48-.06,.88-.12l4.82-.78c.62-.1,1.04-.19,1.26-.26,.23-.08,.4-.19,.52-.33,.12-.15,.2-.39,.22-.74l.64-.1,.78,4.83-.64,.1c-.11-.26-.22-.45-.33-.55-.11-.11-.25-.18-.4-.21-.16-.04-.34-.04-.56-.03-.22,.02-.56,.07-1.03,.14l-2.9,.46c-.74,.12-1.62,.24-2.64,.37l.02,.13c.79,.13,1.68,.32,2.67,.56l4.45,1.04,.27,1.66-3.85,2.23c-.67,.39-1.49,.84-2.44,1.34l.02,.14c.71-.16,1.55-.32,2.51-.47l3.01-.48c.62-.1,1.04-.19,1.27-.26,.23-.08,.4-.19,.52-.33,.12-.15,.2-.39,.22-.74l.64-.1,.55,3.43-.64,.1c-.11-.26-.22-.45-.33-.55-.11-.11-.25-.18-.4-.21-.16-.04-.34-.04-.56-.02-.22,.02-.56,.06-1.03,.14l-4.82,.77c-.62,.1-1.04,.19-1.26,.26-.23,.08-.4,.19-.52,.33-.12,.14-.19,.39-.22,.74l-.64,.1-.72-4.48,5.41-2.98-6.09-1.31Z"/>
    <path class="cls-5" d="M176.04,314.54l-6.1,3.72-1.58,.92v.1c.89-.04,1.88-.05,2.97-.04l1.81,.02c.62,0,1.05,0,1.29-.04,.24-.04,.43-.12,.57-.24,.14-.12,.26-.36,.35-.7h.65s-.04,3.48-.04,3.48h-.65c-.06-.28-.14-.48-.24-.61-.09-.12-.21-.22-.36-.28-.15-.06-.33-.1-.55-.12-.22-.02-.57-.03-1.04-.04l-4.88-.05c-.62,0-1.05,0-1.29,.04-.24,.04-.43,.12-.57,.24-.14,.12-.26,.36-.35,.7h-.65s.04-3.78,.04-3.78l7.15-4.29v-.09c-.87,.04-1.87,.05-3.02,.04h-1.24c-.62-.02-1.05,0-1.29,.03-.24,.04-.43,.12-.57,.24-.14,.12-.26,.36-.35,.7h-.65s.03-3.48,.03-3.48h.65c.04,.19,.09,.34,.15,.45,.05,.11,.12,.2,.19,.27,.07,.07,.15,.12,.24,.16s.18,.07,.28,.09c.1,.03,.25,.04,.44,.05,.19,.01,.49,.02,.89,.02l7.73,.08-.02,2.4Z"/>
    <path class="cls-5" d="M177.53,297.77l-.77,4.83-.64-.1c-.02-.28-.07-.49-.14-.63-.08-.14-.18-.25-.32-.33-.14-.08-.31-.15-.53-.2-.21-.05-.56-.11-1.02-.19l-4.82-.77c-.62-.1-1.04-.15-1.28-.15-.24,0-.44,.05-.6,.15-.16,.1-.31,.31-.45,.64l-.64-.1,.77-4.83,.64,.1c.02,.19,.04,.34,.08,.46,.04,.12,.09,.22,.15,.29,.06,.08,.13,.14,.21,.19,.08,.05,.17,.09,.27,.13,.1,.04,.24,.08,.42,.12,.19,.04,.48,.09,.87,.15l4.82,.77c.62,.1,1.04,.15,1.28,.15,.24,0,.44-.05,.6-.15,.16-.1,.31-.31,.45-.64l.64,.1Z"/>
    <path class="cls-5" d="M175.44,279.92c-.57-.24-.98-.39-1.21-.45-.23-.06-.44-.05-.62,0-.18,.06-.37,.23-.59,.51l-.6-.25,1.61-3.79,.6,.26c-.03,.19-.04,.34-.03,.47,0,.12,.03,.23,.07,.32,.04,.09,.1,.17,.16,.23,.07,.07,.14,.13,.23,.19s.21,.13,.38,.22c.17,.08,.44,.2,.81,.36l3.46,1.48c.78,.33,1.36,.68,1.74,1.03,.38,.36,.65,.76,.81,1.2,.15,.44,.19,.94,.12,1.48-.08,.55-.26,1.16-.55,1.85-.32,.74-.66,1.34-1.02,1.8-.37,.46-.76,.78-1.19,.98-.43,.2-.89,.28-1.39,.25-.5-.03-1.09-.19-1.79-.49l-3.61-1.54c-.57-.24-.98-.4-1.21-.45-.23-.06-.44-.05-.62,0-.18,.06-.37,.23-.59,.51l-.6-.25,1.92-4.5,.6,.25c-.03,.19-.04,.34-.03,.47,0,.12,.03,.23,.07,.32,.04,.09,.09,.17,.16,.23,.07,.07,.14,.13,.23,.19,.08,.06,.21,.13,.38,.22,.17,.08,.44,.2,.81,.36l4.02,1.71c.5,.21,.93,.34,1.29,.38,.36,.04,.68-.03,.97-.21,.29-.18,.53-.49,.72-.94,.2-.46,.26-.85,.2-1.16-.06-.31-.23-.58-.49-.83-.27-.24-.72-.5-1.37-.78l-3.86-1.65Z"/>
    <path class="cls-5" d="M184.98,259.62l2.83-3.54,.51,.41c-.08,.17-.13,.32-.16,.44-.03,.12-.03,.23-.02,.33,.02,.1,.05,.19,.09,.27s.1,.17,.17,.25c.07,.08,.17,.19,.31,.31,.14,.13,.37,.31,.68,.56l3.82,3.05c.49,.39,.83,.64,1.04,.76,.21,.12,.41,.17,.6,.16,.19,0,.42-.12,.7-.33l.51,.41-3.06,3.82-.51-.41c.12-.26,.18-.46,.19-.62,0-.16-.03-.3-.11-.44-.08-.14-.2-.28-.36-.43-.16-.15-.43-.37-.8-.67l-2.29-1.83c-.58-.47-1.27-1.04-2.05-1.71l-.08,.1c.43,.67,.89,1.46,1.38,2.35l2.22,3.99-1.05,1.32-4.24-1.35c-.75-.23-1.62-.54-2.63-.91l-.09,.11c.6,.42,1.28,.93,2.04,1.54l2.38,1.91c.49,.39,.84,.64,1.04,.76,.21,.12,.41,.17,.6,.16,.19,0,.42-.12,.7-.33l.51,.41-2.17,2.72-.51-.41c.12-.26,.18-.46,.19-.62,0-.16-.03-.3-.11-.44-.08-.14-.2-.28-.36-.43-.16-.15-.43-.37-.8-.67l-3.81-3.05c-.49-.39-.84-.64-1.04-.76s-.41-.17-.6-.16c-.19,0-.42,.12-.7,.33l-.51-.41,2.84-3.55,5.84,2-3.13-5.39Z"/>
  </g>
</svg>