<svg width="262" height="296" viewBox="0 0 262 296" fill="none" xmlns="http://www.w3.org/2000/svg">
<path d="M186.013 35.1611C184.985 35.153 184.001 34.7379 183.278 34.0068C182.555 33.2756 182.151 32.2879 182.154 31.2595V4.71982C183.204 -2.6358 190.995 3.46172 194.889 4.78928L212.753 12.7354L239.691 24.7336C244.823 27.161 250.207 29.1215 255.204 31.7998C257.975 33.548 258.292 35.987 254.321 35.8789L186.013 35.1611Z" fill="#009EB8"/>
<path d="M182.154 45.0407V76.3426C175.694 70.0559 168.323 63.943 160.57 57.8956C148.548 48.5216 134.281 42.3508 119.153 40.4714C58.2508 32.9112 1.96839 93.3925 2.50867 167.296C1.86419 232.431 41.7373 294.684 107.865 293.877C140.054 295.325 164.402 274.52 182.154 249.732V289.165L257.408 289.053V45.1526L182.154 45.0407ZM130.827 228.464C116.347 228.464 103.041 222.675 93.0067 211.87C83.6482 201.789 79.4995 186.079 79.4995 170.383C79.4995 138.306 102.481 112.303 130.827 112.303C159.173 112.303 182.154 138.306 182.154 170.383C182.154 202.461 159.173 228.464 130.827 228.464Z" fill="#00509A"/>
</svg>
