<svg width="718" height="296" viewBox="0 0 718 296" fill="none" xmlns="http://www.w3.org/2000/svg">
<path d="M318.181 12.2377V288.864L348.775 289.116V12.2377H318.181Z" fill="#8BCBEB"/>
<path d="M527.752 39.0078V134.393H579.869V161.278H527.752V260.273H579.869V289.116H496.393V12.2377H579.869V38.6789L527.752 39.0078Z" fill="#8BCBEB"/>
<path d="M444.161 12.2377H402.858L360.906 289.116H392.372L399.256 235.576H453.561L458.586 289.116H491.368L444.161 12.2377ZM403.08 208.806L422.201 63.4832H426.462L448.75 208.806H403.08Z" fill="#8BCBEB"/>
<path d="M680.724 12.2377V191.979L620.522 12.2377H594.952V289.116H624.453V104.893L686.078 289.116H710.331V12.2377H680.724Z" fill="#8BCBEB"/>
<path d="M218.971 12.2377H8.52051V289.116H286.546V79.8206L218.971 12.2377ZM154.501 99.3244L202.251 143.793H154.501V99.3244ZM86.8114 23.7106H141.116V78.0155H86.8114V23.7106ZM19.1214 23.7106H73.4263V78.0155H19.1214V23.7106ZM19.1214 89.4884H73.4263V143.793H19.1214V89.4884ZM19.1214 155.266H73.4263V209.571H19.1214V155.266ZM19.1214 275.349V232.081L65.7778 275.349H19.1214ZM75.4762 266.171L27.1219 221.044H75.4762V266.171ZM135.38 209.571H87.1938L86.8114 165.974L135.38 209.571ZM141.499 274.584H87.1938V220.279H141.499V274.584ZM141.499 200.615L96.0432 155.266H141.499V200.615ZM141.499 143.793H87.1938V89.4884H141.499V143.793ZM208.806 274.584H154.501V220.279H208.806V274.584ZM208.806 209.571H154.501V155.266H208.806V209.571ZM208.806 136.145L159.855 89.4884H208.806V136.145ZM208.806 78.0155H154.501V23.7106H208.806V78.0155ZM220.279 32.4529L267.157 78.0155H220.279V32.4529ZM274.584 275.349H220.279V221.044H274.584V275.349ZM274.584 209.571H220.279V155.266H274.584V209.571ZM274.584 143.793H220.279V89.4884H274.584V143.793Z" fill="#8BCBEB"/>
</svg>
