<svg xmlns="http://www.w3.org/2000/svg" fill="none" viewBox="0 0 111 193"><path fill="#009EB8" d="M78.5528 14.8484a1.6429 1.6429 0 0 1-1.6297-1.6476V1.9932c.4433-3.1063 3.7337-.5313 5.3781.0293l7.544 3.3556 11.3758 5.0668c2.167 1.0251 4.441 1.853 6.551 2.984 1.17.7383 1.304 1.7683-.373 1.7227l-28.8462-.3032Z"/><path fill="#00509A" d="M76.923 19.0205v13.2188c-2.7281-2.6549-5.8409-5.2364-9.115-7.7901-5.0766-3.9586-11.1017-6.5646-17.4902-7.3583C24.599 13.8983.8311 39.4394 1.0593 70.6486.787 98.1552 17.6254 124.444 45.5508 124.104c13.5935.611 23.8755-8.175 31.3722-18.643v16.653l31.78-.048V19.0678l-31.78-.0473ZM55.2477 96.4798c-6.1148 0-11.7341-2.4446-15.9713-7.0078-3.9521-4.2569-5.7041-10.8915-5.7041-17.5196 0-13.5463 9.705-24.5274 21.6754-24.5274 11.9703 0 21.6753 10.9811 21.6753 24.5274s-9.705 24.5274-21.6753 24.5274Z"/><path fill="#fff" d="m31.4728 164 3.9628-18.662h2.5114L41.9329 164h-2.4652l-.8525-4.7h-3.8016l-.8986 4.7h-2.4422Zm3.6864-6.566h3.1104l-1.5668-8.41-1.5436 8.41Zm.8985-13.202 1.3594-4.562h2.4653l-2.5805 4.562h-1.2442Zm11.0175 23.892c-.7988 0-1.5207-.084-2.1658-.253-.6451-.169-1.152-.438-1.5206-.807-.3687-.368-.553-.852-.553-1.451 0-.43.0922-.807.2765-1.129.1843-.323.4224-.599.7142-.83.2919-.245.5991-.445.9216-.599-.4301-.123-.7526-.315-.9677-.576-.215-.276-.3225-.56-.3225-.852 0-.492.1305-.914.3917-1.267.2611-.354.622-.738 1.0828-1.152-.5068-.384-.8908-.876-1.152-1.475-.2611-.599-.3916-1.428-.3916-2.488 0-1.045.1382-1.913.4147-2.604.2918-.706.7142-1.236 1.2672-1.589.5683-.369 1.2595-.553 2.0736-.553.7219 0 1.2979.122 1.728.368.4454.246.7833.615 1.0137 1.106.0768-.123.2842-.33.6221-.622.3379-.307.7296-.561 1.1751-.76l.3686-.162.6221 1.59c-.1997.031-.4685.108-.8064.231-.3226.107-.6298.222-.9216.345-.2765.108-.4531.2-.5299.277.1075.261.1996.637.2764 1.129.0922.491.1383.929.1383 1.313 0 .906-.1152 1.705-.3456 2.396-.2304.691-.6144 1.237-1.152 1.636-.5223.384-1.2519.576-2.1888.576-.1997 0-.4147-.015-.6451-.046s-.4378-.069-.6221-.115c-.0922.138-.192.299-.2995.483-.0922.185-.1383.361-.1383.53 0 .169.0845.308.2535.415.1843.092.4684.154.8524.184l2.0736.185c1.0445.092 1.8202.407 2.3271.944.5069.538.7603 1.306.7603 2.304 0 .722-.169 1.329-.5069 1.821-.3379.506-.8525.883-1.5437 1.129-.6758.245-1.536.368-2.5804.368Zm.1843-1.935c.8755 0 1.5206-.108 1.9353-.323.4148-.199.6221-.53.6221-.99 0-.277-.0537-.507-.1613-.692-.0921-.184-.2688-.33-.5299-.437-.2611-.108-.6374-.185-1.1289-.231l-2.0967-.184c-.1689.169-.3302.338-.4838.507-.1536.169-.2765.345-.3687.53a1.4667 1.4667 0 0 0-.1382.622c0 .399.169.699.5069.898.3379.2.9523.3 1.8432.3Zm-.1152-7.995c.3533 0 .6297-.062.8294-.184.2151-.139.3763-.331.4839-.576.1075-.262.1766-.576.2073-.945.0461-.369.0691-.783.0691-1.244 0-.461-.023-.876-.0691-1.244-.0307-.384-.0998-.707-.2073-.968-.0922-.277-.2458-.484-.4608-.622-.1997-.138-.4762-.207-.8295-.207-.3379 0-.6221.069-.8525.207-.215.138-.3763.338-.4838.599-.1075.246-.1843.561-.2304.945-.0461.368-.0691.798-.0691 1.29 0 .415.0153.806.0461 1.175.046.353.1228.66.2304.921.1228.262.2918.469.5068.623.2151.153.4916.23.8295.23Zm10.0607 5.99c-.983 0-1.7587-.199-2.327-.599-.5683-.399-.9754-.967-1.2211-1.705-.2304-.737-.3456-1.605-.3456-2.603v-3.871c0-.998.1152-1.866.3456-2.603.2457-.738.6528-1.306 1.2211-1.705.5683-.4 1.344-.599 2.327-.599.9831 0 1.7511.199 2.304.599.5683.399.9677.967 1.1981 1.705.2458.737.3686 1.605.3686 2.603v3.871c0 .998-.1228 1.866-.3686 2.603-.2304.738-.6298 1.306-1.1981 1.705-.5529.4-1.3209.599-2.304.599Zm0-1.82c.4762 0 .8064-.138.9907-.415.1997-.276.3149-.637.3456-1.082.0461-.461.0692-.937.0692-1.429v-4.17c0-.507-.0231-.983-.0692-1.429-.0307-.445-.1459-.806-.3456-1.083-.1843-.291-.5145-.437-.9907-.437-.4761 0-.8141.146-1.0137.437-.1997.277-.3226.638-.3687 1.083-.0307.446-.0461.922-.0461 1.429v4.17c0 .492.0154.968.0461 1.429.0461.445.169.806.3687 1.082.1996.277.5376.415 1.0137.415ZM63.3983 164v-13.317h2.4653v1.889c.4915-.814.983-1.359 1.4745-1.636.4916-.276.9831-.414 1.4746-.414h.1613c.0614 0 .1382.007.2304.023v2.718c-.1843-.076-.3994-.138-.6451-.184a2.7793 2.7793 0 0 0-.7143-.092c-.384 0-.7373.092-1.0598.276-.3072.169-.6144.507-.9216 1.014V164h-2.4653Zm9.7295.184c-.5222 0-.983-.146-1.3824-.437-.3993-.308-.7142-.692-.9446-1.152-.2304-.477-.3456-.976-.3456-1.498 0-.829.1382-1.528.4147-2.097.2765-.568.6528-1.044 1.129-1.428.4915-.4 1.0521-.745 1.6819-1.037.6451-.292 1.321-.576 2.0275-.852v-.945c0-.538-.0307-.983-.0921-1.336-.0615-.354-.192-.615-.3917-.784-.1843-.184-.4685-.276-.8525-.276-.3379 0-.6144.077-.8294.23-.1997.154-.3456.376-.4378.668-.0922.277-.1382.607-.1382.991v.668l-2.4423-.092c.0307-1.475.3687-2.557 1.0138-3.249.6451-.706 1.6435-1.059 2.9952-1.059 1.3209 0 2.2579.361 2.8109 1.082.5529.722.8294 1.767.8294 3.134v6.082c0 .415.0077.815.023 1.199.0308.384.0615.744.0922 1.082.0461.323.0845.63.1152.922h-2.2579a48.6565 48.6565 0 0 0-.1843-.922c-.0615-.384-.1076-.729-.1383-1.036-.1536.522-.4531 1.013-.8985 1.474-.4301.446-1.0292.668-1.7972.668Zm.9677-2.119c.2458 0 .4762-.069.6912-.208.2151-.138.4071-.292.576-.461.169-.184.2842-.33.3456-.437v-3.779c-.384.215-.7449.43-1.0829.645-.3379.215-.6374.446-.8985.691a2.844 2.844 0 0 0-.5991.807c-.1382.292-.2073.63-.2073 1.014 0 .537.0998.96.2995 1.267.1997.307.4915.461.8755.461Zm-56.4056 28.142c-1.321 0-2.3501-.276-3.0874-.829-.7219-.553-1.2288-1.298-1.5206-2.235-.2765-.937-.4147-1.981-.4147-3.133v-6.59c0-1.259.1382-2.358.4147-3.295.2918-.937.7987-1.658 1.5206-2.165.7373-.523 1.7664-.784 3.0874-.784 1.1674 0 2.089.215 2.7648.645.6912.431 1.1827 1.045 1.4746 1.844.3072.798.4608 1.758.4608 2.88v1.474h-2.4653v-1.313c0-.691-.0384-1.298-.1152-1.82-.0615-.538-.2458-.953-.553-1.244-.3072-.292-.8217-.438-1.5437-.438-.7372 0-1.2748.161-1.6128.484-.3379.307-.5606.752-.6681 1.336-.0922.568-.1383 1.236-.1383 2.004v7.396c0 .937.0768 1.682.2304 2.235.1536.538.4071.922.7604 1.152.3532.231.8294.346 1.4284.346.7066 0 1.2135-.154 1.5207-.461.3072-.323.4992-.76.576-1.313.0768-.553.1152-1.198.1152-1.936v-1.382h2.4653v1.382c0 1.137-.1383 2.143-.4148 3.019-.2764.86-.7526 1.536-1.4284 2.027-.6759.476-1.6282.714-2.857.714Zm7.1343-.207v-13.317h2.4653V190h-2.4653Zm0-15.299v-2.58h2.4653v2.58h-2.4653Zm7.016 15.483c-.5222 0-.9292-.138-1.2211-.414-.2918-.277-.4992-.622-.6221-1.037a5.0304 5.0304 0 0 1-.1612-1.267v-10.783h2.4652v10.045c0 .476.0692.853.2074 1.129.1382.261.4224.392.8525.392.2765 0 .5606-.077.8525-.23.3072-.169.599-.369.8755-.599v-10.737h2.4653V190h-2.4653v-1.313c-.4301.414-.9216.768-1.4746 1.06-.5376.291-1.1289.437-1.7741.437Zm11.3226 0c-1.1213 0-1.9584-.407-2.5114-1.221-.5529-.829-.8294-2.227-.8294-4.193v-2.581c0-1.013.0845-1.95.2534-2.81.169-.876.4839-1.575.9447-2.097.4761-.522 1.1673-.783 2.0736-.783.4454 0 .8524.099 1.2211.299.3686.2.6989.446.9907.737v-6.197h2.4653V190h-2.4653v-.852c-.2918.307-.6144.56-.9677.76-.3379.184-.7296.276-1.175.276Zm.6221-1.935c.2304 0 .4761-.038.7372-.115.2612-.092.5223-.223.7834-.392v-8.732c-.215-.154-.4531-.284-.7142-.392-.2612-.123-.5453-.184-.8525-.184-.5683 0-.9523.276-1.152.829-.1997.538-.2995 1.191-.2995 1.959v3.755c0 .615.0307 1.175.0921 1.682.0768.492.2227.883.4378 1.175.215.277.5376.415.9677.415Zm8.8792 1.935c-.5223 0-.9831-.146-1.3824-.437-.3994-.308-.7143-.692-.9447-1.152-.2304-.477-.3456-.976-.3456-1.498 0-.829.1383-1.528.4148-2.097.2764-.568.6528-1.044 1.1289-1.428.4915-.4 1.0522-.745 1.6819-1.037.6452-.292 1.321-.576 2.0276-.852v-.945c0-.538-.0308-.983-.0922-1.336-.0614-.354-.192-.615-.3917-.784-.1843-.184-.4685-.276-.8525-.276-.3379 0-.6144.077-.8294.23-.1997.154-.3456.376-.4378.668-.0921.277-.1382.607-.1382.991v.668l-2.4422-.092c.0307-1.475.3686-2.557 1.0137-3.249.6451-.706 1.6435-1.059 2.9952-1.059 1.321 0 2.2579.361 2.8109 1.082.553.722.8294 1.767.8294 3.134v6.082c0 .415.0077.815.0231 1.199.0307.384.0614.744.0921 1.082.0461.323.0845.63.1152.922h-2.2579a48.6565 48.6565 0 0 0-.1843-.922c-.0614-.384-.1075-.729-.1382-1.036-.1536.522-.4532 1.013-.8986 1.474-.4301.446-1.0291.668-1.7971.668Zm.9677-2.119c.2457 0 .4761-.069.6912-.208.215-.138.407-.292.576-.461.1689-.184.2841-.33.3456-.437v-3.779c-.384.215-.745.43-1.0829.645-.3379.215-.6375.446-.8986.691-.2457.231-.4454.5-.599.807-.1383.292-.2074.63-.2074 1.014 0 .537.0999.96.2995 1.267.1997.307.4916.461.8756.461Zm9.5335 2.119c-1.1213 0-1.9584-.407-2.5114-1.221-.5529-.829-.8294-2.227-.8294-4.193v-2.581c0-1.013.0845-1.95.2534-2.81.169-.876.4839-1.575.9447-2.097.4761-.522 1.1673-.783 2.0736-.783.4454 0 .8524.099 1.2211.299.3686.2.6989.446.9907.737v-6.197h2.4653V190H65.308v-.852c-.2918.307-.6144.56-.9677.76-.3379.184-.7296.276-1.175.276Zm.6221-1.935c.2304 0 .4761-.038.7372-.115.2612-.092.5223-.223.7834-.392v-8.732c-.215-.154-.4531-.284-.7142-.392-.2612-.123-.5453-.184-.8525-.184-.5683 0-.9523.276-1.152.829-.1997.538-.2995 1.191-.2995 1.959v3.755c0 .615.0307 1.175.0921 1.682.0768.492.2227.883.4378 1.175.215.277.5376.415.9677.415Zm8.8792 1.935c-.5223 0-.9831-.146-1.3824-.437-.3994-.308-.7143-.692-.9447-1.152-.2304-.477-.3456-.976-.3456-1.498 0-.829.1383-1.528.4148-2.097.2764-.568.6528-1.044 1.1289-1.428.4915-.4 1.0522-.745 1.6819-1.037.6452-.292 1.321-.576 2.0276-.852v-.945c0-.538-.0308-.983-.0922-1.336-.0614-.354-.192-.615-.3917-.784-.1843-.184-.4685-.276-.8525-.276-.3379 0-.6144.077-.8294.23-.1997.154-.3456.376-.4378.668-.0921.277-.1382.607-.1382.991v.668l-2.4422-.092c.0307-1.475.3686-2.557 1.0137-3.249.6451-.706 1.6435-1.059 2.9952-1.059 1.321 0 2.2579.361 2.8109 1.082.553.722.8294 1.767.8294 3.134v6.082c0 .415.0077.815.0231 1.199.0307.384.0614.744.0921 1.082.0461.323.0845.63.1152.922h-2.2579a48.6565 48.6565 0 0 0-.1843-.922c-.0614-.384-.1075-.729-.1382-1.036-.1536.522-.4532 1.013-.8986 1.474-.4301.446-1.0291.668-1.7971.668Zm.9677-2.119c.2457 0 .4761-.069.6912-.208.215-.138.407-.292.576-.461.1689-.184.2841-.33.3456-.437v-3.779c-.384.215-.745.43-1.0829.645-.3379.215-.6375.446-.8986.691-.2457.231-.4454.5-.599.807-.1383.292-.2074.63-.2074 1.014 0 .537.0999.96.2995 1.267.1997.307.4916.461.8756.461ZM80.0804 190v-13.317h2.4653v1.313c.4454-.415.937-.768 1.4746-1.06.5376-.292 1.1289-.437 1.774-.437.5376 0 .9447.138 1.2212.414.2918.277.4915.622.599 1.037.1229.415.1843.837.1843 1.267V190h-2.4653v-10.068c0-.477-.0691-.845-.2073-1.106-.1383-.262-.4224-.392-.8525-.392-.2765 0-.5683.084-.8755.253-.2919.154-.576.346-.8525.576V190h-2.4653Zm12.5212.184c-.5223 0-.9831-.146-1.3824-.437-.3994-.308-.7143-.692-.9447-1.152-.2304-.477-.3456-.976-.3456-1.498 0-.829.1383-1.528.4148-2.097.2764-.568.6528-1.044 1.1289-1.428.4915-.4 1.0522-.745 1.6819-1.037.6452-.292 1.321-.576 2.0276-.852v-.945c0-.538-.0308-.983-.0922-1.336-.0614-.354-.192-.615-.3917-.784-.1843-.184-.4685-.276-.8525-.276-.3379 0-.6144.077-.8294.23-.1997.154-.3456.376-.4378.668-.0921.277-.1382.607-.1382.991v.668l-2.4422-.092c.0307-1.475.3686-2.557 1.0137-3.249.6451-.706 1.6435-1.059 2.9952-1.059 1.321 0 2.2579.361 2.8109 1.082.553.722.8294 1.767.8294 3.134v6.082c0 .415.0077.815.0231 1.199.0307.384.0614.744.0921 1.082.0461.323.0845.63.1152.922h-2.2579a48.6565 48.6565 0 0 0-.1843-.922c-.0614-.384-.1075-.729-.1382-1.036-.1536.522-.4532 1.013-.8986 1.474-.4301.446-1.0291.668-1.7971.668Zm.9677-2.119c.2457 0 .4761-.069.6912-.208.215-.138.407-.292.576-.461.1689-.184.2841-.33.3456-.437v-3.779c-.384.215-.745.43-1.0829.645-.3379.215-.6375.446-.8986.691-.2457.231-.4454.5-.599.807-.1383.292-.2074.63-.2074 1.014 0 .537.0999.96.2995 1.267.1997.307.4916.461.8756.461Z"/></svg>