<svg xmlns="http://www.w3.org/2000/svg" fill="none" viewBox="0 0 174 193"><path fill="#8BCBEB" d="M119.251 0h-95.01v125h125.518V30.511L119.251 0ZM90.1457 39.3163l21.5573 20.076H90.1457v-20.076ZM59.5863 5.1796h24.5165V29.696H59.5863V5.1796Zm-30.5594 0h24.5166V29.696H29.0269V5.1796Zm0 29.6961h24.5166v24.5166H29.0269V34.8757Zm0 29.6961h24.5166v24.5166H29.0269V64.5718Zm0 54.2132V99.2507l21.0635 19.5343H29.0269Zm25.442-4.144L32.6388 94.268h21.8301v20.373Zm27.0442-25.5526H59.7589l-.1726-19.6823 21.9268 19.6823Zm2.7624 29.3506H59.7589V93.9227h24.5166v24.5163Zm0-33.3941L63.7541 64.5718h20.5214v20.4731Zm0-25.6526H59.7589V34.8757h24.5166v24.5166Zm30.3865 59.0467H90.1457V93.9227h24.5163v24.5163Zm0-29.3506H90.1457V64.5718h24.5163v24.5166Zm0-33.1492L92.5628 34.8757h22.0992v21.0635Zm0-26.2431H90.1457V5.1796h24.5163V29.696Zm5.18-20.5697 21.163 20.5697h-21.163V9.1264Zm24.516 109.6586h-24.516V94.268h24.516v24.517Zm0-29.6966h-24.516V64.5718h24.516v24.5166Zm0-29.6961h-24.516V34.8757h24.516v24.5166Z"/><path fill="#fff" d="M16.871 164v-18.662h2.5575V164H16.871Zm5.3694 0v-13.317h2.4653v1.313c.4454-.415.937-.768 1.4746-1.06.5376-.292 1.1289-.437 1.774-.437.5376 0 .9447.138 1.2212.414.2918.277.4915.622.599 1.037.1229.415.1843.837.1843 1.267V164h-2.4653v-10.068c0-.477-.0691-.845-.2073-1.106-.1383-.262-.4224-.392-.8525-.392-.2765 0-.5683.084-.8755.253-.2919.154-.576.346-.8525.576V164h-2.4653Zm13.2124.184c-1.0906 0-1.9661-.338-2.6266-1.013-.6605-.692-1.0368-1.598-1.1289-2.719l2.0505-.622c.1229.845.3303 1.482.6221 1.912.2918.415.7219.622 1.2902.622.4455 0 .7834-.123 1.0138-.368.2304-.262.3456-.607.3456-1.037 0-.384-.0845-.73-.2534-1.037-.169-.307-.4455-.622-.8295-.945l-2.2809-1.958c-.4608-.399-.8525-.845-1.1751-1.336-.3072-.492-.4608-1.129-.4608-1.913 0-.706.1383-1.298.4147-1.774.2919-.491.6912-.86 1.1981-1.106.5223-.261 1.129-.391 1.8202-.391 1.0598 0 1.8662.345 2.4192 1.036.5683.676.8909 1.498.9677 2.466l-1.6589.622c-.0615-.461-.1536-.86-.2765-1.198-.1229-.354-.2918-.622-.5069-.807-.215-.199-.4992-.299-.8525-.299-.3993 0-.7219.138-.9676.414-.2304.262-.3456.576-.3456.945 0 .23.046.461.1382.691.1075.215.2842.43.5299.645l2.3501 2.166c.3226.292.6221.607.8986.945.2918.338.5299.722.7142 1.152.1843.43.2765.929.2765 1.497 0 .753-.1536 1.383-.4608 1.89-.3072.507-.7373.891-1.2903 1.152-.5529.245-1.198.368-1.9353.368Zm9.0783 0c-.6912 0-1.2519-.13-1.6819-.391-.4148-.261-.722-.63-.9216-1.106-.1844-.476-.2765-1.037-.2765-1.682v-8.686h-1.4055v-1.636h1.4055v-3.894h2.4653v3.894h2.1427v1.636h-2.1427v8.525c0 .522.0844.898.2534 1.128.169.216.4915.323.9677.323.1229 0 .2611-.008.4147-.023.169-.015.3302-.031.4838-.046v1.82c-.3072.046-.5913.077-.8524.092-.2612.031-.5453.046-.8525.046Zm3.7006-.184v-13.317h2.4653V164h-2.4653Zm0-15.299v-2.58h2.4653v2.58h-2.4653Zm8.6519 15.483c-.6912 0-1.2519-.13-1.6819-.391-.4148-.261-.722-.63-.9216-1.106-.1844-.476-.2765-1.037-.2765-1.682v-8.686h-1.4055v-1.636h1.4055v-3.894h2.4653v3.894h2.1427v1.636h-2.1427v8.525c0 .522.0844.898.2534 1.128.169.216.4915.323.9677.323.1229 0 .2611-.008.4147-.023.169-.015.3302-.031.4838-.046v1.82c-.3072.046-.5913.077-.8524.092-.2612.031-.5453.046-.8525.046Zm5.4516 0c-.5222 0-.9293-.138-1.2211-.414-.2918-.277-.4992-.622-.6221-1.037a5.0305 5.0305 0 0 1-.1613-1.267v-10.783h2.4653v10.045c0 .476.0691.853.2074 1.129.1382.261.4224.392.8525.392.2764 0 .5606-.077.8524-.23.3072-.169.5991-.369.8756-.599v-10.737h2.4652V164h-2.4652v-1.313c-.4301.414-.9216.768-1.4746 1.06-.5376.291-1.129.437-1.7741.437Zm11.7834 0c-.6912 0-1.2519-.13-1.682-.391-.4147-.261-.7219-.63-.9216-1.106-.1843-.476-.2764-1.037-.2764-1.682v-8.686h-1.4055v-1.636h1.4055v-3.894h2.4652v3.894h2.1428v1.636h-2.1428v8.525c0 .522.0845.898.2535 1.128.1689.216.4915.323.9677.323.1228 0 .2611-.008.4147-.023.1689-.015.3302-.031.4838-.046v1.82c-.3072.046-.5913.077-.8525.092-.2611.031-.5452.046-.8524.046Zm7.2027 0c-.9831 0-1.7588-.199-2.3271-.599-.5683-.399-.9753-.967-1.2211-1.705-.2304-.737-.3456-1.605-.3456-2.603v-3.871c0-.998.1152-1.866.3456-2.603.2458-.738.6528-1.306 1.2211-1.705.5683-.4 1.344-.599 2.3271-.599.983 0 1.751.199 2.304.599.5683.399.9677.967 1.1981 1.705.2457.737.3686 1.605.3686 2.603v3.871c0 .998-.1229 1.866-.3686 2.603-.2304.738-.6298 1.306-1.1981 1.705-.553.4-1.321.599-2.304.599Zm0-1.82c.4761 0 .8064-.138.9907-.415.1997-.276.3149-.637.3456-1.082.0461-.461.0691-.937.0691-1.429v-4.17c0-.507-.023-.983-.0691-1.429-.0307-.445-.1459-.806-.3456-1.083-.1843-.291-.5146-.437-.9907-.437-.4762 0-.8141.146-1.0138.437-.1997.277-.3226.638-.3686 1.083-.0307.446-.0461.922-.0461 1.429v4.17c0 .492.0154.968.0461 1.429.046.445.1689.806.3686 1.082.1997.277.5376.415 1.0138.415Zm14.4765 1.82c-1.1213 0-1.9584-.407-2.5114-1.221-.5529-.829-.8294-2.227-.8294-4.193v-2.581c0-1.013.0845-1.95.2534-2.81.169-.876.4839-1.575.9447-2.097.4761-.522 1.1673-.783 2.0736-.783.4454 0 .8524.099 1.2211.299.3686.2.6989.446.9907.737v-6.197h2.4655V164h-2.4655v-.852c-.2918.307-.6144.56-.9677.76-.3379.184-.7296.276-1.175.276Zm.6221-1.935c.2304 0 .4761-.038.7372-.115.2612-.092.5223-.223.7834-.392v-8.732c-.215-.154-.4531-.284-.7142-.392-.2612-.123-.5453-.184-.8525-.184-.5683 0-.9523.276-1.152.829-.1997.538-.2995 1.191-.2995 1.959v3.755c0 .615.0307 1.175.0921 1.682.0768.492.2227.883.4378 1.175.215.277.5376.415.9677.415Zm10.1691 1.935c-1.044 0-1.851-.199-2.419-.599-.568-.414-.968-1.013-1.198-1.797-.215-.799-.323-1.774-.323-2.926v-3.041c0-1.183.116-2.166.346-2.949.23-.784.63-1.375 1.198-1.774.584-.4 1.383-.599 2.396-.599 1.122 0 1.943.23 2.466.691.537.461.89 1.129 1.059 2.004.169.86.254 1.897.254 3.111v1.083h-5.253v2.672c0 .538.046.976.138 1.313.108.338.269.592.484.761.23.153.522.23.875.23.369 0 .645-.084.83-.253.199-.185.33-.438.391-.761.077-.338.116-.729.116-1.175v-.806h2.396v.507c0 1.336-.284 2.388-.853 3.156-.568.768-1.536 1.152-2.903 1.152Zm-1.474-8.133h2.834v-1.198c0-.553-.031-1.014-.092-1.382-.062-.384-.192-.668-.392-.853-.184-.199-.484-.299-.899-.299-.399 0-.706.092-.921.276-.2.185-.338.499-.415.945-.077.43-.115 1.029-.115 1.797v.714ZM117.059 164l3.963-18.662h2.511L127.519 164h-2.465l-.853-4.7H120.4l-.899 4.7h-2.442Zm3.686-6.566h3.111l-1.567-8.41-1.544 8.41Zm8.691 6.566v-18.662h2.465V164h-2.465Zm8.583.184c-.692 0-1.252-.13-1.682-.391-.415-.261-.722-.63-.922-1.106-.184-.476-.276-1.037-.276-1.682v-8.686h-1.406v-1.636h1.406v-3.894h2.465v3.894h2.143v1.636h-2.143v8.525c0 .522.084.898.253 1.128.169.216.492.323.968.323.123 0 .261-.008.415-.023.169-.015.33-.031.484-.046v1.82c-.308.046-.592.077-.853.092-.261.031-.545.046-.852.046Zm7.202 0c-.983 0-1.758-.199-2.327-.599-.568-.399-.975-.967-1.221-1.705-.23-.737-.345-1.605-.345-2.603v-3.871c0-.998.115-1.866.345-2.603.246-.738.653-1.306 1.221-1.705.569-.4 1.344-.599 2.327-.599.983 0 1.751.199 2.304.599.569.399.968.967 1.198 1.705.246.737.369 1.605.369 2.603v3.871c0 .998-.123 1.866-.369 2.603-.23.738-.629 1.306-1.198 1.705-.553.4-1.321.599-2.304.599Zm0-1.82c.476 0 .807-.138.991-.415.2-.276.315-.637.346-1.082.046-.461.069-.937.069-1.429v-4.17c0-.507-.023-.983-.069-1.429-.031-.445-.146-.806-.346-1.083-.184-.291-.515-.437-.991-.437s-.814.146-1.013.437c-.2.277-.323.638-.369 1.083-.031.446-.046.922-.046 1.429v4.17c0 .492.015.968.046 1.429.046.445.169.806.369 1.082.199.277.537.415 1.013.415Zm9.212 1.82c-1.091 0-1.966-.338-2.627-1.013-.66-.692-1.037-1.598-1.129-2.719l2.051-.622c.123.845.33 1.482.622 1.912.292.415.722.622 1.29.622.446 0 .783-.123 1.014-.368.23-.262.345-.607.345-1.037 0-.384-.084-.73-.253-1.037-.169-.307-.445-.622-.829-.945l-2.281-1.958c-.461-.399-.853-.845-1.175-1.336-.308-.492-.461-1.129-.461-1.913 0-.706.138-1.298.415-1.774.291-.491.691-.86 1.198-1.106.522-.261 1.129-.391 1.82-.391 1.06 0 1.866.345 2.419 1.036.568.676.891 1.498.968 2.466l-1.659.622c-.062-.461-.154-.86-.277-1.198-.123-.354-.292-.622-.507-.807-.215-.199-.499-.299-.852-.299-.399 0-.722.138-.968.414-.23.262-.345.576-.345.945 0 .23.046.461.138.691.107.215.284.43.53.645l2.35 2.166c.322.292.622.607.898.945.292.338.53.722.715 1.152.184.43.276.929.276 1.497 0 .753-.153 1.383-.461 1.89-.307.507-.737.891-1.29 1.152-.553.245-1.198.368-1.935.368ZM6.5178 190v-18.662h7.2345v1.935h-4.631v6.175h3.7555v1.843H9.1213v6.843h4.6771V190H6.5178Zm11.745.184c-1.0906 0-1.9661-.338-2.6266-1.013-.6605-.692-1.0368-1.598-1.129-2.719l2.0506-.622c.1229.845.3302 1.482.6221 1.912.2918.415.7219.622 1.2902.622.4455 0 .7834-.123 1.0138-.368.2304-.262.3456-.607.3456-1.037 0-.384-.0845-.73-.2535-1.037-.1689-.307-.4454-.622-.8294-.945l-2.281-1.958c-.4608-.399-.8524-.845-1.175-1.336-.3072-.492-.4608-1.129-.4608-1.913 0-.706.1382-1.298.4147-1.774.2919-.491.6912-.86 1.1981-1.106.5222-.261 1.129-.391 1.8202-.391 1.0598 0 1.8662.345 2.4192 1.036.5683.676.8908 1.498.9676 2.466l-1.6588.622c-.0615-.461-.1536-.86-.2765-1.198-.1229-.354-.2919-.622-.5069-.807-.215-.199-.4992-.299-.8525-.299-.3993 0-.7219.138-.9677.414-.2304.262-.3456.576-.3456.945 0 .23.0461.461.1383.691.1075.215.2841.43.5299.645l2.3501 2.166c.3225.292.6221.607.8985.945.2919.338.53.722.7143 1.152.1843.43.2765.929.2765 1.497 0 .753-.1536 1.383-.4608 1.89-.3072.507-.7373.891-1.2903 1.152-.5529.245-1.1981.368-1.9353.368Zm9.0783 0c-.6912 0-1.2519-.13-1.682-.391-.4147-.261-.7219-.63-.9216-1.106-.1843-.476-.2764-1.037-.2764-1.682v-8.686h-1.4055v-1.636h1.4055v-3.894h2.4652v3.894h2.1428v1.636h-2.1428v8.525c0 .522.0845.898.2535 1.128.1689.216.4915.323.9677.323.1228 0 .2611-.008.4147-.023.1689-.015.3302-.031.4838-.046v1.82c-.3072.046-.5913.077-.8525.092-.2611.031-.5452.046-.8524.046Zm5.4516 0c-.5222 0-.9293-.138-1.2211-.414-.2918-.277-.4992-.622-.6221-1.037a5.0305 5.0305 0 0 1-.1613-1.267v-10.783h2.4653v10.045c0 .476.0691.853.2074 1.129.1382.261.4224.392.8525.392.2764 0 .5606-.077.8524-.23.3072-.169.5991-.369.8756-.599v-10.737h2.4652V190h-2.4652v-1.313c-.4301.414-.9216.768-1.4746 1.06-.5376.291-1.129.437-1.7741.437Zm11.3226 0c-1.1213 0-1.9584-.407-2.5114-1.221-.553-.829-.8294-2.227-.8294-4.193v-2.581c0-1.013.0844-1.95.2534-2.81.169-.876.4838-1.575.9446-2.097.4762-.522 1.1674-.783 2.0736-.783.4455 0 .8525.099 1.2212.299.3686.2.6988.446.9907.737v-6.197h2.4653V190H46.258v-.852c-.2919.307-.6144.56-.9677.76-.3379.184-.7296.276-1.175.276Zm.622-1.935c.2304 0 .4762-.038.7373-.115.2611-.092.5223-.223.7834-.392v-8.732c-.2151-.154-.4531-.284-.7143-.392-.2611-.123-.5452-.184-.8524-.184-.5684 0-.9524.276-1.152.829-.1997.538-.2996 1.191-.2996 1.959v3.755c0 .615.0308 1.175.0922 1.682.0768.492.2227.883.4378 1.175.215.277.5376.415.9676.415ZM51.3817 190v-13.317h2.4653V190h-2.4653Zm0-15.299v-2.58h2.4653v2.58h-2.4653Zm8.7671 15.483c-.9831 0-1.7588-.199-2.3271-.599-.5683-.399-.9753-.967-1.2211-1.705-.2304-.737-.3456-1.605-.3456-2.603v-3.871c0-.998.1152-1.866.3456-2.603.2458-.738.6528-1.306 1.2211-1.705.5683-.4 1.344-.599 2.3271-.599.983 0 1.751.199 2.304.599.5683.399.9676.967 1.198 1.705.2458.737.3687 1.605.3687 2.603v3.871c0 .998-.1229 1.866-.3687 2.603-.2304.738-.6297 1.306-1.198 1.705-.553.4-1.321.599-2.304.599Zm0-1.82c.4761 0 .8064-.138.9907-.415.1997-.276.3149-.637.3456-1.082.0461-.461.0691-.937.0691-1.429v-4.17c0-.507-.023-.983-.0691-1.429-.0307-.445-.1459-.806-.3456-1.083-.1843-.291-.5146-.437-.9907-.437-.4762 0-.8141.146-1.0138.437-.1997.277-.3226.638-.3686 1.083-.0308.446-.0461.922-.0461 1.429v4.17c0 .492.0153.968.0461 1.429.046.445.1689.806.3686 1.082.1997.277.5376.415 1.0138.415Zm9.2115 1.82c-1.0906 0-1.9661-.338-2.6266-1.013-.6605-.692-1.0368-1.598-1.129-2.719l2.0506-.622c.1229.845.3302 1.482.6221 1.912.2918.415.7219.622 1.2902.622.4455 0 .7834-.123 1.0138-.368.2304-.262.3456-.607.3456-1.037 0-.384-.0845-.73-.2535-1.037-.1689-.307-.4454-.622-.8294-.945l-2.281-1.958c-.4608-.399-.8524-.845-1.175-1.336-.3072-.492-.4608-1.129-.4608-1.913 0-.706.1382-1.298.4147-1.774.2919-.491.6912-.86 1.1981-1.106.5222-.261 1.129-.391 1.8202-.391 1.0598 0 1.8662.345 2.4192 1.036.5683.676.8908 1.498.9676 2.466l-1.6588.622c-.0615-.461-.1536-.86-.2765-1.198-.1229-.354-.2919-.622-.5069-.807-.215-.199-.4992-.299-.8525-.299-.3993 0-.7219.138-.9677.414-.2304.262-.3456.576-.3456.945 0 .23.0461.461.1383.691.1075.215.2841.43.5299.645l2.3501 2.166c.3225.292.6221.607.8985.945.2919.338.53.722.7143 1.152.1843.43.2765.929.2765 1.497 0 .753-.1536 1.383-.4608 1.89-.3072.507-.7373.891-1.2903 1.152-.5529.245-1.1981.368-1.9353.368ZM80.3628 190v-18.662h1.774l5.2992 12.395v-12.395h2.1658V190h-1.6589l-5.3683-12.741V190h-2.2118Zm14.3613.184c-.5223 0-.9831-.146-1.3824-.437-.3994-.308-.7143-.692-.9447-1.152-.2304-.477-.3456-.976-.3456-1.498 0-.829.1383-1.528.4147-2.097.2765-.568.6528-1.044 1.129-1.428.4915-.4 1.0522-.745 1.6819-1.037.6451-.292 1.321-.576 2.0275-.852v-.945c0-.538-.0307-.983-.0921-1.336-.0615-.354-.192-.615-.3917-.784-.1843-.184-.4685-.276-.8525-.276-.3379 0-.6144.077-.8294.23-.1997.154-.3456.376-.4378.668-.0921.277-.1382.607-.1382.991v.668l-2.4423-.092c.0308-1.475.3687-2.557 1.0138-3.249.6451-.706 1.6435-1.059 2.9952-1.059 1.321 0 2.2579.361 2.8109 1.082.5529.722.8294 1.767.8294 3.134v6.082c0 .415.0077.815.0231 1.199.0307.384.0614.744.0921 1.082.0461.323.0845.63.115.922h-2.2577a48.6565 48.6565 0 0 0-.1843-.922c-.0615-.384-.1075-.729-.1383-1.036-.1536.522-.4531 1.013-.8985 1.474-.4301.446-1.0291.668-1.7971.668Zm.9676-2.119c.2458 0 .4762-.069.6912-.208.2151-.138.4071-.292.576-.461.169-.184.2842-.33.3456-.437v-3.779c-.384.215-.7449.43-1.0828.645-.338.215-.6375.446-.8986.691-.2458.231-.4454.5-.599.807-.1383.292-.2074.63-.2074 1.014 0 .537.0998.96.2995 1.267.1997.307.4915.461.8755.461Zm10.0863 2.119c-1.09 0-1.92-.215-2.488-.645-.553-.445-.929-1.067-1.129-1.866-.184-.799-.277-1.728-.277-2.788v-3.064c0-1.121.1-2.074.3-2.857.2-.799.576-1.406 1.129-1.82.568-.43 1.39-.645 2.465-.645.968 0 1.713.161 2.235.483.538.308.906.776 1.106 1.406.2.614.3 1.382.3 2.304v.783h-2.235v-.806c0-.584-.039-1.045-.116-1.383-.076-.338-.215-.583-.414-.737-.2-.153-.484-.23-.853-.23-.399 0-.706.092-.921.276-.215.185-.361.499-.438.945-.062.43-.092 1.021-.092 1.774v4.193c0 1.137.107 1.897.322 2.281.215.384.599.576 1.152.576.415 0 .715-.092.899-.276.2-.2.322-.476.369-.83.061-.353.092-.752.092-1.198v-1.083h2.235v.922c0 .891-.108 1.659-.323 2.304-.2.645-.568 1.137-1.106 1.474-.522.338-1.259.507-2.212.507Zm5.994-.184v-13.317h2.465V190h-2.465Zm0-15.299v-2.58h2.465v2.58h-2.465Zm8.767 15.483c-.983 0-1.759-.199-2.327-.599-.569-.399-.976-.967-1.221-1.705-.231-.737-.346-1.605-.346-2.603v-3.871c0-.998.115-1.866.346-2.603.245-.738.652-1.306 1.221-1.705.568-.4 1.344-.599 2.327-.599.983 0 1.751.199 2.304.599.568.399.967.967 1.198 1.705.246.737.368 1.605.368 2.603v3.871c0 .998-.122 1.866-.368 2.603-.231.738-.63 1.306-1.198 1.705-.553.4-1.321.599-2.304.599Zm0-1.82c.476 0 .806-.138.99-.415.2-.276.315-.637.346-1.082.046-.461.069-.937.069-1.429v-4.17c0-.507-.023-.983-.069-1.429-.031-.445-.146-.806-.346-1.083-.184-.291-.514-.437-.99-.437s-.814.146-1.014.437c-.2.277-.323.638-.369 1.083-.03.446-.046.922-.046 1.429v4.17c0 .492.016.968.046 1.429.046.445.169.806.369 1.082.2.277.538.415 1.014.415Zm6.124 1.636v-13.317h2.465v1.313c.446-.415.937-.768 1.475-1.06.537-.292 1.129-.437 1.774-.437.537 0 .944.138 1.221.414.292.277.491.622.599 1.037.123.415.184.837.184 1.267V190h-2.465v-10.068c0-.477-.069-.845-.207-1.106-.139-.262-.423-.392-.853-.392-.276 0-.568.084-.875.253-.292.154-.576.346-.853.576V190h-2.465Zm12.521.184c-.522 0-.983-.146-1.382-.437-.4-.308-.715-.692-.945-1.152-.23-.477-.346-.976-.346-1.498 0-.829.139-1.528.415-2.097.277-.568.653-1.044 1.129-1.428.492-.4 1.052-.745 1.682-1.037.645-.292 1.321-.576 2.028-.852v-.945c0-.538-.031-.983-.093-1.336-.061-.354-.192-.615-.391-.784-.185-.184-.469-.276-.853-.276-.338 0-.614.077-.829.23-.2.154-.346.376-.438.668-.092.277-.138.607-.138.991v.668l-2.442-.092c.03-1.475.368-2.557 1.013-3.249.645-.706 1.644-1.059 2.996-1.059 1.32 0 2.257.361 2.81 1.082.553.722.83 1.767.83 3.134v6.082c0 .415.008.815.023 1.199.031.384.061.744.092 1.082.046.323.085.63.115.922h-2.258c-.046-.246-.107-.553-.184-.922-.061-.384-.108-.729-.138-1.036-.154.522-.453 1.013-.899 1.474-.43.446-1.029.668-1.797.668Zm.968-2.119c.246 0 .476-.069.691-.208.215-.138.407-.292.576-.461.169-.184.284-.33.346-.437v-3.779c-.384.215-.745.43-1.083.645-.338.215-.638.446-.899.691-.246.231-.445.5-.599.807-.138.292-.207.63-.207 1.014 0 .537.1.96.299 1.267.2.307.492.461.876.461Zm6.676 1.935v-18.662h2.466V190h-2.466Zm8.721.184c-1.044 0-1.851-.199-2.419-.599-.568-.414-.968-1.013-1.198-1.797-.215-.799-.323-1.774-.323-2.926v-3.041c0-1.183.116-2.166.346-2.949.23-.784.63-1.375 1.198-1.774.584-.4 1.383-.599 2.396-.599 1.122 0 1.943.23 2.466.691.537.461.89 1.129 1.059 2.004.169.86.254 1.897.254 3.111v1.083h-5.253v2.672c0 .538.046.976.138 1.313.108.338.269.592.484.761.23.153.522.23.875.23.369 0 .645-.084.83-.253.199-.185.33-.438.391-.761.077-.338.116-.729.116-1.175v-.806h2.396v.507c0 1.336-.284 2.388-.853 3.156-.568.768-1.536 1.152-2.903 1.152Zm-1.474-8.133h2.834v-1.198c0-.553-.031-1.014-.092-1.382-.062-.384-.192-.668-.392-.853-.184-.199-.484-.299-.899-.299-.399 0-.706.092-.921.276-.2.185-.338.499-.415.945-.077.43-.115 1.029-.115 1.797v.714Zm10.573 8.133c-1.091 0-1.966-.338-2.627-1.013-.66-.692-1.037-1.598-1.129-2.719l2.051-.622c.123.845.33 1.482.622 1.912.292.415.722.622 1.29.622.446 0 .783-.123 1.014-.368.23-.262.345-.607.345-1.037 0-.384-.084-.73-.253-1.037-.169-.307-.445-.622-.829-.945l-2.281-1.958c-.461-.399-.853-.845-1.175-1.336-.308-.492-.461-1.129-.461-1.913 0-.706.138-1.298.415-1.774.291-.491.691-.86 1.198-1.106.522-.261 1.129-.391 1.82-.391 1.06 0 1.866.345 2.419 1.036.568.676.891 1.498.968 2.466l-1.659.622c-.062-.461-.154-.86-.277-1.198-.123-.354-.292-.622-.507-.807-.215-.199-.499-.299-.852-.299-.399 0-.722.138-.968.414-.23.262-.345.576-.345.945 0 .23.046.461.138.691.107.215.284.43.53.645l2.35 2.166c.322.292.622.607.898.945.292.338.53.722.715 1.152.184.43.276.929.276 1.497 0 .753-.153 1.383-.461 1.89-.307.507-.737.891-1.29 1.152-.553.245-1.198.368-1.935.368Z"/></svg>