<svg xmlns="http://www.w3.org/2000/svg" fill="none" viewBox="0 0 368 177"><g fill="#1267C2" filter="url(#a)"><path d="M14.031 101.808C8.248 97.696 3.576 91.101 0 82.038l19.845-8.765c1.902 4.775 4.14 8.468 6.703 11.096 2.565 2.627 5.334 3.937 8.31 3.937 2.26 0 3.994-.625 5.181-1.881 1.188-1.25 1.789-2.955 1.789-5.103-.122-2.025-1.248-4.143-3.394-6.351-2.146-2.209-5.783-5.392-10.904-9.573l-7.51-6.26C13.818 53.89 9.32 49.116 6.52 44.828c-2.8-4.295-4.2-9.42-4.2-15.384 0-5.483 1.46-10.38 4.383-14.667 2.922-4.295 6.817-7.662 11.71-10.106C23.3 2.226 28.542 1 34.142 1c8.462 0 15.523 2.3 21.184 6.885 5.661 4.592 9.68 11.18 12.068 19.77l-18.771 8.59c-1.195-3.815-3.036-7.242-5.54-10.288-2.503-3.047-5.243-4.562-8.225-4.562-1.91 0-3.424.533-4.558 1.607-1.134 1.073-1.697 2.505-1.697 4.295 0 2.148 1.103 4.417 3.31 6.8 2.207 2.384 5.927 5.728 11.17 10.023l7.328 6.443c4.048 3.58 7.297 6.618 9.74 9.123 2.442 2.506 4.527 5.491 6.254 8.949C68.133 72.092 69 75.855 69 79.905c0 5.85-1.522 10.884-4.558 15.118-3.036 4.234-7.092 7.456-12.16 9.664-5.067 2.209-10.515 3.313-16.36 3.313-8.818 0-16.115-2.056-21.898-6.176l.007-.016ZM146.771 55.234c1.877 20.237-7.968 41.083-23.227 50.065-16.578 9.768-36.247-.449-45.37-23.01-9.28-22.963-5.79-52.776 8.158-69.622 14-16.915 34.475-16.892 48.038.084.701.876 7.395 13.653 8.021 14.659-.437-.13-5.006 6.323-11.263 14.544-.784 1.029-4.651 7.018-5.285 7.947-5.812 8.64-8.097 10.98-14.097 19.337-.845 1.181-2.978 1.547-4.124.869-2.013-1.181-3.943-3.124-5.519-5.341-4.96-6.987-4.9-10.773-.068-17.76 5.753-8.313 8.007-10.278 13.925-18.804-10.773-7.101-23.853 5.326-25.075 22.872-1.123 16.244 6.725 30.462 17.483 31.665 12.017 1.341 21.742-9.554 22.127-27.497M151 3h28.186l8.675 65.757L195.814 3H224l-21.503 103h-30.532L151 3ZM282.329 46.373c-.317 1.258-.748 2.583-1.375 3.52-5.823 8.64-8.111 10.98-14.123 19.338-.846 1.18-2.983 1.546-4.131.868-2.017-1.18-3.95-3.124-5.529-5.34-4.969-6.987-4.909-10.774-.068-17.76 5.763-8.313 8.021-10.279 13.95-18.805-10.793-7.1-23.897 5.326-25.12 22.873-1.125 16.244 6.737 30.46 17.514 31.665 12.039 1.34 21.374-10.682 21.759-28.625.348-16 4.29-29.387 12.409-40.183C314.669-8.773 341.942-3.143 355 27.6c-3.421 4.343-7.281 8.823-10.8 13.806-7.568 10.712-10.853 14.568-18.149 25.676-2.356 3.596-4.486 3.985-7.054 1.425-1.7-1.692-3.437-3.497-4.758-5.745-4.26-7.253-4.139-9.547.498-16.069 5.921-8.342 7.666-9.668 13.972-18.491-13.043-7.109-25.203 6.69-25.897 27.238-.809 24.016-8.897 40.869-24.176 49.859-16.608 9.768-36.313-.449-45.452-23.01-9.297-22.963-5.8-52.776 8.172-69.622 14.025-16.915 34.538-16.892 48.125.084.703.876 1.269 1.98 1.904 2.986-.439-.13-6.45 20.313-9.064 30.644l.008-.008Z"/><path d="M297 93.666c2.951-8.324 5.719-16.138 8.609-24.287 5.371 10.647 12.683 16.275 22.18 12.688 9.368-3.541 13.775-13.45 14.981-27.067h16.855c2.359 16.054-6.69 38.133-19.578 47.965-14.139 10.792-32.625 6.763-43.047-9.307v.008Z"/></g><path fill="#fff" d="M18.745 148.207c-1.076 0-1.974-.23-2.696-.691-.707-.461-1.244-1.098-1.613-1.912-.368-.814-.584-1.759-.645-2.834l2.304-.622c.046.66.146 1.298.3 1.912.169.615.437 1.121.806 1.521.369.384.883.576 1.544.576.675 0 1.182-.185 1.52-.553.354-.384.53-.929.53-1.636 0-.845-.192-1.521-.576-2.028a10.38 10.38 0 0 0-1.451-1.566l-3.134-2.765c-.614-.538-1.067-1.121-1.36-1.751-.291-.645-.437-1.436-.437-2.373 0-1.367.392-2.427 1.175-3.18.784-.752 1.851-1.129 3.203-1.129.737 0 1.382.1 1.935.3a3.224 3.224 0 0 1 1.405.875c.384.4.684.907.9 1.521.23.599.383 1.306.46 2.12l-2.212.599a8.933 8.933 0 0 0-.276-1.682c-.139-.522-.384-.937-.738-1.244-.338-.323-.83-.484-1.474-.484-.645 0-1.152.176-1.52.53-.354.338-.53.845-.53 1.52 0 .569.091 1.037.276 1.406.2.368.514.745.944 1.129l3.157 2.765a9.748 9.748 0 0 1 1.866 2.211c.538.845.806 1.851.806 3.019 0 .921-.192 1.72-.576 2.396a3.886 3.886 0 0 1-1.59 1.52c-.66.354-1.428.53-2.303.53Zm6.443-.207v-13.317h2.465V148h-2.465Zm0-15.299v-2.58h2.465v2.58h-2.465Zm8.191 15.483c-1.09 0-1.966-.338-2.627-1.013-.66-.692-1.036-1.598-1.128-2.719l2.05-.622c.123.845.33 1.482.622 1.912.292.415.722.622 1.29.622.446 0 .784-.123 1.014-.368.23-.262.346-.607.346-1.037 0-.384-.085-.73-.254-1.037-.169-.307-.445-.622-.83-.945l-2.28-1.958a6.444 6.444 0 0 1-1.175-1.336c-.307-.492-.461-1.129-.461-1.913 0-.706.138-1.298.415-1.774a2.78 2.78 0 0 1 1.198-1.106c.522-.261 1.129-.391 1.82-.391 1.06 0 1.866.345 2.42 1.036.568.676.89 1.498.967 2.466l-1.659.622a5.746 5.746 0 0 0-.276-1.198c-.123-.354-.292-.622-.507-.807-.215-.199-.5-.299-.853-.299-.4 0-.722.138-.967.414a1.38 1.38 0 0 0-.346.945c0 .23.046.461.138.691.108.215.284.43.53.645l2.35 2.166c.323.292.622.607.899.945.291.338.53.722.714 1.152.184.43.276.929.276 1.497 0 .753-.153 1.383-.46 1.89a2.938 2.938 0 0 1-1.29 1.152c-.554.245-1.199.368-1.936.368Zm9.078 0c-.69 0-1.252-.13-1.682-.391a2.338 2.338 0 0 1-.921-1.106c-.184-.476-.277-1.037-.277-1.682v-8.686h-1.405v-1.636h1.405v-3.894h2.466v3.894h2.142v1.636h-2.142v8.525c0 .522.084.898.253 1.128.169.216.492.323.968.323.123 0 .26-.008.414-.023.17-.015.33-.031.484-.046v1.82a9.459 9.459 0 0 1-.852.092 7.261 7.261 0 0 1-.853.046Zm7.226 0c-1.044 0-1.85-.199-2.42-.599-.567-.414-.967-1.013-1.197-1.797-.215-.799-.323-1.774-.323-2.926v-3.041c0-1.183.115-2.166.346-2.949.23-.784.63-1.375 1.198-1.774.584-.4 1.382-.599 2.396-.599 1.121 0 1.943.23 2.465.691.538.461.891 1.129 1.06 2.004.17.86.254 1.897.254 3.111v1.083h-5.254v2.672c0 .538.047.976.139 1.313.107.338.268.592.484.761.23.153.522.23.875.23.369 0 .645-.084.83-.253.2-.185.33-.438.391-.761.077-.338.115-.729.115-1.175v-.806h2.397v.507c0 1.336-.285 2.388-.853 3.156-.568.768-1.536 1.152-2.903 1.152Zm-1.474-8.133h2.833v-1.198a8.61 8.61 0 0 0-.092-1.382c-.061-.384-.192-.668-.391-.853-.185-.199-.484-.299-.899-.299-.4 0-.707.092-.922.276-.2.185-.337.499-.414.945-.077.43-.115 1.029-.115 1.797v.714ZM55.694 148v-13.317h2.281v1.267c.445-.507.937-.883 1.475-1.129a3.946 3.946 0 0 1 1.658-.369c.492 0 .93.123 1.314.369.4.246.683.684.852 1.313.477-.583.991-1.006 1.544-1.267a4.015 4.015 0 0 1 1.774-.415c.43 0 .822.108 1.175.323.353.2.638.53.853.991.215.445.322 1.037.322 1.774V148h-2.258v-10.299c0-.645-.107-1.075-.322-1.29-.2-.231-.477-.346-.83-.346-.338 0-.691.1-1.06.3a3.459 3.459 0 0 0-1.013.783V148H61.2v-10.299c0-.645-.108-1.075-.323-1.29-.2-.231-.476-.346-.83-.346-.337 0-.69.1-1.06.3a3.909 3.909 0 0 0-1.013.783V148h-2.28Zm18.056.184c-.522 0-.983-.146-1.382-.437a3.3 3.3 0 0 1-.945-1.152 3.402 3.402 0 0 1-.345-1.498c0-.829.138-1.528.414-2.097a4.13 4.13 0 0 1 1.13-1.428 7.94 7.94 0 0 1 1.681-1.037c.645-.292 1.321-.576 2.028-.852v-.945a8 8 0 0 0-.092-1.336c-.062-.354-.192-.615-.392-.784-.184-.184-.468-.276-.852-.276-.339 0-.615.077-.83.23-.2.154-.346.376-.438.668a3.15 3.15 0 0 0-.138.991v.668l-2.442-.092c.03-1.475.368-2.557 1.013-3.249.646-.706 1.644-1.059 2.996-1.059 1.32 0 2.258.361 2.81 1.082.554.722.83 1.767.83 3.134v6.082c0 .415.008.815.023 1.199.03.384.061.744.092 1.082.046.323.085.63.115.922H76.77a47.873 47.873 0 0 0-.185-.922 17.927 17.927 0 0 1-.138-1.036c-.154.522-.453 1.013-.899 1.474-.43.446-1.029.668-1.797.668Zm.968-2.119c.246 0 .476-.069.691-.208.215-.138.407-.292.576-.461a2.76 2.76 0 0 0 .346-.437v-3.779c-.384.215-.745.43-1.083.645a6.08 6.08 0 0 0-.899.691c-.245.231-.445.5-.599.807-.138.292-.207.63-.207 1.014 0 .537.1.96.3 1.267.2.307.491.461.875.461ZM86.636 148v-18.662h7.235v1.935H89.24v6.175h3.756v1.843H89.24v6.843h4.677V148h-7.28Zm12.816.184c-1.09 0-1.92-.215-2.488-.645-.553-.445-.93-1.067-1.13-1.866-.184-.799-.276-1.728-.276-2.788v-3.064c0-1.121.1-2.074.3-2.857.2-.799.576-1.406 1.129-1.82.568-.43 1.39-.645 2.465-.645.968 0 1.713.161 2.235.483.537.308.906.776 1.106 1.406.199.614.299 1.382.299 2.304v.783h-2.235v-.806c0-.584-.038-1.045-.115-1.383-.077-.338-.215-.583-.415-.737-.199-.153-.483-.23-.852-.23-.4 0-.707.092-.922.276-.215.185-.36.499-.437.945-.062.43-.093 1.021-.093 1.774v4.193c0 1.137.108 1.897.323 2.281.215.384.6.576 1.152.576.415 0 .714-.092.899-.276.199-.2.322-.476.368-.83.062-.353.092-.752.092-1.198v-1.083h2.235v.922c0 .891-.107 1.659-.322 2.304-.2.645-.569 1.137-1.106 1.474-.522.338-1.26.507-2.212.507Zm7.744 0c-.522 0-.929-.138-1.221-.414a2.306 2.306 0 0 1-.622-1.037 5.053 5.053 0 0 1-.161-1.267v-10.783h2.465v10.045c0 .476.069.853.208 1.129.138.261.422.392.852.392.277 0 .561-.077.853-.23.307-.169.599-.369.875-.599v-10.737h2.465V148h-2.465v-1.313c-.43.414-.921.768-1.474 1.06a3.67 3.67 0 0 1-1.775.437Zm10.632 0a2.29 2.29 0 0 1-1.383-.437 3.299 3.299 0 0 1-.944-1.152 3.394 3.394 0 0 1-.346-1.498c0-.829.138-1.528.415-2.097a4.126 4.126 0 0 1 1.129-1.428 7.92 7.92 0 0 1 1.682-1.037 41.977 41.977 0 0 1 2.027-.852v-.945c0-.538-.03-.983-.092-1.336-.061-.354-.192-.615-.392-.784-.184-.184-.468-.276-.852-.276-.338 0-.614.077-.829.23-.2.154-.346.376-.438.668a3.156 3.156 0 0 0-.138.991v.668l-2.443-.092c.031-1.475.369-2.557 1.014-3.249.645-.706 1.644-1.059 2.995-1.059 1.321 0 2.258.361 2.811 1.082.553.722.83 1.767.83 3.134v6.082c0 .415.007.815.023 1.199.03.384.061.744.092 1.082.046.323.084.63.115.922h-2.258a46.084 46.084 0 0 0-.184-.922 17.723 17.723 0 0 1-.139-1.036c-.153.522-.453 1.013-.898 1.474-.43.446-1.029.668-1.797.668Zm.967-2.119c.246 0 .477-.069.692-.208.215-.138.407-.292.576-.461.169-.184.284-.33.345-.437v-3.779c-.384.215-.745.43-1.083.645a6.059 6.059 0 0 0-.898.691c-.246.231-.446.5-.599.807-.138.292-.208.63-.208 1.014 0 .537.1.96.3 1.267.2.307.491.461.875.461Zm9.815 2.119c-.691 0-1.252-.13-1.682-.391a2.339 2.339 0 0 1-.922-1.106c-.184-.476-.276-1.037-.276-1.682v-8.686h-1.406v-1.636h1.406v-3.894h2.465v3.894h2.143v1.636h-2.143v8.525c0 .522.085.898.254 1.128.168.216.491.323.967.323.123 0 .261-.008.415-.023.169-.015.33-.031.484-.046v1.82a9.465 9.465 0 0 1-.853.092 7.253 7.253 0 0 1-.852.046Zm7.203 0c-.984 0-1.759-.199-2.328-.599-.568-.399-.975-.967-1.221-1.705-.23-.737-.345-1.605-.345-2.603v-3.871c0-.998.115-1.866.345-2.603.246-.738.653-1.306 1.221-1.705.569-.4 1.344-.599 2.328-.599.983 0 1.751.199 2.304.599.568.399.967.967 1.198 1.705.245.737.368 1.605.368 2.603v3.871c0 .998-.123 1.866-.368 2.603-.231.738-.63 1.306-1.198 1.705-.553.4-1.321.599-2.304.599Zm0-1.82c.476 0 .806-.138.99-.415.2-.276.315-.637.346-1.082.046-.461.069-.937.069-1.429v-4.17c0-.507-.023-.983-.069-1.429-.031-.445-.146-.806-.346-1.083-.184-.291-.514-.437-.99-.437-.477 0-.815.146-1.014.437-.2.277-.323.638-.369 1.083-.031.446-.046.922-.046 1.429v4.17c0 .492.015.968.046 1.429.046.445.169.806.369 1.082.199.277.537.415 1.014.415Zm6.193 1.636v-13.317h2.465v1.889c.492-.814.983-1.359 1.475-1.636.491-.276.983-.414 1.474-.414h.161c.062 0 .139.007.231.023v2.718a3.288 3.288 0 0 0-.645-.184 2.787 2.787 0 0 0-.715-.092c-.384 0-.737.092-1.059.276-.308.169-.615.507-.922 1.014V148h-2.465Zm7.494 0v-13.317h2.466V148H149.5Zm0-15.299v-2.58h2.466v2.58H149.5Zm7.5 15.483c-.522 0-.983-.146-1.382-.437a3.313 3.313 0 0 1-1.29-2.65c0-.829.138-1.528.414-2.097a4.138 4.138 0 0 1 1.129-1.428 7.97 7.97 0 0 1 1.682-1.037 41.601 41.601 0 0 1 2.028-.852v-.945c0-.538-.031-.983-.092-1.336-.062-.354-.192-.615-.392-.784-.184-.184-.469-.276-.853-.276-.337 0-.614.077-.829.23-.2.154-.346.376-.438.668a3.156 3.156 0 0 0-.138.991v.668l-2.442-.092c.031-1.475.368-2.557 1.014-3.249.645-.706 1.643-1.059 2.995-1.059 1.321 0 2.258.361 2.811 1.082.553.722.829 1.767.829 3.134v6.082c0 .415.008.815.023 1.199.031.384.062.744.092 1.082.046.323.085.63.115.922h-2.257a55.938 55.938 0 0 0-.185-.922 18.547 18.547 0 0 1-.138-1.036c-.154.522-.453 1.013-.899 1.474-.43.446-1.029.668-1.797.668Zm.968-2.119c.246 0 .476-.069.691-.208.215-.138.407-.292.576-.461.169-.184.284-.33.346-.437v-3.779c-.384.215-.745.43-1.083.645a6.07 6.07 0 0 0-.899.691c-.245.231-.445.5-.599.807-.138.292-.207.63-.207 1.014 0 .537.1.96.299 1.267.2.307.492.461.876.461Zm6.446 1.935v-13.317h2.465v1.313a7.19 7.19 0 0 1 1.475-1.06 3.657 3.657 0 0 1 1.774-.437c.538 0 .945.138 1.221.414.292.277.492.622.599 1.037.123.415.185.837.185 1.267V148h-2.466v-10.068c0-.477-.069-.845-.207-1.106-.138-.262-.422-.392-.853-.392-.276 0-.568.084-.875.253a4.958 4.958 0 0 0-.853.576V148h-2.465Zm13.789.184c-.984 0-1.759-.199-2.328-.599-.568-.399-.975-.967-1.221-1.705-.23-.737-.345-1.605-.345-2.603v-3.871c0-.998.115-1.866.345-2.603.246-.738.653-1.306 1.221-1.705.569-.4 1.344-.599 2.328-.599.983 0 1.751.199 2.304.599.568.399.967.967 1.198 1.705.245.737.368 1.605.368 2.603v3.871c0 .998-.123 1.866-.368 2.603-.231.738-.63 1.306-1.198 1.705-.553.4-1.321.599-2.304.599Zm0-1.82c.476 0 .806-.138.99-.415.2-.276.315-.637.346-1.082.046-.461.069-.937.069-1.429v-4.17c0-.507-.023-.983-.069-1.429-.031-.445-.146-.806-.346-1.083-.184-.291-.514-.437-.99-.437-.477 0-.815.146-1.014.437-.2.277-.323.638-.369 1.083-.031.446-.046.922-.046 1.429v4.17c0 .492.015.968.046 1.429.046.445.169.806.369 1.082.199.277.537.415 1.014.415Zm14.476 1.82c-1.121 0-1.958-.407-2.511-1.221-.553-.829-.83-2.227-.83-4.193v-2.581c0-1.013.085-1.95.254-2.81.169-.876.483-1.575.944-2.097.476-.522 1.168-.783 2.074-.783.445 0 .852.099 1.221.299.369.2.699.446.991.737v-6.197h2.465V148h-2.465v-.852c-.292.307-.615.56-.968.76a2.42 2.42 0 0 1-1.175.276Zm.622-1.935c.23 0 .476-.038.737-.115.261-.092.523-.223.784-.392v-8.732a3.533 3.533 0 0 0-.715-.392 1.973 1.973 0 0 0-.852-.184c-.568 0-.952.276-1.152.829-.2.538-.3 1.191-.3 1.959v3.755c0 .615.031 1.175.093 1.682.076.492.222.883.437 1.175.215.277.538.415.968.415Zm10.17 1.935c-1.045 0-1.851-.199-2.42-.599-.568-.414-.967-1.013-1.198-1.797-.215-.799-.322-1.774-.322-2.926v-3.041c0-1.183.115-2.166.345-2.949.231-.784.63-1.375 1.198-1.774.584-.4 1.383-.599 2.397-.599 1.121 0 1.943.23 2.465.691.537.461.891 1.129 1.06 2.004.169.86.253 1.897.253 3.111v1.083h-5.253v2.672c0 .538.046.976.138 1.313.108.338.269.592.484.761.23.153.522.23.876.23.368 0 .645-.084.829-.253.2-.185.33-.438.392-.761.077-.338.115-.729.115-1.175v-.806h2.396v.507c0 1.336-.284 2.388-.852 3.156-.569.768-1.536 1.152-2.903 1.152Zm-1.475-8.133h2.834v-1.198c0-.553-.031-1.014-.092-1.382-.062-.384-.192-.668-.392-.853-.184-.199-.484-.299-.898-.299-.4 0-.707.092-.922.276-.2.185-.338.499-.415.945-.077.43-.115 1.029-.115 1.797v.714ZM218.203 148l-4.171-18.662h2.443l2.949 13.754 2.811-13.754h2.373L220.484 148h-2.281Zm8.337 0v-13.317h2.466V148h-2.466Zm0-15.299v-2.58h2.466v2.58h-2.466Zm8.192 15.483c-1.091 0-1.967-.338-2.627-1.013-.661-.692-1.037-1.598-1.129-2.719l2.051-.622c.122.845.33 1.482.622 1.912.291.415.722.622 1.29.622.445 0 .783-.123 1.014-.368.23-.262.345-.607.345-1.037 0-.384-.084-.73-.253-1.037-.169-.307-.446-.622-.83-.945l-2.281-1.958a6.479 6.479 0 0 1-1.175-1.336c-.307-.492-.46-1.129-.46-1.913 0-.706.138-1.298.414-1.774a2.78 2.78 0 0 1 1.198-1.106c.523-.261 1.129-.391 1.821-.391 1.059 0 1.866.345 2.419 1.036.568.676.891 1.498.967 2.466l-1.658.622a5.776 5.776 0 0 0-.277-1.198c-.123-.354-.292-.622-.507-.807-.215-.199-.499-.299-.852-.299-.4 0-.722.138-.968.414-.23.262-.346.576-.346.945 0 .23.046.461.139.691.107.215.284.43.53.645l2.35 2.166c.322.292.622.607.898.945.292.338.53.722.714 1.152.185.43.277.929.277 1.497 0 .753-.154 1.383-.461 1.89a2.935 2.935 0 0 1-1.29 1.152c-.553.245-1.198.368-1.935.368Zm7.442 0c-.522 0-.929-.138-1.221-.414a2.297 2.297 0 0 1-.622-1.037 5.008 5.008 0 0 1-.161-1.267v-10.783h2.465v10.045c0 .476.069.853.207 1.129.138.261.423.392.853.392.276 0 .56-.077.852-.23.307-.169.599-.369.876-.599v-10.737h2.465V148h-2.465v-1.313c-.43.414-.922.768-1.475 1.06a3.668 3.668 0 0 1-1.774.437Zm10.631 0c-.522 0-.983-.146-1.382-.437a3.313 3.313 0 0 1-1.29-2.65c0-.829.138-1.528.414-2.097a4.138 4.138 0 0 1 1.129-1.428 7.97 7.97 0 0 1 1.682-1.037 41.601 41.601 0 0 1 2.028-.852v-.945c0-.538-.031-.983-.092-1.336-.062-.354-.192-.615-.392-.784-.184-.184-.469-.276-.853-.276-.337 0-.614.077-.829.23-.2.154-.346.376-.438.668a3.156 3.156 0 0 0-.138.991v.668l-2.442-.092c.031-1.475.368-2.557 1.014-3.249.645-.706 1.643-1.059 2.995-1.059 1.321 0 2.258.361 2.811 1.082.553.722.829 1.767.829 3.134v6.082c0 .415.008.815.023 1.199.031.384.062.744.092 1.082.046.323.085.63.115.922h-2.257a55.938 55.938 0 0 0-.185-.922 18.547 18.547 0 0 1-.138-1.036c-.154.522-.453 1.013-.899 1.474-.43.446-1.029.668-1.797.668Zm.968-2.119c.246 0 .476-.069.691-.208.215-.138.407-.292.576-.461.169-.184.284-.33.346-.437v-3.779c-.384.215-.745.43-1.083.645a6.07 6.07 0 0 0-.899.691c-.245.231-.445.5-.599.807-.138.292-.207.63-.207 1.014 0 .537.1.96.299 1.267.2.307.492.461.876.461ZM260.45 148v-18.662h2.465V148h-2.465Zm5.195 0v-13.317h2.466V148h-2.466Zm0-15.299v-2.58h2.466v2.58h-2.466ZM270.242 148v-1.659l4.078-9.815h-3.663v-1.843h6.313v1.336l-4.101 10.115h4.009V148h-6.636Zm10.891.184a2.29 2.29 0 0 1-1.383-.437 3.299 3.299 0 0 1-.944-1.152 3.394 3.394 0 0 1-.346-1.498c0-.829.138-1.528.415-2.097a4.126 4.126 0 0 1 1.129-1.428 7.92 7.92 0 0 1 1.682-1.037 41.977 41.977 0 0 1 2.027-.852v-.945c0-.538-.03-.983-.092-1.336-.061-.354-.192-.615-.392-.784-.184-.184-.468-.276-.852-.276-.338 0-.614.077-.829.23-.2.154-.346.376-.438.668a3.156 3.156 0 0 0-.138.991v.668l-2.443-.092c.031-1.475.369-2.557 1.014-3.249.645-.706 1.644-1.059 2.995-1.059 1.321 0 2.258.361 2.811 1.082.553.722.83 1.767.83 3.134v6.082c0 .415.007.815.023 1.199.03.384.061.744.092 1.082.046.323.084.63.115.922h-2.258a46.084 46.084 0 0 0-.184-.922 17.723 17.723 0 0 1-.139-1.036c-.153.522-.453 1.013-.898 1.474-.43.446-1.029.668-1.797.668Zm.967-2.119c.246 0 .477-.069.692-.208.215-.138.407-.292.576-.461.169-.184.284-.33.345-.437v-3.779c-.384.215-.745.43-1.083.645a6.059 6.059 0 0 0-.898.691c-.246.231-.446.5-.599.807-.138.292-.208.63-.208 1.014 0 .537.1.96.3 1.267.2.307.491.461.875.461Zm10.087 2.119c-1.091 0-1.92-.215-2.488-.645-.553-.445-.93-1.067-1.129-1.866-.185-.799-.277-1.728-.277-2.788v-3.064c0-1.121.1-2.074.3-2.857.199-.799.576-1.406 1.129-1.82.568-.43 1.39-.645 2.465-.645.968 0 1.713.161 2.235.483.537.308.906.776 1.106 1.406.199.614.299 1.382.299 2.304v.783h-2.235v-.806c0-.584-.038-1.045-.115-1.383-.077-.338-.215-.583-.415-.737-.199-.153-.483-.23-.852-.23-.399 0-.707.092-.922.276-.215.185-.361.499-.437.945-.062.43-.093 1.021-.093 1.774v4.193c0 1.137.108 1.897.323 2.281.215.384.599.576 1.152.576.415 0 .714-.092.899-.276.199-.2.322-.476.368-.83.062-.353.092-.752.092-1.198v-1.083h2.235v.922c0 .891-.107 1.659-.322 2.304-.2.645-.569 1.137-1.106 1.474-.522.338-1.26.507-2.212.507Zm5.993-.184v-13.317h2.466V148h-2.466Zm0-15.299v-2.58h2.466v2.58h-2.466Zm8.768 15.483c-.984 0-1.759-.199-2.328-.599-.568-.399-.975-.967-1.221-1.705-.23-.737-.345-1.605-.345-2.603v-3.871c0-.998.115-1.866.345-2.603.246-.738.653-1.306 1.221-1.705.569-.4 1.344-.599 2.328-.599.983 0 1.751.199 2.304.599.568.399.967.967 1.198 1.705.245.737.368 1.605.368 2.603v3.871c0 .998-.123 1.866-.368 2.603-.231.738-.63 1.306-1.198 1.705-.553.4-1.321.599-2.304.599Zm0-1.82c.476 0 .806-.138.99-.415.2-.276.315-.637.346-1.082.046-.461.069-.937.069-1.429v-4.17c0-.507-.023-.983-.069-1.429-.031-.445-.146-.806-.346-1.083-.184-.291-.514-.437-.99-.437-.477 0-.815.146-1.014.437-.2.277-.323.638-.369 1.083-.031.446-.046.922-.046 1.429v4.17c0 .492.015.968.046 1.429.046.445.169.806.369 1.082.199.277.537.415 1.014.415Zm-.646-12.787 1.36-4.562h2.465l-2.58 4.562h-1.245Zm6.77 14.423v-13.317h2.465v1.313a7.183 7.183 0 0 1 1.474-1.06 3.658 3.658 0 0 1 1.775-.437c.537 0 .944.138 1.221.414.292.277.491.622.599 1.037.123.415.184.837.184 1.267V148h-2.465v-10.068c0-.477-.069-.845-.208-1.106-.138-.262-.422-.392-.852-.392-.277 0-.568.084-.876.253a4.951 4.951 0 0 0-.852.576V148h-2.465Zm18.477.184c-1.121 0-1.958-.407-2.511-1.221-.553-.829-.83-2.227-.83-4.193v-2.581c0-1.013.085-1.95.254-2.81.169-.876.483-1.575.944-2.097.476-.522 1.168-.783 2.074-.783.445 0 .852.099 1.221.299.369.2.699.446.991.737v-6.197h2.465V148h-2.465v-.852c-.292.307-.615.56-.968.76a2.42 2.42 0 0 1-1.175.276Zm.622-1.935c.23 0 .476-.038.737-.115.261-.092.523-.223.784-.392v-8.732a3.533 3.533 0 0 0-.715-.392 1.973 1.973 0 0 0-.852-.184c-.568 0-.952.276-1.152.829-.2.538-.3 1.191-.3 1.959v3.755c0 .615.031 1.175.093 1.682.076.492.222.883.437 1.175.215.277.538.415.968.415Zm10.17 1.935c-1.045 0-1.851-.199-2.42-.599-.568-.414-.967-1.013-1.198-1.797-.215-.799-.322-1.774-.322-2.926v-3.041c0-1.183.115-2.166.345-2.949.231-.784.63-1.375 1.198-1.774.584-.4 1.383-.599 2.397-.599 1.121 0 1.943.23 2.465.691.537.461.891 1.129 1.06 2.004.169.86.253 1.897.253 3.111v1.083h-5.253v2.672c0 .538.046.976.138 1.313.108.338.269.592.484.761.23.153.522.23.876.23.368 0 .645-.084.829-.253.2-.185.33-.438.392-.761.077-.338.115-.729.115-1.175v-.806h2.396v.507c0 1.336-.284 2.388-.852 3.156-.569.768-1.536 1.152-2.903 1.152Zm-1.475-8.133h2.834v-1.198c0-.553-.031-1.014-.092-1.382-.062-.384-.192-.668-.392-.853-.184-.199-.484-.299-.898-.299-.4 0-.707.092-.922.276-.2.185-.338.499-.415.945-.077.43-.115 1.029-.115 1.797v.714ZM97.246 174v-18.662h7.234v1.935h-4.631v6.175h3.755v1.843h-3.755v6.843h4.677V174h-7.28Zm11.744.184c-1.09 0-1.966-.338-2.626-1.013-.661-.692-1.037-1.598-1.129-2.719l2.05-.622c.123.845.331 1.482.622 1.912.292.415.722.622 1.291.622.445 0 .783-.123 1.013-.368.231-.262.346-.607.346-1.037 0-.384-.084-.73-.253-1.037-.169-.307-.446-.622-.83-.945l-2.281-1.958a6.45 6.45 0 0 1-1.175-1.336c-.307-.492-.461-1.129-.461-1.913 0-.706.139-1.298.415-1.774a2.78 2.78 0 0 1 1.198-1.106c.522-.261 1.129-.391 1.82-.391 1.06 0 1.867.345 2.419 1.036.569.676.891 1.498.968 2.466l-1.659.622a5.716 5.716 0 0 0-.276-1.198c-.123-.354-.292-.622-.507-.807-.215-.199-.499-.299-.853-.299-.399 0-.721.138-.967.414a1.378 1.378 0 0 0-.346.945c0 .23.046.461.138.691.108.215.285.43.53.645l2.35 2.166c.323.292.622.607.899.945.292.338.53.722.714 1.152.185.43.277.929.277 1.497 0 .753-.154 1.383-.461 1.89a2.935 2.935 0 0 1-1.29 1.152c-.553.245-1.198.368-1.936.368Zm9.079 0c-.692 0-1.252-.13-1.682-.391a2.339 2.339 0 0 1-.922-1.106c-.184-.476-.276-1.037-.276-1.682v-8.686h-1.406v-1.636h1.406v-3.894h2.465v3.894h2.143v1.636h-2.143v8.525c0 .522.084.898.253 1.128.169.216.492.323.968.323.123 0 .261-.008.415-.023.169-.015.33-.031.484-.046v1.82a9.504 9.504 0 0 1-.853.092 7.253 7.253 0 0 1-.852.046Zm5.935 0c-.522 0-.983-.146-1.382-.437a3.29 3.29 0 0 1-.945-1.152 3.408 3.408 0 0 1-.346-1.498c0-.829.139-1.528.415-2.097a4.138 4.138 0 0 1 1.129-1.428 7.945 7.945 0 0 1 1.682-1.037 41.601 41.601 0 0 1 2.028-.852v-.945c0-.538-.031-.983-.093-1.336-.061-.354-.192-.615-.391-.784-.185-.184-.469-.276-.853-.276-.338 0-.614.077-.829.23-.2.154-.346.376-.438.668a3.156 3.156 0 0 0-.138.991v.668l-2.442-.092c.03-1.475.368-2.557 1.013-3.249.645-.706 1.644-1.059 2.996-1.059 1.32 0 2.257.361 2.81 1.082.553.722.83 1.767.83 3.134v6.082c0 .415.008.815.023 1.199.031.384.061.744.092 1.082.046.323.085.63.115.922h-2.258a46.084 46.084 0 0 0-.184-.922 17.653 17.653 0 0 1-.138-1.036c-.154.522-.453 1.013-.899 1.474-.43.446-1.029.668-1.797.668Zm.968-2.119c.246 0 .476-.069.691-.208.215-.138.407-.292.576-.461.169-.184.284-.33.346-.437v-3.779c-.384.215-.745.43-1.083.645a6.07 6.07 0 0 0-.899.691c-.246.231-.445.5-.599.807-.138.292-.207.63-.207 1.014 0 .537.1.96.299 1.267.2.307.492.461.876.461Zm9.533 2.119c-1.121 0-1.958-.407-2.511-1.221-.553-.829-.83-2.227-.83-4.193v-2.581c0-1.013.085-1.95.254-2.81.169-.876.484-1.575.945-2.097.476-.522 1.167-.783 2.073-.783.446 0 .853.099 1.221.299.369.2.699.446.991.737v-6.197h2.465V174h-2.465v-.852c-.292.307-.614.56-.968.76a2.417 2.417 0 0 1-1.175.276Zm.622-1.935c.231 0 .477-.038.738-.115.261-.092.522-.223.783-.392v-8.732a3.551 3.551 0 0 0-.714-.392 1.977 1.977 0 0 0-.853-.184c-.568 0-.952.276-1.152.829-.199.538-.299 1.191-.299 1.959v3.755c0 .615.03 1.175.092 1.682.077.492.223.883.438 1.175.215.277.537.415.967.415Zm6.645 1.751v-13.317h2.465V174h-2.465Zm.599-14.423 1.359-4.562h2.465l-2.58 4.562h-1.244Zm7.479 14.607c-1.09 0-1.966-.338-2.626-1.013-.661-.692-1.037-1.598-1.129-2.719l2.05-.622c.123.845.331 1.482.622 1.912.292.415.722.622 1.291.622.445 0 .783-.123 1.013-.368.231-.262.346-.607.346-1.037 0-.384-.084-.73-.253-1.037-.169-.307-.446-.622-.83-.945l-2.281-1.958a6.45 6.45 0 0 1-1.175-1.336c-.307-.492-.461-1.129-.461-1.913 0-.706.139-1.298.415-1.774a2.78 2.78 0 0 1 1.198-1.106c.522-.261 1.129-.391 1.82-.391 1.06 0 1.867.345 2.419 1.036.569.676.891 1.498.968 2.466l-1.659.622a5.716 5.716 0 0 0-.276-1.198c-.123-.354-.292-.622-.507-.807-.215-.199-.499-.299-.853-.299-.399 0-.721.138-.967.414a1.378 1.378 0 0 0-.346.945c0 .23.046.461.138.691.108.215.285.43.53.645l2.35 2.166c.323.292.622.607.899.945.292.338.53.722.714 1.152.185.43.277.929.277 1.497 0 .753-.154 1.383-.461 1.89a2.935 2.935 0 0 1-1.29 1.152c-.553.245-1.198.368-1.936.368Zm9.079 0c-.692 0-1.252-.13-1.682-.391a2.339 2.339 0 0 1-.922-1.106c-.184-.476-.276-1.037-.276-1.682v-8.686h-1.406v-1.636h1.406v-3.894h2.465v3.894h2.143v1.636h-2.143v8.525c0 .522.084.898.253 1.128.169.216.492.323.968.323.123 0 .261-.008.415-.023.169-.015.33-.031.484-.046v1.82a9.504 9.504 0 0 1-.853.092 7.253 7.253 0 0 1-.852.046Zm3.7-.184v-13.317h2.465V174h-2.465Zm0-15.299v-2.58h2.465v2.58h-2.465Zm8.744 15.483c-1.09 0-1.92-.215-2.488-.645-.553-.445-.929-1.067-1.129-1.866-.184-.799-.277-1.728-.277-2.788v-3.064c0-1.121.1-2.074.3-2.857.2-.799.576-1.406 1.129-1.82.568-.43 1.39-.645 2.465-.645.968 0 1.713.161 2.235.483.538.308.906.776 1.106 1.406.2.614.3 1.382.3 2.304v.783h-2.235v-.806c0-.584-.039-1.045-.116-1.383-.076-.338-.215-.583-.414-.737-.2-.153-.484-.23-.853-.23-.399 0-.706.092-.921.276-.215.185-.361.499-.438.945-.062.43-.092 1.021-.092 1.774v4.193c0 1.137.107 1.897.322 2.281.215.384.599.576 1.152.576.415 0 .715-.092.899-.276.2-.2.322-.476.368-.83.062-.353.093-.752.093-1.198v-1.083h2.235v.922c0 .891-.108 1.659-.323 2.304-.2.645-.568 1.137-1.106 1.474-.522.338-1.259.507-2.212.507Zm8.229 0c-.523 0-.983-.146-1.383-.437a3.299 3.299 0 0 1-.944-1.152 3.394 3.394 0 0 1-.346-1.498c0-.829.138-1.528.415-2.097a4.115 4.115 0 0 1 1.129-1.428 7.92 7.92 0 0 1 1.682-1.037c.645-.292 1.32-.576 2.027-.852v-.945c0-.538-.031-.983-.092-1.336-.062-.354-.192-.615-.392-.784-.184-.184-.468-.276-.852-.276-.338 0-.615.077-.83.23-.199.154-.345.376-.437.668a3.126 3.126 0 0 0-.139.991v.668l-2.442-.092c.031-1.475.369-2.557 1.014-3.249.645-.706 1.643-1.059 2.995-1.059 1.321 0 2.258.361 2.811 1.082.553.722.829 1.767.829 3.134v6.082c0 .415.008.815.023 1.199.031.384.062.744.093 1.082.046.323.084.63.115.922h-2.258a47.086 47.086 0 0 0-.185-.922 18.547 18.547 0 0 1-.138-1.036c-.153.522-.453 1.013-.898 1.474-.43.446-1.029.668-1.797.668Zm.967-2.119c.246 0 .476-.069.691-.208.215-.138.407-.292.576-.461.169-.184.285-.33.346-.437v-3.779c-.384.215-.745.43-1.083.645a6.059 6.059 0 0 0-.898.691c-.246.231-.446.5-.599.807-.139.292-.208.63-.208 1.014 0 .537.1.96.3 1.267.199.307.491.461.875.461ZM192.488 174v-18.662h7.234v1.935h-4.631v6.175h3.756v1.843h-3.756v6.843h4.677V174h-7.28Zm9.405 0v-18.662h2.466V174h-2.466Zm8.721.184c-1.044 0-1.851-.199-2.419-.599-.568-.414-.968-1.013-1.198-1.797-.215-.799-.323-1.774-.323-2.926v-3.041c0-1.183.116-2.166.346-2.949.23-.784.63-1.375 1.198-1.774.584-.4 1.383-.599 2.396-.599 1.122 0 1.943.23 2.466.691.537.461.89 1.129 1.059 2.004.169.86.254 1.897.254 3.111v1.083h-5.253v2.672c0 .538.046.976.138 1.313.108.338.269.592.484.761.23.153.522.23.875.23.369 0 .645-.084.83-.253.199-.185.33-.438.391-.761.077-.338.116-.729.116-1.175v-.806h2.396v.507c0 1.336-.284 2.388-.853 3.156-.568.768-1.536 1.152-2.903 1.152Zm-1.474-8.133h2.834v-1.198c0-.553-.031-1.014-.092-1.382-.062-.384-.192-.668-.392-.853-.184-.199-.484-.299-.899-.299-.399 0-.706.092-.921.276-.2.185-.338.499-.415.945-.077.43-.115 1.029-.115 1.797v.714Zm11.126 8.133c-1.091 0-1.92-.215-2.489-.645-.553-.445-.929-1.067-1.129-1.866-.184-.799-.276-1.728-.276-2.788v-3.064c0-1.121.1-2.074.299-2.857.2-.799.576-1.406 1.129-1.82.569-.43 1.391-.645 2.466-.645.967 0 1.712.161 2.235.483.537.308.906.776 1.106 1.406.199.614.299 1.382.299 2.304v.783h-2.235v-.806c0-.584-.038-1.045-.115-1.383-.077-.338-.215-.583-.415-.737-.199-.153-.484-.23-.852-.23-.4 0-.707.092-.922.276-.215.185-.361.499-.438.945-.061.43-.092 1.021-.092 1.774v4.193c0 1.137.108 1.897.323 2.281.215.384.599.576 1.152.576.415 0 .714-.092.898-.276.2-.2.323-.476.369-.83.061-.353.092-.752.092-1.198v-1.083h2.235v.922c0 .891-.107 1.659-.323 2.304-.199.645-.568 1.137-1.105 1.474-.523.338-1.26.507-2.212.507Zm9.38 0c-.691 0-1.252-.13-1.682-.391a2.331 2.331 0 0 1-.921-1.106c-.185-.476-.277-1.037-.277-1.682v-8.686h-1.405v-1.636h1.405v-3.894h2.465v3.894h2.143v1.636h-2.143v8.525c0 .522.085.898.254 1.128.169.216.491.323.967.323.123 0 .262-.008.415-.023.169-.015.33-.031.484-.046v1.82a9.445 9.445 0 0 1-.852.092 7.283 7.283 0 0 1-.853.046Zm7.203 0c-.983 0-1.759-.199-2.327-.599-.569-.399-.976-.967-1.221-1.705-.231-.737-.346-1.605-.346-2.603v-3.871c0-.998.115-1.866.346-2.603.245-.738.652-1.306 1.221-1.705.568-.4 1.344-.599 2.327-.599.983 0 1.751.199 2.304.599.568.399.967.967 1.198 1.705.246.737.368 1.605.368 2.603v3.871c0 .998-.122 1.866-.368 2.603-.231.738-.63 1.306-1.198 1.705-.553.4-1.321.599-2.304.599Zm0-1.82c.476 0 .806-.138.99-.415.2-.276.315-.637.346-1.082.046-.461.069-.937.069-1.429v-4.17c0-.507-.023-.983-.069-1.429-.031-.445-.146-.806-.346-1.083-.184-.291-.514-.437-.99-.437s-.814.146-1.014.437c-.2.277-.323.638-.369 1.083-.03.446-.046.922-.046 1.429v4.17c0 .492.016.968.046 1.429.046.445.169.806.369 1.082.2.277.538.415 1.014.415Zm6.193 1.636v-13.317h2.465v1.889c.492-.814.983-1.359 1.475-1.636.491-.276.983-.414 1.474-.414h.162c.061 0 .138.007.23.023v2.718a3.268 3.268 0 0 0-.645-.184 2.774 2.774 0 0 0-.714-.092c-.384 0-.738.092-1.06.276-.307.169-.614.507-.922 1.014V174h-2.465Zm9.73.184c-.523 0-.983-.146-1.383-.437a3.299 3.299 0 0 1-.944-1.152 3.394 3.394 0 0 1-.346-1.498c0-.829.138-1.528.415-2.097a4.115 4.115 0 0 1 1.129-1.428 7.92 7.92 0 0 1 1.682-1.037c.645-.292 1.32-.576 2.027-.852v-.945c0-.538-.031-.983-.092-1.336-.062-.354-.192-.615-.392-.784-.184-.184-.468-.276-.852-.276-.338 0-.615.077-.83.23-.199.154-.345.376-.437.668a3.126 3.126 0 0 0-.139.991v.668l-2.442-.092c.031-1.475.369-2.557 1.014-3.249.645-.706 1.643-1.059 2.995-1.059 1.321 0 2.258.361 2.811 1.082.553.722.829 1.767.829 3.134v6.082c0 .415.008.815.023 1.199.031.384.062.744.093 1.082.046.323.084.63.115.922h-2.258a47.086 47.086 0 0 0-.185-.922 18.547 18.547 0 0 1-.138-1.036c-.153.522-.453 1.013-.898 1.474-.43.446-1.029.668-1.797.668Zm.967-2.119c.246 0 .476-.069.691-.208.215-.138.407-.292.576-.461.169-.184.285-.33.346-.437v-3.779c-.384.215-.745.43-1.083.645a6.059 6.059 0 0 0-.898.691c-.246.231-.446.5-.599.807-.139.292-.208.63-.208 1.014 0 .537.1.96.3 1.267.199.307.491.461.875.461Zm6.677 1.935v-18.662h2.465V174h-2.465Z"/><defs><filter id="a" width="368" height="117" x="0" y="0" color-interpolation-filters="sRGB" filterUnits="userSpaceOnUse"><feFlood flood-opacity="0" result="BackgroundImageFix"/><feColorMatrix in="SourceAlpha" result="hardAlpha" values="0 0 0 0 0 0 0 0 0 0 0 0 0 0 0 0 0 0 127 0"/><feOffset dx="4" dy="4"/><feGaussianBlur stdDeviation="2"/><feComposite in2="hardAlpha" operator="out"/><feColorMatrix values="0 0 0 0 1 0 0 0 0 1 0 0 0 0 1 0 0 0 0.05 0"/><feBlend in2="BackgroundImageFix" result="effect1_dropShadow_111_27"/><feBlend in="SourceGraphic" in2="effect1_dropShadow_111_27" result="shape"/></filter></defs></svg>