<svg xmlns="http://www.w3.org/2000/svg" fill="none" viewBox="0 0 178 193"><circle cx="89.1871" cy="62.6882" r="61.1866" fill="#B99A30"/><path fill="#B99A30" d="M89 125c-34.4628 0-62.5011-28.0383-62.5011-62.4966S54.5372 0 89 0c34.463 0 62.501 28.0383 62.501 62.5034S123.463 125 89 125ZM89 2.706c-32.9713 0-59.7951 26.8261-59.7951 59.7974S56.0287 122.294 89 122.294c32.971 0 59.795-26.8238 59.795-59.7906S121.971 2.7037 89 2.7037v.0023Z"/><path fill="#B99A30" d="M89.0569 107.586c-24.8261 0-45.0211-20.1973-45.0211-45.0189 0-24.8215 20.195-45.0234 45.0211-45.0234 24.8261 0 45.0211 20.1973 45.0211 45.0234 0 24.8261-20.197 45.0189-45.0211 45.0189Z"/><path fill="#17469E" stroke="#000" d="M46.6152 62.5671c0-23.4013 19.0405-42.4417 42.4418-42.4417 23.401 0 42.439 19.0449 42.439 42.4417 0 23.3967-19.038 42.4369-42.439 42.4369-23.4014 0-42.4418-19.0357-42.4418-42.4369Z"/><path fill="#000" d="M80.8435 119.182c.1862.231.3973.429.6357.594l-.4745.716c-.1249-.073-.2429-.166-.3564-.273-.0273-.023-.1975-.222-.5153-.599-.3247.102-.6743.118-1.0534.047-.6447-.118-1.1214-.456-1.4279-1.01-.3087-.556-.3791-1.289-.2088-2.204.1702-.917.4994-1.58.9897-1.986.4904-.407 1.0602-.552 1.7095-.432.6424.118 1.1169.457 1.4256 1.011.3087.556.3791 1.291.2088 2.204-.084.445-.1975.817-.345 1.121a2.8714 2.8714 0 0 1-.5857.811h-.0023Zm-.6106-.754c.2928-.279.4948-.729.6106-1.344.1181-.64.0908-1.135-.084-1.485-.1748-.349-.4426-.558-.8036-.624-.3632-.066-.6878.032-.9762.298-.2883.263-.4926.715-.6106 1.353-.1203.647-.0931 1.146.0817 1.5.1748.354.4336.561.7787.624a.902.902 0 0 0 .3836-.009c-.1612-.184-.3269-.331-.4949-.445l.3678-.581c.2747.18.5244.416.7469.713ZM83.6085 114.675l.9126.069-.2247 2.992c-.0364.465-.0477.767-.0341.91.0227.247.1044.443.2452.588.143.143.3382.227.5879.245.2112.016.3882-.018.529-.102.1407-.086.2406-.209.3042-.372.0613-.164.1135-.52.1544-1.072l.2315-3.058.9126.068-.2202 2.904c-.0545.742-.1362 1.273-.2384 1.598-.1044.325-.3019.579-.5947.763-.2929.184-.6675.259-1.1215.225-.4722-.035-.8354-.148-1.0874-.336-.252-.189-.4268-.443-.5221-.759-.0976-.317-.1135-.887-.0499-1.716l.2224-2.949-.0068.002ZM88.8344 120.501l-.0091-5.544.9149-.016.0091 5.544-.9149.013v.003ZM92.6527 120.389l-.3247-4.592-1.3461.093-.0659-.935 3.6004-.25.0659.935-1.3417.093.3247 4.593-.9126.063ZM95.9172 117.379c-.1112-.651-.1067-1.203.0136-1.657.1203-.454.3178-.81.5948-1.069.2747-.259.6333-.427 1.076-.502.6402-.109 1.2055.048 1.6913.468.488.422.8081 1.085.9621 1.988.157.915.064 1.664-.2743 2.252-.2974.518-.7673.831-1.4097.94-.6493.109-1.1987-.027-1.6504-.413-.5153-.443-.849-1.11-1.0011-2.009l-.0023.002Zm.9262-.195c.1067.629.3065 1.081.5993 1.353.2929.272.6152.381.9694.32.3564-.061.6242-.266.8036-.617.1793-.352.2156-.852.1044-1.496-.109-.634-.3019-1.083-.5811-1.347-.2793-.263-.6039-.365-.9717-.302-.3677.062-.6424.266-.8217.611-.1794.345-.2134.838-.1045 1.478h.0023Z"/><path fill="#B99A30" d="m88.9637 20.7627.3269 1.0125h1.0647l-.8604.6243.3292 1.0102-.8604-.6243-.8603.6243.3269-1.0102-.8582-.6243h1.0625l.3291-1.0125ZM93.8423 21.7207l.3291 1.0102h1.0625l-.8604.6243.3291 1.0125-.8603-.6266-.8604.6266.3292-1.0125-.8604-.6243h1.0624l.3292-1.0102ZM83.9399 21.7207l.3292 1.0102h1.0624l-.8581.6243.3269 1.0125-.8604-.6266-.8581.6266.3269-1.0125-.8604-.6243h1.0647l.3269-1.0102ZM97.7151 24.3677l.3291 1.0102h1.0625l-.8582.6243.3269 1.0124-.8603-.6242-.8581.6242.3269-1.0124-.8604-.6243h1.0647l.3269-1.0102ZM80.4009 24.3677l.3291 1.0102h1.0625l-.8582.6243.3269 1.0124-.8603-.6242-.8604.6242.3292-1.0124-.8604-.6243h1.0647l.3269-1.0102ZM99.7241 28.0975l.3289 1.0102h1.063l-.861.6266.329 1.0102-.8599-.6243-.8604.6243.3292-1.0102-.8604-.6266h1.0624l.3292-1.0102ZM78.0104 28.4811l.3291 1.0102h1.0625l-.8604.6243.3291 1.0124-.8603-.6242-.8604.6242.3292-1.0124-.8604-.6243h1.0624l.3292-1.0102ZM77.8537 32.472l.3292 1.0103h1.0624l-.8603.6265.3291 1.0102-.8604-.6243-.8581.6243.3269-1.0102-.8603-.6265h1.0646l.3269-1.0103ZM79.0093 36.3948l.3291 1.0102h1.0625l-.8604.6243.3291 1.0124-.8603-.6242-.8604.6242.3292-1.0124-.8604-.6243h1.0647l.3269-1.0102ZM82.8844 39.0417l.3292 1.0103h1.0624l-.8604.6265.3292 1.0102-.8604-.6243-.8604.6243.3292-1.0102-.8604-.6265h1.0624l.3292-1.0103ZM86.9502 40.8102l.3269 1.0125h1.0647l-.8604.6242.3292 1.0102-.8604-.6242-.8604.6242.3292-1.0102-.8604-.6242h1.0624l.3292-1.0125ZM91.7469 40.5718l.3292 1.0102h1.0624l-.8604.6265.3292 1.0102-.8604-.6242-.8603.6242.3291-1.0102-.8604-.6265h1.0625l.3291-1.0102ZM95.8603 38.5627l.3269 1.0103h1.0647l-.8604.6265.3292 1.0102-.8604-.6243-.8603.6243.3291-1.0102-.8603-.6265h1.0624l.3291-1.0103ZM98.8728 35.6934l.3292 1.0102h1.062l-.86.6265.3292 1.0102-.8604-.6243-.8604.6243.3292-1.0102-.8604-.6265h1.0624l.3292-1.0102ZM100.264 31.9635l.33 1.0102h1.062l-.86.6243.329 1.0125-.861-.6266-.86.6266.3292-1.0125-.8604-.6243h1.0624l.3288-1.0102Z"/><path fill="#000" d="M36.0903 72.8916c-.2883.0658-.4836.1226-.5925.1725-.1067.05-.1884.1203-.2407.2089-.0522.0885-.0839.2429-.093.4653l-.3791.0863-.5721-2.513.3791-.0863c.0704.1294.1362.227.1975.2974a.4468.4468 0 0 0 .2247.1407c.0886.025.193.0273.3179.0114.1226-.0159.2769-.0454.4608-.0863l3.5913-.8172c.4745-.109.8808-.1612 1.2191-.1566.3382.0045.6334.0612.8876.1702.2543.1112.4767.2702.6652.4767.1884.2066.345.4541.4699.7378.1248.2838.2293.6107.3133.9807.1225.5403.1702 1.0102.143 1.4098-.0273.3995-.1294.7423-.3042 1.0283-.1748.2861-.4132.5222-.7128.7083-.2997.1862-.7061.3383-1.2214.454l-3.7184.8468c-.1794.0409-.3292.0795-.4518.118-.1203.0386-.2157.084-.2815.1431a.496.496 0 0 0-.1453.2247c-.0295.0931-.0454.2157-.0522.37l-.3791.0863-.6833-2.9988.3791-.0863c.0772.1476.1498.252.2134.3156.0658.0635.1362.1066.2134.1293.0772.0227.1748.0273.2883.0182.1158-.0091.2792-.0386.4949-.0885l3.7934-.8627c.3019-.0681.5743-.1498.8149-.2451.2407-.0954.4382-.2134.5925-.3542.1544-.1407.2611-.3133.3156-.513.0545-.1998.0499-.4427-.0136-.7242-.0886-.3882-.2316-.6606-.4336-.815-.1998-.1543-.4495-.2383-.7492-.2542-.2996-.0137-.7287.0431-1.2871.1702l-3.6663.8354.0023-.0045ZM33.5092 63.1709l.3882-.0295c.0635.1521.1157.2588.1543.32.0409.0613.0908.1135.1544.1521.0613.0409.1544.0681.2747.0818.1226.0136.3042.0113.5516-.0068l6.5448-.5131.1158 1.4847-4.3655 2.9852c-.5902.4018-1.0556.7015-1.3961.8967l.0045.0522c.84-.1044 1.7276-.193 2.6629-.2679l1.891-.1475c.2929-.0227.4994-.0545.613-.0931.1157-.0386.2043-.0976.2678-.1793.0636-.0818.1135-.2293.1521-.4427l.3882-.0295.1725 2.2065-.3881.0295c-.05-.1407-.1022-.2519-.1567-.3314-.0545-.0795-.1226-.1385-.2066-.1725-.084-.0341-.1861-.0522-.3087-.0545-.1226 0-.2747.0045-.4608.0182l-5.0829.3972c-.2928.0227-.4948.0522-.6061.0863-.1112.034-.1997.0931-.2678.1793-.0682.0863-.1226.2338-.1612.445l-.3882.0295-.1839-2.3655 3.4529-2.3496a45.112 45.112 0 0 1 .883-.5743 25.6256 25.6256 0 0 1 1.0557-.6357l-.0069-.093c-.933.1158-1.9545.2179-3.0624.3042l-1.0919.0862c-.2542.0205-.4381.0432-.5494.0727-.1112.0272-.1952.0658-.2519.1112a.5205.5205 0 0 0-.134.1748c-.034.0704-.0681.1884-.1021.3519l-.3882.0295-.1726-2.2066.0046-.0022ZM40.2242 60.029c.1385.0045.2656.0023.3837 0 .118-.0046.2156-.0182.2906-.0386a.5054.5054 0 0 0 .1906-.0976c.0523-.0431.0977-.1044.1385-.1816.0386-.0772.0749-.1726.1045-.2838l.3881.0114-.0817 3.0737-.3882-.0113c-.0363-.1453-.0749-.2611-.118-.3451-.0432-.0863-.1044-.1498-.1839-.193-.0795-.0431-.1816-.0726-.3042-.0862a5.4755 5.4755 0 0 0-.4676-.0295l-5.0851-.1362c-.1884-.0046-.3428-.0046-.4654 0-.1226.0068-.2247.0295-.3065.0681-.0817.0386-.1475.0998-.1975.1816-.0499.0817-.0953.1975-.1384.345l-.3882-.0113.0817-3.0738.3882.0114c.0386.1612.0817.2815.1294.3587.0476.0771.1044.1362.1748.177.0703.0409.1612.0704.2747.0886.1135.0181.2815.0317.4994.0363l5.0783.1362h.0022ZM36.2128 53.5978c-.1566-.0795-.3042-.1453-.4449-.1952-.1407-.0523-.2906-.0863-.4495-.109-.1907-.025-.3428.0068-.4563.0931-.1135.0862-.1929.2292-.2338.4336l-.3859-.05.3201-2.5039.3859.0499c.0045.1498.0363.2815.0953.3927.0591.1113.1499.218.2747.3179.1226.0998.3315.227.6198.3768l6.2133 3.269-.1725 1.3416-6.7923 1.0783c-.3042.0477-.5198.0931-.6492.1362-.1294.0432-.2384.1045-.3269.1885-.0885.084-.1589.2065-.2157.3677l-.3859-.0499.4109-3.2145.3859.0499c-.0022.2043.0341.361.1113.4699.0771.109.1975.1726.3609.193.1294.0159.2565.0204.3814.0136.1248-.0068.3269-.0318.6061-.0704l4.345-.6129-3.9954-1.9705-.0023.0046ZM36.188 45.1755l1.8138.4745-.2043.7764c-.3927.0295-.6651.0726-.815.1248-.1498.0545-.2769.1317-.3836.2316-.1044.1021-.1975.2974-.2724.588l-.3247 1.2349 2.7355.7174.1953-.7469c.0431-.1657.0545-.3019.0317-.4086-.0227-.1067-.0817-.2066-.1747-.2974-.0931-.0908-.2498-.1953-.4654-.3133l.168-.6402 2.3155.6062-.168.6401c-.2338-.0045-.4177.0091-.5494.0432-.1339.034-.2361.0885-.3087.1634-.0726.0749-.1317.202-.1793.3791l-.1953.7492 3.0443.7968.3223-1.2304c.0341-.1317.0545-.2452.0613-.3406.0068-.0953 0-.1838-.025-.2678-.0227-.0818-.0612-.1657-.118-.252a1.5602 1.5602 0 0 0-.1884-.2361c-.0704-.0727-.1657-.1566-.2883-.2474-.1226-.0931-.2929-.2044-.5153-.336l.2043-.7764 2.0522.6538-1.4597 5.5709-.3769-.0976c0-.1499-.0136-.2702-.0363-.3633a.4513.4513 0 0 0-.1339-.2292c-.0681-.0591-.1589-.1113-.277-.1544-.1158-.0431-.2656-.0885-.4495-.1362l-4.9148-1.2872c-.1793-.0477-.3292-.0817-.454-.1044-.1249-.0227-.2293-.0227-.3156-.0045-.0862.0204-.1634.0635-.2338.1339-.0681.0681-.1407.1702-.2157.3042l-.3768-.0976 1.4733-5.6209h.0023ZM45.1209 44.3152l-1.1668 2.8468-.361-.1476c.0182-.1475.0227-.2701.0136-.3655a.428.428 0 0 0-.1044-.2451c-.059-.0681-.143-.1317-.2542-.1885a5.297 5.297 0 0 0-.4268-.1929l-4.7015-1.9274c-.1702-.0703-.3155-.1248-.4358-.1634-.1203-.0386-.2248-.0545-.3133-.0454a.478.478 0 0 0-.2474.0999c-.0772.059-.1612.1498-.2543.2724l-.3609-.1476 1.2962-3.16c.1748-.4268.3541-.7764.5357-1.0488.1817-.2747.3814-.4971.5971-.6697.1793-.1453.3723-.252.5811-.3201.2066-.0658.4291-.093.6629-.0794.2338.0136.4881.0772.7605.1884.3564.1453.6357.3337.84.563.2043.2293.3473.4835.429.765.0817.2815.1249.6289.1294 1.0443l.0545.0227c.227-.2202.4722-.3769.7378-.4722s.5766-.1521.933-.1703l.8808-.0386c.3928-.0158.7038-.0658.9308-.1475.227-.0817.4018-.2179.5221-.4109l.361.1476-.8559 2.0862c-.3768.0908-.9058.1498-1.5891.1771l-1.1055.0408c-.3292.0137-.5698.0409-.7219.084-.1544.0432-.2724.1022-.3542.1816-.084.0772-.1657.2157-.2474.4155l-.1294.3133 1.7548.7196c.2724.1112.4699.1771.588.1975.1203.0204.227.0068.3223-.0386.0954-.0454.2089-.1544.3383-.3292l.3609.1476v-.0046Zm-7.0351-2.1997 3.0329 1.244.2202-.5357c.118-.2883.1771-.5426.1771-.7628 0-.2202-.05-.4132-.1431-.5812-.0953-.1679-.227-.311-.3995-.429-.1725-.1181-.37-.2247-.597-.3178-.4949-.2021-.9126-.2384-1.2554-.109-.3428.1294-.6062.4223-.7923.8786-.1271.311-.2066.5153-.2406.6174l-.0023-.0045Z"/><path fill="#000" d="M45.1958 39.3095c.4563.143.8399.1726 1.1509.0863.3133-.0863.5766-.3224.7923-.7083.1135-.1998.1793-.3995.202-.5993.0205-.1975-.0158-.3882-.1157-.5721-.0976-.1816-.2611-.3382-.4904-.4676-.2134-.1203-.4177-.1839-.6175-.193-.1997-.0091-.4177.0341-.656.1294-.2384.0954-.5222.252-.8536.4745-.2838.1907-.5562.3518-.8218.4858-.2633.1339-.5244.227-.7832.2815-.2588.0545-.513.0658-.765.034-.252-.0318-.5062-.1203-.765-.2633-.4223-.2361-.7219-.5403-.899-.9149-.1771-.3723-.2338-.7991-.1635-1.2781.0681-.479.2475-.9761.5381-1.496a9.0894 9.0894 0 0 1 .5357-.8422c.1884-.2565.4223-.5403.7015-.849l1.4915.8377-.3928.6992c-.3064-.0863-.5675-.1249-.7832-.1135-.2156.0113-.404.0703-.563.177-.1589.1067-.3042.2747-.4313.504-.1089.1952-.1725.3882-.1884.5789-.0182.1907.0159.37.1022.5335.0862.1657.2247.2996.4154.4086.1998.1112.3927.1702.5811.1748.1885.0045.4041-.0432.6425-.1453.2406-.1022.5448-.2747.9171-.5199.454-.2951.8536-.5039 1.2009-.6265.3451-.1226.6742-.1703.9875-.1453.3133.025.6334.1294.9626.3155.4222.2361.7332.5381.933.9081.202.3677.2815.7855.2383 1.2486-.0431.4653-.1997.9398-.4722 1.4279a11.7505 11.7505 0 0 1-.6696 1.0533c-.2498.3541-.5063.6765-.7673.9625l-1.5823-.8876.3927-.6992h-.0045ZM49.2911 33.5889a6.747 6.747 0 0 0 .3224.2066c.1022.059.1907.1021.2656.1248.0749.0227.1453.0295.2134.0227.0681-.0091.1385-.034.2134-.0772.0749-.0431.1544-.1044.2429-.1816l.3224.2202-1.7322 2.5403-.3223-.2202c.0477-.1408.0772-.2588.0885-.3542.0091-.0953-.0068-.1816-.0499-.261-.0432-.0795-.1135-.1589-.2089-.2384-.0953-.0794-.2202-.1725-.3768-.2792l-4.202-2.8649c-.1567-.1067-.2861-.1907-.3927-.2497-.1067-.0613-.2044-.0976-.2929-.109-.0885-.0113-.1771.0046-.2633.0477-.0863.0431-.1885.1135-.3042.2156l-.3201-.2202 1.7321-2.5402.3224.2202c-.0545.1566-.084.2792-.084.37 0 .0908.0136.1725.0499.2452.0363.0726.0976.1475.1816.2247.0863.0772.2179.1771.4018.3019l4.1975 2.8627-.0046-.0068ZM46.7076 26.2086c.4246-.4949.8173-.8762 1.1805-1.1419.3632-.2656.7378-.4563 1.126-.572.3882-.1158.765-.1521 1.1328-.1135.3678.0386.7378.1521 1.1078.3359.3723.1839.7514.4427 1.1351.7719.4654.3995.8377.8104 1.1146 1.2349.277.4246.454.8581.5312 1.3008.0704.395.0613.7968-.0272 1.2077-.0886.4109-.2565.8264-.5063 1.2441-.2156.3609-.5289.7786-.9375 1.2576l-1.7299 2.0204-.2951-.252c.0636-.1362.1067-.2497.1272-.3428.0204-.093.0136-.1816-.0205-.2656-.034-.084-.0953-.1702-.1816-.2588-.0863-.0885-.202-.1952-.345-.3178l-3.8593-3.3053c-.1407-.1203-.261-.2179-.3632-.2928-.1021-.0749-.1952-.1226-.2815-.1408-.0862-.0204-.1748-.0136-.2679.0182-.093.0318-.202.0908-.3269.1793l-.2951-.252 1.9818-2.3132v-.0023Zm5.1759 5.2281c.0545-.0454.1748-.1771.361-.3927.2792-.3269.4676-.6425.5607-.9467.0704-.227.0931-.4517.0658-.6765-.0408-.37-.1838-.7423-.4267-1.1214-.2656-.4132-.6584-.8422-1.1737-1.2826-.5675-.4858-1.1033-.8127-1.6072-.983-.504-.1702-.9626-.1929-1.3757-.0704-.4132.1226-.7832.3746-1.1101.7583-.1567.1838-.2679.3178-.3292.404l5.0351 4.3133v-.0023ZM56.8007 23.8614l-1.8728 1.6594.227.5471c.0635.1544.1316.2974.202.4314.0727.1339.1612.261.2724.3859.2566.2883.5449.3087.8672.059l.2588.2906-1.8728 1.6594-.2588-.2905c.0976-.1067.1589-.2293.1838-.3678.025-.1362.0205-.2906-.0113-.4631-.0318-.1703-.1022-.395-.2111-.672l-2.5176-6.5198 1.1714-1.0374 5.8251 3.6572c.2588.1634.4518.2724.5789.3269.1249.0544.2497.0771.37.0726.1204-.0045.2566-.0499.4041-.1339l.2588.2905-2.4199 2.1453-.2588-.2906c.1362-.1521.2111-.2951.2247-.4268.0136-.1316-.034-.261-.1453-.3836-.0817-.0908-.1816-.1839-.2996-.277-.1203-.093-.2793-.2043-.4768-.3337l-.5017-.3269.0023-.0022Zm-2.1634.9965 1.5777-1.3984-2.9035-1.8615 1.3258 3.2599Z"/><path fill="#000" d="M58.5056 15.6095c.5471-.3565 1.0306-.613 1.4528-.7651.4223-.1544.8354-.2315 1.2395-.2338.4041 0 .7787.0681 1.1192.2088.3405.1408.6651.3519.9693.6334s.5971.6356.874 1.0579c.336.513.5767 1.0125.7242 1.4983.1476.4858.1952.9512.1453 1.3961-.0431.3995-.1635.7832-.3632 1.1532-.1998.3701-.4767.7197-.8354 1.0534-.3088.286-.7242.6016-1.2509.9443l-2.227 1.4552-.2134-.3246c.0999-.1113.1726-.2089.218-.2929.0454-.084.0635-.1702.0545-.261-.0091-.0909-.0432-.1907-.1022-.2997-.059-.109-.1385-.2429-.2406-.4018l-2.7787-4.252c-.1021-.1543-.1907-.2815-.2678-.3813-.0772-.0999-.1544-.1726-.2316-.2157a.4577.4577 0 0 0-.2611-.0568c-.0976.0046-.2179.0318-.3654.0795l-.2134-.3246 2.5493-1.6663.0046-.0045Zm3.505 6.4675c.0659-.0295.218-.1203.4563-.2769.3587-.2361.6289-.4858.8037-.7514.1316-.1975.2156-.4086.2542-.6311.0636-.3655.0318-.7651-.0976-1.1964-.1408-.4722-.3973-.992-.7673-1.5618-.4086-.6243-.8309-1.0897-1.2667-1.3939-.4359-.3042-.8695-.454-1.3008-.4517-.4314.0022-.8559.1407-1.2781.4154-.2021.1317-.3451.2315-.4291.2951l3.6277 5.5505-.0023.0022ZM72.3057 9.033l.6129 1.5958-.7446.286c-.2474-.3813-.5017-.6333-.7673-.7559-.2656-.1226-.5516-.1271-.8558-.0091-.5766.2202-.9058.6652-.9875 1.3348-.0817.6697.0863 1.5505.5062 2.6425.3905 1.017.8195 1.7344 1.2917 2.1521.47.4199.9671.5289 1.487.3291.2656-.1021.4653-.2293.5993-.3836.1339-.1544.2156-.3405.2474-.5585.0318-.2179.0205-.5039-.0318-.8581l.7492-.2883.6402 1.6663c-.3655.2497-.7038.4608-1.0193.6311-.3156.1725-.6516.3246-1.008.4631-.7582.2906-1.4301.3904-2.0158.2996-.5857-.0908-1.0988-.37-1.5392-.8399-.4404-.4677-.824-1.1283-1.1509-1.9796-.3065-.7968-.4382-1.5391-.395-2.2315.0431-.6924.2633-1.2962.6606-1.8161.3995-.5199.9602-.9171 1.6867-1.1963.3677-.1408.7105-.2498 1.0238-.3247s.6515-.1271 1.0125-.1612l-.0023.0023ZM78.8413 7.1669l.4495 1.8183-.7786.193c-.2157-.3314-.3814-.5494-.4995-.656-.118-.1068-.2474-.1817-.3881-.2248-.1408-.0454-.3565-.0295-.647.0409l-1.2395.3064.6787 2.7469.7515-.1862c.1657-.0408.2928-.0976.3745-.168.084-.0703.143-.1702.1771-.2951.0363-.1271.0522-.3133.0522-.5584l.6425-.1589.5743 2.3223-.6424.1589c-.109-.2088-.2089-.3632-.302-.4631-.093-.0999-.1907-.1634-.2928-.193-.1022-.0272-.2407-.0181-.42.025l-.7514.1862.7559 3.0556 1.235-.3042c.1317-.0318.2429-.0681.3292-.109.0862-.0386.1611-.0885.2224-.1498.0613-.0591.1158-.134.1658-.2225a1.5188 1.5188 0 0 0 .118-.2792c.0295-.0976.0568-.2202.0795-.3723.0227-.1521.0385-.3564.0476-.613l.7787-.1929.4086 2.1157-5.589 1.3825-.0931-.3768c.1316-.0726.2315-.1408.3019-.2043a.4387.4387 0 0 0 .1362-.227c.0204-.0886.0204-.193.0023-.3156-.0182-.1226-.05-.2769-.0954-.4585l-1.219-4.9308c-.0454-.1793-.0863-.3291-.1271-.4494-.0386-.1204-.0886-.2134-.1476-.2793-.059-.0658-.1339-.1135-.227-.1407-.0931-.0273-.2157-.0432-.3701-.0454l-.093-.3769 5.6412-1.396v-.0046ZM87.0139 6.177l.0408.386c-.1498.0681-.2542.1226-.3155.1635a.5192.5192 0 0 0-.1476.1589c-.0386.0635-.0636.1566-.0726.277-.0114.1225-.0023.3064.0227.5515l.6969 6.5289-1.4801.1567-3.1078-4.2792c-.42-.5789-.731-1.0375-.9353-1.3712l-.0522.0046c.1294.8354.2429 1.7207.3428 2.6537l.202 1.8865c.0318.2929.0681.4972.109.6107.0408.1135.1044.202.1861.2611.084.0612.2316.1066.4472.1384l.0409.386-2.202.2338-.0409-.3859c.1385-.0545.2474-.109.3269-.1658.0795-.0567.1339-.1248.1657-.2111.0318-.084.0477-.1884.0477-.311 0-.1226-.0114-.2747-.0318-.4586l-.5403-5.0692c-.0318-.2928-.0658-.4948-.1021-.6015a.5341.5341 0 0 0-.1862-.2611c-.0885-.0658-.2361-.1158-.4495-.1476l-.0408-.3859 2.3586-.252 2.4472 3.3848c.1521.2134.3519.5017.5993.8672a23.79 23.79 0 0 1 .6652 1.0374l.0931-.0091c-.1431-.9284-.2724-1.9477-.3905-3.0533l-.1158-1.0896c-.0272-.2543-.0567-.4359-.0885-.5471-.0318-.1113-.0704-.193-.1181-.2475a.4992.4992 0 0 0-.1793-.1294c-.0726-.0318-.1907-.0635-.3541-.093l-.0409-.386 2.202-.2338-.0022.0023ZM89.4814 14.261l.0136-.3882c.1657-.0227.2951-.0545.3927-.0954.0977-.0408.1703-.1021.2203-.1838.0499-.0818.0817-.1839.0998-.3111.0159-.1271.0273-.286.0341-.4744l.2088-5.8728-.4744-.016c-.2338-.009-.4154.0137-.5403.0636-.1271.05-.2384.134-.3337.2475-.0954.1135-.1794.2701-.2543.4654a7.5975 7.5975 0 0 0-.1839.5561l-.8013-.0272.0726-2.068 6.8921.245-.0726 2.0682-.8014-.0295c-.0658-.2702-.1157-.4677-.1543-.5948-.0386-.1271-.0817-.2361-.1317-.327-.0499-.0907-.1021-.1656-.1589-.227a.7747.7747 0 0 0-.1816-.1475c-.0658-.0386-.1476-.068-.2452-.0885-.0999-.0204-.2293-.034-.3882-.0409l-.4222-.0159-.2089 5.8729c-.0068.2088-.0068.3654 0 .4744.0068.109.0273.1975.0545.2633.0295.0681.0658.1226.109.1658.0431.0431.1044.0817.1839.118.0794.0363.1861.0658.3223.0908l-.0136.3882-3.2327-.1135-.0045.0023ZM97.4336 14.9669l-3.0283-.5403.0681-.3836c.1498-.0136.2679-.0341.3587-.0658a.444.444 0 0 0 .2179-.1521c.0545-.0727.0976-.168.1317-.2883.034-.1204.0658-.2725.0998-.4586l.8899-5.0011c.0318-.1816.0545-.336.0681-.4608.0114-.1249.0046-.2316-.0204-.3156-.0272-.084-.0772-.1589-.1498-.2225-.0749-.0635-.1816-.127-.3201-.1906l.0681-.3837 3.362.5993c.4541.0817.8327.1816 1.1397.302.306.1203.565.2678.781.4404.181.143.325.311.436.4994.109.1884.181.3995.218.631.036.2316.027.4927-.023.7833-.068.3791-.191.6924-.372.9398-.182.2474-.4.4404-.656.5812-.257.1407-.588.2565-.9924.3473l-.0114.059c.2633.1748.4678.3814.6178.622.15.2407.27.5312.365.8763l.223.8536c.097.3813.211.6742.34.8785.127.2043.298.3451.511.4222l-.068.3837-2.2203-.395c-.168-.3496-.3383-.8536-.5108-1.5165l-.2724-1.0715c-.0818-.3178-.1612-.5471-.2339-.6878-.0749-.1408-.1589-.2429-.2519-.3087-.0931-.0636-.2452-.1158-.4586-.1544l-.3337-.059-.3337 1.8683c-.0522.2906-.0749.4949-.0681.6175.0068.1203.0408.2224.1067.3064.0635.084.1952.1703.3927.2611l-.0681.3836h-.0023Zm.6652-7.3416-.5744 3.2259.5721.1022c.3065.0544.5698.059.7832.0113.2157-.0477.395-.1362.538-.2633.143-.1272.2565-.2883.336-.4813.0794-.193.1407-.4109.1839-.6493.0934-.5266.0408-.942-.1589-1.2485-.1998-.3065-.5403-.504-1.0261-.5903-.3315-.059-.5494-.093-.6538-.1044v-.0023Z"/><path fill="#000" d="m105.885 14.5788-2.374-.7877-.359.4699a4.6299 4.6299 0 0 0-.272.3904c-.08.1294-.146.2725-.198.4291-.12.3655.007.6243.384.7786l-.123.3701-2.374-.7878.122-.37c.141.0295.28.0227.409-.025.132-.0476.263-.1271.395-.2406.132-.1135.291-.286.474-.5198l4.379-5.4483 1.485.4926-.241 6.8739c-.011.3065-.009.5289.01.6652.015.1362.056.2542.122.3564.066.1021.173.1975.32.2837l-.122.3701-3.07-1.0171.123-.37c.2.0409.361.0341.481-.0204.121-.0545.209-.1612.259-.3178.039-.1158.068-.2475.089-.3996.02-.1498.038-.3428.05-.5789l.031-.597Zm-1.945-1.3712 2.002.6629.154-3.4438-2.156 2.7809Z"/><path fill="#000" d="m113.808 11.8932-.17.3496c-.143-.025-.264-.0363-.357-.0318a.4915.4915 0 0 0-.252.084c-.075.0522-.145.1294-.211.2361-.066.1044-.14.2429-.222.4132l-2.552 5.2871 1.024.4949c.204.0976.384.1453.536.1407.154-.0045.308-.0522.461-.1407.154-.0886.315-.2248.483-.4087.168-.1816.318-.3586.447-.5266l.722.3496-1.151 2.0885-5.028-2.4268.17-.3496c.148.0273.268.0386.366.0318.095-.0068.179-.0363.252-.0908.072-.0545.14-.1362.204-.2406.064-.1067.138-.2452.22-.4155l2.207-4.5697c.079-.1658.143-.3088.188-.4268.046-.1181.068-.2202.066-.3088-.002-.0885-.032-.1725-.086-.2542-.055-.0817-.141-.1703-.257-.2702l.17-.3496 2.77 1.3372v-.0023ZM121.231 16.2746c.532.3791.943.7378 1.24 1.076.295.3383.518.6947.665 1.0715.148.3769.218.7492.211 1.1192-.007.37-.088.7469-.24 1.1328-.153.3859-.377.7855-.672 1.1986-.357.4972-.736.9035-1.135 1.2168-.4.3133-.818.5267-1.249.6425-.388.1044-.79.1294-1.205.0772-.416-.0523-.845-.1839-1.283-.3973-.377-.1839-.822-.4586-1.333-.8241l-2.161-1.5505.227-.3155c.141.0522.257.084.352.0976.095.0113.182-.0023.263-.0431.08-.0409.162-.109.243-.2021.082-.0931.177-.2179.286-.37l2.961-4.1294c.106-.1498.193-.2792.258-.3859.066-.109.105-.2066.116-.2928a.469.469 0 0 0-.041-.2656c-.041-.0886-.109-.193-.206-.311l.227-.3156 2.476 1.7752v-.0045Zm-4.762 5.6072c.05.05.19.1589.422.3246.35.2498.679.4109.99.479.234.05.458.0545.679.0091.365-.0726.724-.2474 1.08-.5221.388-.3019.781-.7287 1.178-1.2804.436-.6061.715-1.1691.84-1.6844.125-.5176.109-.9761-.047-1.3757-.157-.3995-.441-.7469-.852-1.042-.197-.1407-.34-.2383-.431-.2951l-3.864 5.3893.005-.0023ZM129.776 23.5413l-1.289 1.3598-.581-.5517c.163-.3586.258-.6174.283-.7741.025-.1566.019-.3064-.018-.4495-.036-.143-.166-.3155-.383-.5221l-.927-.8785-1.947 2.0522.56.5334c.125.1181.239.193.345.2248.105.0318.221.0272.345-.0091.125-.0386.293-.1248.5-.2588l.481.4563-1.648 1.7367-.481-.4563c.118-.2021.193-.3701.227-.504.034-.1317.036-.2497.004-.3496-.031-.0999-.113-.2134-.247-.3405l-.561-.5335-2.166 2.2837.922.874c.1.0931.189.168.27.218.08.0522.161.0885.245.1067.084.0204.175.0272.277.0181.1-.0068.2-.0227.298-.0499.097-.0273.215-.0704.356-.134.141-.0612.32-.1589.543-.2905l.581.5516-1.562 1.4847-4.177-3.9637.268-.2815c.132.0704.243.1181.336.1431.093.0249.181.0227.265-.0069.087-.0295.175-.0862.268-.1679.093-.0818.207-.1907.336-.3269l3.499-3.6845c.127-.1339.229-.2497.311-.3473.079-.0976.131-.1884.156-.2747.025-.0862.023-.1748-.004-.2678-.028-.0931-.082-.2044-.161-.336l.267-.2815 4.216 3.9999-.007-.0022ZM132.437 26.665l-.3.2474c-.12-.084-.225-.1407-.311-.1771-.086-.0363-.175-.0431-.263-.0272-.089.0159-.186.0567-.291.1271-.104.0681-.229.1635-.374.2838l-4.518 3.748.726.874c.146.1748.289.2905.43.3518.14.0591.301.0818.479.0636.177-.0182.379-.0749.608-.1703.229-.0953.438-.1952.624-.2951l.513.6175-1.913 1.4211-3.567-4.2951.3-.2474c.122.0862.229.1453.318.1816.09.034.179.0408.267.0227.089-.0204.184-.0659.287-.134.102-.0703.227-.1657.372-.286l3.904-3.2417c.143-.1181.259-.2202.35-.3088.091-.0885.152-.1725.186-.2542s.043-.1703.027-.2656c-.015-.0954-.056-.2134-.12-.3519l.3-.2474 1.963 2.3654.003-.0022ZM138.741 36.0202l-1.61.9602-.41-.6901c.254-.3019.415-.5244.483-.6697.066-.1453.102-.2906.105-.4359 0-.1475-.075-.3495-.23-.6083l-.654-1.0965-2.429 1.4483.395.6652c.089.1475.177.2497.271.3087.093.059.204.0863.333.084.132-.0023.314-.0409.55-.1135l.338.5675-2.055 1.2259-.338-.5675c.168-.1635.286-.3042.354-.4223.068-.118.102-.2293.098-.336-.002-.1044-.052-.236-.145-.395l-.395-.6651-2.704 1.6118.651 1.0919c.071.1181.137.2111.2.2838.064.0704.132.1271.207.1702a.9271.9271 0 0 0 .261.0931c.1.0204.2.0318.3.0318.102 0 .227-.0091.379-.0318s.351-.0658.599-.1316l.411.6901-1.905 1.0056-2.949-4.9466.334-.1997c.107.1044.202.1793.284.2292.081.05.168.0704.259.0636.09-.0068.19-.0363.304-.0885.113-.0522.249-.1272.411-.2248l4.363-2.6015c.159-.0954.288-.1794.393-.252.102-.0727.177-.1476.224-.2225.048-.0749.071-.1612.068-.2588 0-.0976-.022-.2202-.065-.3678l.333-.1997 2.976 4.992.005.0023ZM141.354 42.2199l-1.562.6947-.325-.7288c.368-.2656.606-.5334.715-.8059.109-.2701.098-.5561-.036-.8558-.25-.563-.713-.8695-1.385-.9171-.672-.0477-1.543.1657-2.613.6424-.994.4427-1.689.9081-2.084 1.4007-.395.4903-.479.992-.252 1.5028.116.2611.255.454.416.5789.161.1249.352.1975.57.2179.22.0205.504-.0045.856-.0749l.326.7333-1.632.7241c-.268-.3518-.495-.6787-.683-.9852-.189-.3065-.359-.6334-.515-.983-.33-.7423-.466-1.4074-.405-1.9977.062-.5879.314-1.1169.759-1.58.445-.4654 1.083-.8831 1.916-1.2531.778-.3473 1.514-.5153 2.209-.5108.692.0068 1.309.1953 1.847.5676.538.3723.967.9125 1.283 1.6231.161.3609.286.6947.377 1.0057.091.311.161.6447.213 1.0011h.005ZM141.949 48.5036c.283-.0817.476-.1521.581-.2088.104-.0568.179-.1317.227-.2225.047-.0908.068-.2474.066-.4699l.372-.109.722 2.4745-.373.1089c-.077-.1248-.149-.2179-.215-.286a.456.456 0 0 0-.234-.1271c-.089-.0182-.195-.0159-.318.0068-.122.0227-.274.0613-.454.1135l-3.537 1.0329c-.467.1362-.869.2134-1.207.2293-.336.0159-.636-.0227-.897-.1158a1.9184 1.9184 0 0 1-.692-.4359c-.2-.1952-.373-.4313-.514-.7083-.14-.2769-.265-.5947-.372-.9602-.156-.5335-.231-.9989-.227-1.3984.005-.3996.084-.7469.241-1.0443.156-.2951.379-.5471.667-.7514.289-.2043.686-.3791 1.192-.5267l3.659-1.0692c.178-.0522.325-.0999.443-.1453.118-.0454.209-.0976.273-.1589.063-.0613.106-.1385.131-.2338.023-.0954.034-.2179.03-.3723l.372-.109.863 2.9512-.373.109c-.086-.1408-.163-.243-.231-.302s-.143-.0976-.22-.1157c-.08-.0182-.175-.0182-.289 0-.113.0158-.277.0567-.488.118l-3.734 1.0897c-.298.0862-.563.1838-.799.2951-.234.1089-.425.2383-.57.3904-.145.1521-.241.3269-.284.5312-.043.2044-.022.445.057.7219.111.3814.272.6448.481.7878.209.143.463.2111.763.2066.3-.0046.724-.0863 1.276-.2475l3.609-1.0533.003.0045ZM139.127 55.2822l-.384-2.4722-.583-.1044c-.164-.0295-.32-.0522-.472-.0636a2.1063 2.1063 0 0 0-.473.0204c-.381.0591-.553.2906-.517.697l-.384.059-.383-2.4722.383-.059c.037.1408.107.2588.209.3519.102.0953.234.1748.395.2406s.388.1271.679.1862l6.844 1.412.239 1.5459-6.227 2.9194c-.28.1294-.475.2338-.588.311-.114.0772-.2.168-.261.2724-.062.1045-.098.2429-.107.4132l-.384.059-.495-3.1963.384-.059c.055.1975.134.3359.238.4199.105.0818.239.1113.402.0863.121-.0182.252-.0522.395-.1022.143-.0499.323-.1225.538-.2202l.547-.2451h.005Zm.334-2.3564.322 2.084 3.135-1.4348-3.457-.6492Z"/><path fill="#000" d="M145.14 61.1095c.012.6516-.031 1.1987-.127 1.6368-.095.4381-.249.8309-.465 1.1737-.216.3428-.472.622-.774.8354-.302.2134-.652.3745-1.054.4835-.401.1067-.855.1657-1.362.1748-.613.0091-1.164-.0522-1.652-.1861-.491-.134-.911-.3428-1.26-.6221-.313-.2497-.574-.5561-.781-.9216-.207-.3655-.354-.7878-.445-1.2668-.077-.4131-.12-.933-.132-1.5618l-.043-2.6583.388-.0068c.041.143.087.2565.132.3405.045.084.111.1453.191.1839.081.0386.184.0635.308.0749.125.0091.28.0136.47.0091l5.081-.0818c.184-.0022.34-.0113.465-.0227.125-.0113.227-.0386.304-.0817.078-.0431.141-.1067.189-.1907.048-.084.091-.202.127-.3496l.388-.0068.05 3.0465.002-.0023Zm-7.341-.4858c-.012.0704-.014.2475-.009.5335.007.4291.075.79.206 1.0806.098.2179.232.3995.398.5494.274.2497.628.4358 1.064.5562.475.1339 1.051.1952 1.73.1838.747-.0113 1.365-.1226 1.855-.3291.49-.2066.849-.4926 1.076-.8581.227-.3655.338-.7991.329-1.3031-.004-.2429-.011-.4154-.02-.5221l-6.629.1067v.0022ZM136.55 69.0074c.161-1.1374.616-1.9433 1.367-2.42.749-.4767 1.791-.6197 3.126-.4313.876.1226 1.603.3678 2.186.731.581.3655.997.8376 1.242 1.4211.245.5834.318 1.2463.213 1.9886-.163 1.1555-.62 1.9773-1.369 2.4631-.749.4858-1.782.6356-3.096.4495-.736-.1044-1.355-.2793-1.857-.5267-.504-.2474-.901-.5516-1.194-.9171-.293-.3655-.488-.7809-.586-1.2463-.098-.4654-.107-.9716-.029-1.5165l-.003.0046Zm4.388-.983c-1.175-.1657-2.07-.1498-2.683.0499-.613.1998-.96.588-1.042 1.1624-.041.2973.002.5629.134.7945.132.2316.334.4313.606.6038.273.1703.602.3111.99.4246.388.1112.822.202 1.296.2678.774.109 1.433.1408 1.973.0931.54-.0477.96-.1771 1.262-.3836.302-.2089.479-.504.534-.8854.079-.5607-.132-1.0147-.631-1.3643-.5-.3496-1.313-.6016-2.439-.7628ZM135.234 75.6702l.869-2.9489.372.109c-.002.1498.005.2724.025.3655.021.093.062.1702.127.2338.066.0613.157.1158.273.1634.116.0454.263.0954.445.1499l4.871 1.437c.178.0522.327.0908.452.118.123.0273.229.0295.316.0136.086-.0181.165-.059.236-.1248.07-.0659.145-.1657.227-.2974l.372.1112-.967 3.2758c-.129.4427-.272.8082-.424 1.0988-.155.2905-.33.5334-.525.7287-.163.1634-.345.2883-.545.3768-.199.0863-.417.1362-.651.1453-.234.0091-.493-.0272-.777-.109-.37-.1089-.667-.2678-.892-.4744-.224-.2066-.395-.445-.504-.7174-.111-.2701-.188-.6129-.236-1.0261l-.057-.0159c-.202.2407-.431.4245-.685.5449-.254.1225-.559.2111-.91.2656l-.874.1271c-.389.0567-.693.1362-.911.2406-.218.1044-.377.2588-.476.4609l-.373-.1113.638-2.1634c.366-.1271.885-.2406 1.562-.3383l1.096-.1543c.325-.0454.561-.0999.711-.1567.148-.059.259-.1294.334-.2156.075-.0863.143-.2316.202-.4382l.095-.3269-1.821-.538c-.283-.084-.483-.1294-.606-.1362-.12-.0068-.227.0159-.315.0727-.091.0544-.191.1748-.304.3632l-.373-.109h.003Zm7.223 1.4711-3.142-.9263-.163.5562c-.089.2997-.121.5585-.098.7787.023.2179.091.4063.202.563.111.1566.259.286.443.3882.184.0998.393.1861.624.2542.513.1521.933.1453 1.26-.0182.327-.1634.561-.4812.699-.9534.096-.3224.155-.5357.177-.6379l-.002-.0045ZM66.6099 108.564l1.3643-2.978 2.0431.935-.2315.504-1.4416-.66-.3223.706 1.244.569-.2315.504-1.2441-.569-.5789 1.266-.6015-.274v-.003ZM70.9299 106.905l.6198.231-.6198 1.664c-.0976.264-.1543.439-.1679.523-.0205.136.0045.261.0771.372.0704.113.193.202.3678.268s.3224.079.4381.041c.1158-.039.2021-.107.2588-.205.0568-.097.1317-.268.2225-.51l.6334-1.699.6197.232-.6016 1.614c-.1385.368-.252.622-.3405.763-.0908.141-.1998.245-.3292.315-.1294.071-.2815.109-.454.116-.1748.007-.3814-.036-.6243-.127-.2928-.109-.5039-.227-.6288-.35-.1271-.124-.2134-.256-.2611-.397-.0476-.141-.0635-.275-.0476-.406.0249-.191.1021-.459.2292-.802l.6107-1.639-.0023-.004ZM73.5791 111.329l.9012-3.151.6198.178.6878 2.472.6016-2.105.5903.168-.899 3.151-.6379-.181-.6833-2.418-.588 2.054-.5902-.168h-.0023ZM78.0944 109.166l1.185.241c.2679.054.4677.115.5994.186.177.093.3178.224.4245.395.1067.168.1725.363.202.583.0295.22.0114.479-.0477.781-.0544.266-.1316.486-.236.663-.1272.218-.2815.384-.4586.497-.1339.086-.3042.141-.5085.164-.1521.015-.3474 0-.588-.048l-1.2213-.248.6515-3.212-.0023-.002Zm.5381.674-.4314 2.127.4836.098c.1816.036.3133.052.3973.048.1112-.005.2065-.032.2883-.08.0817-.048.1589-.141.2315-.275.0727-.134.134-.327.1862-.574.0499-.247.0658-.443.0499-.586-.0159-.14-.0568-.258-.1203-.349-.0636-.091-.1544-.161-.2702-.214-.0862-.038-.261-.084-.5266-.138l-.2906-.059.0023.002ZM84.3236 113.484l-.715-.089-.193-.774-1.3008-.159-.3587.706-.6969-.086 1.6663-3.097.6946.087.9035 3.412Zm-1.051-1.435-.2997-1.262-.5879 1.153.8876.109ZM85.5223 110.287l1.2077.055c.2724.011.479.043.6198.091.1884.065.3496.172.4812.324.1294.15.227.332.2883.545.0613.213.0863.472.0727.779-.0114.27-.0568.499-.1317.692-.0931.234-.2179.422-.3768.563-.1203.107-.2792.186-.4768.241-.1475.038-.345.054-.5879.043l-1.244-.057.1475-3.273v-.003Zm.6357.584-.0977 2.168.4927.022c.1838.01.3178.005.4018-.013.1089-.023.1997-.064.2724-.125.0726-.061.1362-.163.1884-.309.0499-.145.0817-.343.0931-.597.0113-.254 0-.449-.0409-.586-.0386-.138-.0953-.245-.1725-.324-.0772-.08-.1771-.136-.2997-.168-.0908-.025-.2724-.043-.5403-.055l-.2973-.013ZM92.3599 113.595l-.7196.023-.3088-.736-1.3098.041-.2475.754-.7014.022 1.1713-3.316.6992-.023 1.4166 3.235ZM91.1 112.337l-.4904-1.201-.4041 1.231.8945-.027v-.003ZM95.0319 113.345l-.4495-3.246 2.4063-.334.0749.55-1.7525.243.0999.719 1.6299-.227.075.547-1.63.227.1226.883 1.8138-.252.0749.547-2.4699.343h.0046ZM98.7435 112.782l-.6924-3.203.6289-.136 1.773 1.855-.4632-2.139.6012-.129.693 3.203-.649.141-1.7439-1.81.4518 2.089-.6016.129h.0022ZM105.758 110.916l-.597.198-.742-2.248c-.15.275-.359.511-.622.706l-.18-.54c.139-.102.277-.254.411-.459.137-.202.207-.408.211-.622l.484-.159 1.031 3.126.004-.002ZM108.312 107.298l-.54.288c-.061-.111-.132-.182-.211-.214-.08-.031-.166-.029-.259.007-.123.05-.204.146-.245.291-.041.145 0 .397.116.756.077-.229.222-.388.438-.475.243-.097.49-.088.737.028.248.115.432.32.548.613.124.311.133.597.027.858-.107.261-.304.449-.59.563-.307.122-.609.104-.902-.055-.293-.159-.549-.511-.767-1.055-.222-.559-.281-1.002-.175-1.331.107-.329.327-.558.656-.692.232-.093.447-.105.652-.036.204.068.374.217.515.447v.007Zm-.813 1.802c.075.188.18.318.307.386s.247.079.361.034c.109-.043.181-.123.22-.234.039-.113.018-.265-.059-.458-.079-.198-.177-.327-.291-.389-.113-.061-.229-.068-.345-.022-.111.045-.188.127-.231.245-.043.118-.03.263.038.436v.002ZM109.858 108.401l.538-.327c.077.12.173.2.288.236.116.036.225.03.327-.018.118-.057.196-.152.232-.288.036-.137.009-.3-.084-.493-.086-.182-.191-.3-.316-.352-.125-.052-.252-.048-.383.016-.164.077-.275.218-.336.425l-.493.152-.44-1.68 1.5-.713.252.531-1.069.509.15.544c.097-.122.211-.215.343-.279.252-.12.508-.129.769-.029s.463.295.602.588c.116.243.147.495.097.753-.068.352-.274.611-.615.772-.272.13-.531.161-.772.098-.24-.064-.438-.214-.59-.445ZM114.485 106.993l-.55.305-1.146-2.073c-.098.3-.257.57-.479.81l-.275-.499c.118-.127.225-.302.32-.527.096-.224.127-.44.093-.651l.445-.248 1.594 2.881-.002.002Z"/><path fill="#B99A30" d="M109.651 77.5385s-.072 11.446-2.951 16.3721l2.951-2.4971.591 5.0647s5.098-11.0306 3.711-18.9374c0 0 .209-1.0398-1.039-1.1101h-1.873s-1.04 0-1.387 1.1101l-.003-.0023Z"/><path fill="#FDF9E2" d="m110.121 97.234-.631-5.4119-3.58 3.0306.613-1.0488c2.815-4.8218 2.922-16.1542 2.922-16.2677l.009-.0613c.311-.9944 1.174-1.2554 1.587-1.2554h1.873c.479.0272.824.1793 1.037.4563.257.3314.232.7287.213.8604 1.363 7.8796-3.682 18.9169-3.732 19.0282l-.311.6719v-.0023Zm-.306-6.2315.545 4.6833c1.076-2.5493 4.549-11.4959 3.389-18.1111l-.007-.0385.009-.0386s.059-.3292-.129-.5698c-.139-.1748-.379-.2724-.717-.2929h-1.862c-.034 0-.876.0204-1.18.9353-.007.756-.137 10.3382-2.495 15.5027l2.449-2.0726-.002.0022Z"/><path fill="#B99A30" d="M109.322 46.8282s10.527 5.3234 11.499 15.2439c0 0 1.387 13.3143-6.382 22.3335 0 0-.297.2134-.547 0l-2.897-3.3166s-.111-.0137.513-.4132c0 0 5.914-7.1441 4.25-18.1111 0 0-1.709-11.1213-12.96-12.3631 0 0-.363-.1521-.209-.3973l.114-1.387 6.622-1.5914-.003.0023Z"/><path fill="#FDF9E2" d="M114.144 84.7098c-.143 0-.277-.05-.388-.1453l-2.865-3.2781-.066-.009-.038-.1499c-.035-.1543.04-.261.583-.6084.37-.4676 5.766-7.4959 4.184-17.9226-.016-.109-1.821-10.9783-12.776-12.1883l-.059-.0159c-.048-.0204-.287-.1294-.357-.3496-.023-.0727-.034-.1794.023-.2997l.122-1.4937 6.843-1.6436.068.0341c.106.0544 10.64 5.4914 11.611 15.4096.014.1339 1.308 13.5072-6.431 22.4901l-.036.0341c-.018.0136-.193.1339-.416.1339l-.002.0023Zm-2.874-3.6186 2.776 3.1782c.037.025.207.0045.255-.0227 7.596-8.8444 6.327-22.0202 6.313-22.1519-.908-9.2803-10.424-14.5697-11.319-15.0441l-6.399 1.5368-.105 1.2872-.027.0431c0 .0227.05.0613.091.084 11.246 1.2645 13.089 12.4222 13.107 12.5357 1.66 10.9306-4.233 18.2018-4.295 18.2745l-.047.0431c-.173.1113-.282.1862-.35.2384v-.0023Z"/><path fill="#B99A30" d="M110.852 79.8631s-.34 2.3859.881.5199c0 0 1.844-2.6538 2.13-3.7253 0 0-.005-.2838-.407-.3609l-2.415.1316-.186 3.4347h-.003Z"/><path fill="#FDF9E2" d="M111.032 81.3046a.342.342 0 0 1-.266-.1248c-.247-.2861-.154-1.1033-.118-1.3462l.195-3.6027 2.627-.143.025.0045c.452.0863.574.4064.576.5608v.0295l-.006.0272c-.291 1.0942-2.084 3.6822-2.159 3.7911-.368.5607-.629.8014-.872.8014l-.002.0022Zm.206-4.6787-.177 3.2463c-.059.4177-.057.8536 0 .9966.064-.0409.218-.1726.5-.6016.02-.0295 1.784-2.5743 2.09-3.6254-.011-.0318-.054-.1022-.211-.1385l-2.202.1203v.0023ZM102.843 50.2811l-.1-.1158-.245-.0999c.039-.0953.112-.2724 6.736-3.4233l.179.3768c-2.399 1.1419-6.306 3.0375-6.567 3.2645l-.003-.0023Z"/><path fill="#B99A30" d="M68.4804 78.0016s.0726 11.446 2.9512 16.3722l-2.9512-2.4972-.5902 5.0647s-5.0987-11.0306-3.7117-18.9374c0 0-.2088-1.0397 1.0397-1.1101h1.8729s1.0397 0 1.387 1.1101l.0023-.0023Z"/><path fill="#FDF9E2" d="m68.0104 97.6973-.311-.672c-.0499-.1112-5.0964-11.1486-3.7321-19.0282-.0181-.1317-.0431-.5289.2134-.8604.2134-.2769.5585-.429 1.0261-.4563h1.8842c.4132 0 1.2758.2611 1.5869 1.2554l.009.0613c0 .1135.1067 11.4482 2.9217 16.2677l.6129 1.0488-3.58-3.0306-.6311 5.412v.0023Zm-.9194-20.5969h-1.8728c-.3269.0182-.5698.1158-.706.2906-.1884.2406-.1317.5675-.1294.5698l.0068.0363-.0068.0386c-1.1601 6.6174 2.3132 15.5617 3.3893 18.1111l.5448-4.6833 2.4495 2.0726c-2.3587-5.1668-2.4881-14.749-2.4949-15.505-.3042-.9148-1.1441-.9352-1.1805-.9352v.0045Z"/><path fill="#B99A30" d="M68.8096 47.2913S58.283 52.6147 57.3114 62.5352c0 0-1.3871 13.3143 6.3813 22.3335 0 0 .2974.2156.5471 0l2.8967-3.3167s.1112-.0136-.5131-.4131c0 0-5.9137-7.1441-4.2496-18.1089 0 0 1.7094-11.1213 12.9601-12.3631 0 0 .3632-.1521.2089-.3972l-.1135-1.3871-6.622-1.5913h.0023Z"/><path fill="#FDF9E2" d="M63.9878 85.1729c-.2224 0-.3972-.1203-.4154-.1339l-.0363-.0318c-7.7389-8.9829-6.4449-22.3562-6.4313-22.4902.9716-9.9181 11.505-15.3551 11.6117-15.4096l.0681-.034 6.8422 1.6435.1226 1.4938c.059.1226.0454.2293.0227.2996-.0704.2202-.3088.3292-.3564.3496l-.0568.0159c-10.9647 1.21-12.7604 12.0794-12.7763 12.1883-1.5845 10.4335 3.8138 17.455 4.1839 17.9204.5403.3474.6174.454.5834.6084l-.0318.143-.0704.0114-2.8467 3.2599c-.1317.1158-.2656.1657-.4109.1657h-.0023Zm-.1566-.4631c.0318.0182.0953.0454.1566.0454.0454 0 .0818-.0136.1181-.0454l2.7559-3.1577a5.9554 5.9554 0 0 0-.3496-.2384l-.0477-.0431c-.059-.0727-5.9545-7.3439-4.295-18.2746.0181-.1135 1.8592-11.2711 13.1077-12.5356.0454-.025.0908-.0613.0976-.0817l-.0386-.0976-.0999-1.2373-6.3995-1.5368c-.8944.4767-10.4108 5.7638-11.3188 15.0441-.0136.1339-1.2849 13.3097 6.3132 22.1542v.0045Z"/><path fill="#B99A30" d="M67.2795 80.3261s.3405 2.3859-.8808.5199c0 0-1.8434-2.6538-2.1294-3.7253 0 0 .0045-.2838.4063-.3609l2.4155.1316.1861 3.4347h.0023Z"/><path fill="#FDF9E2" d="M67.1001 81.7677c-.2429 0-.5062-.2407-.8762-.8082-.0727-.1044-1.8661-2.6924-2.1567-3.7866l-.0068-.0272v-.0295c.0023-.1567.1249-.4768.5766-.5608l.025-.0045h.025l2.6015.143.1975 3.6209c.0341.227.1272 1.0442-.1203 1.328-.0703.0795-.1634.1249-.2656.1249Zm-2.6174-4.6583c.3087 1.051 2.0703 3.5913 2.0885 3.6185.2838.4314.4381.5653.5017.6062.0545-.1453.059-.5789 0-.9785l-.1771-3.2644-2.202-.1203c-.1521.034-.1975.1021-.2111.1407v-.0022ZM75.2885 50.7442c-.2633-.227-4.1679-2.1226-6.5674-3.2645l.1793-.3768c6.6242 3.1509 6.6969 3.328 6.7355 3.4234l-.3859.1566.1929-.0795-.1544.1385v.0023Z"/><path fill="#B99A30" d="M68.5848 42.8237s19.2734 6.7446 40.7372-.6878v4.6946s-21.1755 6.7128-40.4761.4676l-.2611-4.4744Z"/><path fill="#FDF9E2" d="M87.0568 50.163c-6.6537 0-12.8012-.8967-18.2768-2.6697l-.1362-.0431-.286-4.9285.2951.1022c.0795.0272 8.1134 2.7922 19.3869 2.7922 7.4074 0 14.5422-1.1713 21.2122-3.4801l.277-.0953v5.1396l-.145.0454c-.1.0317-10.039 3.1373-22.3294 3.1373h.0022Zm-18.0134-3.0216c5.3983 1.7276 11.4573 2.6039 18.0134 2.6039 11.4188 0 20.7902-2.6924 22.0562-3.0738v-4.2496c-6.633 2.261-13.7203 3.4074-21.0732 3.4074-10.1361 0-17.6775-2.2224-19.2303-2.7196l.2339 4.0272v.0045Z"/><path fill="#EDC234" d="M107.152 50.8735H70.7324v18.1724h36.4196V50.8735Z"/><path fill="#004416" d="M70.7324 69.0436v18.9782s.6243 2.0681 2.6538 2.2792h13.1622s2.3155.3587 2.6152 4.2406c0 0-.0136-4.345 2.5357-4.2928h13.0577s2.288.3701 2.393-2.4381V69.0436H70.7324Z"/><path fill="#B99A30" d="M106.444 51.5818v36.2176c-.046 1.1669-.527 1.7594-1.426 1.7594-.088 0-.145-.0068-.147-.0068l-.057-.0091H91.6516c-.706 0-1.3416.2656-1.841.765-.3315.3314-.5812.7446-.7719 1.1805-.933-1.6368-2.3019-1.8729-2.3836-1.8842l-.0545-.0091H73.4225c-1.3121-.1566-1.8569-1.3553-1.9841-1.6913v-36.322h35.0036m.708-.7083H70.7324v37.1507s.6243 2.068 2.6538 2.2792h13.1622s2.3155.3586 2.6152 4.2406c0 0-.0136-4.2928 2.4903-4.2928H104.757s.1.0158.259.0158c.601 0 2.052-.2338 2.134-2.454V50.8735Z"/><path fill="#B99A30" d="M107.152 68.6918H70.7324v.7083h36.4196v-.7083Z"/><path fill="#fff" d="m80.6098 82.4965 7.2757-2.9103 14.9485.3223s1.301.6152.493 1.5619l-6.3065 4.1793H79.7766s1.8002-1.1328.8309-3.1532h.0023Z"/><path fill="#B99A30" d="M97.0704 85.804H79.2408l.4541-.2883c.0681-.0431 1.6708-1.0851.7741-2.9534l-.0727-.1498 7.4619-2.9853h.0318l14.983.3247.029.0136c.028.0136.706.3382.829.9103.064.2974-.032.5971-.284.8922l-.032.0295-6.3446 4.2065Zm-16.8557-.3132h16.7626l6.2477-4.1408c.175-.2111.243-.4154.202-.6061-.077-.3655-.513-.6197-.629-.681l-14.883-.3224-7.0964 2.8377c.6129 1.4461-.1226 2.4494-.6039 2.9126Z"/><path fill="#fff" d="M80.6642 82.6167h16.7694l5.1664-2.7083"/><path fill="#B99A30" d="M97.4722 82.7734h-16.808v-.3133h16.7331l5.1307-2.6901.145.277-5.2008 2.7264Z"/><path fill="#B99A30" d="m97.2829 82.5975-.4127 3.0321.3105.0423.4126-3.0322-.3104-.0422ZM74.7369 71.0345c1.1101.554 2.3246 2.2202 2.3246 2.2202 3.3984 4.0227 11.0306 7.2849 11.0306 7.2849 1.941.6583 2.7582.3314 2.7582.3314l1.0715.454c.0499-.0635.0931-.1521.1385-.2406-9.2576-7.7457-17.3211-10.0499-17.3211-10.0499h-.0023Z"/><path fill="#B99A30" d="m94.4235 83.5044-1.2622-.3428-1.2349-.8195-.134-.9444-.1362-.168.0046-.0045v-.0046c-.0159-.0363-.025-.0953.0113-.1702l.0886-.1771.1248.1044c.0272.0023.0658.0046.1022.0068.0953.0046.1566.0068.2043.0227l.7786.0886 1.017 1.3689.4405 1.0397h-.0046Zm-1.1124-.6175.5789.1544-.177-.4246-.9172-1.2258-.7037-.0817.1203.849 1.0965.7264.0022.0023Z"/><path fill="#fff" d="M78.5485 74.0129c.4245.0341.8491.0613 1.2736.084-.0432.0999-.1408.1748-.2316.2384.2565.0159.6039.0545.8127.1793-.0658.084-.1657.109-.2361.1862.1635.0136.3542.0068.4904.1021-.0976.0296-.2134.0818-.2747.1431.1385.0658.3155.0499.4472.1021-.0522.0295-.0953.0931-.1521.1203.1793.0137.3768 0 .5471.0432-.1135.0068-.1226.0204-.1407.1021.177.1067.4154.143.622.1612-.059.0386-.1067.0863-.1726.1135.0523.1022.2543.0931.3792.1271-.084.1113-.2747.1589-.1158.302-.1975.0794-1.1601.1589-1.2509-.0159a.1403.1403 0 0 1 .05-.0227c-.1567-.0772-.361-.0432-.5358-.0659.0068-.0022.0818-.0658.0999-.0749-.1907-.1067-.0749-.2293-.3292-.3178a.7848.7848 0 0 1 .0818-.0113c-.2111-.1476-.5085-.2202-.7469-.3247.0204-.0068.0409-.0136.0613-.0227.0363-.2088-.1907-.2747-.3995-.3223-.0046-.0091 0-.0159.0136-.0182-.0795-.0409-.168-.0726-.2429-.1135.0908-.277-.2497-.4018-.3791-.5925.1135-.0545.3132-.0477.4426-.0568M81.7471 76.4579a35.579 35.579 0 0 0 .9853-.0908c-.0205.0885-.0863.1657-.1453.2315.1975-.0181.4699-.0295.647.05-.0386.0772-.1135.1135-.1567.1861.1272-.0091.2724-.0408.3882.025-.0704.0386-.1521.0953-.1929.1566.1157.0363.2474.0046.3564.0318-.0364.0318-.0613.0908-.0999.1203.1385-.0091.2883-.0476.4245-.0318-.0863.0205-.0908.0318-.0953.1045.1498.0703.3382.0703.4994.0567-.0409.0409-.0704.0886-.1181.1181.0545.0794.2066.0454.3065.0613-.0499.1044-.1907.1702-.0499.2701-.1408.0931-.8672.2815-.9603.143a.0808.0808 0 0 1 .0363-.0249c-.1294-.0477-.2815.009-.42.0113.0046-.0023.0523-.0658.0681-.0772-.1611-.0658-.0862-.1839-.2928-.227a.2413.2413 0 0 1 .0613-.0204c-.1816-.0999-.4177-.1226-.6152-.1816.0159-.0091.0295-.0159.0454-.0273 0-.1816-.1839-.2088-.3473-.2225-.0046-.0068 0-.0136.009-.0158-.0658-.025-.1384-.0409-.1997-.0659.034-.2474-.2452-.3087-.3678-.454.0795-.0613.2338-.0817.3314-.1044M85.663 78.7643c.2543-.059.5085-.1249.7628-.1907-.0045.0749-.0454.1453-.084.2066.1544-.0386.3655-.0817.513-.0363-.0204.0681-.0749.1067-.0976.1702.0999-.0227.2089-.0658.3088-.0272-.05.0386-.1067.0953-.1294.1498.0953.0159.1952-.0272.2837-.0159-.0249.0295-.0363.0818-.0635.1113.1067-.025.2202-.0727.3291-.0772-.0658.0272-.0681.0363-.0612.0976.1248.0386.2724.0159.3995-.0136-.0272.0386-.0431.0794-.0772.1112.0522.0568.168.0136.2497.0136-.025.0908-.1271.1612-.0045.227-.0976.0908-.6447.3315-.7355.2316a.0657.0657 0 0 1 .0249-.025c-.1067-.0227-.2202.0409-.3269.059.0046-.0045.0318-.0612.0432-.0703-.134-.0363-.0931-.1408-.2588-.1499.0136-.009.0272-.0181.0454-.0249-.1567-.0591-.3451-.05-.5063-.0749.0114-.0091.0205-.0159.0318-.0273-.0227-.1475-.1702-.1498-.3019-.1407-.0045-.0046-.0023-.0091.0045-.0137-.0545-.0113-.1135-.0158-.1657-.0295-.0068-.2043-.2315-.2224-.3496-.3269.0545-.059.1725-.093.2475-.1248"/><path fill="#fff" d="M86.9116 79.35c.2543-.059.5086-.1249.7628-.1907-.0045.0749-.0454.1453-.084.2066.1544-.0386.3655-.0817.5131-.0363-.0205.0681-.075.1044-.0977.1702.0999-.0227.2089-.0635.3088-.0272-.05.0408-.1067.0953-.1294.1498.0953.0159.1952-.0272.2838-.0182-.025.0296-.0364.0818-.0636.1113.1067-.025.2202-.0727.3292-.0749-.0659.0272-.0682.0363-.0613.0953.1248.0386.2724.0159.3972-.0113-.0272.0386-.0431.0794-.0772.1112.0523.0567.168.0136.2498.0136-.025.0908-.1272.1612-.0046.227-.0976.0908-.6424.3315-.7355.2316a.0653.0653 0 0 1 .025-.025c-.1067-.0227-.2202.0409-.3269.059.0045-.0022.034-.0613.0431-.0703-.1339-.0364-.0931-.1408-.2588-.1499.0136-.009.0273-.0181.0454-.0249-.1566-.0591-.345-.05-.5062-.075.0113-.009.0204-.0158.0318-.0272-.0227-.1476-.1703-.1498-.302-.1407-.0045-.0046-.0022-.0114.0046-.0137-.0545-.0136-.1135-.0181-.1657-.0295-.0069-.2043-.2316-.2224-.3496-.3269.0544-.059.1725-.093.2474-.1248"/><path fill="#B99A30" d="m93.3248 81.4023 6.606-6.899-.2088 2.0999-3.0942 10.7786 3.9272-10.7786v-3.6617l1.716-2.6538s-.204-.5607-.61-.1475l-1.306 2.7877-6.3719 6.9511-1.387 2.5335.7287-1.0102ZM95.1249 54.5329c.1838.5017.5652.8513.5698 1.3871.0022.2338.0113.4722-.0046.706-.0295.4359-.1067.8808-.2361 1.303.1249-.034.2997-.059.395-.168-.0454.2974-.1339.5789-.1566.8877-.0114.1839.0023.3814-.0908.5312.1385.0613.3246.0113.454-.0568.025.3405-.3178.7923-.4472 1.0988-.2043.4835-.3246.9693-.4427 1.4755.1748-.1339.3814-.2247.5653-.3518.0976-.0681.2066-.1635.3178-.2248-.0386.1953-.1407.3474-.1816.5358-.0295.1339-.0636.2588-.1589.3768.1385.1294 1.3008.1113 1.5142.0205-.0091.177-.2429.3904-.2974.5766.4517.2497.622.1702.706.7332.034.2293.0113.5176.0794.7287-.1975.0318-.429-.0227-.6311-.0181-.0272.1453.134.3337.0205.4404-.0908.0862-.3973-.0046-.5085-.0046-.42 0-.3655.3723-.3723.6992-.1816 0-.386.0432-.5653.0681-.0499.0069-.286.0114-.3292.0477-.1044.0863-.1112.4563-.1566.5834-.0999.2815-.1453.4813-.4495.5085-.1521.0137-.2906.0545-.429.0704-.2361.0273-.3519-.1407-.563-.2633-.2384-.1408-.445-.252-.7333-.2475-.4427.0091-.7923.3224-1.269.2838 0-.0295-.0091-.0772-.0045-.1044-.5199-.0522-1.0783.0204-1.605.0204-.252 0-.4835.0318-.681-.109-.1567.1885-.1748.193-.4291.2293-.2611.0364-.9466.1862-1.1237-.0976-.2588.0976-1.941.5312-1.8888-.2179-.227-.0159-.32-.0091-.4336.1521-.1589.227-.0567.2815-.3382.3337-.3246.0613-.6379.0658-.9648.084-.2747.0159-.2929.0408-.4722.2361-.1793-.2611-.5403-.3247-.7855-.5153-.0908-.0704-.1634-.1635-.2542-.2316-.0976-.0726-.1907-.1021-.3292-.1612.0114-.177.1567-.2678.2497-.4109.2339-.3586-.1975-.4676-.5403-.5334-.3723-.0727-.5062-.0591-.7582-.3678-.2293-.2838-.1021-.277.0477-.4949-.1816-.0863-.5539-.0795-.6901-.2384.0431-.0567.0885-.118.1316-.1748-.1702-.1838-.5652-.1044-.7514-.2792-.1248-.1203-.0794-.0545-.1021-.2156-.0341-.2543.1294-.3928.2474-.5994.2543.2225.3496.3088.7242.3428.2633.0227.5062.0227.7673.0636.1022.0159.2202.034.3201.0182.0181-.3701.1203-.8309.3791-1.1056-.0204.1294.1498.2633.2792.2134.1794-.0681.2679-.5403.2838-.6924.0408-.4063.0545-.8672.0454-1.2713.0204.0886.0545.1726.1339.2066.2724-.2837.1975-.6129.2543-.9648.0794-.4949.3473-.7923.6084-1.1759-.0477.3473.0703.5879.1294.9194.202-.1135.4835-.4132.4767-.6674-.0023-.0999-.0454-.1272-.0726-.2134-.0523-.1839-.05-.1907.0272-.4018.202-.5539.3836-1.0579.4631-1.6368.0159-.1226.0386-.227.1158-.3087.0181.1838-.05.4086.0295.5925.1612.3677.7877.4086 1.126.5334.0068.1022.0045.2157-.0182.3133.134-.1566.2679-.4313.4586-.5085-.0432.2702-.134.5471-.2043.8105-.0386.1498-.1453.3178-.1249.4721.5108.0636.7582-.6129.7673-1.0056.0068-.2497 0-.5085 0-.756.059.1271.2656.277.3519.1249.084-.1476-.1158-.3201-.1725-.4223-.2884-.5221-.5585-1.1146-.5789-1.7321.0522.2951.3496.4563.4041.7015.0998-.1112.0612-.3178.0612-.4631.0023-.3201.0545-.6334.1794-.9171.1362-.311.2611-.5199.2315-.865-.093.2838.2407.8105.4609.9807.1453.1113.1339.1158.3223-.059.1181-.109.2134-.2384.3156-.3587.0113.6674-.1816 1.4484.0295 2.0999.2542-.1408.3042-.4972.5448-.6561-.3518 1.0239.0863 2.0091.1544 3.0488.4018-.3201.7264-.7446.8331-1.2508.0046.3314-.0113.7559-.0885 1.0806-.059.2497-.2248.5153-.2202.7832.2429-.0659.6719-.3678.7696-.6402.0658-.1816-.0227-.3859.0976-.5585.0794-.1158.2224-.1612.311-.2588.0749-.0817.1203-.1975.1793-.2883-.0136.3201-.118.6243-.0794.9467.4608-.4677.4994-.9603.5221-1.5642.059.1294.0681.2679.1226.3905.0772.1839.2474.2951.3201.4813.252-.2248.0113-1.1374-.0432-1.4234-.059-.3224-.0749-.6561-.0249-.9852.0363.1453.0681.5539.3019.5198.1067-.3904-.1612-.3995-.3496-.6583-.2701-.3723-.0795-1.1896.0409-1.5641.0204.3064.1498.5902.2519.874.1249-.1113.1113-.218.1476-.3632.0999-.3996.2883-.8672.5675-1.1737-.2746.6039.0159 1.2122-.1339 1.8388-.0613.2588-.1181.5085.0363.7401.0795.118.2475.1861.2997.3087.0431.0999-.0068.2179-.0046.3224-.0771-.0364-.1475-.0886-.1725-.1635-.0318.2293-.0613.3882.0727.563.1611.2088.5516.3065.6515.5108a.4343.4343 0 0 0-.025-.0454c-.2724-.0954-.1589.2361-.0885.3405.0862.1294.2156.1839.3223.2724.0886-.0885.0908-.2792.1408-.3905-.0046.3746 0 .7492 0 1.1238 0 .1294-.0477.3677 0 .4903.0363.0931.1634.1793.2338.2611.2951-.1453.084-.8627.0726-1.1033.1499.1929.1907.4381.3814.5925.2634-.4813-.3972-.8513-.2452-1.3008.2248.2702.2044.4745.5926.5607-.0137-.2656-.2838-.5107-.3565-.7673-.0726-.2565-.1407-.4699-.1271-.7378.0227-.454.2611-.8467.2634-1.3121 0 .2293 0 .3519.1748.4994"/><path fill="#B99A30" d="M80.6642 65.9472c-.5925 0-1.0761-.4836-1.0761-1.0761s.4836-1.0737 1.0761-1.0737 1.076.4812 1.076 1.0737-.4835 1.0761-1.076 1.0761Zm0-1.7344c-.3632 0-.6606.2951-.6606.6583 0 .3633.2951.6584.6606.6584s.6606-.2951.6606-.6584c0-.3632-.2951-.6583-.6606-.6583ZM82.7777 68.1582c-.5948 0-1.076-.4836-1.076-1.0761s.4835-1.076 1.076-1.076 1.076.4835 1.076 1.076-.4835 1.0761-1.076 1.0761Zm0-1.7367c-.3632 0-.6606.2952-.6606.6606 0 .3655.2974.6606.6606.6606.3632 0 .6606-.2951.6606-.6606 0-.3654-.2974-.6606-.6606-.6606ZM95.2497 68.1582c-.5947 0-1.076-.4836-1.076-1.0761s.4835-1.076 1.076-1.076 1.0761.4835 1.0761 1.076-.4836 1.0761-1.0761 1.0761Zm0-1.7367c-.3632 0-.6606.2952-.6606.6606 0 .3655.2974.6606.6606.6606.3633 0 .6607-.2951.6607-.6606 0-.3654-.2974-.6606-.6607-.6606ZM97.1408 65.9471c-.5267 0-.9557-.4291-.9557-.9557 0-.5267.429-.9558.9557-.9558.5266 0 .9557.4291.9557.9558 0 .5266-.4291.9557-.9557.9557Zm0-1.4938a.5416.5416 0 0 0-.5403.5403c0 .2974.2429.5381.5403.5381s.5403-.2407.5403-.5381a.5416.5416 0 0 0-.5403-.5403ZM89.3564 67.7314c-2.6583 0-4.5538-1.2917-4.6333-1.3462l-.6833-.4744.8263.0953c1.3417.1567 2.672.2361 3.9523.2361 3.3258 0 5.2644-.5357 5.2826-.5425l1.126-.3179-.9467.6856c-1.5232 1.1033-3.1781 1.6617-4.9239 1.6617v.0023Zm-3.505-1.2054c.7854.3609 2.0317.79 3.505.79 1.3008 0 2.5494-.3292 3.7299-.9807-.9126.1521-2.3587.3223-4.2702.3223-.9648 0-1.9591-.0431-2.9647-.1316Z"/><path fill="#EE3024" d="M86.5529 64.9914s.2498.7583 1.3576.2066c.0227-.0113.0476-.0249.0726-.0363 1.1691-.622-.1294-.9784-.227-1.6277 0 0-.0658-1.8501.3905-2.3042 0 0-.4541-1.6889.0976-1.8524.5516-.1612.1907.0976.2247 0 .0341-.0976 1.1078-1.7866.084-3.7343 0 0 .0795 1.3961-.4722 1.9795-.5516.5834-.0658.1612-.0658.1612s-.9739.7469-1.0715 1.462l-.5516-.2929s.681.7151.1611 1.2985c0 0 .0318.1953-.1611-.0658 0 0 .1952 1.0397-.2271.8127 0 0-.3564.4563.1294 1.1691l.2588 2.8218v.0022Z"/><path fill="#EE3024" d="M85.3202 57.332s1.2009 1.3962.5199 2.8899c0 0-.7151-.0976-.9421.8763 0 0-.2929 1.2985.8762 1.5595 0 0 .4223 1.3962.0318 1.428 0 0-.7468.7446-.9421-.1953-.1952-.9398 0-.1612 0-.1612s.1748-.5062-.3178-.6106c-.4926-.1044-.168 0-.168 0s-.3564.4472-.4222.6424l.0658-.1952s-.6493.9852-.2588-.4472c0 0 .2702-.3632-.1248-1.1419 0 0 .3518.227.4494.5834 0 0 .4858.5517-.1611-1.5255 0 0-.2929-.8445.1952-.9739 0 0-.2293.42.3519 1.6913 0 0-.3201-.9489-.0432-1.2531a1.9811 1.9811 0 0 1 .0205-.0205c.311-.2792-.0069-.5993-.0977-.6969 0 0 .5131.0976.3973.6379 0 0 .4086-.3178.2021-1.8547 0 0 .6492.8059.4948 1.1714l-.1225-2.4041h-.0046ZM88.0171 53.9631s-.2338.84 0 1.6822c0 0-.563-.563-.5017-.9784 0 0 .2815 0 .2497.3133 0 0 .109-.3179-.177-.9376 0 0 .2338.2792.2406.3768 0 0-.0204-.202.1884-.4563ZM90.1283 59.0619s-.6288.6016-.8581 1.4461c0 0-.1952-.7696.0681-1.0988 0 0 .2429.143.0545.395 0 0 .2565-.2179.3269-.8944 0 0 .059.3609.0136.4472 0 0 .0863-.1839.395-.2951ZM93.0636 56.2764c.1135.5085.4722.7832.5971 1.3008.1044.4336.1225 1.2349-.2566 1.5346.311.0772.5358-.1703.7356-.3542.1884-.1748.2588-.168.5539-.168-.4427-.1021-.2248.4427-.3587.6243-.109.1476-.3383.0477-.4654.1272-.1725.1112-.2225.404-.2043.5902.2066-.0613.4926.0091.6311-.1453-.0658.1589-.1839.2361-.2815.3655-.1725.227-.2338.5812-.2928.8536.3132-.1135.7741.0794.9784-.2452-.2338.227-.6175.6492-.6765.9648.3087-.1793.706-.0386 1.0261-.1135-.2634.2951-.6357.1248-.7401.4813-.034.118-.0204.2542-.025.3768-.009.1771.0182.3496-.0272.5221-.0363.1362-.1362.2384-.1566.3746.1861-.2565.3972-.3042.6628-.454-.0817.4018-.6606.8672-1.0147 1.0397-.0931.0454-.2089.1248-.2974.1498-.2361.0658-.5902-.0477-.7718.1044.0794.0772.168.0523.2542.1045.2293.1362.42.3927.5449.6152-.731-.0091-1.4416-.193-2.1862-.1226-.2747.025-.5335.1067-.8081.1544-.395.0658-1.0171.0158-1.353.2474.2202-.1317.4199-.2611.6174-.4268.0681-.0567.302-.2315.3156-.3246.0227-.1566-.2588-.3678-.3655-.4813-.4972-.5289-.227-1.2236-.7287-1.7389.2792.1112.5698.2089.6311.5131.059.2996-.0386.4449.3337.5198.118-.3882.1929-.765-.0727-1.1055-.2315-.2929-.4109-.42-.4154-.8286-.0726.4653.4359.2179.6447.4268.1953.1975.1453.5675.2929.7355.4041-.4518-.1203-1.412-.1862-1.941.0114.1884.3496.4223.4495.6084.1612-.1203.1203-.5721.1022-.7605-.025-.2633-.1181-.4245-.2838-.6152-.0863-.0999-.1907-.109-.2202-.2611.4018.218.8649.4177 1.0215.8899.0909-.168.134-.4971.0545-.681-.1089-.2497-.4222-.3156-.5198-.5834-.1385-.386-.0159-.8173.2293-1.101-.0296.2088-.0931.4063-.0772.6174.2542-.1498.3972-.4722.5743-.6992.1907-.2451.5562-.5448.5221-.8876-.0862.7628-.6992 2.4881.4427 2.7718.1362-.3359.0772-.7287.1816-1.0669.0886-.2815.2543-.3405.4654-.4972 0 .1839-.0204.4654-.0795.6266.2112-.1067.3928-.4155.3633-.6606-.025-.218-.2747-.3746-.3383-.5993-.1339-.47-.1385-.9558-.025-1.3825"/><path fill="#000" d="M72.3374 46.8395c-.0205.0726-.0318.1248-.0364.1566a.2284.2284 0 0 0 .0069.0817.1327.1327 0 0 0 .0408.0613c.0204.0182.0545.0409.1022.0636l-.0318.109-.8944-.2543.0317-.109c.0432 0 .0795 0 .1067-.009.0273-.0091.05-.0182.0681-.0386a.2625.2625 0 0 0 .0477-.0795 1.4767 1.4767 0 0 0 .0431-.1317l.4064-1.4324c.0136-.0522.025-.0953.0318-.1317.0068-.0363.0091-.0681.0022-.093-.0045-.025-.0181-.0477-.0385-.0681a.4463.4463 0 0 0-.0886-.0659l.0318-.1089.9648.2746c.2815.0795.4767.1885.588.3292.1112.1408.1362.3133.0772.5221-.0409.1476-.1113.2656-.2066.3564-.0954.0908-.2134.1453-.3542.1658-.1407.0204-.3042.0045-.4903-.0477a3.558 3.558 0 0 1-.2633-.0817l-.1499.5312h.0046Zm.2043-.7197.143.0409c.1112.0318.2043.0409.2769.0272.075-.0136.1363-.0499.1885-.1089.0522-.059.093-.1476.1271-.2634.0318-.1157.0431-.2111.0295-.2883-.0113-.0771-.0454-.1384-.0976-.1838-.0522-.0454-.1271-.0818-.2225-.109a2.9585 2.9585 0 0 0-.1793-.0477l-.2656.9353v-.0023ZM75.5065 48.0812c-.3314-.0681-.5607-.2156-.6878-.4426-.1272-.2271-.1499-.5358-.0727-.9217.0522-.2543.1362-.4631.2543-.6266.118-.1634.2633-.2769.4404-.3382.177-.0613.3723-.0704.5879-.0273.3383.0681.5698.218.7015.445.1294.227.1566.5335.0795.9148-.0432.2134-.1067.3905-.1885.5335-.0817.143-.1793.2543-.2905.3337a.868.868 0 0 1-.3769.1499c-.1385.0204-.2883.0136-.4472-.0182v-.0023Zm-.2134-1.303c-.0704.3405-.0794.6038-.0318.7854.0477.1839.1567.2929.3247.3269.0862.0182.1657.0091.2361-.0249.0703-.0341.1339-.0908.1884-.1657.0545-.0772.1021-.1703.1407-.2815.0409-.1113.0749-.2361.1022-.3746.0454-.2248.0658-.4154.0613-.5744-.0046-.1589-.0341-.2837-.0908-.3768-.0568-.0908-.1408-.1498-.252-.1725-.1635-.0341-.3019.0204-.4132.1612-.1112.1407-.1998.3723-.2656.6992v-.0023ZM78.2124 48.5376l.0159-.1135c.05 0 .0886-.0068.1181-.0159a.1395.1395 0 0 0 .0703-.0477c.0182-.0227.0296-.0522.0386-.0885.0091-.0363.0159-.0817.025-.1362l.2452-1.7049-.1385-.0204c-.0681-.0091-.1226-.0091-.1612 0a.2668.2668 0 0 0-.1067.0613c-.0318.0295-.0613.0726-.0885.1271a1.523 1.523 0 0 0-.0704.1567l-.2338-.0341.0863-.5993 2.0136.2883-.0863.5993-.2338-.034a5.4442 5.4442 0 0 0-.0273-.1794.5304.5304 0 0 0-.0272-.0999.3396.3396 0 0 0-.0386-.0703.2485.2485 0 0 0-.0477-.05.2236.2236 0 0 0-.0703-.034.7271.7271 0 0 0-.1136-.025l-.1225-.0182-.2452 1.7049c-.0091.0613-.0136.1067-.0136.1385 0 .0318 0 .059.0068.0794a.1618.1618 0 0 0 .0272.0522.1918.1918 0 0 0 .05.0409c.0227.0136.0522.025.0908.0363l-.0159.1135-.9444-.1362-.0023.0091ZM82.7209 46.6852l-.0499.5471-.2361-.0227c-.0273-.1135-.0522-.1884-.0749-.2293a.3098.3098 0 0 0-.0863-.0999c-.0341-.0249-.0953-.0431-.1839-.0499l-.3745-.0341-.0772.8264.227.0204c.0499.0045.0908 0 .1203-.0114a.1636.1636 0 0 0 .0772-.0658c.0227-.0318.0454-.0817.0681-.1498l.1952.0181-.0658.6992-.1952-.0181c-.0091-.0681-.0228-.1203-.0386-.1567-.0159-.0363-.0364-.0635-.0636-.0817-.025-.0181-.0658-.0295-.1203-.034l-.227-.0205-.0863.9194.3723.0341c.0409.0045.0749.0045.1022 0a.217.217 0 0 0 .0771-.0204.299.299 0 0 0 .0681-.0454.4122.4122 0 0 0 .0591-.0659c.0181-.0227.0363-.0545.059-.0953a1.6522 1.6522 0 0 0 .0726-.1657l.2361.0227-.0908.6242-1.6912-.1566.0113-.1135a.462.462 0 0 0 .1045-.0272.1462.1462 0 0 0 .0612-.05.2717.2717 0 0 0 .0318-.0862 1.2517 1.2517 0 0 0 .0182-.1363l.1385-1.4824c.0045-.0544.009-.0998.009-.1362 0-.0363-.0045-.0681-.0136-.0908a.1313.1313 0 0 0-.0499-.0613c-.0227-.0158-.0568-.0317-.0976-.0476l.0113-.1135 1.7072.1589-.0046-.0023ZM85.8219 46.8532l-.0045.1135a.8052.8052 0 0 0-.0999.034.1412.1412 0 0 0-.05.0386c-.0136.0159-.0249.0432-.034.0772-.0091.0341-.0136.0886-.0182.1612l-.0862 1.9228-.4382-.0204-.7173-1.378c-.0977-.1862-.168-.3314-.2112-.4381h-.0159c0 .2474-.0068.5085-.0181.7832l-.025.5561c-.0045.0863-.0023.1476.0046.1816.0068.0341.0204.0636.0431.084.0227.0205.0635.0409.1248.0591l-.0045.1135-.6515-.0295.0045-.1135c.0432-.0091.0772-.0205.1022-.0341.0249-.0136.0454-.0295.0567-.0545.0136-.0227.0227-.0522.0273-.0885a1.6042 1.6042 0 0 0 .0113-.134l.0659-1.4937c.0045-.0863.0022-.1453-.0023-.1793a.1572.1572 0 0 0-.0432-.084c-.0227-.0227-.0635-.0432-.1248-.0636l.0045-.1135.6992.0318.563 1.0896c.0341.0681.0795.1612.1362.277.0568.1158.1045.227.1476.3292h.0272c0-.2747.0068-.5744.0205-.9013l.0136-.3201c.0022-.0749.0022-.1294 0-.1634-.0046-.0341-.0114-.059-.0227-.0772a.131.131 0 0 0-.0477-.0454.5716.5716 0 0 0-.0999-.0431l.0046-.1135.6515.0295.0068.0068ZM87.3111 49.2254v-.1135c.0477-.0091.0863-.0182.1135-.0318.0272-.0136.0499-.0318.0636-.0568a.2137.2137 0 0 0 .0249-.093c.0046-.0386.0046-.084.0046-.1385l-.0068-1.723h-.1408c-.0681 0-.1226.009-.1589.0249a.2361.2361 0 0 0-.0953.0772c-.0273.0341-.05.0817-.0704.1385-.0182.059-.0363.1135-.0477.1657h-.2361v-.6061l2.0341-.0068v.6061h-.2339c-.0227-.0772-.0386-.1362-.0522-.1725-.0136-.0363-.0272-.0681-.0431-.0931-.0159-.025-.0318-.0477-.05-.0636-.0181-.0159-.0363-.0317-.0544-.0408a.2257.2257 0 0 0-.0727-.0227.783.783 0 0 0-.1158-.0068h-.1248l.0068 1.723c0 .0613 0 .1067.0068.1385.0045.0318.0091.0567.0182.0772a.1275.1275 0 0 0 .034.0476.2019.2019 0 0 0 .0545.0318.39.39 0 0 0 .0953.0227v.1135l-.9534.0046v-.0023ZM90.5801 48.7214c0 .0409.0046.0772.0091.1113.0046.034.0091.0613.0182.084a.2114.2114 0 0 0 .0318.0544.1518.1518 0 0 0 .0567.0364.5071.5071 0 0 0 .0863.0249l.0045.1135-.9058.0386-.0045-.1135a.5608.5608 0 0 0 .0999-.0408.1261.1261 0 0 0 .0522-.0568.255.255 0 0 0 .0204-.0908v-.1385l-.0635-1.4892c0-.0545-.0068-.0999-.0091-.1362-.0046-.0363-.0136-.0658-.0273-.0885a.1452.1452 0 0 0-.0567-.0545c-.025-.0136-.059-.025-.1044-.0341l-.0046-.1135.9058-.0385.0045.1135c-.0476.0136-.0817.0295-.1021.0454a.1343.1343 0 0 0-.0477.0544c-.0113.0205-.0181.0477-.0204.0818a1.5362 1.5362 0 0 0 0 .1475l.0635 1.487-.0068.0022ZM92.9456 49.0301c-.3382.0273-.5993-.0499-.7855-.2338-.1861-.1839-.2951-.4722-.3269-.8649-.0204-.2588 0-.4813.0681-.672.0659-.1906.1771-.3382.3292-.4472.1521-.1089.3383-.1725.5585-.1907.3428-.0272.6084.05.7968.2316.1884.1816.2974.4676.3314.8558.0182.218.0068.4064-.0295.5653-.0386.1589-.0999.2928-.1861.4018a.8578.8578 0 0 1-.3201.2474c-.1272.0568-.2725.0931-.4336.1067h-.0023Zm-.5675-1.1918c.0295.3474.0908.6016.1884.7628.0976.1634.2315.2361.4018.2225.0885-.0068.1612-.0364.2202-.0908.059-.0523.1022-.1226.1339-.2112.0318-.0885.05-.1929.0568-.311a2.837 2.837 0 0 0-.0068-.3882c-.0182-.2292-.0522-.4177-.1022-.5698-.0499-.1521-.1135-.2633-.1929-.3359-.0795-.0727-.1771-.1045-.2906-.0954-.1657.0136-.2838.1044-.3519.2702-.0681.1657-.0885.4154-.0613.7468h.0046ZM96.0489 48.676l-.899.1181-.0159-.1135a.4536.4536 0 0 0 .0954-.05.1255.1255 0 0 0 .0476-.0613.2313.2313 0 0 0 .0114-.093.8539.8539 0 0 0-.0136-.1363l-.193-1.4755a1.1502 1.1502 0 0 0-.0227-.134c-.0068-.0363-.0181-.0658-.034-.0862a.1596.1596 0 0 0-.0613-.0477.37.37 0 0 0-.1067-.025l-.0159-.1135.9988-.1294c.134-.0182.2498-.0227.3474-.0159.0976.0068.1838.025.2588.0545.0635.025.118.0568.1657.1022a.5461.5461 0 0 1 .118.1566c.0318.0613.0522.1362.0636.2202.0136.1112.0068.2111-.0204.2951-.0296.0863-.0727.1589-.134.2202-.059.0613-.143.1226-.2474.1839v.0182a.619.619 0 0 1 .2315.118c.0636.0545.1226.1249.1794.2134l.1385.2179c.0612.0976.1203.1703.1725.2157.0545.0454.1135.0704.1816.0726l.0136.1135-.6583.0863c-.0772-.0817-.1703-.2088-.277-.3791l-.1725-.2747c-.0522-.0817-.0931-.1385-.1271-.1725-.0341-.0341-.0659-.0545-.0977-.0636-.0317-.0091-.0794-.0113-.143-.0023l-.0999.0137.0727.5516c.0113.0863.0227.1453.0363.1793a.1535.1535 0 0 0 .0568.0772c.0249.0182.0703.0295.1339.0386l.0136.1135.0023-.0068Zm-.4631-2.1112.1248.9535.1703-.0227c.0908-.0114.1657-.0341.2225-.0659a.3427.3427 0 0 0 .1271-.1203c.0295-.0477.0454-.1044.0522-.1634a.974.974 0 0 0-.0068-.1975c-.0204-.1544-.0726-.2679-.1544-.336-.084-.0681-.1975-.0931-.3405-.0749-.0976.0136-.1634.0227-.1929.0295l-.0023-.0023ZM101.036 45.4388l.107.538-.232.0454c-.059-.0998-.104-.1657-.138-.1997-.034-.0318-.07-.0568-.111-.0704-.041-.0136-.105-.0136-.191.0045l-.37.0727.163.8127.225-.0454c.05-.0091.086-.025.114-.0454.025-.0204.043-.0477.056-.084.012-.0363.021-.0908.023-.1635l.191-.0386.138.6879-.19.0386c-.03-.0613-.057-.109-.082-.1385-.027-.0295-.055-.0499-.084-.059-.03-.0091-.07-.0091-.125 0l-.222.0454.179.9035.368-.0726a.5965.5965 0 0 0 .097-.0273.2613.2613 0 0 0 .068-.0409.2791.2791 0 0 0 .053-.0635c.016-.025.027-.0522.038-.0795.012-.0272.021-.0635.03-.1089.009-.0432.016-.1045.022-.1794l.232-.0454.091.6243-1.6665.3314-.0227-.1112c.0386-.0204.0704-.0386.0908-.0567a.1164.1164 0 0 0 .0431-.0659.2427.2427 0 0 0 .0046-.0931 1.739 1.739 0 0 0-.0227-.1362l-.2906-1.4597c-.0113-.0522-.0204-.0976-.0318-.1339a.2227.2227 0 0 0-.0386-.084c-.0159-.0204-.0386-.034-.0658-.0431a.4159.4159 0 0 0-.109-.0182l-.0227-.1112 1.6799-.336.002.0068ZM102.673 46.8895c.061.1271.132.2134.213.2633.082.0499.187.059.311.0295.066-.0159.123-.0409.171-.0772a.2766.2766 0 0 0 .1-.1385c.018-.0567.02-.1248.002-.1997-.016-.0704-.043-.1271-.082-.1703-.038-.0454-.091-.084-.159-.1158-.068-.0317-.159-.0613-.272-.0885a2.331 2.331 0 0 1-.27-.0794.9693.9693 0 0 1-.218-.1113.6937.6937 0 0 1-.161-.1566c-.044-.0613-.075-.1317-.096-.2157-.034-.1385-.027-.2633.018-.3746.046-.1135.128-.2088.243-.2905.118-.0818.261-.1431.432-.1839.1-.025.195-.0409.288-.0522.093-.0114.202-.0182.325-.0182l.118.4858-.23.0545c-.043-.084-.086-.1476-.131-.1907-.046-.0431-.096-.0726-.152-.0863-.055-.0136-.121-.009-.196.0091-.063.0159-.118.0409-.163.0749a.2643.2643 0 0 0-.095.1294c-.019.0523-.021.109-.005.1703.016.0658.041.118.079.1589.037.0409.091.0772.162.109.07.0318.168.0613.295.093.154.0386.279.0818.377.1317.095.05.172.1113.229.1839.057.0726.097.1612.125.2701.034.1385.029.2656-.009.3814-.039.1158-.114.218-.223.2997-.109.084-.243.1453-.404.1839a3.3838 3.3838 0 0 1-.361.0658c-.127.0159-.247.0272-.361.0272l-.125-.5176.23-.0544h-.005ZM105.567 46.751l-.031-.109c.045-.0204.079-.0408.102-.0613a.1386.1386 0 0 0 .045-.0703c.007-.0273.007-.0591 0-.0954a1.503 1.503 0 0 0-.034-.1362l-.472-1.6572-.134.0386c-.066.0182-.116.0409-.145.0658-.032.025-.055.0591-.071.0999a.4814.4814 0 0 0-.029.1521c-.002.0613-.005.1181 0 .1726l-.227.0658-.166-.5834 1.957-.5562.166.5834-.227.0636a2.5804 2.5804 0 0 0-.098-.1521.6175.6175 0 0 0-.066-.0795.3794.3794 0 0 0-.066-.0499.2398.2398 0 0 0-.063-.025.288.288 0 0 0-.077-.0023c-.03.0023-.068.0114-.114.025l-.12.0341.47 1.6571c.016.0591.032.1022.043.1317a.219.219 0 0 0 .039.0681.1257.1257 0 0 0 .045.0363c.016.0091.036.0137.061.0159.025.0023.059 0 .098-.0045l.032.109-.918.261v.0023ZM109.749 50.962c-.073.1657-.098.311-.077.4313.02.1226.1.2316.238.3292.073.0499.146.084.22.0999a.3695.3695 0 0 0 .221-.0205c.072-.0295.138-.0862.195-.1657.052-.0749.086-.1498.098-.227.011-.0749.004-.1589-.023-.2542-.027-.0931-.075-.2066-.148-.3428a3.0546 3.0546 0 0 1-.152-.3292 1.2096 1.2096 0 0 1-.077-.3087.8794.8794 0 0 1 .016-.2906c.023-.0931.066-.1862.129-.2792.107-.1499.234-.2498.382-.302.147-.0522.311-.0567.49-.0113s.361.1339.545.2633c.109.0772.209.1567.297.2361.091.0817.189.1816.295.2997l-.374.5289-.25-.1771c.045-.1135.068-.2088.073-.2928a.4243.4243 0 0 0-.046-.2202c-.034-.0636-.093-.1249-.174-.1839-.069-.0499-.141-.0817-.212-.0953-.072-.0137-.14-.0091-.206.0181-.066.025-.123.0727-.17.1408-.05.0703-.08.1407-.089.2134-.009.0703 0 .1543.03.2497.029.0953.084.2179.161.3677.095.1839.159.3428.19.479.032.1362.039.2611.016.3791-.022.1181-.072.2339-.156.3519-.107.1498-.232.2543-.379.3156-.148.0613-.309.0749-.482.0386-.175-.0341-.349-.1135-.522-.2361a4.7055 4.7055 0 0 1-.372-.2952 3.854 3.854 0 0 1-.336-.3291l.397-.563.25.1771.002.0045ZM112.979 54.7054l.109-.0998c.062.0454.114.0681.153.0726.04.0045.079-.0114.118-.0477a.497.497 0 0 0 .079-.0953c.027-.0386.054-.084.086-.1362l.05-.0908-.565-.613c-.077.0318-.139.0591-.182.0818-.043.0249-.081.0499-.113.0794-.048.0432-.073.0931-.08.1476-.004.0545.012.1089.048.1612l-.109.0998-.592-.6424.109-.1022c.056.0318.111.0477.163.05.054 0 .12-.0091.198-.0318.079-.0227.181-.0545.306-.0976l1.777-.622.361.3904-.958 1.7412c-.027.0454-.047.0863-.065.1226-.019.0341-.032.0704-.044.1022a.3846.3846 0 0 0-.02.093c0 .0273 0 .0568.007.0818a.3046.3046 0 0 0 .036.084l-.109.0998-.767-.8308.004.0022Zm.262-1.101.46.4995.479-.8491-.939.3496ZM117.461 56.8961c.111.2043.184.3814.213.5312.03.1498.021.2792-.027.3859-.048.1067-.141.1975-.277.2747-.102.0568-.204.0885-.309.0976-.102.0091-.209-.0091-.318-.0522-.109-.0431-.206-.1135-.292-.2088-.087-.0954-.168-.2134-.246-.3542a7.2958 7.2958 0 0 1-.165-.3155l-.298.1634c-.122.0681-.206.1181-.249.1544-.044.034-.073.0726-.087.1135-.013.0409-.011.0976.009.1725l-.129.0704-.536-.9739.13-.0704c.043.0477.081.0795.113.0931a.1955.1955 0 0 0 .102.0159c.037-.0045.077-.0182.123-.0386.045-.0204.116-.0567.209-.109l.971-.5334c.125-.0681.207-.1181.25-.1521.043-.0341.07-.0704.086-.1113.014-.0408.012-.0999-.009-.177l.13-.0704.604 1.0987.002-.0045Zm-.4-.2066-.815.4472.093.1703c.073.1316.141.2156.209.2588.068.0408.139.0613.211.0567.073-.0045.157-.034.252-.0862.077-.0432.137-.0908.177-.1408.039-.0522.064-.1044.071-.1612.009-.0567.004-.1135-.014-.1748a.897.897 0 0 0-.077-.1838 2.5144 2.5144 0 0 0-.111-.1862h.004ZM116.789 61.7156l-.309-1.067.141-.0408c.032.0567.061.0953.091.1157a.1872.1872 0 0 0 .097.0364c.036.0045.077 0 .127-.0091.048-.0114.125-.0295.227-.0613l1.065-.3088c.136-.0385.229-.0703.277-.0953.05-.0227.084-.0522.109-.0885.023-.0364.032-.0931.029-.1748l.141-.0409.309 1.067-.141.0408a.403.403 0 0 0-.061-.0862.1802.1802 0 0 0-.059-.0454.2177.2177 0 0 0-.061-.0182.3452.3452 0 0 0-.069 0c-.022 0-.056.0068-.097.0159-.043.0091-.107.0272-.195.0522l-1.065.3087c-.136.0386-.229.0704-.277.0954-.05.0227-.084.0522-.107.0885-.022.0363-.034.0931-.029.1748l-.141.0409h-.002ZM117.17 63.5998l.148-.0114c.02.0613.041.1044.066.1317.022.0272.052.0454.088.0567.034.0114.077.0159.127.0159s.13-.0045.236-.0136l1.106-.0863c.141-.0113.238-.0227.29-.0363.053-.0136.093-.0363.123-.0658.029-.0295.052-.0863.064-.1635l.147-.0113.154 1.9614-.572.0454-.022-.2747a1.626 1.626 0 0 0 .134-.0658.378.378 0 0 0 .086-.0613c.018-.0205.036-.0409.05-.0636a.2207.2207 0 0 0 .027-.0794c.005-.0296.005-.075 0-.1294l-.034-.4336-.788.0613.018.227c.005.0545.014.0976.03.1271a.1627.1627 0 0 0 .075.0704c.034.0159.084.0295.15.0386l.018.2292-.711.0568-.018-.2293c.059-.0204.102-.0408.134-.0613a.1784.1784 0 0 0 .066-.0772c.014-.0295.018-.0771.014-.1362l-.019-.227-.878.0681.036.454c.005.0591.014.1045.03.1385a.2107.2107 0 0 0 .068.0908c.029.0273.072.0522.127.0749.054.0227.127.0432.22.0613l.023.2793-.659.0159-.156-1.9751.002-.0022ZM117.088 69.1208l1.471-.6833.38-.168v-.0227a11.461 11.461 0 0 1-.67-.0681l-.409-.05c-.141-.0181-.238-.0249-.293-.0227a.241.241 0 0 0-.134.0386c-.034.025-.068.0727-.095.1476l-.147-.0182.097-.7832.145.0182c.007.0636.021.1112.039.1407a.2062.2062 0 0 0 .075.0727c.032.0182.073.0318.12.0409.05.009.127.0204.234.034l1.101.1362c.141.0182.238.025.293.0227.054-.0023.1-.0159.134-.0408.034-.025.068-.0727.095-.1476l.148.0182-.105.849-1.723.7855v.0204c.196.0136.423.0363.681.0681l.28.034c.14.0182.238.025.292.0227.055 0 .1-.0158.134-.0386.037-.0249.068-.0726.096-.1475l.145.0181-.098.7832-.145-.0181a.4544.4544 0 0 0-.023-.1044.1805.1805 0 0 0-.036-.0659.229.229 0 0 0-.05-.0408.2395.2395 0 0 0-.061-.0273c-.023-.0091-.055-.0159-.098-.0227a6.5418 6.5418 0 0 0-.2-.0272l-1.741-.2157.066-.5403.002.0023ZM118.902 72.383l-.658 2.2497-.622-.1817.077-.2633a.7355.7355 0 0 0 .2 0c.063-.0091.111-.0204.147-.0409.037-.0204.066-.0431.087-.0726.022-.0295.043-.0772.061-.143l.052-.1794-1.45-.4245c-.082-.0227-.146-.0408-.191-.0499a1.1485 1.1485 0 0 0-.107-.0182h-.072a.2904.2904 0 0 0-.064.0205.202.202 0 0 0-.059.0522.5321.5321 0 0 0-.054.0976l-.141-.0409.324-1.1123.141.0408c-.004.0454-.007.0817-.002.1135a.2975.2975 0 0 0 .02.0772c.009.0204.025.0363.041.0522a.4033.4033 0 0 0 .059.0386c.021.0114.052.025.093.0409.041.0159.107.0363.196.0613l1.45.4245.052-.1794c.021-.0681.028-.118.025-.1543a.2236.2236 0 0 0-.036-.109c-.02-.0363-.057-.0749-.107-.1158a.7545.7545 0 0 0-.163-.0999l.077-.2633.622.1816.002-.0022ZM114.841 76.7869l.424-1.0284.137.0568c-.009.0636-.012.1135 0 .1476.009.034.027.0635.052.0885.027.025.061.0499.107.0704.045.0227.115.0545.215.0953l1.026.4223c.132.0544.223.0862.277.0998.053.0114.1.0114.141-.0022.041-.0137.084-.0522.132-.1181l.136.0568-.425 1.0283-.136-.0567a.468.468 0 0 0 .007-.1067c0-.0272-.009-.0522-.018-.0726a.1484.1484 0 0 0-.039-.0523.5125.5125 0 0 0-.052-.0431c-.018-.0136-.048-.0295-.089-.0477a3.4449 3.4449 0 0 0-.183-.0794l-1.026-.4223c-.132-.0544-.223-.0862-.275-.0999-.052-.0113-.1-.0113-.141.0023-.041.0136-.084.0522-.132.1181l-.136-.0568h-.002ZM113.436 79.7358l.131.0681c-.02.0726-.027.1294-.015.168.009.0386.038.0704.084.0953a.5013.5013 0 0 0 .118.0432c.045.0113.097.0227.156.034l.102.0182.382-.7401a2.16 2.16 0 0 0-.139-.143.6894.6894 0 0 0-.113-.0795c-.057-.0295-.111-.0363-.166-.0227-.052.0137-.098.0477-.136.0999l-.132-.0681.4-.7764.134.0681a.3424.3424 0 0 0 .009.1703c.018.0499.05.109.097.1748.048.0658.114.1521.198.2543l1.192 1.4574-.243.4722-1.964-.3042a2.4969 2.4969 0 0 0-.136-.0205.9572.9572 0 0 0-.111-.0068.3669.3669 0 0 0-.093.0114.212.212 0 0 0-.075.034c-.023.0159-.043.0364-.066.0613l-.132-.0681.518-1.0056v.0045Zm1.124-.1317-.311.6039.962.1589-.651-.7628ZM62.8325 75.904c.1589.4086.1612.7605 0 1.0601-.1589.2974-.4767.5403-.9512.7265-.3133.1225-.5993.177-.8581.1657-.2588-.0114-.4858-.0931-.6765-.2407-.1907-.1475-.3382-.3541-.4427-.622-.1634-.4154-.1657-.7718-.0091-1.0737.1567-.302.47-.5449.9376-.7288.2633-.1021.4994-.1611.7106-.1725.2134-.0113.4018.0159.5675.0817.1657.0659.3065.168.4268.3042.118.1362.2179.302.2928.4995h.0023Zm-1.2645 1.1464c.42-.1635.7106-.336.8763-.5176.1657-.1816.2066-.3746.1271-.5812-.0431-.1067-.1067-.1861-.1929-.2383-.0863-.0522-.1907-.0817-.3133-.0863-.1226-.0068-.2565.0091-.4064.0431a3.8562 3.8562 0 0 0-.479.1521c-.2769.109-.4994.2203-.6674.3383-.1702.118-.2837.2384-.345.3632-.0613.1249-.0636.2565-.0091.3927.0794.2021.2338.3133.4631.336.2315.0227.5471-.0454.9466-.202ZM59.0868 71.1276l-.1635-1.0148.1453-.0227a.4914.4914 0 0 0 .05.0931.19.19 0 0 0 .0522.0522.195.195 0 0 0 .059.025.309.309 0 0 0 .0658.009c.025 0 .0568 0 .0999-.0045a5.0523 5.0523 0 0 0 .1998-.0272l1.0942-.1771c.1407-.0227.2361-.0431.286-.059.0522-.0182.0908-.0432.1181-.0749.0272-.0341.0454-.0886.0499-.168l.1453-.0227.1771 1.0964-.1453.0227c-.025-.059-.0499-.1021-.0749-.1248a.1766.1766 0 0 0-.0908-.0477c-.0363-.0091-.0772-.0091-.1272-.0068-.0499.0045-.1271.0159-.2338.0318l-.6583.1044c-.168.0272-.3678.0545-.5993.084l.0045.0295c.1794.0295.3814.0727.6061.1271l1.0102.2361.0613.3769-.874.5062a15.1982 15.1982 0 0 1-.5539.3042l.0046.0318a8.767 8.767 0 0 1 .5698-.1067l.6833-.109c.1407-.0227.2361-.0431.2883-.059.0522-.0182.0908-.0431.118-.0749.0273-.0341.0454-.0885.05-.168l.1453-.0227.1248.7787-.1453.0227c-.0249-.0591-.0499-.1022-.0749-.1249a.1762.1762 0 0 0-.0908-.0477c-.0363-.0091-.0772-.0091-.1271-.0045a3.0225 3.0225 0 0 0-.2338.0318l-1.0942.1748c-.1408.0227-.2361.0431-.2861.059-.0522.0181-.0908.0431-.118.0749-.0273.0318-.0432.0885-.05.168l-.1453.0227-.1634-1.017 1.2281-.6765-1.3825-.2974-.0045-.0045ZM61.2071 66.1493l-1.3848.8444-.3587.2089v.0227c.202-.0091.4268-.0114.6742-.0091l.4109.0046c.1408 0 .2384 0 .2929-.0091.0545-.0091.0976-.0273.1294-.0545.0318-.0272.059-.0817.0794-.1589h.1476l-.0091.79h-.1476c-.0136-.0636-.0317-.109-.0544-.1385a.1918.1918 0 0 0-.0818-.0636c-.034-.0136-.0749-.0227-.1248-.0272-.05-.0045-.1294-.0068-.2361-.0091l-1.1078-.0113c-.1408 0-.2384 0-.2929.0091-.0545.009-.0976.0272-.1294.0544-.0318.0273-.059.0818-.0794.1589h-.1476l.0091-.8581 1.6231-.9738v-.0205c-.1975.0091-.4245.0114-.6855.0091h-.2815c-.1408-.0045-.2384 0-.2929.0068-.0545.0091-.0976.0273-.1294.0545-.0318.0272-.059.0817-.0794.1589h-.1476l.0068-.79h.1476c.009.0431.0204.0772.034.1022a.2108.2108 0 0 0 .0432.0612.1755.1755 0 0 0 .0544.0364.2953.2953 0 0 0 .0636.0204c.0227.0068.0568.0091.0999.0114.0431.0022.1112.0045.202.0045l1.7548.0182-.0045.5448.0023.0023ZM61.5453 62.3422l-.1748 1.0965-.1453-.0227c-.0045-.0636-.0159-.1113-.0318-.1431a.1922.1922 0 0 0-.0726-.0749.4346.4346 0 0 0-.1203-.0454c-.0477-.0113-.1272-.0249-.2316-.0431l-1.0942-.1748c-.1407-.0227-.2361-.034-.2906-.034-.0544 0-.0998.0113-.1362.034-.0363.0227-.0703.0704-.1021.1453l-.1453-.0227.1748-1.0965.1453.0227c.0045.0432.0091.0772.0181.1044.0091.0273.0205.05.0341.0659a.171.171 0 0 0 .0477.0431.3796.3796 0 0 0 .0613.0295.6431.6431 0 0 0 .0953.0273c.0431.009.109.0204.1975.034l1.0942.1748c.1407.0227.2361.0341.2906.0341.0545 0 .0999-.0114.1362-.0341.0363-.0227.0704-.0704.1021-.1453l.1453.0227.0023.0023ZM61.0708 58.29c-.1294-.0545-.2225-.0886-.2747-.1022a.2687.2687 0 0 0-.1407 0c-.0409.0136-.084.0522-.134.1158l-.1362-.0567.3655-.8604.1362.059c-.0068.0431-.0091.0772-.0068.1067 0 .0272.0068.0522.0159.0726a.1796.1796 0 0 0 .0363.0523.3355.3355 0 0 0 .0522.0431 1.023 1.023 0 0 0 .0863.0499c.0386.0182.0999.0454.1839.0817l.7855.336c.177.0749.3087.1544.395.2339.0862.0817.1475.1725.1838.2724.0341.0999.0432.2134.0273.3359-.0182.1249-.059.2634-.1249.42-.0726.168-.1498.3042-.2315.4086-.084.1045-.1726.1771-.2702.2225-.0976.0454-.202.0636-.3155.0568-.1135-.0068-.2475-.0432-.4064-.1113l-.8195-.3496c-.1294-.0545-.2225-.0908-.2747-.1021a.2677.2677 0 0 0-.1407 0c-.0409.0136-.084.0522-.134.1158l-.1362-.0568.4359-1.0216.1362.0568c-.0068.0431-.0091.0772-.0068.1067 0 .0272.0068.0522.0159.0726a.1432.1432 0 0 0 .0363.0522.3305.3305 0 0 0 .0522.0432c.0182.0136.0477.0295.0863.0499.0386.0182.0999.0454.1839.0817l.9125.3882c.1136.0477.2112.0772.2929.0863.0817.0091.1544-.0068.2202-.0477.0658-.0408.1203-.1112.1634-.2134.0454-.1044.0591-.1929.0454-.2633-.0136-.0704-.0522-.1317-.1112-.1884-.0613-.0545-.1634-.1135-.311-.1771l-.8763-.3746.0023.0046ZM63.2366 53.6817l.6425-.8036.1157.093a.5552.5552 0 0 0-.0363.0999.2142.2142 0 0 0-.0045.0749.24.24 0 0 0 .0204.0613.28.28 0 0 0 .0386.0568.6767.6767 0 0 0 .0704.0703c.0317.0296.084.0704.1543.1272l.8672.6924c.1113.0885.1884.1453.2361.1725.0477.0272.0931.0386.1362.0363.0432 0 .0954-.0272.1589-.0749l.1158.0931-.6947.8672-.1157-.0931c.0272-.059.0408-.1044.0431-.1408a.1915.1915 0 0 0-.025-.0998c-.0181-.0318-.0454-.0636-.0817-.0977-.0363-.034-.0976-.0839-.1816-.1521l-.5199-.4154a21.0582 21.0582 0 0 1-.4653-.3882l-.0182.0227c.0976.1521.202.3315.3133.5335l.5039.9058-.2383.2996-.9625-.3064c-.1703-.0522-.3678-.1226-.5971-.2066l-.0204.025a8.859 8.859 0 0 1 .4631.3496l.5403.4336c.1112.0885.1907.1452.2361.1725.0476.0272.093.0386.1362.0363.0431 0 .0953-.0272.1589-.0749l.1158.0931-.4927.6174-.1157-.093c.0272-.0591.0408-.1045.0431-.1408a.192.192 0 0 0-.025-.0999c-.0181-.0317-.0454-.0635-.0817-.0976-.0363-.034-.0976-.084-.1816-.1521l-.8649-.6924c-.1113-.0885-.1907-.1453-.2361-.1725a.2419.2419 0 0 0-.1362-.0363c-.0432 0-.0954.0272-.1589.0749l-.1158-.0931.6447-.8059 1.3258.454-.7106-1.2235v-.0023Z"/><path fill="#fff" d="M13.0406 164.207c-1.3516 0-2.3884-.268-3.1104-.806-.7219-.538-1.2134-1.29-1.4745-2.258-.2612-.983-.3917-2.127-.3917-3.433v-12.372h2.4883v12.487c0 .799.0538 1.529.1613 2.189.1075.661.3379 1.183.6912 1.567.3686.384.9139.576 1.6358.576.7373 0 1.2826-.192 1.6359-.576.3533-.384.5837-.906.6912-1.567.1075-.66.1613-1.39.1613-2.189v-12.487h2.4652v12.372c0 1.306-.1305 2.45-.3916 3.433-.2612.968-.7527 1.72-1.4746 2.258-.7066.538-1.7357.806-3.0874.806Zm7.4873-.207v-13.317h2.4653v1.313c.4454-.415.937-.768 1.4746-1.06.5376-.292 1.1289-.437 1.774-.437.5376 0 .9447.138 1.2212.414.2918.277.4915.622.599 1.037.1229.415.1843.837.1843 1.267V164H25.781v-10.068c0-.477-.0691-.845-.2073-1.106-.1383-.262-.4224-.392-.8525-.392-.2765 0-.5683.084-.8755.253-.2919.154-.576.346-.8525.576V164h-2.4653Zm10.2863 0v-13.317h2.4653V164h-2.4653Zm0-15.299v-2.58h2.4653v2.58h-2.4653ZM37.6459 164l-2.6265-13.317h2.4883l1.6358 10.713 1.6589-10.713h2.3962L40.6642 164h-3.0183Zm10.8234.184c-1.0445 0-1.8509-.199-2.4192-.599-.5683-.414-.9677-1.013-1.1981-1.797-.215-.799-.3225-1.774-.3225-2.926v-3.041c0-1.183.1152-2.166.3456-2.949.2304-.784.6297-1.375 1.198-1.774.5837-.4 1.3825-.599 2.3962-.599 1.1213 0 1.9431.23 2.4653.691.5376.461.8909 1.129 1.0598 2.004.169.86.2535 1.897.2535 3.111v1.083h-5.2532v2.672c0 .538.0461.976.1383 1.313.1075.338.2688.592.4838.761.2304.153.5223.23.8755.23.3687 0 .6452-.084.8295-.253.1997-.185.3302-.438.3917-.761.0768-.338.1152-.729.1152-1.175v-.806h2.3961v.507c0 1.336-.2841 2.388-.8524 3.156-.5684.768-1.536 1.152-2.9031 1.152Zm-1.4746-8.133h2.834v-1.198c0-.553-.0307-1.014-.0922-1.382-.0614-.384-.192-.668-.3917-.853-.1843-.199-.4838-.299-.8985-.299-.3994 0-.7066.092-.9216.276-.1997.185-.3379.499-.4148.945-.0768.43-.1152 1.029-.1152 1.797v.714ZM54.5495 164v-13.317h2.4653v1.889c.4915-.814.9831-1.359 1.4746-1.636.4915-.276.983-.414 1.4745-.414h.1613c.0615 0 .1383.007.2304.023v2.718c-.1843-.076-.3993-.138-.6451-.184a2.7791 2.7791 0 0 0-.7142-.092c-.384 0-.7373.092-1.0599.276-.3072.169-.6144.507-.9216 1.014V164h-2.4653Zm10.4208.184c-1.0906 0-1.9661-.338-2.6266-1.013-.6605-.692-1.0368-1.598-1.1289-2.719l2.0505-.622c.1229.845.3303 1.482.6221 1.912.2918.415.7219.622 1.2902.622.4455 0 .7834-.123 1.0138-.368.2304-.262.3456-.607.3456-1.037 0-.384-.0845-.73-.2534-1.037-.169-.307-.4455-.622-.8295-.945l-2.2809-1.958c-.4608-.399-.8525-.845-1.1751-1.336-.3072-.492-.4608-1.129-.4608-1.913 0-.706.1383-1.298.4147-1.774.2919-.491.6912-.86 1.1981-1.106.5223-.261 1.129-.391 1.8202-.391 1.0598 0 1.8662.345 2.4192 1.036.5683.676.8909 1.498.9677 2.466l-1.6589.622c-.0615-.461-.1536-.86-.2765-1.198-.1229-.354-.2918-.622-.5069-.807-.215-.199-.4992-.299-.8525-.299-.3993 0-.7219.138-.9676.414-.2304.262-.3456.576-.3456.945 0 .23.046.461.1382.691.1075.215.2842.43.5299.645l2.3501 2.166c.3226.292.6221.607.8986.945.2918.338.5299.722.7142 1.152.1843.43.2765.929.2765 1.497 0 .753-.1536 1.383-.4608 1.89-.3072.507-.7373.891-1.2903 1.152-.5529.245-1.198.368-1.9353.368Zm5.6914-.184v-13.317h2.4653V164h-2.4653Zm0-15.299v-2.58h2.4653v2.58h-2.4653Zm8.1911 15.483c-1.1213 0-1.9584-.407-2.5114-1.221-.5529-.829-.8294-2.227-.8294-4.193v-2.581c0-1.013.0845-1.95.2534-2.81.169-.876.4839-1.575.9447-2.097.4761-.522 1.1673-.783 2.0736-.783.4454 0 .8524.099 1.2211.299.3686.2.6989.446.9907.737v-6.197h2.4653V164h-2.4653v-.852c-.2918.307-.6144.56-.9677.76-.3379.184-.7296.276-1.175.276Zm.6221-1.935c.2304 0 .4761-.038.7372-.115.2612-.092.5223-.223.7834-.392v-8.732c-.215-.154-.4531-.284-.7142-.392-.2612-.123-.5453-.184-.8525-.184-.5683 0-.9523.276-1.152.829-.1997.538-.2995 1.191-.2995 1.959v3.755c0 .615.0307 1.175.0921 1.682.0768.492.2227.883.4378 1.175.215.277.5376.415.9677.415Zm8.8792 1.935c-.5223 0-.9831-.146-1.3824-.437-.3994-.308-.7143-.692-.9447-1.152-.2304-.477-.3456-.976-.3456-1.498 0-.829.1383-1.528.4148-2.097.2764-.568.6528-1.044 1.1289-1.428.4915-.4 1.0522-.745 1.6819-1.037.6452-.292 1.321-.576 2.0276-.852v-.945c0-.538-.0308-.983-.0922-1.336-.0614-.354-.192-.615-.3917-.784-.1843-.184-.4685-.276-.8525-.276-.3379 0-.6144.077-.8294.23-.1997.154-.3456.376-.4378.668-.0921.277-.1382.607-.1382.991v.668l-2.4422-.092c.0307-1.475.3686-2.557 1.0137-3.249.6451-.706 1.6435-1.059 2.9952-1.059 1.321 0 2.2579.361 2.8109 1.082.553.722.8294 1.767.8294 3.134v6.082c0 .415.0077.815.0231 1.199.0307.384.0614.744.0921 1.082.0461.323.0845.63.1152.922h-2.2579a48.6565 48.6565 0 0 0-.1843-.922c-.0614-.384-.1075-.729-.1382-1.036-.1536.522-.4532 1.013-.8986 1.474-.4301.446-1.0291.668-1.7971.668Zm.9677-2.119c.2457 0 .4761-.069.6912-.208.215-.138.407-.292.576-.461.1689-.184.2841-.33.3456-.437v-3.779c-.384.215-.745.43-1.0829.645-.3379.215-.6375.446-.8986.691-.2457.231-.4454.5-.599.807-.1383.292-.2074.63-.2074 1.014 0 .537.0999.96.2995 1.267.1997.307.4916.461.8756.461Zm9.5335 2.119c-1.1213 0-1.9584-.407-2.5114-1.221-.5529-.829-.8294-2.227-.8294-4.193v-2.581c0-1.013.0845-1.95.2534-2.81.169-.876.4839-1.575.9447-2.097.4761-.522 1.1673-.783 2.0736-.783.4454 0 .8524.099 1.2208.299.369.2.699.446.991.737v-6.197h2.465V164h-2.465v-.852c-.292.307-.614.56-.968.76-.3376.184-.7293.276-1.1747.276Zm.6221-1.935c.2304 0 .4761-.038.7376-.115.261-.092.522-.223.783-.392v-8.732c-.215-.154-.453-.284-.714-.392-.261-.123-.5455-.184-.8527-.184-.5683 0-.9523.276-1.152.829-.1997.538-.2995 1.191-.2995 1.959v3.755c0 .615.0307 1.175.0921 1.682.0768.492.2227.883.4378 1.175.215.277.5376.415.9677.415Zm16.6326 1.958c-1.321 0-2.35-.276-3.087-.829-.722-.553-1.229-1.298-1.521-2.235-.277-.937-.415-1.981-.415-3.133v-6.59c0-1.259.138-2.358.415-3.295.292-.937.799-1.658 1.521-2.165.737-.523 1.766-.784 3.087-.784 1.167 0 2.089.215 2.765.645.691.431 1.182 1.045 1.474 1.844.307.798.461 1.758.461 2.88v1.474h-2.465v-1.313c0-.691-.039-1.298-.115-1.82-.062-.538-.246-.953-.553-1.244-.308-.292-.822-.438-1.544-.438-.737 0-1.275.161-1.613.484-.338.307-.561.752-.668 1.336-.092.568-.138 1.236-.138 2.004v7.396c0 .937.077 1.682.23 2.235.154.538.407.922.76 1.152.354.231.83.346 1.429.346.706 0 1.213-.154 1.521-.461.307-.323.499-.76.576-1.313.076-.553.115-1.198.115-1.936v-1.382h2.465v1.382c0 1.137-.138 2.143-.415 3.019-.276.86-.752 1.536-1.428 2.027-.676.476-1.628.714-2.857.714Zm10.659-.023c-1.044 0-1.851-.199-2.419-.599-.568-.414-.968-1.013-1.198-1.797-.215-.799-.323-1.774-.323-2.926v-3.041c0-1.183.116-2.166.346-2.949.23-.784.63-1.375 1.198-1.774.584-.4 1.383-.599 2.396-.599 1.122 0 1.943.23 2.466.691.537.461.89 1.129 1.059 2.004.169.86.254 1.897.254 3.111v1.083h-5.253v2.672c0 .538.046.976.138 1.313.108.338.269.592.484.761.23.153.522.23.875.23.369 0 .645-.084.83-.253.199-.185.33-.438.391-.761.077-.338.116-.729.116-1.175v-.806h2.396v.507c0 1.336-.284 2.388-.853 3.156-.568.768-1.536 1.152-2.903 1.152Zm-1.474-8.133h2.834v-1.198c0-.553-.031-1.014-.092-1.382-.062-.384-.192-.668-.392-.853-.184-.199-.484-.299-.899-.299-.399 0-.706.092-.921.276-.2.185-.338.499-.415.945-.077.43-.115 1.029-.115 1.797v.714ZM132.78 164v-13.317h2.466v1.313c.445-.415.937-.768 1.474-1.06.538-.292 1.129-.437 1.774-.437.538 0 .945.138 1.221.414.292.277.492.622.599 1.037.123.415.185.837.185 1.267V164h-2.465v-10.068c0-.477-.07-.845-.208-1.106-.138-.262-.422-.392-.852-.392-.277 0-.569.084-.876.253-.292.154-.576.346-.852.576V164h-2.466Zm13.674.184c-.692 0-1.252-.13-1.682-.391-.415-.261-.722-.63-.922-1.106-.184-.476-.276-1.037-.276-1.682v-8.686h-1.406v-1.636h1.406v-3.894h2.465v3.894h2.143v1.636h-2.143v8.525c0 .522.084.898.253 1.128.169.216.492.323.968.323.123 0 .261-.008.415-.023.169-.015.33-.031.484-.046v1.82c-.308.046-.592.077-.853.092-.261.031-.545.046-.852.046Zm3.608-.184v-13.317h2.465v1.889c.492-.814.983-1.359 1.475-1.636.491-.276.983-.414 1.474-.414h.162c.061 0 .138.007.23.023v2.718c-.184-.076-.399-.138-.645-.184-.23-.061-.468-.092-.714-.092-.384 0-.738.092-1.06.276-.307.169-.614.507-.922 1.014V164h-2.465Zm9.73.184c-.523 0-.983-.146-1.383-.437-.399-.308-.714-.692-.944-1.152-.231-.477-.346-.976-.346-1.498 0-.829.138-1.528.415-2.097.276-.568.652-1.044 1.129-1.428.491-.4 1.052-.745 1.682-1.037.645-.292 1.32-.576 2.027-.852v-.945c0-.538-.031-.983-.092-1.336-.062-.354-.192-.615-.392-.784-.184-.184-.468-.276-.852-.276-.338 0-.615.077-.83.23-.199.154-.345.376-.437.668-.093.277-.139.607-.139.991v.668l-2.442-.092c.031-1.475.369-2.557 1.014-3.249.645-.706 1.643-1.059 2.995-1.059 1.321 0 2.258.361 2.811 1.082.553.722.829 1.767.829 3.134v6.082c0 .415.008.815.023 1.199.031.384.062.744.093 1.082.046.323.084.63.115.922h-2.258c-.046-.246-.108-.553-.185-.922-.061-.384-.107-.729-.138-1.036-.153.522-.453 1.013-.898 1.474-.43.446-1.029.668-1.797.668Zm.967-2.119c.246 0 .476-.069.691-.208.215-.138.407-.292.576-.461.169-.184.285-.33.346-.437v-3.779c-.384.215-.745.43-1.083.645-.338.215-.637.446-.898.691-.246.231-.446.5-.599.807-.139.292-.208.63-.208 1.014 0 .537.1.96.3 1.267.199.307.491.461.875.461Zm6.677 1.935v-18.662h2.465V164h-2.465ZM45.024 190.184c-1.1213 0-1.9584-.407-2.5113-1.221-.553-.829-.8295-2.227-.8295-4.193v-2.581c0-1.013.0845-1.95.2535-2.81.1689-.876.4838-1.575.9446-2.097.4762-.522 1.1674-.783 2.0736-.783.4454 0 .8525.099 1.2211.299.3687.2.6989.446.9907.737v-6.197h2.4653V190h-2.4653v-.852c-.2918.307-.6144.56-.9676.76-.338.184-.7296.276-1.1751.276Zm.6221-1.935c.2304 0 .4762-.038.7373-.115.2611-.092.5222-.223.7833-.392v-8.732c-.215-.154-.4531-.284-.7142-.392-.2611-.123-.5453-.184-.8525-.184-.5683 0-.9523.276-1.152.829-.1997.538-.2995 1.191-.2995 1.959v3.755c0 .615.0307 1.175.0922 1.682.0768.492.2227.883.4377 1.175.2151.277.5376.415.9677.415Zm10.1695 1.935c-1.0445 0-1.8509-.199-2.4192-.599-.5684-.414-.9677-1.013-1.1981-1.797-.2151-.799-.3226-1.774-.3226-2.926v-3.041c0-1.183.1152-2.166.3456-2.949.2304-.784.6298-1.375 1.1981-1.774.5837-.4 1.3824-.599 2.3962-.599 1.1212 0 1.943.23 2.4652.691.5376.461.8909 1.129 1.0599 2.004.1689.86.2534 1.897.2534 3.111v1.083H54.341v2.672c0 .538.0461.976.1382 1.313.1076.338.2688.592.4839.761.2304.153.5222.23.8755.23.3686 0 .6451-.084.8294-.253.1997-.185.3303-.438.3917-.761.0768-.338.1152-.729.1152-1.175v-.806h2.3962v.507c0 1.336-.2842 2.388-.8525 3.156-.5683.768-1.536 1.152-2.903 1.152Zm-1.4746-8.133h2.8339v-1.198c0-.553-.0307-1.014-.0921-1.382-.0615-.384-.192-.668-.3917-.853-.1843-.199-.4839-.299-.8986-.299-.3993 0-.7065.092-.9216.276-.1997.185-.3379.499-.4147.945-.0768.43-.1152 1.029-.1152 1.797v.714ZM62.0571 190v-18.662h2.4652V190h-2.4652Zm10.5069 0v-18.662h7.2346v1.935h-4.6311v6.175h3.7556v1.843h-3.7556v6.843h4.6772V190H72.564Zm12.8155.184c-1.0906 0-1.92-.215-2.4883-.645-.553-.445-.9293-1.067-1.129-1.866-.1843-.799-.2765-1.728-.2765-2.788v-3.064c0-1.121.0999-2.074.2995-2.857.1997-.799.576-1.406 1.129-1.82.5683-.43 1.3901-.645 2.4653-.645.9677 0 1.7126.161 2.2349.483.5376.308.9062.776 1.1059 1.406.1997.614.2995 1.382.2995 2.304v.783h-2.2349v-.806c0-.584-.0384-1.045-.1152-1.383-.0768-.338-.215-.583-.4147-.737-.1997-.153-.4838-.23-.8525-.23-.3993 0-.7065.092-.9216.276-.215.185-.3609.499-.4377.945-.0615.43-.0922 1.021-.0922 1.774v4.193c0 1.137.1075 1.897.3226 2.281.215.384.599.576 1.152.576.4147 0 .7142-.092.8985-.276.1997-.2.3226-.476.3687-.83.0614-.353.0921-.752.0921-1.198v-1.083h2.2349v.922c0 .891-.1075 1.659-.3226 2.304-.1996.645-.5683 1.137-1.1059 1.474-.5222.338-1.2595.507-2.2118.507Zm7.7445 0c-.5223 0-.9293-.138-1.2211-.414-.2919-.277-.4992-.622-.6221-1.037a5.0305 5.0305 0 0 1-.1613-1.267v-10.783h2.4653v10.045c0 .476.0691.853.2073 1.129.1383.261.4224.392.8525.392.2765 0 .5607-.077.8525-.23.3072-.169.599-.369.8755-.599v-10.737h2.4653V190h-2.4653v-1.313c-.4301.414-.9216.768-1.4745 1.06-.5376.291-1.129.437-1.7741.437Zm10.631 0c-.522 0-.983-.146-1.382-.437-.399-.308-.714-.692-.945-1.152-.23-.477-.345-.976-.345-1.498 0-.829.138-1.528.414-2.097.277-.568.653-1.044 1.129-1.428.492-.4 1.053-.745 1.682-1.037.645-.292 1.321-.576 2.028-.852v-.945c0-.538-.031-.983-.092-1.336-.062-.354-.192-.615-.392-.784-.184-.184-.469-.276-.853-.276-.337 0-.614.077-.829.23-.2.154-.346.376-.438.668-.092.277-.138.607-.138.991v.668l-2.442-.092c.031-1.475.368-2.557 1.014-3.249.645-.706 1.643-1.059 2.995-1.059 1.321 0 2.258.361 2.811 1.082.553.722.829 1.767.829 3.134v6.082c0 .415.008.815.023 1.199.031.384.062.744.092 1.082.046.323.085.63.115.922h-2.257c-.047-.246-.108-.553-.185-.922-.061-.384-.107-.729-.138-1.036-.154.522-.453 1.013-.899 1.474-.43.446-1.029.668-1.797.668Zm.968-2.119c.246 0 .476-.069.691-.208.215-.138.407-.292.576-.461.169-.184.284-.33.346-.437v-3.779c-.384.215-.745.43-1.083.645-.338.215-.638.446-.899.691-.245.231-.445.5-.599.807-.138.292-.207.63-.207 1.014 0 .537.1.96.299 1.267.2.307.492.461.876.461Zm9.534 2.119c-1.122 0-1.959-.407-2.512-1.221-.553-.829-.829-2.227-.829-4.193v-2.581c0-1.013.084-1.95.253-2.81.169-.876.484-1.575.945-2.097.476-.522 1.167-.783 2.073-.783.446 0 .853.099 1.222.299.368.2.698.446.99.737v-6.197h2.466V190h-2.466v-.852c-.292.307-.614.56-.967.76-.338.184-.73.276-1.175.276Zm.622-1.935c.23 0 .476-.038.737-.115.261-.092.522-.223.783-.392v-8.732c-.215-.154-.453-.284-.714-.392-.261-.123-.545-.184-.852-.184-.569 0-.953.276-1.152.829-.2.538-.3 1.191-.3 1.959v3.755c0 .615.031 1.175.092 1.682.077.492.223.883.438 1.175.215.277.538.415.968.415Zm10.146 1.935c-.983 0-1.759-.199-2.327-.599-.568-.399-.975-.967-1.221-1.705-.231-.737-.346-1.605-.346-2.603v-3.871c0-.998.115-1.866.346-2.603.246-.738.653-1.306 1.221-1.705.568-.4 1.344-.599 2.327-.599.983 0 1.751.199 2.304.599.568.399.968.967 1.198 1.705.246.737.369 1.605.369 2.603v3.871c0 .998-.123 1.866-.369 2.603-.23.738-.63 1.306-1.198 1.705-.553.4-1.321.599-2.304.599Zm0-1.82c.476 0 .806-.138.991-.415.199-.276.315-.637.345-1.082.046-.461.069-.937.069-1.429v-4.17c0-.507-.023-.983-.069-1.429-.03-.445-.146-.806-.345-1.083-.185-.291-.515-.437-.991-.437s-.814.146-1.014.437c-.199.277-.322.638-.368 1.083-.031.446-.046.922-.046 1.429v4.17c0 .492.015.968.046 1.429.046.445.169.806.368 1.082.2.277.538.415 1.014.415Zm6.193 1.636v-13.317h2.466v1.889c.491-.814.983-1.359 1.474-1.636.492-.276.983-.414 1.475-.414h.161c.061 0 .138.007.23.023v2.718c-.184-.076-.399-.138-.645-.184-.23-.061-.468-.092-.714-.092-.384 0-.737.092-1.06.276-.307.169-.614.507-.921 1.014V190h-2.466Z"/></svg>