<?xml version="1.0" encoding="utf-8"?>
<!-- Generator: Adobe Illustrator 19.2.1, SVG Export Plug-In . SVG Version: 6.00 Build 0)  -->
<svg version="1.1" id="Capa_1" xmlns="http://www.w3.org/2000/svg" xmlns:xlink="http://www.w3.org/1999/xlink" x="0px" y="0px"
	 viewBox="0 0 841.9 283.5" style="enable-background:new 0 0 841.9 283.5;" xml:space="preserve">
<style type="text/css">
	.st0{clip-path:url(#SVGID_2_);}
	.st1{fill:#010202;}
	.st2{font-family:'Oswald-Regular';}
	.st3{font-size:30.4551px;}
	.st4{clip-path:url(#SVGID_2_);fill:#2866B0;}
</style>
<g>
	<defs>
		<rect id="SVGID_1_" x="80.3" y="18" width="707.2" height="247.4"/>
	</defs>
	<clipPath id="SVGID_2_">
		<use xlink:href="#SVGID_1_"  style="overflow:visible;"/>
	</clipPath>
	<g class="st0">
		<text transform="matrix(1 0 0 1 80.2942 256.6952)"><tspan x="0" y="0" class="st1 st2 st3">Sistema Ecu</tspan><tspan x="133.9" y="0" class="st1 st2 st3">a</tspan><tspan x="146.7" y="0" class="st1 st2 st3">toriano de Visualización de </tspan><tspan x="448.9" y="0" class="st1 st2 st3">E</tspan><tspan x="460.7" y="0" class="st1 st2 st3">stadísticas Electorales</tspan></text>
	</g>
	<path class="st4" d="M573.6,100.2c-0.6,2.2-1.3,4.6-2.5,6.2c-10.4,15.3-14.5,19.5-25.3,34.3c-1.5,2.1-5.3,2.7-7.4,1.5
		c-3.6-2.1-7.1-5.5-9.9-9.5c-8.9-12.4-8.8-19.1-0.1-31.5c10.3-14.7,14.3-18.2,24.9-33.3c-19.3-12.6-42.7,9.4-44.9,40.5
		c-2,28.8,12,54,31.3,56.1c21.5,2.4,38.2-18.9,38.9-50.7c0.6-28.4,7.7-52.1,22.2-71.2c30.5-40.2,79.3-30.3,102.6,24.2
		c-6.1,7.7-13,15.6-19.3,24.5c-13.5,19-19.4,25.8-32.4,45.5c-4.2,6.4-8,7.1-12.6,2.5c-3-3-6.1-6.2-8.5-10.2
		c-7.6-12.9-7.4-16.9,0.9-28.5c10.6-14.8,13.7-17.1,25-32.8c-23.3-12.6-45.1,11.9-46.3,48.3c-1.4,42.6-15.9,72.4-43.2,88.4
		c-29.7,17.3-64.9-0.8-81.3-40.8c-16.6-40.7-10.4-93.5,14.6-123.4c25.1-30,61.8-29.9,86,0.2c1.3,1.6,2.3,3.5,3.4,5.3
		C589,45.7,578.3,81.9,573.6,100.2"/>
	<path class="st4" d="M599.7,183.8c5.3-14.8,10.2-28.6,15.3-43.1c9.6,18.9,22.6,28.9,39.5,22.5c16.7-6.3,24.5-23.8,26.7-48h30
		c4.2,28.5-11.9,67.6-34.9,85C651.1,219.5,618.2,212.3,599.7,183.8"/>
	<path class="st4" d="M105.2,198.8c-10.3-7.3-18.6-19-24.9-35.1l35.2-15.5c3.4,8.5,7.3,15,11.9,19.7c4.5,4.7,9.5,7,14.8,7
		c4,0,7.1-1.1,9.2-3.3c2.1-2.2,3.2-5.2,3.2-9c-0.2-3.6-2.2-7.3-6-11.3c-3.8-3.9-10.3-9.6-19.4-17l-13.3-11.1
		c-11-9.3-19-17.8-24-25.4c-5-7.6-7.5-16.7-7.5-27.3c0-9.7,2.6-18.4,7.8-26c5.2-7.6,12.1-13.6,20.8-17.9c8.7-4.3,18-6.5,27.9-6.5
		c15,0,27.5,4.1,37.6,12.2c10,8.1,17.2,19.8,21.4,35.1l-33.3,15.2c-2.1-6.8-5.4-12.8-9.8-18.2c-4.4-5.4-9.3-8.1-14.6-8.1
		c-3.4,0-6.1,1-8.1,2.9c-2,1.9-3,4.4-3,7.6c0,3.8,2,7.8,5.9,12.1c3.9,4.2,10.5,10.2,19.8,17.8l13,11.4c7.2,6.3,13,11.7,17.3,16.2
		c4.3,4.4,8,9.7,11.1,15.9c3.1,6.1,4.6,12.8,4.6,20c0,10.4-2.7,19.3-8.1,26.8c-5.4,7.5-12.6,13.2-21.6,17.1c-9,3.9-18.7,5.9-29,5.9
		C128.4,209.7,115.4,206.1,105.2,198.8"/>
	<polygon class="st4" points="348.6,23.1 398,23.1 413.3,140.1 427.2,23.1 476.7,23.1 439,206.5 385.4,206.5 	"/>
	<path class="st4" d="M345.2,116.4c3.4,35.9-14.3,72.8-41.6,88.7c-29.7,17.3-64.9-0.8-81.3-40.8c-16.6-40.7-10.4-93.5,14.6-123.4
		c25.1-30,61.8-29.9,86,0.2c1.3,1.6,13.2,24.2,14.4,26c-0.8-0.2-9,11.2-20.2,25.8c-1.4,1.8-8.3,12.4-9.5,14.1
		c-10.4,15.3-14.5,19.5-25.3,34.3c-1.5,2.1-5.3,2.7-7.4,1.5c-3.6-2.1-7.1-5.5-9.9-9.5c-8.9-12.4-8.8-19.1-0.1-31.5
		c10.3-14.7,14.3-18.2,24.9-33.3c-19.3-12.6-42.7,9.4-44.9,40.5c-2,28.8,12,54,31.3,56.1c21.5,2.4,38.9-16.9,39.6-48.7"/>
</g>
</svg>
