<svg xmlns="http://www.w3.org/2000/svg" xmlns:xlink="http://www.w3.org/1999/xlink" viewBox="0 0 429.3 400"><defs><style>.cls-1{fill:#fff;}.cls-2{fill:#2246c6;}.cls-3{opacity:0.3;}.cls-4{fill:#dec29b;}.cls-5{fill:#d3af85;}.cls-6{fill:#d8ba98;}.cls-7{fill:#e5cca8;}.cls-8{clip-path:url(#clip-path);}.cls-9{fill:#db7c00;}.cls-10{fill:#1d1d1b;}.cls-11{fill:#ad6400;}.cls-12{fill:#ca4f55;}.cls-13{fill:#b78721;}.cls-14{fill:#a66e0e;}.cls-15{fill:#c68206;}.cls-16{fill:#cf9f5b;}.cls-17{fill:#ff781d;}.cls-18{fill:#23417c;}.cls-19{fill:#3e3a3f;}.cls-20{fill:#514c52;}.cls-21{fill:#ba8f56;}.cls-22{fill:#bfbfbf;}.cls-23{fill:none;stroke:#b4b1b1;stroke-miterlimit:10;stroke-width:0.5px;}.cls-24{fill:#996948;}.cls-25{fill:#845636;}.cls-26{fill:#b28662;}.cls-27{clip-path:url(#clip-path-2);}.cls-28{fill:#0071a5;}.cls-29{fill:#155c68;}.cls-30{fill:#00146a;}.cls-31{fill:#2a41ff;}.cls-32{fill:#0031ff;}.cls-33{fill:#f8ff7f;}.cls-34{fill:#e9fdff;}.cls-35{fill:#231bff;}.cls-36{fill:#1b5bd9;}.cls-37{fill:#f9ff8d;}.cls-38{fill:#4791b2;}.cls-39{fill:#b5d3e0;}.cls-40{fill:#6ca7c2;}.cls-41{fill:#dae9f0;}.cls-42{fill:#75af5d;}.cls-43{fill:#93d17c;}.cls-44{fill:#d1b895;}.cls-45{fill:#ddc099;}.cls-46{fill:#efc88e;}.cls-47{fill:#125b1b;}.cls-48{fill:#1a8138;}.cls-49{opacity:0.28;}.cls-50{fill:#f9efef;}.cls-51{fill:#d10505;}.cls-52{fill:#280606;}.cls-53{fill:#01723f;}.cls-54{fill:#188953;}.cls-55{fill:#663012;}.cls-56{fill:#964923;}.cls-57{fill:#a89f39;}.cls-58{fill:#d8c621;}.cls-59{fill:#006284;}.cls-60{fill:#2d8ea8;}.cls-61{fill:#2b8787;}</style><clipPath id="clip-path"><polygon class="cls-1" points="387.57 32.01 365.39 3.13 351.23 14.97 372.7 42.63 387.57 32.01"/></clipPath><clipPath id="clip-path-2"><path class="cls-2" d="M48.57,334c.64,1.67,4.81,2.74,3.74,4.17,1.91.57,4.68,1.07,6.59,1.64a1.9,1.9,0,0,1,1.22.75c.25.46.09,1,.16,1.52.19,1.42,2,2,3.41,2s3.08-.19,4.1.81c.77.76.92,2,1.62,2.77,2.15,2.46,7.1-.5,9.18,2,.77.94.78,2.32,1.5,3.3,1.26,1.71,3.93,1.42,5.71,2.58,1,.62,1.6,1.64,2.57,2.24,1.3.8,2.86,2.29,4,1.33.59-.49,1.83-1.5,2-2.24a5.1,5.1,0,0,1,3-3.55c.94-.36-.84-3.55,1.56-3.54,1,0,.18-2-.28-2.91a6.11,6.11,0,0,0-5.35-2.9c-2-.06-4.34.4-5.75-1a18.17,18.17,0,0,1-1.53-2.52c-1.63-2.35-5.18-2.47-7.18-4.51A19.75,19.75,0,0,0,77,333.68c-2.57-1.95-6.59-1.54-9.44-3.51-2-1.4-3.4-3.33-5.68-4.38-1.44-.66-3.65-2.28-5.24-2-2.77.44-1.43,1.83-2.68,3.49C52.8,328.73,47.81,332,48.57,334Z"/></clipPath><image id="image" width="36" height="266" xlink:href="../../../../Downloads/MicrosoftTeams-image%20(14).png"/></defs><g id="Layer_11" data-name="Layer 11"><g class="cls-3"><path d="M429.56-.35H389.92l-15.71,17,2.12,2.13-4.49,4.43,1.71,1.73a59.58,59.58,0,0,1-10.32,3.84h0a20.74,20.74,0,0,0-6,2.06l-1.85,1C349.52,34.34,343,38.27,335.44,42a6.18,6.18,0,0,0-1.5,1L314.15,53.27c-4.53,2.31-5.13,5.48-5.46,9.43a.29.29,0,0,1,0,.09,243.21,243.21,0,0,1-5.49,27.08,7.7,7.7,0,0,0,1.45,6.74c1.66,2.89,5.57,9.81,8.89,16.8a6.29,6.29,0,0,0,2.9,3l.06,0,.09,0,.61.25c2.45,4.73.4,6.28-1.56,6.54l-28.94,1.22a1.67,1.67,0,0,0-1.59,1.72l1.23,29c-.08,2.35-1.55,4.26-7,1.79h0a9.79,9.79,0,1,0,.74,17.42h0c5.18-2.93,6.83-.78,7.1,1.26l1.22,28.93a1.67,1.67,0,0,0,1.57,1.58l.16,0L319,204.92a2.75,2.75,0,0,0,1.34-.5,1.86,1.86,0,0,0,.65-1.68,8.69,8.69,0,0,0-1.32-3.69l-.66-1.18h.09a10.62,10.62,0,1,1,20.44-4.48A10.44,10.44,0,0,1,339,197h.09l-.56,1.22a9.46,9.46,0,0,0-1.08,4c0,.49.08,1.73,2.11,1.81l29-1.22h.16a1.66,1.66,0,0,0,1.43-1.71l-1.22-28.77a2.74,2.74,0,0,0-.49-1.34,1.86,1.86,0,0,0-1.68-.65,8.73,8.73,0,0,0-3.7,1.32l-1.18.66v-.1a10.47,10.47,0,0,1-3.59.8,10.62,10.62,0,1,1-.9-21.22,10.37,10.37,0,0,1,3.64.48v-.08l1.23.55a9.43,9.43,0,0,0,4,1.08c.49,0,1.73-.07,1.81-2.1l-1.23-29v-.06a1.65,1.65,0,0,0-1.72-1.59l-29,1.23a2.87,2.87,0,0,1-2.6-1.31,9.73,9.73,0,0,0,1.37-2,6.66,6.66,0,0,0,.19-6.19,9.7,9.7,0,0,0,.13-1.54L337,112c3.28,1.71,4.51,1.22,6.23-2.06a6.7,6.7,0,0,0-2.62-8.91l.69-.82.79-.72,6.39.83c3.39,1,4.46.29,5.44-3.11a6.36,6.36,0,0,0-1.34-6l3.86.19c3,.62,3.87,0,4.5-3a5.55,5.55,0,0,0-.63-3.88c2.82-2,6.22-4.44,10.32-7.22A29,29,0,0,0,382.3,62h0c.56-1.12,1.14-2.19,1.73-3.22.26-.45,1,.35,1.39,0,3.88-3.73,11-10.72,11-10.72l15.61-7.8,17.5-11.49Z"/></g><path class="cls-4" d="M336.83,86.79a6.4,6.4,0,0,0-4.36-7.94L322.72,76a6.41,6.41,0,0,0-7.94,4.37h0a6.4,6.4,0,0,0,4.36,7.94l12.24,1.58c3.4,1,4.47.29,5.45-3.11Z"/><path class="cls-4" d="M343.85,77.92a5.56,5.56,0,0,0-4.31-6.57l-8.63-1.79a5.57,5.57,0,0,0-6.57,4.31h0a5.56,5.56,0,0,0,4.31,6.57l10.7.53c3,.62,3.87,0,4.5-3Z"/><path class="cls-5" d="M303,58.83s12.63,20.42,13.89,22.28-6.29,19-12.81,15.78C292.83,91.3,303,58.83,303,58.83Z"/><path class="cls-6" d="M303,58.83s12.63,20.42,13.89,22.28S335.19,44.83,323,47.66A43.31,43.31,0,0,0,303,58.83Z"/><path class="cls-7" d="M305.45,106a6.71,6.71,0,0,0,2.91-9l-9.72-18.21a6.69,6.69,0,0,0-9-2.91h0a6.69,6.69,0,0,0-2.91,9s5.37,9,9.72,18.22a6.64,6.64,0,0,0,9,2.91Z"/><path class="cls-7" d="M293.49,89.62c4.56.76,7.51-.74,9.11-5.08,1.8-4.85,3.48-9.45,2.24-13.9,7-6.29,5.47-15.21,5.47-15.21.75-4.56-5.19-8.86-9.75-9.61h0a8.37,8.37,0,0,0-9.62,6.88A242.76,242.76,0,0,1,286.61,80a8.22,8.22,0,0,0,6.88,9.62Z"/><path class="cls-7" d="M293.79,56.36c2.56,5,12.62,4.06,16.2,6.64,11.51,8.28,32.59-8.28,32.59-8.28,8.81-2.24,17.37-11.56,18.16-21.89h0c.92-12.21-9.09-18.29-20.61-12.38L297.06,42.89c-4.66,2.37-5.17,5.66-5.49,9.77Z"/><path class="cls-7" d="M353.54,66.82C372.1,54.24,368.4,30.65,358.1,22s-22.43,1-39.75,9.57c-9.6,4.73,13.3,12,.83,35.55,3.72,7.82,8.95,11.76,13.18,15.3C332.36,82.44,338.19,77.21,353.54,66.82Z"/><path class="cls-7" d="M346.14,18.39C360.87,14.19,363.8,9.5,366.77,6l25.51,21.36s-16.63,3.48-27.06,24.36C348.87,33.77,346.14,18.39,346.14,18.39Z"/><polygon class="cls-1" points="387.57 32.01 365.39 3.13 351.23 14.97 372.7 42.63 387.57 32.01"/><g class="cls-8"><path class="cls-9" d="M351.37,14.1a2.39,2.39,0,0,0-.16,1l0,.29a.77.77,0,0,0,.39.18,5,5,0,0,0,.95,0,3.32,3.32,0,0,0-.22.88l0,.22a.37.37,0,0,0,.24.28l.16,0a6.61,6.61,0,0,1,.89,0,4.84,4.84,0,0,1-.13.87v.23a.36.36,0,0,0,.4.27s.66.05,1.05.07a4,4,0,0,0-.23,1.21,1.76,1.76,0,0,0,.14.27l.26.15a3.75,3.75,0,0,0,1.06,0,4.55,4.55,0,0,0-.19.9v.15c0,.15.07.27.22.36l.31.08a4.42,4.42,0,0,0,.89,0l.62-.5c-.15,0-.24-.13-.4-.13l-.43,0-.52,0c0-.22.1-.34.12-.55a2.55,2.55,0,0,0,0-.56l-.13-.21a.31.31,0,0,0-.26-.07l-.27,0-.82,0c.15-.34.16-.74.28-1.09l-.06-.32a.35.35,0,0,0-.18-.16l-.24-.07a8.26,8.26,0,0,1-.94-.12c.1-.38.12-.5.19-.87l-.08-.26a1,1,0,0,0-.27-.18l-.18,0c-.29-.05-.79-.09-.79-.09a7.63,7.63,0,0,0,.17-.83l0-.33A.61.61,0,0,0,353,15l-.26,0h-.8s.06-.42.11-.72l0-.23a.74.74,0,0,0,0-.39Z"/><path class="cls-10" d="M357.74,20.47a.35.35,0,0,1-.47-.06.34.34,0,0,1,0-.47.34.34,0,0,1,.47.06A.34.34,0,0,1,357.74,20.47Z"/><path class="cls-10" d="M356.46,18.88a.34.34,0,0,1-.47-.06.32.32,0,1,1,.51-.4A.33.33,0,0,1,356.46,18.88Z"/><path class="cls-10" d="M355.22,17.35a.34.34,0,0,1-.47-.07.33.33,0,0,1,0-.46.32.32,0,0,1,.46.06A.33.33,0,0,1,355.22,17.35Z"/><path class="cls-10" d="M354.19,16a.34.34,0,0,1-.43-.52.32.32,0,0,1,.46.06A.32.32,0,0,1,354.19,16Z"/><path class="cls-10" d="M352.91,14.44a.34.34,0,0,1-.43-.52.32.32,0,0,1,.46.06A.32.32,0,0,1,352.91,14.44Z"/><path class="cls-11" d="M352.22,13.42a1.37,1.37,0,0,0,.29.12,5.73,5.73,0,0,0,1.05.14,1.76,1.76,0,0,0-.13.87l.08.29a.44.44,0,0,0,.32.13,4.3,4.3,0,0,0,.8,0,4.86,4.86,0,0,0-.15.83l0,.22a.36.36,0,0,0,.24.28l.16,0a8.27,8.27,0,0,1,.87.09s-.09.53-.19.87v.23c.05.18.32.26.32.26.39,0,.73.07,1.12.1a3.17,3.17,0,0,0-.25,1.17l.13.27a.43.43,0,0,0,.33.13,2.24,2.24,0,0,0,1,.12s0,.55-.07,1a.91.91,0,0,0,.07.28l.6-.48a8.57,8.57,0,0,0,.09-1.1l-.08-.25a.53.53,0,0,0-.37-.17l-.27,0a4.88,4.88,0,0,1-.76-.08,8.17,8.17,0,0,1,.22-1l-.06-.31a.35.35,0,0,0-.18-.16l-.23-.07c-.48,0-1-.11-1-.11s.1-.42.17-.8v-.26c-.06-.05,0-.18-.24-.23l-.26-.07-.79-.08a7.6,7.6,0,0,0,.16-.83l-.11-.38a.35.35,0,0,0-.19-.13l-.27,0c-.34,0-.66,0-.66,0a2.58,2.58,0,0,1,.17-.74l0-.17A.36.36,0,0,0,354,13l-.21,0a4.53,4.53,0,0,1-1-.05Z"/><path class="cls-9" d="M357.43,21.59a2.33,2.33,0,0,0-.17,1l0,.29c.09.13.38.18.38.18a4.33,4.33,0,0,0,.95,0,3.78,3.78,0,0,0-.22.88l0,.22a.36.36,0,0,0,.24.28l.16,0a8.81,8.81,0,0,1,.89,0,4.84,4.84,0,0,1-.13.87v.24a.36.36,0,0,0,.41.26l1,.08a3.71,3.71,0,0,0-.22,1.2,2.19,2.19,0,0,0,.13.27l.26.15a3.75,3.75,0,0,0,1.06,0,4.34,4.34,0,0,0-.19.9v.14a.38.38,0,0,0,.22.37l.32.07a3.72,3.72,0,0,0,.88,0l.62-.5c-.15,0-.24-.13-.39-.12l-.44,0-.51,0c0-.22.09-.34.12-.54a4.92,4.92,0,0,0,0-.56l-.13-.22a.37.37,0,0,0-.27-.07l-.27,0c-.34,0-.82,0-.82,0,.15-.35.16-.74.28-1.1l-.06-.32a.35.35,0,0,0-.18-.16l-.23-.06c-.48,0-.94-.13-.94-.13.09-.37.11-.49.19-.87l-.08-.25a1,1,0,0,0-.27-.19l-.18,0c-.3,0-.79-.09-.79-.09a7.17,7.17,0,0,0,.16-.83l0-.33a.73.73,0,0,0-.26-.17l-.27-.05H358s.06-.42.11-.71l0-.23a.89.89,0,0,0,0-.4Z"/><path class="cls-10" d="M363.79,28a.34.34,0,1,1,0-.47A.33.33,0,0,1,363.79,28Z"/><path class="cls-10" d="M362.51,26.38a.32.32,0,0,1-.46-.07.32.32,0,1,1,.5-.4A.33.33,0,0,1,362.51,26.38Z"/><path class="cls-10" d="M361.27,24.84a.33.33,0,0,1-.46-.06.34.34,0,0,1,0-.47.35.35,0,0,1,.47.06A.33.33,0,0,1,361.27,24.84Z"/><path class="cls-10" d="M360.24,23.48a.34.34,0,0,1-.43-.53.35.35,0,0,1,.47.06A.33.33,0,0,1,360.24,23.48Z"/><path class="cls-10" d="M359,21.94a.33.33,0,0,1-.46-.06.34.34,0,0,1,0-.47.34.34,0,0,1,.47.06A.33.33,0,0,1,359,21.94Z"/><path class="cls-11" d="M358.27,20.91a1.55,1.55,0,0,0,.29.13,5.38,5.38,0,0,0,1.06.13,1.84,1.84,0,0,0-.14.87l.08.29a.44.44,0,0,0,.32.13,3.07,3.07,0,0,0,.8,0,4.83,4.83,0,0,0-.15.84l0,.21a.36.36,0,0,0,.24.28l.16.05a8.72,8.72,0,0,1,.88.08s-.1.53-.2.87v.24c0,.17.31.25.31.25.39,0,.74.08,1.12.1a3.47,3.47,0,0,0-.25,1.17l.14.27a.4.4,0,0,0,.32.14,2.37,2.37,0,0,0,1.05.12s-.05.54-.07,1a1,1,0,0,0,.07.29l.6-.49a7,7,0,0,0,.09-1.1l-.07-.25a.7.7,0,0,0-.37-.17l-.28,0a4.88,4.88,0,0,1-.76-.08,8.92,8.92,0,0,1,.23-1L363.7,25a.4.4,0,0,0-.18-.16l-.24-.06c-.48,0-.94-.12-.94-.12l.17-.79V23.6c-.05,0,0-.17-.24-.23l-.26-.06c-.3,0-.79-.09-.79-.09a5.79,5.79,0,0,0,.16-.83l-.1-.38a.39.39,0,0,0-.2-.13l-.26,0c-.35,0-.67,0-.67,0,0-.31.12-.44.17-.74l0-.17a.35.35,0,0,0-.25-.38l-.21,0a5,5,0,0,1-1-.06Z"/><path class="cls-9" d="M363.48,29.09a2.5,2.5,0,0,0-.17,1l0,.29c.09.13.39.18.39.18a6,6,0,0,0,.95,0,3.65,3.65,0,0,0-.23.87l0,.22a.35.35,0,0,0,.23.28l.16,0a8.63,8.63,0,0,1,.88,0,4.5,4.5,0,0,1-.15.86v.24a.35.35,0,0,0,.39.26l1,.1a3.92,3.92,0,0,0-.25,1.18,2,2,0,0,0,.12.26l.26.16a3.74,3.74,0,0,0,1.06,0A4.53,4.53,0,0,0,368,36l0,.15a.36.36,0,0,0,.2.36l.31.09a4.29,4.29,0,0,0,.88,0l.65-.46c-.14-.06-.23-.15-.38-.15l-.44-.08-.5-.06c0-.22.11-.33.14-.53a4.63,4.63,0,0,0,.06-.55l-.13-.21a.35.35,0,0,0-.26-.08l-.28,0-.82,0c.16-.34.18-.72.31-1.08l-.05-.31a.35.35,0,0,0-.18-.16l-.23-.08a8.28,8.28,0,0,1-.94-.14c.1-.37.12-.49.21-.86l-.08-.26a1.1,1.1,0,0,0-.26-.18l-.18,0c-.3,0-.78-.09-.78-.09a6.07,6.07,0,0,0,.16-.83l0-.33a.58.58,0,0,0-.26-.18l-.26,0H364l.12-.71,0-.23a.72.72,0,0,0,0-.39Z"/><path class="cls-10" d="M369.74,35.54a.34.34,0,0,1-.46-.09.32.32,0,0,1,.06-.46.35.35,0,0,1,.47.08A.33.33,0,0,1,369.74,35.54Z"/><path class="cls-10" d="M368.5,33.92a.33.33,0,0,1-.46-.08.31.31,0,0,1,0-.46.34.34,0,0,1,.46.08A.31.31,0,0,1,368.5,33.92Z"/><path class="cls-10" d="M367.29,32.36a.32.32,0,0,1-.46-.07.33.33,0,0,1,0-.47.35.35,0,0,1,.47.07A.34.34,0,0,1,367.29,32.36Z"/><path class="cls-10" d="M366.28,31a.33.33,0,0,1-.46-.07.34.34,0,0,1,.05-.47.33.33,0,0,1,.46.07A.34.34,0,0,1,366.28,31Z"/><path class="cls-10" d="M365,29.43a.34.34,0,1,1,0-.47A.33.33,0,0,1,365,29.43Z"/><path class="cls-11" d="M364.32,28.41a3.1,3.1,0,0,0,.29.12,5.79,5.79,0,0,0,1.06.14,1.76,1.76,0,0,0-.13.87l.08.29c.09.13.32.12.32.12a3.55,3.55,0,0,0,.8,0,4.51,4.51,0,0,0-.16.84l0,.22a.36.36,0,0,0,.23.29l.16,0a8.58,8.58,0,0,1,.87.1s-.1.53-.21.87v.23c.05.18.32.27.32.27.38,0,.73.09,1.12.13a3.31,3.31,0,0,0-.28,1.15l.13.28a.47.47,0,0,0,.33.14,2.43,2.43,0,0,0,1.06.16s-.08.55-.13,1a1,1,0,0,0,.05.29l.63-.45a7.12,7.12,0,0,0,.16-1.1l-.07-.26a.66.66,0,0,0-.37-.19l-.28,0a4.53,4.53,0,0,1-.77-.11,8.4,8.4,0,0,1,.25-1l-.06-.32a.35.35,0,0,0-.18-.16l-.23-.08c-.49-.05-.95-.14-.95-.14l.18-.8v-.26c-.05,0,0-.18-.23-.24l-.27-.07c-.29-.06-.79-.1-.79-.1a6.3,6.3,0,0,0,.18-.84l-.11-.39a.34.34,0,0,0-.2-.13l-.26,0-.67,0a2.59,2.59,0,0,1,.18-.74l0-.18a.35.35,0,0,0-.24-.37l-.21,0a4.41,4.41,0,0,1-1-.06Z"/><path class="cls-9" d="M369.36,36.64a2.34,2.34,0,0,0-.24,1v.29c.08.13.38.2.38.2a4.31,4.31,0,0,0,.95.09,3.43,3.43,0,0,0-.27.87l0,.23a.4.4,0,0,0,.23.3l.16.05c.34,0,.57,0,.91.06a6.66,6.66,0,0,1-.13.9v.24a.37.37,0,0,0,.42.28s.69.05,1.08.06a3.3,3.3,0,0,0-.08,1.27,1.93,1.93,0,0,0,.19.27l.31.14a3.09,3.09,0,0,0,1.09-.11,3.34,3.34,0,0,0,.06,1l0,.15c0,.16.18.27.37.33h.35a3.11,3.11,0,0,0,.88-.27l.41-.69a1.48,1.48,0,0,0-.42,0s-.45.08-.44.09l-.52.08c-.05-.22,0-.36-.05-.56a4,4,0,0,0-.09-.57l-.17-.18a.4.4,0,0,0-.28,0l-.26.08a8.06,8.06,0,0,1-.84.08c.09-.38.05-.77.15-1.15l-.09-.31a.45.45,0,0,0-.19-.15l-.24-.06a5.83,5.83,0,0,1-1-.11c.08-.39.1-.5.18-.88l-.08-.26a1.31,1.31,0,0,0-.27-.19l-.18,0L371,39a8.15,8.15,0,0,0,.2-.82l0-.34a.64.64,0,0,0-.25-.19l-.26-.06-.81-.06.16-.7,0-.23a.77.77,0,0,0,0-.4Z"/><path class="cls-10" d="M376,42.76a.31.31,0,0,1-.46.06.32.32,0,0,1-.09-.46.35.35,0,0,1,.46-.06A.34.34,0,0,1,376,42.76Z"/><path class="cls-10" d="M374.43,41.49a.33.33,0,0,1-.47,0,.32.32,0,0,1,0-.47.33.33,0,0,1,.46,0A.34.34,0,0,1,374.43,41.49Z"/><path class="cls-10" d="M373.08,40.05a.33.33,0,0,1-.47,0,.32.32,0,1,1,.47,0Z"/><path class="cls-10" d="M372.06,38.69a.33.33,0,0,1-.46-.08.32.32,0,0,1,.06-.46.32.32,0,0,1,.45.08A.33.33,0,0,1,372.06,38.69Z"/><path class="cls-10" d="M370.86,37.09a.32.32,0,0,1-.45-.1.33.33,0,0,1,.06-.46.34.34,0,0,1,.39.56Z"/><path class="cls-11" d="M370.24,36a1.77,1.77,0,0,0,.29.14,5.77,5.77,0,0,0,1,.21,1.75,1.75,0,0,0-.19.86l.06.29c.08.13.31.14.31.14a3,3,0,0,0,.79.06,3.69,3.69,0,0,0-.18.82v.22a.37.37,0,0,0,.23.28l.16,0c.32,0,.54.05.86.07,0,0-.1.52-.18.86v.24c.05.17.33.23.33.23.38,0,.72,0,1.1,0a2.66,2.66,0,0,0-.11,1.17l.17.25a.42.42,0,0,0,.35.06,1.88,1.88,0,0,0,1-.15,6.44,6.44,0,0,0,.2,1,.86.86,0,0,0,.15.24l.39-.66c-.07-.42-.1-.66-.18-1l-.11-.2a.56.56,0,0,0-.36,0l-.24.1a3.09,3.09,0,0,1-.73.11,5.29,5.29,0,0,1,.11-1l-.08-.28a.26.26,0,0,0-.18-.12l-.23,0a6,6,0,0,1-.91,0s.08-.41.16-.77v-.26s0-.16-.22-.2l-.25-.06c-.29,0-.78-.07-.78-.07a8,8,0,0,0,.2-.81l-.08-.37a.38.38,0,0,0-.19-.14l-.25,0a5.69,5.69,0,0,1-.66-.06,2.61,2.61,0,0,1,.22-.72l0-.17a.35.35,0,0,0-.22-.39l-.21,0a4.58,4.58,0,0,1-1-.13Z"/><polygon class="cls-12" points="363.46 3.75 364.23 4.74 363.23 5.52 363.46 3.75"/><polygon class="cls-12" points="364.23 4.74 365.01 5.73 364 6.52 364.23 4.74"/><polygon class="cls-13" points="364.46 2.96 364.23 4.74 366.01 4.95 364.46 2.96"/><polygon class="cls-12" points="365.01 5.73 365.79 6.73 364.78 7.51 365.01 5.73"/><polygon class="cls-12" points="365.79 6.73 366.56 7.72 365.56 8.51 365.79 6.73"/><polygon class="cls-13" points="366.01 4.95 365.79 6.73 367.57 6.94 366.01 4.95"/><polygon class="cls-12" points="366.56 7.72 367.34 8.71 366.33 9.5 366.56 7.72"/><polygon class="cls-12" points="367.34 8.71 368.11 9.71 367.11 10.49 367.34 8.71"/><polygon class="cls-13" points="367.57 6.94 367.34 8.71 369.12 8.92 367.57 6.94"/><polygon class="cls-12" points="368.11 9.71 368.89 10.7 367.88 11.49 368.11 9.71"/><polygon class="cls-12" points="368.89 10.7 369.67 11.7 368.66 12.48 368.89 10.7"/><polygon class="cls-13" points="369.12 8.92 368.89 10.7 370.67 10.91 369.12 8.92"/><polygon class="cls-12" points="369.67 11.7 370.44 12.69 369.44 13.47 369.67 11.7"/><polygon class="cls-12" points="370.44 12.69 371.22 13.68 370.21 14.47 370.44 12.69"/><polygon class="cls-13" points="370.67 10.91 370.44 12.69 372.22 12.9 370.67 10.91"/><polygon class="cls-12" points="371.22 13.68 371.99 14.68 370.99 15.46 371.22 13.68"/><polygon class="cls-12" points="371.99 14.68 372.77 15.67 371.76 16.46 371.99 14.68"/><polygon class="cls-13" points="372.22 12.9 371.99 14.68 373.77 14.89 372.22 12.9"/><polygon class="cls-12" points="372.77 15.67 373.55 16.66 372.54 17.45 372.77 15.67"/><polygon class="cls-12" points="373.55 16.66 374.32 17.66 373.32 18.44 373.55 16.66"/><polygon class="cls-13" points="373.77 14.89 373.55 16.66 375.33 16.87 373.77 14.89"/><polygon class="cls-12" points="374.32 17.66 375.1 18.65 374.09 19.44 374.32 17.66"/><polygon class="cls-12" points="375.1 18.65 375.87 19.65 374.87 20.43 375.1 18.65"/><polygon class="cls-13" points="375.33 16.87 375.1 18.65 376.88 18.86 375.33 16.87"/><polygon class="cls-12" points="375.87 19.65 376.65 20.64 375.64 21.43 375.87 19.65"/><polygon class="cls-12" points="376.65 20.64 377.43 21.63 376.42 22.42 376.65 20.64"/><polygon class="cls-13" points="376.88 18.86 376.65 20.64 378.43 20.85 376.88 18.86"/><polygon class="cls-12" points="377.43 21.63 378.2 22.63 377.2 23.41 377.43 21.63"/><polygon class="cls-12" points="378.2 22.63 378.98 23.62 377.97 24.41 378.2 22.63"/><polygon class="cls-13" points="378.43 20.85 378.2 22.63 379.98 22.84 378.43 20.85"/><polygon class="cls-12" points="378.98 23.62 379.75 24.61 378.75 25.4 378.98 23.62"/><polygon class="cls-12" points="379.75 24.61 380.53 25.61 379.52 26.39 379.75 24.61"/><polygon class="cls-13" points="379.98 22.84 379.75 24.61 381.54 24.82 379.98 22.84"/><polygon class="cls-12" points="380.53 25.61 381.31 26.6 380.3 27.39 380.53 25.61"/><polygon class="cls-12" points="381.31 26.6 382.08 27.6 381.08 28.38 381.31 26.6"/><polygon class="cls-13" points="381.54 24.82 381.31 26.6 383.09 26.81 381.54 24.82"/><polygon class="cls-12" points="382.08 27.6 382.86 28.59 381.85 29.38 382.08 27.6"/><polygon class="cls-12" points="382.86 28.59 383.63 29.58 382.63 30.37 382.86 28.59"/><polygon class="cls-13" points="383.09 26.81 382.86 28.59 384.64 28.8 383.09 26.81"/><polygon class="cls-12" points="383.63 29.58 384.41 30.58 383.4 31.36 383.63 29.58"/><polygon class="cls-12" points="384.41 30.58 385.19 31.57 384.18 32.36 384.41 30.58"/><polygon class="cls-13" points="384.64 28.8 384.41 30.58 386.19 30.79 384.64 28.8"/><polygon class="cls-12" points="385.19 31.57 385.96 32.56 384.96 33.35 385.19 31.57"/><polygon class="cls-12" points="385.96 32.56 386.74 33.56 385.73 34.34 385.96 32.56"/><polygon class="cls-13" points="386.19 30.79 385.96 32.56 387.74 32.77 386.19 30.79"/><path class="cls-14" d="M374.5,28.51a3.32,3.32,0,0,1-1.37-1.25,3.12,3.12,0,0,1-.7-1.72,1.84,1.84,0,0,1,1.82.94A1.86,1.86,0,0,1,374.5,28.51Z"/><path class="cls-15" d="M368.12,21.86a5,5,0,0,0,.73,1.29,4.89,4.89,0,0,0,1.1,1c.81.55,1.7.95,2.45,1.53l.14-.17c-.78-.61-1.67-1-2.46-1.55A4.72,4.72,0,0,1,369,23a5.12,5.12,0,0,1-.69-1.23Z"/><path class="cls-14" d="M370.81,27.51a2,2,0,0,0,.41-1.81,2.34,2.34,0,0,0-1.14-1.59,1.94,1.94,0,0,0-.2,1.93C370.18,26.92,370.58,27.44,370.81,27.51Z"/><path class="cls-16" d="M373.8,23.39c-.14.4-.86.74-1.75.93a2.21,2.21,0,0,1-1.95-.25A2.44,2.44,0,0,1,371.66,23,2.29,2.29,0,0,1,373.8,23.39Z"/><path class="cls-14" d="M371.36,21.87a2,2,0,0,1-1.54,1A1.38,1.38,0,0,1,368.3,22h0a3.44,3.44,0,0,1,1.85-.21c.37,0,.61,0,.8,0A.51.51,0,0,1,371.36,21.87Z"/><path class="cls-16" d="M368.41,26c.34-.26.43-1.05.3-2a5.42,5.42,0,0,0-.45-2.06h0a1.7,1.7,0,0,0-1.12,1.64,2.78,2.78,0,0,0,.43,1.57A2.37,2.37,0,0,0,368.41,26Z"/><path class="cls-15" d="M365.22,17.18a6.71,6.71,0,0,1,1.91,2.1c.44.85.66,1.8,1,2.7l.21-.09c-.38-.87-.59-1.83-1.05-2.71a6.72,6.72,0,0,0-2-2.17Z"/><path class="cls-14" d="M365.83,22.69c.41-.05.95-.64,1.33-1.44a2,2,0,0,0,.09-1.93,2.81,2.81,0,0,0-1.31,1.36A2.11,2.11,0,0,0,365.83,22.69Z"/><path class="cls-16" d="M370.56,20.8a2,2,0,0,1-1.88-.07,2.72,2.72,0,0,1-1.39-1.43,1.81,1.81,0,0,1,1.95.12A2.63,2.63,0,0,1,370.56,20.8Z"/><path class="cls-14" d="M369.37,17.84c-.28.33-1.1.28-2,.1a3.55,3.55,0,0,1-1.91-.77h0a1.87,1.87,0,0,1,1.8-.76A2.66,2.66,0,0,1,369.37,17.84Z"/><path class="cls-16" d="M364.94,20.35a2,2,0,0,0,1.13-1.42,1.69,1.69,0,0,0-.67-1.73h0a2.67,2.67,0,0,0-.58,1.8C364.79,19.82,364.77,20.23,364.94,20.35Z"/><path class="cls-15" d="M361.26,13.16A5.72,5.72,0,0,0,363,15.5c.74.64,1.56,1.16,2.31,1.76l.14-.18c-.76-.6-1.57-1.13-2.3-1.75a5.44,5.44,0,0,1-1.69-2.25Z"/><path class="cls-14" d="M363.67,19.06a2.09,2.09,0,0,0,.44-1.85,2.47,2.47,0,0,0-1-1.72,2,2,0,0,0-.42,1.89A2.5,2.5,0,0,0,363.67,19.06Z"/><path class="cls-16" d="M366.79,15a2.33,2.33,0,0,1-1.73.89,2.13,2.13,0,0,1-1.89-.46,2.45,2.45,0,0,1,1.68-.9A2.24,2.24,0,0,1,366.79,15Z"/><path class="cls-14" d="M364.65,13.41a2.12,2.12,0,0,1-1.67.81,1.49,1.49,0,0,1-1.54-1h0a3.73,3.73,0,0,1,1.85-.22C364,13,364.47,13.13,364.65,13.41Z"/><path class="cls-16" d="M361.28,17.23c.36-.23.56-1,.52-1.93a4.39,4.39,0,0,0-.4-2h0a1.62,1.62,0,0,0-1.11,1.63A2.79,2.79,0,0,0,361.28,17.23Z"/><path class="cls-15" d="M358.44,8.68a2.93,2.93,0,0,1,1.95,1.85c.38.87.54,1.84.92,2.75l.21-.08c-.37-.88-.53-1.85-.92-2.76a3.2,3.2,0,0,0-2.11-2Z"/><path class="cls-14" d="M359,14c.42,0,1-.64,1.36-1.44a2,2,0,0,0,.2-1.93,2.72,2.72,0,0,0-1.4,1.27A2.22,2.22,0,0,0,359,14Z"/><path class="cls-16" d="M363.72,12.14a2,2,0,0,1-1.87-.09,2.55,2.55,0,0,1-1.3-1.49,1.84,1.84,0,0,1,1.94.24A2.67,2.67,0,0,1,363.72,12.14Z"/><path class="cls-14" d="M362.72,9.25c-.31.3-1.1.21-2.05-.06s-1.69-.43-2.06-.61h0a1,1,0,0,1,.37-.71,1.78,1.78,0,0,1,1.38-.36A2.93,2.93,0,0,1,362.72,9.25Z"/><path class="cls-16" d="M358.13,11.45a2,2,0,0,0,1.24-1.32,1.36,1.36,0,0,0-.12-1.06.82.82,0,0,0-.65-.45h0c-.19.35-.06,1.15-.31,1.76S358,11.28,358.13,11.45Z"/></g><polygon class="cls-1" points="366.65 -0.35 365.39 3.13 387.57 32.01 404.06 24.48 429.56 7.9 429.56 -0.35 366.65 -0.35"/><path class="cls-17" d="M377.76,32.58c.08-.38.26-.59.19-1a2.33,2.33,0,0,0-.43-1,1.7,1.7,0,0,0-2-.79.47.47,0,0,0-.2.49,1,1,0,0,0,.13.34c.11.16.12.17.05,0l.08.18a3.47,3.47,0,0,0,.65.73l.61.58c.21.19.53.29.71.49a.12.12,0,0,0,.2-.05Z"/><path class="cls-17" d="M378,33.28a6.22,6.22,0,0,1,.1.77c.08.28.2.55.29.83a2.61,2.61,0,0,0,.86,1.44.44.44,0,0,0,.52-.07c.59-.49.4-1.49.07-2.07a2.38,2.38,0,0,0-.72-.82,2.43,2.43,0,0,0-1-.26.12.12,0,0,0-.13.18Z"/><path class="cls-17" d="M378.16,32.67c.33.1.53.29.89.27a2.35,2.35,0,0,0,1.12-.36c.57-.35,1.25-1.12,1-1.85a.45.45,0,0,0-.41-.32,2.63,2.63,0,0,0-1.47.85c-.22.2-.45.37-.65.58s-.28.47-.47.61a.12.12,0,0,0,0,.22Z"/><path class="cls-17" d="M377.45,33.05c-.24.15-.55.14-.81.27l-.72.38a2.6,2.6,0,0,0-1.27,1,.45.45,0,0,0,.07.52,1.69,1.69,0,0,0,2.12-.22,2.31,2.31,0,0,0,.68-.81c.19-.39.08-.65.11-1a.13.13,0,0,0-.18-.11Z"/></g><g id="MANO_GALÁPAGOS" data-name="MANO GALÁPAGOS"><g class="cls-3"><path d="M241,115.13,212,112.73c-2.24-.36-3.91-2-1.2-6.63a9,9,0,0,0,2.11.24,7.81,7.81,0,0,0,2.29-.34,6.66,6.66,0,0,0,.67-.26A4.64,4.64,0,0,0,217,105a3.8,3.8,0,0,0,.42-.48,3.2,3.2,0,0,0,.64-1.88,4,4,0,0,0,0-.76c-1.26-1.14-2.54-2.35-4-4-.45-.49-.91-1-1.4-1.58-.33-.37-.66-.77-1-1.19-3-3.57-6.79-8.76-12.44-17.12l-.72-.61-.28-.23-.5-.4-.41-.32-.41-.33-.49-.37-.38-.29-.55-.41-.37-.27-.6-.43-.35-.25-.64-.45-.35-.25-.66-.45-.28-.19c-4.28-2.9-9.86-8.5-15.05-13.52s-10-9.44-12.7-10l-7.23-1.95-.17,0-4.17-.7a10.46,10.46,0,0,1-4.83-2.2l-12.2-9.94,10.48-4.51a6.08,6.08,0,0,0,1.95-1.42,9.15,9.15,0,0,0,1.9-3.38L148.66,21,125-1.24H64.42l54,75.63,2.44-1.86,3.75,5,2.7-2c4,5.71,7.37,11.5,8,15.14.72,9.68,13.14,27.57,24,40.19l-.69,8.34c-.38,2.32-2.08,4-7.15.91h0A9.78,9.78,0,1,0,150,157.39h0c5.51-2.26,6.87.08,6.89,2.13l-2.39,28.86a1.65,1.65,0,0,0,1.36,1.76.85.85,0,0,1,.16,0l28.77,2.38a2.7,2.7,0,0,0,1.39-.33,1.85,1.85,0,0,0,.85-1.58,8.7,8.7,0,0,0-.84-3.83l-.52-1.25h.1a10.3,10.3,0,0,1-.33-3.75,10.62,10.62,0,0,1,21.16,1.85,10.38,10.38,0,0,1-.94,3.55h.09l-.7,1.15a9.35,9.35,0,0,0-1.57,3.82c0,.48-.14,1.72,1.86,2.06l28.92,2.39.15,0a1.66,1.66,0,0,0,1.63-1.51l2.37-28.71a2.7,2.7,0,0,0-.32-1.39,1.9,1.9,0,0,0-1.58-.86,8.9,8.9,0,0,0-3.84.85l-1.25.51v-.09a10.49,10.49,0,0,1-3.66.34,10.66,10.66,0,0,1-4.32-1.33l.18-.09c3.67-2.16,4.78-5-4.18-14.44h0a10.69,10.69,0,0,1,4.36-4.15c3.51,3.15,6.11,3.18,7.32,2.4a4.71,4.71,0,0,0,2.25-2.52l.85.53a9.5,9.5,0,0,0,3.82,1.56c.49,0,1.73.14,2.06-1.86l2.4-28.91v-.06A1.64,1.64,0,0,0,241,115.13ZM194.09,96c-1.68-2.06-3.44-4.21-5.25-6.34a37.6,37.6,0,0,0,7,4A9.4,9.4,0,0,0,194.09,96Z"/></g><polyline class="cls-18" points="97.63 55.12 95.17 44.78 124.63 25.12 133.33 31.76"/><path class="cls-19" d="M175.94,89.27a9.79,9.79,0,0,0,.71,4.52h0c2.26,5.51-.08,6.87-2.14,6.89l-28.87-2.39a1.64,1.64,0,0,0-1.78,1.51l-2.4,28.94c-.37,2.32-2.07,4-7.14.91h0a9.68,9.68,0,0,0-4.34-1.44,9.79,9.79,0,1,0,2.9,18.81h0c5.51-2.26,6.88.08,6.89,2.14L137.38,178a1.64,1.64,0,0,0,1.35,1.76.85.85,0,0,1,.16,0l28.77,2.38a2.67,2.67,0,0,0,1.39-.33,1.84,1.84,0,0,0,.86-1.58,8.81,8.81,0,0,0-.85-3.84l-.51-1.25h.09a10.46,10.46,0,0,1-.33-3.66,10.62,10.62,0,1,1,20.23,5.31h.09l-.71,1.15a9.39,9.39,0,0,0-1.56,3.83c-.05.48-.14,1.72,1.86,2.06l28.91,2.39a.76.76,0,0,1,.16,0,1.66,1.66,0,0,0,1.63-1.51l2.37-28.71a2.77,2.77,0,0,0-.32-1.39,1.87,1.87,0,0,0-1.59-.86,8.74,8.74,0,0,0-3.83.85l-1.25.51v-.1a10.26,10.26,0,0,1-3.66.34A10.62,10.62,0,1,1,216,135.2v-.09l1.15.71a9.5,9.5,0,0,0,3.82,1.56c.49,0,1.73.14,2.06-1.86l2.39-28.91v-.06a1.66,1.66,0,0,0-1.52-1.79l-28.94-2.39c-2.32-.38-4-2.08-.9-7.15h0a9.68,9.68,0,0,0,1.44-4.34,9.79,9.79,0,0,0-19.52-1.61Z"/><path class="cls-20" d="M217.21,185.27l-28.91-2.39c-1-.17-1-.55-1-1a8.32,8.32,0,0,1,1.42-3.38l1.56-2.54-.37,0a11.34,11.34,0,0,0,.51-2.58,11.63,11.63,0,0,0-10.62-12.54c-.33,0-.65,0-1,0a11.68,11.68,0,0,0-11.57,10.66,11.53,11.53,0,0,0,.08,2.63l-.29,0,.53,1.5.51,1.25a8,8,0,0,1,.78,3.38c-.06.61-.27.74-.38.8a1.74,1.74,0,0,1-.88.19l-28.73-2.38h-.1a.66.66,0,0,1-.46-.67l2.39-28.87c0-2-1.09-4.14-4.07-4.14a9.56,9.56,0,0,0-2.82.49v-.06l-1.38.56a8.71,8.71,0,0,1-3.33.66l-.72,0a8.79,8.79,0,0,1-8-9.49,8.84,8.84,0,0,1,8.75-8.07l.74,0a8.65,8.65,0,0,1,3.89,1.3l1.53.94v-.1a8,8,0,0,0,3.51,1c1.94,0,3.26-1.26,3.62-3.45l2.4-29a.67.67,0,0,1,.66-.61l28.92,2.39A3.94,3.94,0,0,0,177.9,100c.81-1.21.87-2.94.19-5.16h.08l-.6-1.47a8.7,8.7,0,0,1-.63-4.06,8.84,8.84,0,0,1,8.75-8.07c.24,0,.49,0,.73,0a8.8,8.8,0,0,1,8,9.49,8.67,8.67,0,0,1-1.29,3.9l-.87,1.4h.08c-1.1,2.16-1.34,3.85-.74,5.16a3.78,3.78,0,0,0,3.13,2.08l29,2.41a.65.65,0,0,1,.6.7l-2.4,29c-.16,1-.54,1-.76,1H221a8.29,8.29,0,0,1-3.38-1.43l-2.54-1.55,0,.37a11.24,11.24,0,0,0-2.58-.51c-.32,0-.64,0-1,0a11.69,11.69,0,0,0-11.58,10.66,11.63,11.63,0,0,0,10.63,12.54c.32,0,.64,0,1,0a11.62,11.62,0,0,0,1.67-.12l0,.29,1.51-.53,1.25-.51a8.79,8.79,0,0,1,3.12-.79h.25c.62.06.75.28.81.38a1.87,1.87,0,0,1,.18.88l-2.37,28.62a.65.65,0,0,1-.57.59Z"/><path class="cls-21" d="M127.84,29.24,99.15,51.32c5,5.28,12.58,15,16.53,22.42a22.66,22.66,0,0,1,2.51,6.46c.8,10.88,16.39,32.13,27.86,44.62h0c2.62,3,5,5.45,7.51,8.63,3.7,4.62,5.79,5.62,9.16,10.3s6.89,4.52,8.1,3.79c2.48-1.49,3.32-3.28-2.07-8.86-2.62-2.7-6.28-8.24-8.59-11.15-3.73-4.68-7-8-5.5-8.63,1.58.58,5,4.63,11.51,13,5.36,6.86,10.11,12.12,15.06,19s8.69,7.75,10.13,6.92c2.94-1.69,3.76-4-3.91-12.43-3.72-4.08-11.11-15.8-14.47-20.12-4.45-5.71-8-10.17-9.1-12.73.65-1.7,5.55,2.49,14.12,13.35,6,7.63,11.23,13,16.76,20.68s10,8.44,11.74,7.4c3.64-2.14,4.77-4.9-3.92-14.18-4.21-4.5-12.21-17.18-16-22-6.08-7.74-11.77-14.38-9.38-15.09,1.54.64,4.23,3.41,10.75,11,5.5,6.46,10.38,11.46,15.44,18s9,7,10.6,6c3.21-2.05,4.17-4.54-3.74-12.33-3.83-3.78-11.33-15.11-14.77-19.17-5.56-6.55-10.71-11.45-11.69-12.55-3.54-4-7.93-9.69-12.63-15.17,1.59-2.38,3.39,2.92,8.07,4.86,2.24.93,1.77,6.53,12.49,11.61,4.18,2,10.92-.52,10.32-4.8-4-3.63-10.91-10.49-20-22.61-5.23-4.55-6.52-7.41-15.83-14.25-3.2-2.35-12.32-3.24-14.49-3.68C141,47.52,131.36,35.66,127.84,29.24Z"/></g><g id="MANO_COSTA" data-name="MANO COSTA"><g class="cls-3"><path d="M259.84,286.25a2.85,2.85,0,0,0-.45-1.36,1.89,1.89,0,0,0-1.66-.7,8.75,8.75,0,0,0-3.74,1.19l-1.2.63v-.1a10.27,10.27,0,0,1-3.61.67A10.62,10.62,0,1,1,252.61,266v-.08l1.21.59a9.42,9.42,0,0,0,3.95,1.21c.49,0,1.73,0,1.88-2l-.27-29v-.06a1.66,1.66,0,0,0-1.67-1.64l-29,.27c-2.34-.16-4.21-1.7-1.55-7h0a9.79,9.79,0,1,0-17.43.16h0c2.75,5.28.55,6.85-1.5,7.06l-29,.26a1.65,1.65,0,0,0-1.64,1.67l.26,29c-.16,2.35-1.7,4.21-7,1.56h0a9.61,9.61,0,0,0-4.28-1,6.55,6.55,0,0,0,5.25-3.27c1.71-3.21,1.25-4.53-2.7-6.43l-12.7-8.27a9.24,9.24,0,0,0-2-.68,4.46,4.46,0,0,0-1.65-.24,8.41,8.41,0,0,0-2.08.14c-11,1-28.75,2.36-28.75,2.36a5.91,5.91,0,0,0-3.15,1.72l0,0c-12.08,9.24-25.67,21.55-25.67,21.55a5.51,5.51,0,0,0-1.39,3.36l-11.43,46.8a20.17,20.17,0,0,0-1,6.17h0a60.56,60.56,0,0,1-1.88,10.32l-2.24-1.35-4.89,8.12-5.89,2-33.9,51.08H95.85l10.29-23.86.64-7,5-8.28-2.26-1.36c2.53-3.82,5.66-8.21,9.52-13.14,8.92-4.34,16-10.66,22.17-16.05,2.35-2.06,10.7-10.47,17.18-15.63L167.7,300c1.21-2.41,7-6.74,4.82-10.57-1.1-1.91-3.36-2.84-5.82-3a9.72,9.72,0,0,0,4.26-1.1h0c5.28-2.75,6.86-.55,7.06,1.5l.27,29a1.65,1.65,0,0,0,1.51,1.63l.16,0,28.86-.27a2.74,2.74,0,0,0,1.36-.45,1.86,1.86,0,0,0,.71-1.65,8.75,8.75,0,0,0-1.2-3.74l-.62-1.2h.09a10.62,10.62,0,1,1,20-.18h.08l-.59,1.2a9.55,9.55,0,0,0-1.22,3.95c0,.49,0,1.73,2,1.88l29-.26h.16a1.64,1.64,0,0,0,1.48-1.65ZM161.53,266a9.44,9.44,0,0,0,3.8.93,9.78,9.78,0,0,0-6.39,3.44l-2.75-6.94Zm-1.95,22c-6.29,3.69-9.52,12.23-12.82,14.35-10.63,1.13-17.06,1.92-20.82,2.43a8,8,0,0,1-.79-.55,16.91,16.91,0,0,1-4.48-16.67A41.79,41.79,0,0,0,127.1,282,49.84,49.84,0,0,0,139,283.89l2.54,5.51c1.2,2.62,4,4,6.18,3.09,1.31-.54,1.95-1.07,2-1.95h0v-.09c0-.06,0-.12,0-.19a3,3,0,0,0,0-.39c0-.08,0-.15-.05-.23s-.09-.32-.15-.49,0-.15-.08-.23c-.1-.25-.21-.52-.35-.82l-.06-.22a5.74,5.74,0,0,0,5.72,1.11c1.69-.7,2.51-1.38,2.59-2.51h0v-.06a2.64,2.64,0,0,0,0-.55.17.17,0,0,0,0-.07,5,5,0,0,0-.13-.6l0-.11c-.07-.23-.15-.47-.25-.73a1.11,1.11,0,0,0-.07-.16c-.1-.27-.22-.54-.35-.83a5.8,5.8,0,0,0,2.78-.15,9.72,9.72,0,0,0,6.37,3.19A12.71,12.71,0,0,0,159.58,288Z"/></g><path class="cls-22" d="M86.49,352.78a.6.6,0,0,0,0-1.19.6.6,0,0,0,0,1.19Z"/><path class="cls-22" d="M87.35,351.42a.6.6,0,0,0,0-1.19.6.6,0,0,0,0,1.19Z"/><path class="cls-22" d="M87.79,353.54a.6.6,0,0,0,0-1.19.6.6,0,0,0,0,1.19Z"/><path class="cls-22" d="M88.6,352.2a.6.6,0,0,0,0-1.19.6.6,0,0,0,0,1.19Z"/><circle class="cls-23" cx="87.52" cy="351.87" r="2.95"/><path class="cls-24" d="M132.63,277.77l-3-9.52a5.61,5.61,0,0,0-4.39-3.35C121,263.75,115,262.1,111.12,261a5.6,5.6,0,0,0-3.6-1l-.48-.14a4,4,0,0,0-3.22.92c-8.59,5-18.29,11.75-18.29,11.75-2.34,1.87-1.35,7.14.52,9.47s8.12,10.53,10.45,8.67c0,0,2.74-9.21,6.3-12.81,1.78-.43,5.1-3.37,7.91-6.17a49.92,49.92,0,0,0,11.87,1.86l2.54,5.51c1.2,2.62,4,4,6.19,3.09S133.84,280.39,132.63,277.77Z"/><path class="cls-25" d="M133.32,280.21a5.45,5.45,0,0,0-.69-2.44l-3-9.52a5.61,5.61,0,0,0-4.39-3.35C121,263.75,115,262.1,111.12,261a5.6,5.6,0,0,0-3.6-1l-.48-.14a4,4,0,0,0-3.22.92c-8.59,5-18.29,11.75-18.29,11.75-2.34,1.87-1.35,7.14.52,9.47s8.12,10.53,10.45,8.67a58.84,58.84,0,0,1,2.67-7,22.77,22.77,0,0,1,3.32-6.16c1.93-.62,5.36-4.15,8.22-7.47A54.92,54.92,0,0,0,124,271.11l3.26,5.87A5.91,5.91,0,0,0,133.32,280.21Z"/><path class="cls-24" d="M140,273l-3.81-12.23a7.2,7.2,0,0,0-5.64-4.3c-5.55-1.48-13.16-3.59-18.19-5a7.16,7.16,0,0,0-4.63-1.29l-.61-.18A5.18,5.18,0,0,0,103,251.2c-11,6.42-23.5,15.1-23.5,15.1-3,2.4-1.73,9.16.67,12.16S90.58,292,93.58,289.6c0,0,3.52-11.83,8.09-16.45,2.29-.55,6.56-4.34,10.17-7.93a63.85,63.85,0,0,0,15.24,2.39l3.26,7.08c1.55,3.36,5.11,5.14,7.95,4S141.55,276.38,140,273Z"/><path class="cls-25" d="M140.88,276.15A7,7,0,0,0,140,273l-3.81-12.23a7.2,7.2,0,0,0-5.64-4.3c-5.55-1.48-13.16-3.59-18.19-5a7.16,7.16,0,0,0-4.63-1.29l-.61-.18A5.18,5.18,0,0,0,103,251.2c-11,6.42-23.5,15.1-23.5,15.1-3,2.4-1.73,9.16.67,12.16S90.58,292,93.58,289.6a77,77,0,0,1,3.43-9,29,29,0,0,1,4.27-7.91c2.48-.8,6.87-5.33,10.56-9.59a70.4,70.4,0,0,0,17,1.38L133,272C134.75,275.11,138.06,276.77,140.88,276.15Z"/><path class="cls-24" d="M145,266.21,139.78,253a7.93,7.93,0,0,0-6.57-4.27c-6.24-1.18-14.82-2.88-20.47-4a8,8,0,0,0-5.21-1l-.69-.14a5.75,5.75,0,0,0-4.48,1.64c-11.63,8-24.66,18.6-24.66,18.6-3.1,2.89-1.14,10.24,1.75,13.35s12.62,14.06,15.73,11.17c0,0,2.9-13.33,7.56-18.8,2.47-.8,6.87-5.33,10.55-9.6a70.49,70.49,0,0,0,17,1.38l4.19,7.54c2,3.58,6,5.25,9.09,3.72S147,269.79,145,266.21Z"/><path class="cls-25" d="M104.4,276.79A17.06,17.06,0,0,0,111.31,296c-10.91-4.46-16.23-19.28-13.92-27.65S104.4,276.79,104.4,276.79Z"/><path class="cls-26" d="M155.39,253.28c-1.71,3.21-6.3,4.28-10.25,2.38l-11.34-5.45c-4-1.89-5.77-6-4.07-9.25h0c1.71-3.22,6.3-4.29,10.25-2.39l12.7,8.28c3.95,1.89,4.41,3.21,2.71,6.43Z"/><path class="cls-26" d="M140.38,242.61a7.69,7.69,0,0,1-5.1,8.84c-12.6,4.47-26.91,4-26.91,4-3.59.66-7.14-2.22-7.91-6.43h0c-.78-4.22,1.5-8.17,5.1-8.84,0,0,18.89-1.46,29.73-2.45,3.64-.33,4.32.7,5.09,4.91Z"/><path class="cls-26" d="M113.82,241.68c3.26,3.16,8.62,4.26,6.14,8.07-2.78,4.27-11.93,16.77-16.18,18.4-4.66,6.11-7,20.52-7,20.52-3.16,3.27-14.18-7.88-17.44-11h0c-3.27-3.16-5.79-10.91-2.63-14.18,0,0,13.59-12.31,25.67-21.55,1-.8,8.18-3.38,11.45-.22Z"/><path class="cls-26" d="M90.89,262.66c5.26,1.65,10.1,1.74,9.75,6.06-1.15,14.51,5.56,25.58,11.25,26.68,8.78,1.7-22.67,33.61-32.55,36.11h0c-11.68,2.95-19.25-5.73-15.46-17.89l11.76-48.18c1.51-4.91,7.36-3.3,11.28-4.3Z"/><path class="cls-26" d="M102.64,336.3c8.92-4.35,16-10.67,22.17-16.06,2.35-2.06,10.7-10.48,17.18-15.63l9.33-14.91c1.2-2.4,7-6.74,4.81-10.57s-9.13-3.73-12.94-1.5c-6.29,3.69-9.52,12.23-12.82,14.35-21.24,2.26-25.7,3.18-25.7,3.18-4.58,2.15-38.5,27.54-35.14,33.37S98.09,338.52,102.64,336.3Z"/><path class="cls-26" d="M111.07,318.81c-9.06,20.11-32.55,20.5-42.65,12S65.66,308.85,71,290.63c3-10.1,10.44,11.43,31.22-4.62,4.89,9,3.82,10.43,17.44,8.82C119.67,294.83,118.57,302.19,111.07,318.81Z"/><path class="cls-26" d="M62.89,319.79c-1.59,15-50.51,77-53.44,80.47l52.39-.09s25.85-44.78,40.8-63.87A125.31,125.31,0,0,0,62.89,319.79Z"/><path class="cls-2" d="M48.57,334c.64,1.67,4.81,2.74,3.74,4.17,1.91.57,4.68,1.07,6.59,1.64a1.9,1.9,0,0,1,1.22.75c.25.46.09,1,.16,1.52.19,1.42,2,2,3.41,2s3.08-.19,4.1.81c.77.76.92,2,1.62,2.77,2.15,2.46,7.1-.5,9.18,2,.77.94.78,2.32,1.5,3.3,1.26,1.71,3.93,1.42,5.71,2.58,1,.62,1.6,1.64,2.57,2.24,1.3.8,2.86,2.29,4,1.33.59-.49,1.83-1.5,2-2.24a5.1,5.1,0,0,1,3-3.55c.94-.36-.84-3.55,1.56-3.54,1,0,.18-2-.28-2.91a6.11,6.11,0,0,0-5.35-2.9c-2-.06-4.34.4-5.75-1a18.17,18.17,0,0,1-1.53-2.52c-1.63-2.35-5.18-2.47-7.18-4.51A19.75,19.75,0,0,0,77,333.68c-2.57-1.95-6.59-1.54-9.44-3.51-2-1.4-3.4-3.33-5.68-4.38-1.44-.66-3.65-2.28-5.24-2-2.77.44-1.43,1.83-2.68,3.49C52.8,328.73,47.81,332,48.57,334Z"/><g class="cls-27"><path class="cls-2" d="M65.79,301.74l.64,2.77a6,6,0,0,0,10.88,1.43,6.41,6.41,0,0,0,.6-4.59l-.64-2.77A5.95,5.95,0,0,0,70,294.42a6,6,0,0,0-3.56,2.73,6.43,6.43,0,0,0-.6,4.59Z"/><path class="cls-2" d="M53,298.81l.61,2.62a6,6,0,0,0,10.88,1.43,6.37,6.37,0,0,0,.6-4.59l-.61-2.62a6,6,0,0,0-7.33-4.16,6,6,0,0,0-3.55,2.73,6.37,6.37,0,0,0-.6,4.59Z"/><path class="cls-2" d="M53.17,327.84l2.28,3.42A6.38,6.38,0,0,0,59,334a6.1,6.1,0,0,0,4.58-.6,6,6,0,0,0,2.14-8.15l-2.28-3.42a6.32,6.32,0,0,0-3.56-2.73,5.95,5.95,0,0,0-6.72,8.74Z"/><path class="cls-28" d="M57.11,330.79a3.89,3.89,0,0,1,.47-.09l-1.58.21a5.9,5.9,0,0,1,.94,0l-1.58-.21a4.79,4.79,0,0,1,.92.24l-1.42-.6a5.79,5.79,0,0,1,1,.58L54.68,330a5.3,5.3,0,0,1,.67.67l-.93-1.2a2.94,2.94,0,0,1,.26.39c1.64,2.65,5.4,3.91,8.15,2.14A6.05,6.05,0,0,0,65,323.86a10.13,10.13,0,0,0-11-4.55,6,6,0,0,0-4.16,7.32,6.09,6.09,0,0,0,7.32,4.16Z"/><path class="cls-28" d="M58.41,339.27c.27,1.93.76,3.94,2.46,5.12a4.89,4.89,0,0,0,2.4.82c.74.08,2.24-.15,2.71.59,1,1.61,3.6.12,2.57-1.5a4.56,4.56,0,0,0-3.88-2c-1-.07-1.87,0-2.54-.8a6.37,6.37,0,0,1-.85-3c-.26-1.89-3.13-1.08-2.87.79Z"/><path class="cls-28" d="M61.38,337.75c2.59-3,8.75.48,12.09.73,2.24.17,4.37-.56,6.66.16s5.5,2.21,6.78,4.56c.91,1.68,3.48.18,2.57-1.5-2.44-4.5-8.89-6.7-13.7-6.6-3.64.07-6.74-1-10.33-1.28-2.37-.17-4.57-.05-6.18,1.82-1.24,1.45.86,3.56,2.11,2.11Z"/><path class="cls-28" d="M72.19,340.9c6.56.59,4.85,7.57,6.82,11.62,1.11,2.29,2.64,2.72,4.88,3.58a29.17,29.17,0,0,1,5.26,2.66A9.42,9.42,0,0,0,91.4,360a4.41,4.41,0,0,0,4.86-1.27c1.28-1.42-.82-3.53-2.11-2.1-1.75,1.95-5.1-2.05-6.79-2.78-2.24-1-4.62-1.29-6-3.75-.71-1.26-.51-3.45-.93-4.86-1.2-4.1-3.89-7-8.23-7.36-1.91-.17-1.89,2.81,0,3Z"/><path class="cls-28" d="M92.61,345.68a5.16,5.16,0,0,1,3.29,8c-1,1.63,1.55,3.12,2.57,1.51a8.16,8.16,0,0,0-5.07-12.42c-1.86-.44-2.66,2.43-.79,2.87Z"/><path class="cls-28" d="M60.7,336.5c-2-3.33-5.63-8-10.2-6.42a3.48,3.48,0,0,0-2.18,4.32c.75,2.63,3.57,3,5,4.93,1.11,1.53,3.69.05,2.57-1.51a8.62,8.62,0,0,0-2.4-2.22c-.69-.46-3.92-2.7-1.18-2.8s4.63,3.26,5.82,5.21c1,1.63,3.57.13,2.57-1.51Z"/><path class="cls-28" d="M65.06,330.6c-.28,3-.17,6.94,1.76,9.51a4.74,4.74,0,0,0,1.59,1.37c.7.38,1.55.29,2.22.66,1,0,1.49.58,1.37,1.75,1,1.94.28,3.59-2.1,4.93-1.79.64-1,3.52.79,2.87,3.94-1.42,5.6-5.29,4.17-9.26a5.58,5.58,0,0,0-2.62-3.27c-1.9-1.14-1.27,1.61-3.62-2-1.11-1.7-.76-4.61-.58-6.54s-2.8-1.9-3,0Z"/><path class="cls-28" d="M63.18,328.26c-.58,5.29,6.47,5.16,9.93,5.43,1.91.15,1.9-2.83,0-3s-7.26.28-7-2.45c.21-1.9-2.77-1.89-3,0Z"/><path class="cls-28" d="M84,343c2.42,3.06-1,6.11.95,8.94.73,1.09,2.1,1.5,3.05,2.33a9.27,9.27,0,0,1,2.88,4.94c.46,1.86,3.33,1.07,2.87-.79a12.4,12.4,0,0,0-2.11-4.59c-.91-1.19-2.55-1.88-3.36-3-1.22-1.68,0-3.74-.2-5.63a8.18,8.18,0,0,0-2-4.32c-1.19-1.5-3.28.62-2.1,2.11Z"/><path class="cls-29" d="M56.36,332.63c1.31.06,5.34,3.33,6.33,4.14,1.38,1.14,2,1.12,3.73,1.73,2.17.78,2.87,2.3,5,3.05a10.77,10.77,0,0,1,2.22,1c1,.55.91.92,2,1.2,1.62.41,2.14,0,3.9.92.59.32,1.76,1.3,2.33,1.71,1.07.76,2.1,1.58,3.24,2.42a40.73,40.73,0,0,0,4.63,2.65c2.14,1.18,3.34,2.87,5.8,3.06,1.92.14,1.91-2.84,0-3A24.07,24.07,0,0,0,93,349c-.76-.47-1.9-.59-2.74-1-1.49-.78-3-2-4.24-2.83-1.68-1.11-3.33-2.36-5.12-3.38s-3.63-1-5.14-1.91c-.49-.3-.9-.88-1.44-1.19-1-.56-2.25,0-3.35-.59-.63-.35-1-1.6-1.89-2.06a14.73,14.73,0,0,0-1.68-.42c-2-.79-2.32-1.71-3.83-2.94a6,6,0,0,0-1.55-.38,13.44,13.44,0,0,1-3.37-2.13,5.44,5.44,0,0,0-2.31-.5c-1.91-.1-1.91,2.88,0,3Z"/><path class="cls-29" d="M56.58,329.52c-.92-.4-1.46-1.35-2.44-1.75-.35-.14-2.71-.51-2.74-.75-.22-1.88-3.2-1.9-3,0a3.55,3.55,0,0,0,2.79,3.09,7,7,0,0,1,2.05.53c.67.44,1,1.12,1.81,1.45a1.54,1.54,0,0,0,2-.53,1.5,1.5,0,0,0-.54-2Z"/><path class="cls-30" d="M50.13,328.8c.27,1.9,1.17,2.55,2.89,3a10.73,10.73,0,0,1,2.43.53c.36.21.58,1.15,1,1.48.95.77,1.7.18,2.6.7l1.18.26a14.61,14.61,0,0,0,.14,1.47,3.59,3.59,0,0,0,2.86,1.86,14.66,14.66,0,0,1,3,.55c1,.46,1.34,1.15,2.52,1.57,0,0,3.73.24,3.19-.16.14.1.15,1.7.35,2,.77,1.29,11.19,4.43,11.19,4.41a1.49,1.49,0,0,0,1.1,1.43c3,.8,3.49,1.88,5.43,3.71a5,5,0,0,0,3.57,1.26l-1.49-1.49a3.18,3.18,0,0,0,.75,2.33c.29.37,2.14,1.1,2.16,1.29.23,1.88,3.21,1.9,3,0a3.61,3.61,0,0,0-1.16-2.75c-.61-.51-1.74-.58-1.75-.87a1.53,1.53,0,0,0-1.49-1.49c-3.12-.1-1.7-2.38-3.18-3.27a19.15,19.15,0,0,0-5-1.59l1.09,1.44a3,3,0,0,0-1.88-3.44l-1.62-.23a3.3,3.3,0,0,1-3.56-1.15,11.17,11.17,0,0,0-1.53-.82c-1.13-.35-2.26-.24-2.91-.85-.25-.22,0-.88-.46-1.14-1.58-1-3.3-.71-5-1.51-1.15-.56-1.22-1.39-2.1-1.86s-2.68-.1-3.27-.44c-1.39-.78-.76-2.21-2.38-3.21-.51-.31-1.14-.12-1.67-.34-1.08.31-1.82-.15-2.22-1.36a1.47,1.47,0,0,0-.39-.66,5.41,5.41,0,0,0-1.28-1.11c-.38-.19-3.08.55-3.21-.38-.26-1.89-3.13-1.08-2.87.79Z"/><path class="cls-31" d="M55,326c2.41-.56,2.93.15,4.8,1.25a4.75,4.75,0,0,0,1.37.34,1.11,1.11,0,0,1,1,1.4c.34.37.48,1,.85,1.36,1.6,1.62,4.18,1.32,6,2.85,2,1.75,2.64,1,5.43,2.2A32.93,32.93,0,0,1,82,340.12c.54.44.86.78,1.5,1.25a11.66,11.66,0,0,1,2.31,1.23,5.37,5.37,0,0,0,.75,1.18c1.84,1.23,4.1,1,5.82,2.34.18.14,5.44,4.89,5.74,3.28-.35,1.87,2.52,2.67,2.87.79s-.25-2.62-1.7-3.61c-.47-.33-1.12-.15-1.62-.35-2.54-1.05-2-1.47-3.61-2.63a10.19,10.19,0,0,0-2.29-1.32,12.67,12.67,0,0,1-4-2.19c-.91-.73-1.72-1.16-2.69-1.83-1.16-.8-1.84-1.83-3-2.61-1.52-1-3.49-1.2-5.11-2.13a15.83,15.83,0,0,0-3.56-1.73c-.52-.17-1.36.14-1.8-.13s-.29-.88-.63-1.12c-2-1.34-4.66-1.61-6.12-3.38-.47-.58-.49-1.25-1-1.8-.81-.81-2.73-1.38-3.65-2-2.44-1.59-3-1-5.92-.28-1.87.43-1.08,3.3.79,2.87Z"/><path class="cls-31" d="M47.23,334.49c.85,2.49,2.15,3.53,4.54,4.47s3.88,2.65,6.26,3.3c2.71.74,2.37.55,4.62,2.89.55.57.7,1,1.38,1.38,1.32.77,3.33.67,4.81,1.55s2.58,2.14,4.2,2.73c2,.73,4,0,5.39,1.05,1.74,1.4,3.48,2.63,5.17,4A9.75,9.75,0,0,0,85.35,357c.42.21,1.08-.05,1.48.18.78.45,1.11,1.33,1.74,1.88,2.09,1.84,4.12,1.74,6.8,1.28,1.88-.32,1.08-3.19-.79-2.87-3.56.61-4.15-2-6.67-3.13-1.85-.86-2.52-2.16-4.45-3.09a10.66,10.66,0,0,1-2.27-1.15c-.49-.45-.67-1.33-1.3-1.74-2-1.27-4.87,0-7.06-1.09s-3.81-2.58-6-3.51a11.29,11.29,0,0,0-1.54-.13,2.65,2.65,0,0,0-.27-1c-.71-.67-.71-1.27-1.61-1.94-2.15-1.59-4.66-1-6.78-2.87-1.38-1.21-6.18-3.13-6.55-4.2-.62-1.8-3.5-1-2.87.79Z"/><path class="cls-32" d="M47.35,332.1c1.06,1.88,2,2,3.91,2.73s3.7.91,5.3,2.59c.66.68.71,1.55,1.5,2.22,1.49,1.24,3.35.94,5.07,1.46,3.76,1.12,3,4.07,5.66,5.79,2.27,1.47,4.82-.22,7.14,1.11,1.89,1.08,2.62,2.9,4.81,3.49,1.1.3,2.28-.13,3.34.13,2.15.51,2.83,1.85,4.24,3.14,1.21,1.11,4.69,2.53,5.38,3.72a1.49,1.49,0,0,0,2.57-1.5c-1.14-2-3.06-2.38-4.78-3.82S89,349.83,86.92,349c-1.16-.46-2.29-.2-3.49-.35-1.86-.24-2.68-.93-4.17-2-1.67-1.24-2.75-2.24-5-2.42-.64-.05-1.42.2-2,.09-2.83-.56-2.68-2.14-4.17-3.83a7.22,7.22,0,0,0-4.18-2.25c-2-.45-3.34-.59-4.8-2.32-.67-.79-.7-1.64-1.54-2.36-1.8-1.57-6.6-1.06-7.67-2.95a1.49,1.49,0,0,0-2.57,1.5Z"/><path class="cls-32" d="M52.08,326.62a4.44,4.44,0,0,0,3.24,3.74,17.9,17.9,0,0,0,3,.34,7.68,7.68,0,0,1,5.1,3.06c1.14,1.43,1.64,2.8,3.49,3.49,2.75,1,2.56-.08,6.17,2.36.49.33.74,1.06,1.3,1.37,1.87,1,3.35,1.07,5.45,1.34,3,.36,4.34.84,6,3.21a9.38,9.38,0,0,0,2,2.35c1.71,1.22,3.59,1.11,5.42,2.36,2.11,1.46,3.12,2.4,5.87,2.56,1.92.12,1.91-2.86,0-3-2.29-.14-4.56-2.75-6.73-3.7-2.43-1.08-3-1.17-4.3-2.58-.64-.68-.88-1.47-1.56-2.14a7.21,7.21,0,0,0-3.79-1.9c-3.63-.75-4.35.5-7.94-2.5-1.17-1-1.56-1.78-3.12-2.23-.89-.25-1.89.07-2.71-.18-2.53-.76-2.45-1.58-3.57-3.28a8.14,8.14,0,0,0-2.61-2.83c-1.85-1.05-7.48-.23-7.9-2.66-.33-1.89-3.2-1.09-2.87.79Z"/><path class="cls-33" d="M48.93,329.47a4.29,4.29,0,0,0,1.93,3.62,12.18,12.18,0,0,0,2.69,1.19c2.14.93,3.28,2.6,4.87,3.78,1.9,1.4,3,1.44,5.16,2.21,2.44.85,3.15,2.79,5.08,4.17,1.48,1.05,3.32,1.12,5,1.39,3.7.57,4.58,2.95,7.49,4.54s5.9.7,8.67,3.07c.68.59,1.09,1.78,1.82,2.42,1,.92,3,1.33,3.53,2.8s2.82.81,2.3-.64-1.29-1.91-2.56-2.93c-1.87-1.5-3.06-3.95-5-5.28s-3.66-.6-5.63-1.06c-3.09-.73-4.08-3.37-6.74-4.51-3.3-1.43-5.62-.39-8.69-3.21-1.27-1.17-1.69-2.11-3.41-2.76-2.47-.93-3.27-.27-5.8-2.73-.56-.55-.78-1.29-1.4-1.83-1.74-1.52-6.69-1.51-6.94-4.24-.13-1.51-2.52-1.53-2.38,0Z"/><path class="cls-33" d="M53.16,326.28c1.09,5.56,8.66,4,12.11,6.88,1.36,1.14,2.53,2.34,4.28,2.82,1.46.41,2.13.32,3.54,1.2a22.22,22.22,0,0,1,2.67,2.53c1.46,1.25,3,1,4.65,1.69,2.51,1,3.84,3.58,6.44,4.56,2.94,1.09,2.29.14,5.48,3.15.49.47.91,1,1.45,1.48,2.06,1.66,4.73,2.2,7.27,2.65,1.5.26,2.14-2,.63-2.3-3.68-.64-5.37-1.56-8.18-4.27A8.89,8.89,0,0,0,90,344.3a13.25,13.25,0,0,1-3.73-1.58c-.92-.63-1.54-1.79-2.4-2.39-1.48-1-2.49-.82-4.12-1.43-2.5-.93-3.23-2.86-5.17-4.18-1.4-.94-3.17-1-4.73-1.6-2.34-.91-3.62-2.74-5.8-3.84s-8-.67-8.59-3.64c-.3-1.5-2.59-.86-2.3.64Z"/><path class="cls-34" d="M55,326.24c2.24-.83,3.65-.19,5.54.94a6.2,6.2,0,0,0,1.46.72c.71.21,1.91,0,2.4.67.9,1.21,3,0,2-1.21a3.54,3.54,0,0,0-2.1-1.48A10.35,10.35,0,0,1,61,324.56a7.31,7.31,0,0,0-6.54-.61c-1.43.52-.81,2.83.63,2.29Z"/><path class="cls-34" d="M72.35,333.19a15.94,15.94,0,0,1,6,3.53c1.12,1,2.81-.63,1.68-1.68A18.58,18.58,0,0,0,73,330.9c-1.46-.47-2.09,1.83-.63,2.29Z"/><path class="cls-34" d="M81.68,338a4.49,4.49,0,0,0,2.24,2.53c1.31.78,2.68,1.48,4,2.21s2.54-1.32,1.2-2.06l-3-1.64c-.72-.39-1.91-.81-2.17-1.67-.45-1.46-2.75-.84-2.3.63Z"/><path class="cls-34" d="M93.48,345a6.66,6.66,0,0,1,5.61,5.64c.18,1.51,2.57,1.52,2.38,0a9,9,0,0,0-7.36-7.93c-1.5-.25-2.14,2-.63,2.29Z"/><path class="cls-34" d="M47.31,333.35a13.89,13.89,0,0,0,4.24,4.78,7.51,7.51,0,0,0,2.12,1.19c1,.38,2.31.4,3.16,1.19,1.12,1.05,2.81-.64,1.68-1.68-1.32-1.24-2.93-1.18-4.48-1.92a11.17,11.17,0,0,1-4.66-4.77c-.65-1.38-2.7-.17-2.06,1.21Z"/><path class="cls-34" d="M64.26,329.25a29.53,29.53,0,0,0,8.5,4.41c3.95,1.31,6.23,3.78,9.49,6.06,2.1,1.47,3.54,3.74,5.94,4.71,4.75,1.91,8.7,1.35,11.58,6.61.73,1.35,2.79.15,2-1.2a13,13,0,0,0-6.65-6.18,39.39,39.39,0,0,0-4.4-1c-2.48-.68-3.68-2.4-5.6-3.91-2.38-1.87-4.72-4.48-7.39-5.9-4.1-2.19-8.44-2.78-12.32-5.66-1.23-.91-2.42,1.15-1.2,2.06Z"/><path class="cls-34" d="M56.6,340.57c1.42.15,2.92,3,4.31,3.79s2.87.57,4.22,1.14c2.12.9,2.77,3,4.66,4,2.2,1.09,3.76-.05,6,1.52,2.81,2,3.88,3.84,7.32,5.07a20.5,20.5,0,0,1,6.15,3.73,6,6,0,0,0,3.8,1.37c1.53.06,1.53-2.32,0-2.38C90.85,358.71,89,356,87.1,355c-2.87-1.55-5.42-1.77-7.71-4.63-2-2.47-2.09-2.6-5.39-3-3.53-.39-5.5-3.13-8.83-4.3s-5-4.5-8.57-4.9c-1.52-.16-1.51,2.22,0,2.39Z"/><path class="cls-35" d="M58.14,327.83l1.6,1-1.21-.54c1,.59,1.94,1.21,3,1.8,4.88,2.78,9,5.32,13.47,7.65,1.69.9,3.34,1.68,5.06,2.39s3.62,1.38,5.58,2.2a47.53,47.53,0,0,1,11.23,6.6c.67.53,1.21.89,1.25.74s-.42-.67-1.08-1.21A44.28,44.28,0,0,0,88.69,343c-3-1.52-6-2.52-8.46-3.62-4.85-2.12-9.27-5.44-13.86-8.86-.82-.61-1.49-1.22-2.7-2a28.76,28.76,0,0,0-5.12-2.64,8,8,0,0,0-3.39-.74c-1.06.28,1.28,1.85,4.73,3.91C59.32,328.64,58.73,328.24,58.14,327.83Z"/><path class="cls-35" d="M56.77,330.5l1.53,1L57.14,331c1,.56,1.85,1.16,2.86,1.73,4.73,2.69,8.87,5.24,13.54,7.69,1.77.94,3.55,1.78,5.37,2.53s3.71,1.43,5.58,2.2a45,45,0,0,1,10.45,6.14c.62.49,1.13.82,1.17.67s-.38-.63-1-1.13a41.31,41.31,0,0,0-7.75-5.06c-2.78-1.41-5.65-2.39-8.28-3.54-5.23-2.29-9.8-5.73-14.32-9.1-.81-.61-1.47-1.21-2.64-2a27,27,0,0,0-4.93-2.54,6.94,6.94,0,0,0-3.21-.65c-1,.3,1.15,1.79,4.45,3.77C57.89,331.27,57.33,330.9,56.77,330.5Z"/><path class="cls-35" d="M55.4,333.17l1.45.91-1.11-.47c.9.53,1.77,1.11,2.75,1.66,4.58,2.59,8.73,5.16,13.61,7.73a61.34,61.34,0,0,0,5.68,2.68c1.92.78,3.8,1.46,5.57,2.2A41.77,41.77,0,0,1,93,353.54c.57.46,1,.75,1.09.61s-.33-.6-.9-1.06A37.78,37.78,0,0,0,86,348.41c-2.53-1.29-5.31-2.25-8.09-3.46-5.61-2.45-10.32-6-14.78-9.34-.8-.6-1.44-1.19-2.59-1.94a24.16,24.16,0,0,0-4.72-2.43,6.27,6.27,0,0,0-3-.57c-.94.33,1,1.74,4.16,3.63Z"/><path class="cls-35" d="M54,335.84l1.37.87-1-.45c.85.52,1.68,1.07,2.62,1.6,4.43,2.5,8.61,5.08,13.68,7.77,1.91,1,4,2,6,2.83s3.88,1.49,5.55,2.19a38.73,38.73,0,0,1,8.9,5.2c.53.41,1,.68,1,.54s-.3-.56-.82-1a35.3,35.3,0,0,0-6.58-4.3c-2.29-1.17-5-2.1-7.9-3.37-6-2.61-10.86-6.3-15.25-9.58-.79-.59-1.42-1.18-2.53-1.91a21.83,21.83,0,0,0-4.53-2.31,5.61,5.61,0,0,0-2.86-.5c-.48.15-.2.61.49,1.21a29.14,29.14,0,0,0,3.39,2.28Z"/><path class="cls-36" d="M89.69,355.21,88.13,354l1.2.68c-1-.72-1.91-1.43-3-2.12-5-3.21-9.65-5.84-14.6-9-3.74-2.36-7.43-4.89-11-7.17a74.28,74.28,0,0,0-11-6.22c-.73-.35-1.34-.52-1.33-.37s.55.51,1.27.86a81.22,81.22,0,0,1,8.21,4.63c2.68,1.76,5.33,3.47,8,5.35,5.34,3.68,10.53,7.4,15.4,11.14.87.67,1.57,1.33,2.8,2.2,3.45,2.43,7.13,4.35,8.21,4.29s-.85-2.1-4.3-4.53Z"/><path class="cls-36" d="M91.34,352.7l-1.56-1.17,1.21.67c-1-.71-1.92-1.43-3-2.11-5-3.21-9.65-5.85-14.6-9-3.76-2.36-7.4-4.86-11.06-7.2a78.64,78.64,0,0,0-11.29-6.37c-.76-.36-1.38-.54-1.37-.39s.57.51,1.31.88c5.82,2.8,11.18,6.51,16.54,10.16s10.53,7.4,15.4,11.15c.87.67,1.57,1.32,2.8,2.19,3.45,2.44,7.13,4.36,8.21,4.29s-.85-2.09-4.3-4.53Z"/><path class="cls-36" d="M93,350.2,91.43,349l1.21.68c-1-.72-1.92-1.43-3-2.12-5-3.21-9.65-5.84-14.6-9-3.77-2.37-7.36-4.84-11.1-7.23a80.3,80.3,0,0,0-11.58-6.54c-.78-.37-1.42-.55-1.4-.4s.58.52,1.35.9c6,2.89,11.51,6.7,16.86,10.35s10.53,7.4,15.4,11.14c.87.67,1.57,1.33,2.8,2.2,3.45,2.43,7.13,4.35,8.21,4.29s-.85-2.1-4.3-4.53Z"/><path class="cls-36" d="M94.64,347.69l-1.56-1.18,1.21.68c-1-.71-1.92-1.43-3-2.11-5-3.21-9.65-5.85-14.6-9-1.88-1.19-3.73-2.39-5.57-3.6l-2.75-1.83-2.83-1.83a83.56,83.56,0,0,0-11.85-6.69c-.81-.38-1.46-.57-1.45-.42s.61.53,1.4.92a92.44,92.44,0,0,1,8.92,5c2.79,1.83,5.63,3.67,8.26,5.51,5.34,3.68,10.53,7.4,15.4,11.14.87.67,1.57,1.33,2.8,2.2,3.45,2.44,7.13,4.36,8.21,4.29s-.85-2.09-4.3-4.53Z"/><path class="cls-1" d="M54.73,325.91l2,.9-1.44-.46c1.21.54,2.39,1.09,3.7,1.6,6.11,2.37,11.63,4.32,17.57,6.84,2.25,1,4.46,1.92,6.75,3a45.43,45.43,0,0,1,6.73,4c2.11,1.54,3.92,3.06,5.79,4.52s3.75,2.93,5.65,4.36c.73.57,1.35.92,1.37.77s-.5-.68-1.22-1.25l-8.38-6.74A56.63,56.63,0,0,0,88.53,340a52.7,52.7,0,0,0-5.07-2.92l-19-9.21c-1.09-.54-2-1.09-3.51-1.76-4.28-1.88-8.69-3.12-9.81-2.85s1.46,1.91,5.73,3.75Z"/><path class="cls-1" d="M53.64,328.7l1.94.9-1.44-.46c1.21.54,2.38,1.09,3.68,1.59,6.08,2.36,11.56,4.3,17.48,6.81,4.43,1.91,9,3.8,12.94,6.72,2,1.43,3.8,3,5.67,4.42s3.75,2.94,5.65,4.37c.73.57,1.35.92,1.37.77s-.5-.68-1.22-1.25l-8.38-6.74c-1.4-1.13-2.85-2.26-4.41-3.29a51,51,0,0,0-4.78-2.74l-18.79-9.14c-1.08-.53-2-1.08-3.5-1.75-4.25-1.86-8.64-3.1-9.75-2.83s1.45,1.91,5.69,3.74Z"/><path class="cls-1" d="M52.55,331.5l1.92.89-1.42-.46c1.19.54,2.36,1.09,3.65,1.58,6,2.35,11.5,4.28,17.38,6.77,4.47,1.92,8.81,3.76,12.41,6.41C88.32,348,90.16,349.56,92,351s3.75,2.93,5.65,4.36c.73.57,1.35.92,1.36.77s-.49-.68-1.21-1.25l-8.37-6.73c-1.38-1.11-2.75-2.18-4.17-3.11a47.88,47.88,0,0,0-4.48-2.58l-18.61-9.06c-1.08-.53-2-1.07-3.48-1.74-4.23-1.85-8.59-3.08-9.7-2.81s1.44,1.91,5.65,3.73Z"/><path class="cls-1" d="M51.45,334.29l1.92.89L52,334.72c1.19.54,2.35,1.08,3.63,1.58,6,2.33,11.44,4.25,17.29,6.72,2.21,1,4.43,1.91,6.42,2.89a35.1,35.1,0,0,1,5.45,3.22c1.69,1.23,3.55,2.78,5.43,4.24s3.75,2.94,5.65,4.37c.73.57,1.34.92,1.36.77s-.5-.68-1.22-1.25l-8.35-6.72c-1.36-1.1-2.65-2.1-3.93-2.94a42.77,42.77,0,0,0-4.18-2.41l-18.44-9c-1.07-.53-2-1.07-3.45-1.74-4.21-1.84-8.55-3.06-9.65-2.79s1.42,1.91,5.62,3.71Z"/><path class="cls-37" d="M53.45,323.23l.83.31-.62,0a14.78,14.78,0,0,0,1.55.5,37.35,37.35,0,0,1,7.33,2.22A40.35,40.35,0,0,1,72.17,333c.28.26.56.4.63.28s-.08-.39-.36-.66a55,55,0,0,0-14.58-10.12,12.58,12.58,0,0,0-1.52-.76c-1.9-.69-3.94-.58-4.42,0s.65,1.37,2.44,1.93Z"/><path class="cls-37" d="M52.84,326.17l.76.29-.57,0a14.75,14.75,0,0,0,1.42.46,34.36,34.36,0,0,1,6.74,2A37.24,37.24,0,0,1,70,335.14c.25.24.52.36.59.25s-.06-.38-.31-.63a52.76,52.76,0,0,0-13.39-9.37,10.28,10.28,0,0,0-1.39-.73c-1.75-.64-3.63-.51-4.08.07s.58,1.35,2.21,1.88Z"/><path class="cls-37" d="M52.24,329.11l.68.28-.52,0a10.27,10.27,0,0,0,1.29.43,31.56,31.56,0,0,1,6.15,1.78,34.5,34.5,0,0,1,8.07,5.67c.23.22.48.32.55.21s0-.35-.27-.58A50.67,50.67,0,0,0,56,328.24a9,9,0,0,0-1.27-.69c-1.59-.6-3.32-.44-3.74.14s.51,1.35,2,1.84Z"/><path class="cls-37" d="M51.63,332l.61.27h-.47a7.44,7.44,0,0,0,1.15.4,28.66,28.66,0,0,1,5.57,1.56,31.22,31.22,0,0,1,7.29,5.11c.21.19.44.27.52.16s0-.33-.24-.53a48.56,48.56,0,0,0-11-7.91,7.56,7.56,0,0,0-1.14-.65c-1.44-.56-3-.37-3.4.21s.44,1.35,1.76,1.8Z"/><path class="cls-37" d="M95.34,357.42l-.27-.34.29.09a2.25,2.25,0,0,0-.57-.54c-1.1-.65-2.24-1-3.36-1.55a43.12,43.12,0,0,0-4.91-2.64c-.17-.07-.34,0-.38.08a.3.3,0,0,0,.19.35,19.26,19.26,0,0,1,6.44,5,4.27,4.27,0,0,0,.45.65,1.73,1.73,0,0,0,2.12.33c.52-.42.42-1.28-.25-1.9Z"/><path class="cls-37" d="M97.05,355l-.28-.35.3.1a2.29,2.29,0,0,0-.6-.56c-1.14-.68-2.31-1-3.46-1.62a47.53,47.53,0,0,0-5.1-2.75c-.17-.07-.35,0-.39.08s0,.27.21.35a20.57,20.57,0,0,1,6.7,5.15,4,4,0,0,0,.47.68,1.83,1.83,0,0,0,2.18.37c.53-.42.41-1.29-.29-1.93Z"/><path class="cls-37" d="M98.77,352.5l-.3-.36.31.1a2.58,2.58,0,0,0-.62-.57c-1.18-.71-2.39-1.08-3.58-1.7a47.3,47.3,0,0,0-5.28-2.85c-.17-.07-.35-.05-.4.08s0,.27.22.35a22.11,22.11,0,0,1,7,5.31,3.86,3.86,0,0,0,.49.69,1.87,1.87,0,0,0,2.23.41c.54-.41.41-1.29-.32-1.95Z"/><path class="cls-37" d="M100.48,350l-.31-.37.33.11a3.09,3.09,0,0,0-.65-.6c-1.22-.73-2.46-1.12-3.7-1.76a48.91,48.91,0,0,0-5.46-2.95c-.18-.08-.36-.06-.41.06s.06.28.23.37a23,23,0,0,1,7.23,5.46,4.65,4.65,0,0,0,.52.7,2,2,0,0,0,2.29.46c.55-.41.4-1.31-.36-2Z"/><path class="cls-2" d="M67.82,302.77a21.41,21.41,0,0,1,.11,3.84,6,6,0,0,0,5.95,5.95,6.09,6.09,0,0,0,6-5.95,22.38,22.38,0,0,0-.11-3.84A6.47,6.47,0,0,0,78,298.56a6,6,0,0,0-8.41,0,5.75,5.75,0,0,0-1.75,4.21Z"/><path class="cls-2" d="M55.17,326.8c2.15-1.13,5.9.83,7.56,2.18.78.63,1.51,1.32,2.33,1.9a15.6,15.6,0,0,0,3.33,1.82c2.26.9,4.89,1.07,7,2.27,1.74,1,2.84,2.71,4.44,3.84,1.41,1,3.26,1.35,4.48,2.54,1.06,1,1.47,2.51,2.58,3.52,3.48,3.18,9.8-.81,10.73,6.18.25,1.87,3.23,1.9,3,0-.52-3.87-2.82-7-6.9-7.66-.91-.14-2.07.19-3-.05-2.68-.75-2.56-2.34-4-3.91s-3.92-2.1-5.67-3.51c-2.08-1.67-3.18-3.15-5.73-4.22-3.59-1.49-6.72-1.77-9.93-4.34-3.63-2.9-7.1-5.56-11.74-3.13-1.7.88-.2,3.45,1.5,2.57Z"/><path class="cls-2" d="M47.68,330.7c-.61,2.08,0,3.27,1.36,4.82,1.17,1.31,2.9,3.43,4.65,4.28,2.46,1.2,3.8,1.11,6,3.18.39.37.59.91,1.06,1.2,1.24.75,1.67.45,3,1,2.76,1.11,2.42,1.39,4,2.78a7.8,7.8,0,0,0,5.39,2.32c2.68.2,3.5-.66,6,2.21.83,1,1,2,2.12,2.76a6.58,6.58,0,0,0,2,.76,20.15,20.15,0,0,1,5.7,3A8.12,8.12,0,0,0,94,360.89a1.49,1.49,0,0,0,0-3c-3,0-4.64-3-7.15-4.09-2.17-1-3.55-.88-5.19-2.86-1.06-1.29-1.42-2.43-3.07-3.15-2.49-1.09-4.86-.2-7.32-1.61-1.74-1-2.69-2.42-4.36-3.42-1.94-1.16-2.5,0-5.1-2-.47-.37-.73-1-1.24-1.37-1.73-1.25-3.59-1.25-5.29-2.25-1-.59-5-4.62-4.74-5.64.54-1.84-2.33-2.63-2.87-.79Z"/><path class="cls-38" d="M52.45,330.84c6.6-2.65,8.75,2.42,13.42,5.34a11.27,11.27,0,0,0,4.5,1.43c3.24.54,4.25,2,6.53,4.11a12.08,12.08,0,0,0,2.67,1.84,30.5,30.5,0,0,1,5.79,4.58c1.93,1.7,12.93,3.19,11.62,6.3-.74,1.76,2.14,2.53,2.87.79,1.65-3.93-3.14-6.05-6.15-7.16-1.45-.54-3.54-.57-4.86-1.34-1.7-1-2.6-3.12-4.14-4.26a12.74,12.74,0,0,0-1.8-1,26.37,26.37,0,0,1-5-3.6c-1.43-1.25-2.22-2.16-4.11-2.76-1.29-.41-3-.25-4.25-.6-2.37-.67-3.27-1.91-4.82-3.42-3.71-3.62-8-5.13-13.06-3.11-1.76.71-1,3.59.79,2.87Z"/><path class="cls-38" d="M49.47,329.38a20.56,20.56,0,0,0,4.29,5.13,18.66,18.66,0,0,0,2.87,1.57A4.29,4.29,0,0,1,60,337.76c1.34.39,1.84,1.15,1.51,2.27.71,1.43.51,1.81,2,2.63.85.48,2,.39,2.87.69,1.82.6,2.4,1.42,3.69,2.58a3.57,3.57,0,0,0,2.69,1.34c3.51.62,4.59.77,7.42,3.41a12.2,12.2,0,0,0,1.62,1.42c2.22,1.4,5,1.4,7.31,2.82,2.92,1.81,5.1,4.71,7.17,7.39,1.18,1.51,3.27-.61,2.11-2.11-3.32-4.27-6.39-7.26-11.3-9.5-2.9-1.32-5-3.25-7.6-4.87a12.23,12.23,0,0,0-3.24-1.28c.39.09-3.92-.52-3.49-.26-1.31-.8-1.57-2.27-3.13-3-1.1-.54-2.79-.4-3.73-1-1.44-.94-.82-1.39-1.39-2.64a5.54,5.54,0,0,0-2.57-3.12c-1.28-.71-2.76-.73-4.1-1.28-2.73-1.11-4.16-2.9-5.8-5.32-1.07-1.58-3.65-.09-2.57,1.5Z"/><path class="cls-39" d="M53.08,328.52c6.46-1.95,9.22,2.29,13.87,5.39a10.53,10.53,0,0,0,4,1.49c3.43.75,4.8,1.7,7.42,3.91A28.25,28.25,0,0,0,82,341.6c2,1.29,3.13,3.2,5,4.62,3.12,2.43,9.68,1.06,11.15,5.71.35,1.09,2.07.63,1.72-.47-1.32-4.19-5-4.2-8.61-5.35-2.93-.93-4.21-3.42-6.5-5.11s-4.88-2.91-7.24-4.9a10,10,0,0,0-4.71-2.31C69,333,67,331.37,64.09,329a11.86,11.86,0,0,0-11.48-2.2c-1.1.34-.63,2.06.47,1.72Z"/><path class="cls-39" d="M49.34,330.15c1.58,3.83,4,5.89,7.71,7.54a11.93,11.93,0,0,1,3.56,1.71,9.18,9.18,0,0,0,.79,1.44,10.64,10.64,0,0,0,1.27,1.34,6.93,6.93,0,0,0,1.39.69c2.77,1.17,2,.25,5.35,3,1.14.94,1.68,1.66,3.13,2.11a15.08,15.08,0,0,0,2.2.37c2.75.42,3.52,1.33,5.46,2.95a13.49,13.49,0,0,0,3.73,2.48c3.85,1.6,6.68,3,9.7,5.93.83.8,2.09-.46,1.26-1.26a27.55,27.55,0,0,0-5.08-4.25c-2-1.18-4.44-1.39-6.39-2.56-1.77-1.07-2.54-3.21-4.37-4.2-1.46-.78-2.84-.4-4.31-.87-2.77-.89-4.31-3.11-6.7-4.37-2.05-1.09-4-1.43-5.64-3.25-3.58-3.89-9-3.58-11.34-9.31-.43-1-2.16-.59-1.72.48Z"/><path class="cls-40" d="M51.51,330.7a81.24,81.24,0,0,1,12.59,6.46c3.74,2.32,8.18,3.29,11.76,5.84,2.93,2.09,5.28,4.71,8.41,6.56,3.37,2,8.62,3,10.72,6.56a1.49,1.49,0,0,0,2.57-1.5c-1.74-3-4.47-4.07-7.51-5.44-4.84-2.18-8.08-5.5-12.28-8.56-3.69-2.7-8.32-3.58-12.17-6a79.55,79.55,0,0,0-13.3-6.76c-1.77-.71-2.54,2.16-.79,2.87Z"/><path class="cls-40" d="M63.32,337.86c1.18,3.57,4.56,2.31,7.07,4.22,1.27.95,1.94,2.16,3.47,2.77,2.15.85,4.33,1,6.45,2.09,1.71.85,3.22-1.72,1.51-2.57-3-1.46-6.25-1.76-8.73-3.93a9.76,9.76,0,0,0-2.64-1.81c-.89-.38-3.9-.48-4.26-1.56-.59-1.81-3.47-1-2.87.79Z"/><path class="cls-41" d="M97.58,356.6c-2.07-4.24-6.14-4.77-9.93-6.93-4.09-2.34-6.1-5.57-10.72-7.07-4.16-1.35-6.32-4.74-10.44-6.18-3.21-1.12-4.06-2.9-6.53-4.58-2.66-1.81-6.19-1.58-7.84-4.91-.51-1-2-.12-1.54.9,2,4,6.79,3.94,9.85,6.83,1.26,1.18,2,2.23,3.61,2.93a25.05,25.05,0,0,1,7.31,4.34c3.29,2.87,7.82,2.74,11.15,5.82a20.91,20.91,0,0,0,5,3.82c3.31,1.66,6.72,2.26,8.52,5.93.5,1,2,.13,1.54-.9Z"/></g><path class="cls-42" d="M192.17,213.54a9.74,9.74,0,0,0,1.12,4.44h0c2.75,5.28.55,6.85-1.5,7.06l-29,.26a1.65,1.65,0,0,0-1.64,1.67l.26,29c-.16,2.34-1.69,4.21-7,1.55h0a9.65,9.65,0,0,0-4.45-1A9.79,9.79,0,1,0,154.57,275h0c5.29-2.75,6.86-.55,7.06,1.5l.27,29a1.63,1.63,0,0,0,1.51,1.62l.16,0,28.87-.26a2.74,2.74,0,0,0,1.35-.45,1.87,1.87,0,0,0,.71-1.66,8.83,8.83,0,0,0-1.2-3.74l-.62-1.19h.09a10.5,10.5,0,0,1-.67-3.61,10.62,10.62,0,1,1,20.64,3.43h.08l-.59,1.21a9.28,9.28,0,0,0-1.21,3.95c0,.49,0,1.73,2,1.88l29-.26a.81.81,0,0,1,.16,0,1.64,1.64,0,0,0,1.48-1.65l-.26-28.81a2.74,2.74,0,0,0-.45-1.36,1.88,1.88,0,0,0-1.66-.7,8.79,8.79,0,0,0-3.74,1.19l-1.2.63v-.1a10.27,10.27,0,0,1-3.61.67A10.62,10.62,0,1,1,232.6,255a10.35,10.35,0,0,1,3.62.61v-.09l1.21.6a9.42,9.42,0,0,0,3.95,1.21c.49,0,1.73,0,1.88-2l-.27-29v-.06a1.65,1.65,0,0,0-1.67-1.64l-29,.27c-2.34-.16-4.21-1.7-1.55-7h0a9.79,9.79,0,1,0-18.55-4.28Z"/><path class="cls-43" d="M163.42,306.09a.64.64,0,0,1-.52-.62l-.27-29a3.79,3.79,0,0,0-3.9-3.78,8.63,8.63,0,0,0-3.16.73v-.09l-1.46.76a8.7,8.7,0,0,1-4,1,8.83,8.83,0,0,1-8.87-8.71,8.77,8.77,0,0,1,8.71-8.87h0a8.75,8.75,0,0,1,4,.93l1.67.83,0-.1a8.9,8.9,0,0,0,3.08.66c2.21,0,3.57-1.38,3.74-3.78L162.18,227a.61.61,0,0,1,.18-.46.65.65,0,0,1,.47-.2l29-.26a4,4,0,0,0,3.32-1.95c.69-1.27.6-3-.26-5.11h.08l-.76-1.46a8.7,8.7,0,0,1-1-4,8.8,8.8,0,0,1,17.59-.16,8.7,8.7,0,0,1-.93,4l-.73,1.45h.08c-.9,2.26-1,4-.28,5.24a3.85,3.85,0,0,0,3.32,1.79l29.11-.27a.65.65,0,0,1,.66.65l.27,29.07c-.08,1-.46,1-.89,1a8.31,8.31,0,0,1-3.5-1.11l-2.67-1.31v.37a11,11,0,0,0-2.5-.28h-.11a11.62,11.62,0,0,0,.1,23.24h.11a11,11,0,0,0,2.62-.32v.29l1.45-.66,1.19-.62a7.56,7.56,0,0,1,3.29-1.08h0c.62,0,.77.2.84.29a1.82,1.82,0,0,1,.26.86l.26,28.72a.64.64,0,0,1-.5.64h-.13l-29,.26c-1-.08-1-.46-1-.89a8.4,8.4,0,0,1,1.11-3.49l1.31-2.66h-.37a11,11,0,0,0,.28-2.63,11.66,11.66,0,0,0-11.62-11.52h-.1a11.64,11.64,0,0,0-11.52,11.73,12,12,0,0,0,.32,2.62h-.29l.66,1.45.63,1.2a7.83,7.83,0,0,1,1.08,3.28c0,.62-.21.78-.3.84a1.79,1.79,0,0,1-.86.26l-28.85.27Z"/></g><g id="MANO_AMAZONÍA" data-name="MANO AMAZONÍA"><g id="SombraManoPieza"><g class="cls-3"><path d="M418,367.87l4.1-47.12a5.23,5.23,0,0,0-.17-1.17s0-.08,0-.13-5.47-17.57-11.2-31.72c0,0,0,0,0,0a5.92,5.92,0,0,0-1.85-3.1s-15.12-10.56-24-17l-.27-.19-.15-.11a5.11,5.11,0,0,0-3-1.27,9.4,9.4,0,0,0-1.06-.19l-15.22.14c-4.37-.53-5.47.34-5.76,4s3,7,7.38,7.54L377,278.77a4.46,4.46,0,0,0,.33.43,2,2,0,0,0-1.05-.23,9.55,9.55,0,0,0-3.94,1.28l-1.2.62v-.09a10.59,10.59,0,0,1-3.61.67A10.66,10.66,0,1,1,371,260.74v-.09l1.21.61A9,9,0,0,0,376,262.4a1.88,1.88,0,0,0,1.65-.74,2.81,2.81,0,0,0,.44-1.37l-.2-29c0-.06,0-.11,0-.16a1.65,1.65,0,0,0-1.66-1.49l-29.07.2c-2.06-.17-4.3-1.72-1.62-7.06h0a9.71,9.71,0,0,0,1-4.95A9.83,9.83,0,1,0,328,222.93h0c2.75,5.31.91,6.88-1.44,7.08l-29.15.2a1.66,1.66,0,0,0-1.66,1.67L296,261c-.17,2.06-1.71,4.3-7.06,1.62h0a9.65,9.65,0,0,0-4.94-1,9.83,9.83,0,0,0,.61,19.64,9.65,9.65,0,0,0,4.45-1.11h0c5.31-2.75,6.88-.9,7.08,1.45l.2,29.14a1.66,1.66,0,0,0,1.68,1.65H298l29.12-.2c2-.18,2-1.43,2-1.92a9.26,9.26,0,0,0-1.28-3.94l-.61-1.21h.08a10.42,10.42,0,0,1-.66-3.59,10.66,10.66,0,1,1,20.71,3.46h.09l-.61,1.21a9,9,0,0,0-1.14,3.77,1.93,1.93,0,0,0,.58,1.5,6.76,6.76,0,0,0-5.87,1.49c-3.15,3.13,1.35,8.86,1.89,11.51l5.12,16.88c4.93,6.7,10.81,17,12.54,19.65,4.54,6.84,9.77,14.82,17.27,21.38h0c2.45,5.78,4.32,10.86,5.77,15.22l-2.53.73.89,3.13h44.46a161.13,161.13,0,0,1-9.08-20.84C415.22,375.73,417.93,368.2,418,367.87Zm-27.82-77c-3.47-.24-7.73-.53-11.86-.83l-.06-9.07a3.37,3.37,0,0,0-.28-1.08A74.62,74.62,0,0,0,390.13,290.89Zm-7.6,48.69c-.32.13-.64.24-.95.34-3.52-1.49-9.53-3.94-19.52-7.82-2.64-2.92-3.54-12-8.66-17.27a12.43,12.43,0,0,0-4.7-2.85l8.43-.06h0l-.1.15a7.36,7.36,0,0,0-.44.64l-.06.1c-.11.19-.2.37-.28.54l0,.07a3.14,3.14,0,0,0-.17.52s0,0,0,.06h0c-.23,1.12.39,2,1.84,3.11a5.75,5.75,0,0,0,5.84.44l-.12.18c-.21.26-.39.49-.55.71s-.09.14-.14.2-.19.3-.27.44a2.12,2.12,0,0,0-.11.21,2.87,2.87,0,0,0-.15.37,1.27,1.27,0,0,0-.06.18l0,.08h0c-.18.87.3,1.55,1.42,2.42,1.91,1.46,5,.85,6.81-1.37l3.91-4.67a50,50,0,0,0,12,1.31,41.41,41.41,0,0,0,4.79,7A17,17,0,0,1,382.53,339.58Z"/><path id="Semilla_roja" data-name="Semilla roja" d="M386.26,373.24c.82,5.85-9.14,5.92-10,2.22-.62-3.33,2.54-5.18,5.37-5.81A4.12,4.12,0,0,1,386.26,373.24Z"/><path id="Semilla_roja-2" data-name="Semilla roja" d="M394.86,371.45c.8,5.79-7.7,5.7-8.47,2-.58-3.29,2.09-5.07,4.48-5.65A3.84,3.84,0,0,1,394.86,371.45Z"/><path id="Semilla_roja-3" data-name="Semilla roja" d="M404.46,370.77c.78,5.56-8.66,5.63-9.45,2.11-.58-3.16,2.41-4.91,5.09-5.51A3.9,3.9,0,0,1,404.46,370.77Z"/><path id="Semilla_roja-4" data-name="Semilla roja" d="M411.73,370.68c.74,5.34-6.42,5.17-7.11,1.78-.52-3,1.7-4.64,3.72-5.15C410,367.11,411.48,368.62,411.73,370.68Z"/><path id="Semilla_roja-5" data-name="Semilla roja" d="M420,370.65c.74,5.39-7.62,5.36-8.36,1.94-.55-3.06,2.09-4.73,4.45-5.28A3.64,3.64,0,0,1,420,370.65Z"/></g></g><path class="cls-44" d="M346.43,307.37l5.38-8.44a5.6,5.6,0,0,1,5.13-2.1c4.48,0,10.66,0,14.74-.05a5.6,5.6,0,0,1,3.75,0h.5a4,4,0,0,1,2.88,1.73c7,7.1,14.64,16.19,14.64,16.19,1.77,2.42-.57,7.27-3,9s-10.63,8.07-12.4,5.65c0,0-.24-9.64-2.74-14.05-1.62-.89-4.07-4.62-6.05-8.07a49.53,49.53,0,0,1-12-1.31l-3.91,4.68c-1.85,2.22-4.9,2.83-6.8,1.37S344.58,309.59,346.43,307.37Z"/><path class="cls-45" d="M345.13,309.55a5.52,5.52,0,0,1,1.3-2.18l5.38-8.44a5.6,5.6,0,0,1,5.13-2.1c4.48,0,10.66,0,14.74-.05a5.6,5.6,0,0,1,3.75,0h.5a4,4,0,0,1,2.88,1.73c7,7.1,14.64,16.19,14.64,16.19,1.77,2.42-.57,7.27-3,9s-10.63,8.07-12.4,5.65a60.92,60.92,0,0,0-.75-7.5,22.92,22.92,0,0,0-1.6-6.84c-1.71-1.11-4.1-5.42-6-9.39a55.07,55.07,0,0,1-13.12-2.44L351.9,308C350,310,347.13,310.6,345.13,309.55Z"/><path class="cls-44" d="M340.54,300.83,347.45,290a7.24,7.24,0,0,1,6.59-2.69c5.76,0,13.7,0,18.93-.06a7.2,7.2,0,0,1,4.83,0h.64a5.2,5.2,0,0,1,3.7,2.23c9,9.12,18.81,20.8,18.81,20.8,2.27,3.11-.74,9.33-3.85,11.61s-13.65,10.37-15.93,7.26c0,0-.31-12.38-3.52-18.06-2.07-1.13-5.22-5.92-7.77-10.35a64.48,64.48,0,0,1-15.4-1.68l-5,6c-2.38,2.85-6.3,3.64-8.74,1.76S338.16,303.68,340.54,300.83Z"/><path class="cls-44" d="M338.86,303.63a7.27,7.27,0,0,1,1.68-2.8L347.45,290a7.24,7.24,0,0,1,6.59-2.69c5.76,0,13.7,0,18.93-.06a7.2,7.2,0,0,1,4.83,0h.64a5.2,5.2,0,0,1,3.7,2.23c9,9.12,18.81,20.8,18.81,20.8,2.27,3.11-.74,9.33-3.85,11.61s-13.65,10.37-15.93,7.26a76.65,76.65,0,0,0-1-9.63,29,29,0,0,0-2.06-8.79c-2.19-1.43-5.26-7-7.71-12.07a70.9,70.9,0,0,1-16.84-3.12l-6,6.2C345.08,304.24,341.44,305,338.86,303.63Z"/><path class="cls-45" d="M337.49,292.93,346,281.54a7.94,7.94,0,0,1,7.49-2.42c6.35.5,15.11,1.1,20.88,1.49a8,8,0,0,1,5.32.36l.71,0a5.72,5.72,0,0,1,3.91,2.76c9.17,10.8,19,24.49,19,24.49,2.25,3.62-1.58,10.23-5.2,12.48s-15.91,10.31-18.17,6.7c0,0,.69-13.69-2.39-20.21-2.19-1.42-5.26-7-7.71-12.06A70.45,70.45,0,0,1,353,292.05l-6,6.21c-2.87,2.95-7.25,3.49-9.79,1.21S334.62,295.88,337.49,292.93Z"/><path class="cls-44" d="M374.05,313.84a17.11,17.11,0,0,1-11.74,16.79c11.74-1.46,20.79-14.42,20.75-23.13S374.05,313.84,374.05,313.84Z"/><path class="cls-46" d="M342.14,259.61c-.29,3.64,3,7,7.38,7.55l12.55,1.51c4.36.53,8.14-2,8.43-5.64h0c.29-3.64-3-7-7.38-7.55l-15.22.15c-4.37-.53-5.47.34-5.76,4Z"/><path class="cls-46" d="M360.27,258.59a7.72,7.72,0,0,0-.1,10.24c8.62,10.3,21.24,17.17,21.24,17.17,2.77,2.4,7.31,1.72,10.13-1.53h0c2.82-3.25,2.86-7.83.1-10.24,0,0-15.6-10.9-24.46-17.28-3-2.14-4.09-1.6-6.91,1.64Z"/><path class="cls-46" d="M383.71,271.34c-4.43,1.07-9.63-.72-9.42,3.84.22,5.11,1.76,20.59,4.6,24.16.92,7.66-4.4,21.33-4.4,21.33,1.06,4.44,16.28.41,20.71-.66h0c4.44-1.06,10.57-6.48,9.5-10.92,0,0-5.47-17.57-11.2-31.73-.49-1.22-5.35-7.08-9.79-6Z"/><path class="cls-46" d="M390.85,303.69c-5.53.21-10.24-1-11,3.31-2.7,14.36-12.1,23.33-17.9,22.9-9-.66,13.14,38.52,22.06,43.53h0c10.54,5.93,20.16-.5,19.68-13.28l1.24-49.76c-.18-5.16-6.26-5.14-9.8-7.14Z"/><path class="cls-46" d="M360.13,372c-7.5-6.56-12.73-14.55-17.26-21.38-1.74-2.61-7.62-13-12.55-19.66L325.2,314c-.54-2.65-5-8.38-1.89-11.51s9.82-1.22,12.93,2c5.13,5.23,6,14.35,8.66,17.27,20,7.76,24.06,9.82,24.06,9.82,3.88,3.29,30.08,36.79,25.3,41.56S364,375.3,360.13,372Z"/><path class="cls-46" d="M356.55,352.8c3.51,21.87,26.17,28.4,38.19,22.78s8.43-20.51,8-39.57c-.23-10.56-13.12,8.33-29-12.68-7.11,7.48-6.43,9.11-19.22,4C354.51,327.3,353.65,334.73,356.55,352.8Z"/><path class="cls-46" d="M381.05,401.48l25.64-.25c-1.93-4.13-6.1-19.9-3.71-34.83A125.62,125.62,0,0,0,360.13,372c6,14.1,8.58,24.07,9.71,29.52Z"/><path class="cls-47" d="M267.28,251.15a9.78,9.78,0,0,1,4.47,1h0c5.34,2.68,6.89.44,7.06-1.62l-.2-29.07a1.66,1.66,0,0,1,1.65-1.68l29.15-.2c2.35-.2,4.2-1.77,1.45-7.08h0a9.83,9.83,0,1,1,17.51-.12h0c-2.67,5.35-.44,6.89,1.62,7.06l29.08-.2a1.65,1.65,0,0,1,1.65,1.5c0,.05,0,.1,0,.16l.2,29a2.74,2.74,0,0,1-.43,1.36,1.86,1.86,0,0,1-1.65.74,8.91,8.91,0,0,1-3.78-1.14l-1.21-.61v.1a10.43,10.43,0,0,0-3.64-.62A10.67,10.67,0,1,0,354,270.41v.09l1.2-.62a9.58,9.58,0,0,1,3.95-1.28c.49,0,1.74,0,1.92,2l.2,29.13a1,1,0,0,0,0,.16,1.67,1.67,0,0,1-1.64,1.51l-28.92.2a2.81,2.81,0,0,1-1.37-.43,1.9,1.9,0,0,1-.74-1.65,9,9,0,0,1,1.15-3.78l.6-1.21h-.09a10.43,10.43,0,0,0,.61-3.64,10.66,10.66,0,0,0-21.32.15,10.42,10.42,0,0,0,.67,3.63h-.09l.62,1.2a9.58,9.58,0,0,1,1.28,3.95c0,.49,0,1.74-2,1.92l-29.13.2h-.06a1.65,1.65,0,0,1-1.67-1.65l-.2-29.15c-.2-2.35-1.78-4.2-7.08-1.45h0a9.72,9.72,0,0,1-4.46,1.11,9.83,9.83,0,1,1-.13-19.66Z"/><path class="cls-48" d="M280.81,301a.67.67,0,0,1-.66-.66l-.2-29.15c-.21-2.46-1.57-3.82-3.74-3.82a8.77,8.77,0,0,0-3.34.8v-.07l-1.47.75a8.74,8.74,0,0,1-4,1,8.83,8.83,0,0,1-.12-17.65h0a8.77,8.77,0,0,1,4,.94l1.67.84v-.12a8.54,8.54,0,0,0,2.91.6,3.78,3.78,0,0,0,3.94-3.76l-.2-29.17a.68.68,0,0,1,.19-.47.66.66,0,0,1,.46-.19l29.15-.2a3.89,3.89,0,0,0,3.38-1.85c.7-1.27.58-3-.35-5.23h.07l-.76-1.47a8.83,8.83,0,0,1,7.77-12.89,8.86,8.86,0,0,1,8.89,8.77,8.75,8.75,0,0,1-.94,4l-.73,1.46h.09c-.85,2.16-.91,3.89-.2,5.16a3.94,3.94,0,0,0,3.28,1.89l29.16-.19a.65.65,0,0,1,.64.51v.14l.19,29a1.75,1.75,0,0,1-.24.79c-.07.1-.22.3-.84.31a7.77,7.77,0,0,1-3.32-1l-2.68-1.34V249a11.36,11.36,0,0,0-2.54-.28,11.67,11.67,0,1,0,0,23.33,11.79,11.79,0,0,0,2.69-.32v.29l1.47-.66,1.2-.62a8.43,8.43,0,0,1,3.49-1.17h0c.42,0,.8,0,.9,1.11l.2,29.11v.08a.65.65,0,0,1-.63.52l-28.92.19a1.71,1.71,0,0,1-.78-.24c-.09-.07-.31-.22-.31-.84a7.66,7.66,0,0,1,1-3.32l1.34-2.66h-.39a11.66,11.66,0,0,0-19.68-10.75,11.55,11.55,0,0,0-3.36,8.27,11.07,11.07,0,0,0,.32,2.63h-.29l.66,1.45.61,1.2a8.27,8.27,0,0,1,1.17,3.49c0,.44,0,.82-1.11.92l-29,.2Z"/><g id="Sombras" class="cls-49"><path id="Blanca1" d="M379.08,370.74c.81,5.8-7.69,5.7-8.47,2-.58-3.3,2.09-5.07,4.48-5.65A3.83,3.83,0,0,1,379.08,370.74Z"/><path id="Blanca2" d="M396,370c.73,5.34-6.43,5.16-7.12,1.77-.52-3,1.71-4.64,3.72-5.14C394.18,366.41,395.7,367.91,396,370Z"/><g id="Roja1"><path id="Semilla_roja-6" data-name="Semilla roja" d="M370.49,372.53c.82,5.85-9.15,5.93-10,2.22-.61-3.32,2.55-5.17,5.37-5.8A4.13,4.13,0,0,1,370.49,372.53Z"/><path d="M368.16,369.32s.71,1.28-1.6,2.45-5.47,3.51-3.16,3.56,7.11-.78,7.13-2.05a4.08,4.08,0,0,0-.37-1.93A4.23,4.23,0,0,0,368.16,369.32Z"/></g><g id="Roja2"><path id="Semilla_roja-7" data-name="Semilla roja" d="M388.69,370.07c.78,5.55-8.67,5.62-9.46,2.1-.58-3.15,2.42-4.91,5.09-5.51A3.93,3.93,0,0,1,388.69,370.07Z"/><path d="M385.47,366.69c-.47.34-4,4.33-3.47,5a.2.2,0,0,0,.26,0C383.18,371.15,389.59,367.14,385.47,366.69Z"/><path d="M385,371.29c.77-1.23,2.2-2,3.06-3a4.1,4.1,0,0,1,.59,1.43C388.74,370.9,383.4,373.84,385,371.29Z"/></g><g id="Roja3"><path id="Semilla_roja-8" data-name="Semilla roja" d="M404.23,370c.75,5.39-7.62,5.35-8.35,1.94-.55-3.06,2.08-4.73,4.44-5.29A3.65,3.65,0,0,1,404.23,370Z"/><path d="M398.85,367.1s-1.59,3.17,0,4.12,5.61-.1,5.42-.84a3.87,3.87,0,0,0-1.62-3.18A3.43,3.43,0,0,0,398.85,367.1Z"/></g></g><path id="Blanca1-2" data-name="Blanca1" class="cls-50" d="M378.91,370.28c.8,5.8-7.7,5.7-8.47,2-.58-3.29,2.08-5.07,4.47-5.64A3.84,3.84,0,0,1,378.91,370.28Z"/><path id="Blanca2-2" data-name="Blanca2" class="cls-50" d="M395.78,369.51c.73,5.34-6.43,5.17-7.12,1.78-.52-3,1.71-4.64,3.72-5.15C394,365.94,395.52,367.45,395.78,369.51Z"/><g id="Roja1-2" data-name="Roja1"><path id="Semilla_roja-9" data-name="Semilla roja" class="cls-51" d="M370.31,372.07c.82,5.85-9.15,5.92-10,2.22-.61-3.32,2.55-5.17,5.37-5.81A4.14,4.14,0,0,1,370.31,372.07Z"/><path class="cls-52" d="M368,368.85s.71,1.28-1.59,2.46-5.48,3.5-3.17,3.56,7.11-.78,7.13-2.05a4.07,4.07,0,0,0-.37-1.93A4.32,4.32,0,0,0,368,368.85Z"/></g><g id="Roja2-2" data-name="Roja2"><path id="Semilla_roja-10" data-name="Semilla roja" class="cls-51" d="M388.51,369.61c.78,5.55-8.67,5.62-9.45,2.1-.59-3.15,2.41-4.91,5.08-5.51A3.92,3.92,0,0,1,388.51,369.61Z"/><path class="cls-52" d="M385.29,366.23c-.47.34-4,4.33-3.47,5a.2.2,0,0,0,.26,0C383,370.69,389.41,366.68,385.29,366.23Z"/><path class="cls-52" d="M384.81,370.82c.76-1.22,2.19-2,3.05-3a4.1,4.1,0,0,1,.59,1.43C388.56,370.44,383.22,373.38,384.81,370.82Z"/></g><g id="Roja3-2" data-name="Roja3"><path id="Semilla_roja-11" data-name="Semilla roja" class="cls-51" d="M404.05,369.49c.75,5.38-7.62,5.35-8.35,1.94-.55-3.07,2.08-4.74,4.44-5.29A3.64,3.64,0,0,1,404.05,369.49Z"/><path class="cls-52" d="M398.67,366.63s-1.59,3.18,0,4.13,5.62-.11,5.42-.85a3.85,3.85,0,0,0-1.62-3.17A3.43,3.43,0,0,0,398.67,366.63Z"/></g></g><g id="PIEZA_AMAZONÍA" data-name="PIEZA AMAZONÍA"><g id="AmazoníaPieza"><g id="Amazonía"><path class="cls-53" d="M266.25,251.18a10.06,10.06,0,0,1,4.58,1.07h0c5.48,2.75,7.06.46,7.23-1.65l-.2-29.79a1.69,1.69,0,0,1,1.69-1.71l29.86-.21c2.41-.2,4.3-1.81,1.48-7.25h0a10.07,10.07,0,1,1,17.93-.12h0c-2.75,5.47-.46,7.05,1.65,7.23l29.79-.2a1.69,1.69,0,0,1,1.69,1.52c0,.06,0,.11,0,.17l.2,29.68a2.76,2.76,0,0,1-.44,1.4,1.92,1.92,0,0,1-1.69.76,9.1,9.1,0,0,1-3.87-1.17l-1.24-.62v.1a10.92,10.92,0,1,0-3.57,21.21,10.66,10.66,0,0,0,3.71-.69V271l1.24-.63a9.73,9.73,0,0,1,4-1.31c.5,0,1.78,0,2,2.07l.2,29.83a1,1,0,0,0,0,.17,1.7,1.7,0,0,1-1.68,1.55l-29.62.2a2.76,2.76,0,0,1-1.4-.44,1.92,1.92,0,0,1-.76-1.69,9.14,9.14,0,0,1,1.17-3.87l.62-1.24h-.09a10.92,10.92,0,1,0-21.22-3.57,10.66,10.66,0,0,0,.69,3.71h-.09l.63,1.24a9.73,9.73,0,0,1,1.31,4c0,.5,0,1.78-2.07,2l-29.83.2h-.07a1.7,1.7,0,0,1-1.71-1.69l-.2-29.86c-.21-2.41-1.82-4.3-7.26-1.48h0a10.07,10.07,0,1,1-4.7-19Z"/><path class="cls-54" d="M280.11,302.19a.67.67,0,0,1-.67-.67l-.21-29.86c-.21-2.51-1.6-3.91-3.82-3.91a9.09,9.09,0,0,0-3.43.82v-.08l-1.5.78a9,9,0,1,1-4.22-17.06h0a9,9,0,0,1,4.11,1l1.72.87,0-.13a8.77,8.77,0,0,0,3,.62,3.88,3.88,0,0,0,4-3.86l-.2-29.87a.63.63,0,0,1,.19-.48.67.67,0,0,1,.48-.2l29.86-.21a4,4,0,0,0,3.45-1.89c.72-1.3.6-3.06-.36-5.36h.08l-.78-1.5a9,9,0,0,1,8-13.2,9.07,9.07,0,0,1,9.1,9,9,9,0,0,1-1,4.11l-.75,1.49h.09c-.86,2.21-.93,4-.2,5.29a4,4,0,0,0,3.36,1.93l29.87-.2a.68.68,0,0,1,.66.52.76.76,0,0,0,0,.15l.2,29.69a1.76,1.76,0,0,1-.25.8c-.07.1-.22.32-.86.32a7.94,7.94,0,0,1-3.4-1.06l-2.74-1.38v.4a12,12,0,1,0-2.61,23.62,12.41,12.41,0,0,0,2.76-.33v.3l1.5-.68,1.24-.63a8.36,8.36,0,0,1,3.57-1.2h0c.43,0,.82,0,.92,1.13l.2,29.82v.08a.67.67,0,0,1-.65.53l-29.62.2a1.76,1.76,0,0,1-.8-.25c-.09-.07-.32-.22-.32-.86a8,8,0,0,1,1.06-3.39l1.37-2.74h-.4a12.14,12.14,0,0,0,.3-2.7A12,12,0,0,0,312,283.59a11.87,11.87,0,0,0-3.44,8.47,11.6,11.6,0,0,0,.32,2.7h-.29l.67,1.48.63,1.24a8.35,8.35,0,0,1,1.2,3.58c0,.44,0,.83-1.13.93l-29.75.2Z"/></g><path id="Amazonía_Mapa" d="M274.78,265.42a1.1,1.1,0,0,0,.54-1.4c-.07-.34-.13-.95,0-1,.68-.39.38-1,.5-1.52a4.8,4.8,0,0,1,.3-1.2,7,7,0,0,0,.94-3.18.72.72,0,0,1,.38-.57,1.7,1.7,0,0,1,2,1.29c.08.45.19.91.3,1.42.38-.18.61-.3.84-.39,1-.38,1.12-.91.36-1.72-.54-.58-.47-.9.16-1.39a9,9,0,0,0,1.17-1.22c.37-.4.69-.84,1.06-1.23.68-.72,1.41-1.38,2.06-2.11,1.07-1.19,2.09-2.44,3.7-2.9,7.43-2.1,14.88-4.17,22.32-6.27A14.5,14.5,0,0,0,316,240.2q3.2-2.25,6.5-4.34a42.63,42.63,0,0,0,8.81-7.2c2.39-2.59,5-5,7.45-7.49a5.23,5.23,0,0,0,1-1.47l-9.42.06a4,4,0,0,1-3.36-1.93c-.73-1.31-.66-3.08.2-5.29h-.09l.75-1.49a9,9,0,0,0,1-4.11,9.07,9.07,0,0,0-9.1-9,9,9,0,0,0-8,13.2l.78,1.5h-.08c1,2.3,1.08,4.06.36,5.36a4,4,0,0,1-3.45,1.89l-29.86.21a.67.67,0,0,0-.48.2.63.63,0,0,0-.19.48l.2,29.87a3.88,3.88,0,0,1-4,3.86,8.77,8.77,0,0,1-3-.62l0,.13-1.72-.87a9,9,0,0,0-4.11-1h0a9,9,0,1,0,4.22,17.06l1.5-.78v.08a12.71,12.71,0,0,1,1.41-.5,2.72,2.72,0,0,0,.07-.33A2.56,2.56,0,0,1,274.78,265.42Z"/></g></g><g id="PIEZA_SIERRA" data-name="PIEZA SIERRA"><g id="Sierra"><path class="cls-55" d="M298.35,101.86a9.69,9.69,0,0,0,1.25,4.38h0c2.91,5.17.77,6.81-1.26,7.08l-28.84,1.19a1.65,1.65,0,0,0-1.59,1.71l1.2,28.92c-.09,2.34-1.56,4.24-7,1.77h0a9.55,9.55,0,0,0-4.47-.89,9.76,9.76,0,1,0,5.19,18.25h0c5.17-2.92,6.81-.77,7.08,1.26l1.19,28.84a1.62,1.62,0,0,0,1.55,1.57l.16,0,28.75-1.18a2.85,2.85,0,0,0,1.33-.49,1.89,1.89,0,0,0,.66-1.68,8.8,8.8,0,0,0-1.32-3.68l-.66-1.18h.1a10.46,10.46,0,0,1-.79-3.58,10.58,10.58,0,1,1,21.15-.87,10.34,10.34,0,0,1-.48,3.63h.08l-.55,1.22a9.35,9.35,0,0,0-1.08,4c0,.49.07,1.73,2.09,1.81L351,192.72h.16a1.64,1.64,0,0,0,1.42-1.69l-1.18-28.69a2.74,2.74,0,0,0-.49-1.33,1.87,1.87,0,0,0-1.67-.66,8.84,8.84,0,0,0-3.69,1.31l-1.17.66v-.09a10.34,10.34,0,0,1-3.57.78,10.58,10.58,0,1,1,2.75-20.66v-.09l1.22.56a9.39,9.39,0,0,0,4,1.08c.48,0,1.72-.07,1.81-2.1l-1.2-28.88v-.06a1.65,1.65,0,0,0-1.72-1.58l-28.91,1.19c-2.34-.09-4.25-1.56-1.77-7h0a9.6,9.6,0,0,0,.89-4.47,9.76,9.76,0,0,0-19.5.8Z"/><path class="cls-56" d="M272.66,195a.64.64,0,0,1-.54-.61l-1.19-28.84c-.3-2.31-1.73-3.64-3.83-3.64a8.28,8.28,0,0,0-3.24.8v-.09l-1.49.83a8.57,8.57,0,0,1-3.93,1.12h-.38a8.76,8.76,0,0,1-.35-17.51h.38a8.72,8.72,0,0,1,3.64.8l1.41.65v-.07a9.25,9.25,0,0,0,3.17.67c2.28,0,3.69-1.46,3.78-3.9l-1.19-29a.66.66,0,0,1,.63-.68l28.84-1.19a4,4,0,0,0,3.24-2c.65-1.29.5-3-.44-5.13h.07l-.77-1.39a8.67,8.67,0,0,1-1.13-3.93,8.78,8.78,0,0,1,8.4-9.12h.38a8.77,8.77,0,0,1,7.94,12.42l-.65,1.41h.07c-.85,2.31-.89,4-.13,5.28a3.81,3.81,0,0,0,3.35,1.67l29-1.19a.67.67,0,0,1,.68.63l1.19,29c-.05,1-.42,1-.86,1.06h-.11a8.77,8.77,0,0,1-3.4-1l-2.71-1.22,0,.37a11.54,11.54,0,0,0-2.12-.2h-.5a11.58,11.58,0,0,0,.46,23.15h.5a11.84,11.84,0,0,0,2.59-.4v.29l1.43-.71,1.17-.66a7.68,7.68,0,0,1,3.24-1.18h.1c.47,0,.64.13.74.27a1.73,1.73,0,0,1,.29.85l1.18,28.6a.65.65,0,0,1-.48.65H351l-28.95,1.2c-1,0-1-.43-1.06-.86a8.24,8.24,0,0,1,1-3.51l1.23-2.7h-.37a11.58,11.58,0,0,0-11.36-13.72H311a11.58,11.58,0,0,0-11.09,12,11.36,11.36,0,0,0,.4,2.6H300l.71,1.42.66,1.17a7.77,7.77,0,0,1,1.18,3.24c0,.62-.18.78-.27.85a1.88,1.88,0,0,1-.85.29L272.73,195Z"/></g><path id="Sierra_Mapa" d="M334.32,182.21c.94,1.76,2.26,1.51,3.63,1.25a3.59,3.59,0,0,1-.38-.76c-.26-1.09-.54-2.19-.71-3.3a13.75,13.75,0,0,1-.05-2.13.28.28,0,0,1,.1-.2c1-.46.57-1.34.63-2.07a.87.87,0,0,0-.25-.59,3.87,3.87,0,0,0-.79-.59c-.39-.25-.81-.46-1.2-.72s-.7-.41-.85-.72a31.22,31.22,0,0,1-1.25-3.12,3.72,3.72,0,0,0-2.49-2.17,1,1,0,0,1-.95-1.14c0-.17.34-.44.47-.41a14.08,14.08,0,0,1,2.51.68c.69.29,1.28.71,2,.2a.91.91,0,0,1,.59,0c.8.2,1.32-.21,1.88-.81a7.26,7.26,0,0,0-.83-.39,11.11,11.11,0,0,1-2.13-.72c-1.35-.82-2.6-1.8-3.92-2.66a2.51,2.51,0,0,0-1.16-.31c-.78-.06-1.71.21-2.33-.12a27.86,27.86,0,0,1-3.42-2.46.58.58,0,0,1-.14-.17,29.61,29.61,0,0,1-1.63-2.69.8.8,0,0,0-1.19-.46c-.34.12-.61.13-.67-.31s-.47-.69-1-.66a2.42,2.42,0,0,1-2.1-.85c-.48-.57-.83-.44-1.32,0a13.83,13.83,0,0,1-1.49,1l-.26-.16a20.66,20.66,0,0,0,.08,2.08c.12,1,0,1.12-.93,1.19-.61,0-1.22.24-1.83.33-.26,0-.66.07-.78-.07-.7-.85-1.72-.86-2.65-1.1-.41-.1-.66-.05-.56.47a.57.57,0,0,1-.07.24c-.92,0-1.79,0-2.63-.08a2,2,0,0,1-1.12-.51,2.86,2.86,0,0,0-1.76-.75,2.27,2.27,0,0,1-1.22-.6,1.59,1.59,0,0,0-2-.48,2.43,2.43,0,0,1-1.3.15c-1-.19-1.89-.5-2.83-.75a2.05,2.05,0,0,1-1.77-1.88c-.08-1-.18-1.91-.25-2.86s-.32-1.27-1.19-1.29a3.27,3.27,0,0,1-3.27-2.81c-.15-1-.6-1.27-1.57-1-.4.13-.8.3-1.21.42a1.53,1.53,0,0,1-2.12-1,.44.44,0,0,0-.19-.23,8.9,8.9,0,0,0-2.2-.6,4.32,4.32,0,0,1-2.73-1.1,8.89,8.89,0,0,0-3.65-2.18,2.63,2.63,0,0,1-1.09-.79,15.16,15.16,0,0,1-1.44-1.66,2.19,2.19,0,0,0-1.69-.88l.34,8.24c-.09,2.44-1.5,3.9-3.78,3.9a9.25,9.25,0,0,1-3.17-.67v.07l-1.41-.65a8.72,8.72,0,0,0-3.64-.8h-.38a8.76,8.76,0,0,0,.35,17.51h.38a8.57,8.57,0,0,0,3.93-1.12l1.49-.83v.09a8.28,8.28,0,0,1,3.24-.8c2.1,0,3.53,1.33,3.83,3.64l1.19,28.84a.64.64,0,0,0,.54.61h.07l28.73-1.18a1.88,1.88,0,0,0,.85-.29c.09-.07.3-.23.27-.85a7.77,7.77,0,0,0-1.18-3.24l-.66-1.17L300,186.8h.29a11.36,11.36,0,0,1-.4-2.6,11.58,11.58,0,0,1,11.09-12h.5a11.58,11.58,0,0,1,11.36,13.72h.37l-1.23,2.7a8.24,8.24,0,0,0-1,3.51c0,.43,0,.81,1.06.86l9.32-.39c.68-2.36,1.32-4.74,2-7.1C333.66,184.45,334,183.48,334.32,182.21Z"/></g><g id="PIEZA_COSTA" data-name="PIEZA COSTA"><g id="Costa"><g id="Costa-2" data-name="Costa"><path class="cls-57" d="M192.17,213.63a9.85,9.85,0,0,0,1.11,4.43h0c2.74,5.27.55,6.84-1.5,7l-28.9.26a1.67,1.67,0,0,0-1.64,1.67l.27,29c-.16,2.34-1.69,4.21-7,1.56h0a9.77,9.77,0,1,0,.16,17.4h0c5.27-2.75,6.84-.55,7,1.49l.26,28.9a1.64,1.64,0,0,0,1.51,1.62h.16l28.8-.27a2.74,2.74,0,0,0,1.36-.45,1.86,1.86,0,0,0,.7-1.65,8.86,8.86,0,0,0-1.19-3.73l-.62-1.2h.09a10.49,10.49,0,0,1-.67-3.6,10.6,10.6,0,1,1,21.19-.2,10.31,10.31,0,0,1-.6,3.62h.09l-.6,1.21a9.39,9.39,0,0,0-1.21,3.94c0,.48,0,1.72,2,1.87l29-.26h.16a1.64,1.64,0,0,0,1.48-1.65l-.27-28.74a2.8,2.8,0,0,0-.44-1.35,1.89,1.89,0,0,0-1.66-.71A8.86,8.86,0,0,0,237.5,275l-1.19.63v-.1a10.26,10.26,0,0,1-3.6.67,10.6,10.6,0,1,1,3.42-20.59v-.08l1.21.59a9.39,9.39,0,0,0,3.94,1.21c.49,0,1.73,0,1.88-2l-.27-28.95v-.06a1.65,1.65,0,0,0-1.67-1.63l-29,.26c-2.34-.16-4.2-1.69-1.55-7h0a9.65,9.65,0,0,0,1-4.45,9.77,9.77,0,1,0-19.54.18Z"/><path class="cls-58" d="M163.48,306a.64.64,0,0,1-.52-.63l-.26-28.9a3.78,3.78,0,0,0-3.9-3.77,8.55,8.55,0,0,0-3.15.72v-.08l-1.46.76a8.61,8.61,0,0,1-4,1,8.81,8.81,0,0,1-8.85-8.69,8.77,8.77,0,0,1,8.69-8.85h0a8.68,8.68,0,0,1,4,.93l1.67.83,0-.11a8.67,8.67,0,0,0,3.07.67c2.21,0,3.57-1.38,3.74-3.78l-.27-29a.66.66,0,0,1,.19-.46.63.63,0,0,1,.46-.2l28.9-.26a4,4,0,0,0,3.31-1.94c.69-1.27.6-3-.26-5.11h.08l-.75-1.45a8.76,8.76,0,0,1,7.69-12.83,8.81,8.81,0,0,1,8.85,8.69,8.56,8.56,0,0,1-.92,4l-.72,1.45h.07c-.9,2.25-1,4-.27,5.22a3.8,3.8,0,0,0,3.3,1.79l29.05-.27a.65.65,0,0,1,.66.65l.27,29c-.08,1-.46,1-.89,1a8.36,8.36,0,0,1-3.49-1.1l-2.67-1.31v.37a11.08,11.08,0,0,0-2.5-.28h-.11A11.61,11.61,0,0,0,221,265.71,11.63,11.63,0,0,0,232.6,277.2h.11a11.37,11.37,0,0,0,2.61-.32v.29l1.45-.66,1.19-.62a7.68,7.68,0,0,1,3.28-1.08h0c.62,0,.77.2.84.3a1.78,1.78,0,0,1,.26.85l.26,28.66a.65.65,0,0,1-.5.64H242l-29,.27c-1-.08-1-.46-1-.89a8.27,8.27,0,0,1,1.11-3.49l1.3-2.65H214a11.62,11.62,0,0,0-11.32-14.11h-.11a11.61,11.61,0,0,0-11.49,11.7,11.38,11.38,0,0,0,.33,2.61h-.3l.66,1.45.63,1.19a7.83,7.83,0,0,1,1.08,3.28c0,.62-.21.77-.3.84a1.82,1.82,0,0,1-.86.26l-28.79.26Z"/></g><g id="Costa_Mapa"><path d="M235.8,279.12c.29-.62.53-1.26.86-1.84.19-.33.37-.66.53-1l-.42.22-1.45.66v-.29a11.37,11.37,0,0,1-2.61.32h-.11A11.63,11.63,0,0,1,221,265.71,11.61,11.61,0,0,1,232.5,254h.11a11.08,11.08,0,0,1,2.5.28v-.37l2.67,1.31a8.36,8.36,0,0,0,3.49,1.1c.43,0,.81,0,.89-1l-.27-29a.65.65,0,0,0-.66-.65l-29.05.27a3.8,3.8,0,0,1-3.3-1.79c-.72-1.25-.63-3,.27-5.22h-.07l.72-1.45a8.56,8.56,0,0,0,.92-4,8.81,8.81,0,0,0-8.85-8.69,7.46,7.46,0,0,0-1.16.09,3.35,3.35,0,0,1-1.72,2.06.69.69,0,0,1-.49.1,5.49,5.49,0,0,0-2.42,0,8.7,8.7,0,0,0-2.74,4.85c.41.69.84,1.38,1.29,2s.9,1.53.27,2.42a.68.68,0,0,0-.1.44,1.39,1.39,0,0,1-.37,1.29l.5,1h-.08c.86,2.13.95,3.84.26,5.11a3.46,3.46,0,0,1-.59.79c.19.71.37,1.43.54,2.15.11.49.22,1-.37,1.32-.14.08-.18.42-.17.64.05.87.14,1.8-.6,2.39a20.72,20.72,0,0,1-2.68,1.72c-.21.12-.56,0-.84,0a1.75,1.75,0,0,0-.47.2,17.67,17.67,0,0,0,1.18,2.34c.23.35.86.4,1.18.72a3.07,3.07,0,0,0,1.69.73,4.44,4.44,0,0,1,2,.86c1,1,1.87,2.13,2.8,3.2a17.16,17.16,0,0,0,1.67,1.74,20.13,20.13,0,0,0,2.08,1.43,4.8,4.8,0,0,0,.91.51c.21.07.63.1.67,0a1.38,1.38,0,0,0,.1-.85c-.05-.23-.33-.4-.4-.63a4.18,4.18,0,0,1,0-.87l.2-.09c.55.81.91.32,1.42,0a7.72,7.72,0,0,0,3.4-4.44,1.84,1.84,0,0,1,.82-1,3.34,3.34,0,0,1,1.21-.23c-1.31.66-1.23,2.08-2,3.25l1.31-.26c-.68.69-1.22,1.19-1.68,1.75a.74.74,0,0,0,0,.74,3,3,0,0,0,1.26.52,2.49,2.49,0,0,0,2.3-1.68c.29-1.74.44-3.5.64-5.26a.6.6,0,0,0-.14-.41c-.92-.95-.46-1.94.06-2.78a8.75,8.75,0,0,1,1.68-1.58,2,2,0,0,1-.58,1,1.92,1.92,0,0,0-.53,2.3,3.12,3.12,0,0,1,.21,2.49c-.46,1.33.29,2.34.67,3.46a.53.53,0,0,0,.42.26c.57,0,.68.36.75.76a2.11,2.11,0,0,1-.65,2.38,1.71,1.71,0,0,0-.48.59c-.52,1.11-1,2.25-1.53,3.35-.91,1.84-.81,4.06-2.21,5.71a1.11,1.11,0,0,0-.14.58c-.13,1.23-1,1.76-2,2.22a1.82,1.82,0,0,0-.07-.4,6.05,6.05,0,0,0-.32-.55,2.57,2.57,0,0,0-.57.38,5.46,5.46,0,0,0-.48.85c-.43.82-1,1.42-2,1.19-.18,0-.39.09-.59.08-.5,0-1-.09-1.5-.13l0-.23-.32.69-.75.17a6.2,6.2,0,0,0,.21.7c0,.05.12.09.19.11.64.17,1.23.32.82,1.26-.27.62,1.1.87.52,1.68a.8.8,0,0,0-.1.44.63.63,0,0,0,.09.4,1.57,1.57,0,0,1,.34,1.71,5.55,5.55,0,0,0-.14,2.06,19.3,19.3,0,0,0,1,2.76l-.89.5a6.09,6.09,0,0,0-1.31.71c-1.18,1.12-1.16,1.14-2.6.51l-.14-.06a1.63,1.63,0,0,0-1.89.32,1.9,1.9,0,0,0-.39,2.18,1.63,1.63,0,0,1,.1.85,1.1,1.1,0,0,0,1.29,1.36l1.63-.17c-.23.36-.31.51-.41.64l-2.42,2.82c-.59.69-.51,1.11.21,1.68a1.82,1.82,0,0,0,2.36.13c1.07-.72,2.38-1.16,2.8-2.61.06-.22.41-.43.67-.52a2.88,2.88,0,0,1,2.85,1.08,2.85,2.85,0,0,0,2.19,1.31,1.75,1.75,0,0,1,1.45.94c.82,1.23,1,1.31,2.37.95a8.29,8.29,0,0,0,1-.35c.92-.39,1.23-.32,1.92.44a3,3,0,0,0,1.75,1.22.52.52,0,0,1,.35.91,1.37,1.37,0,0,0,0,1.87,1.49,1.49,0,0,1,.16.49c.35,1.32.4,2.79,1.76,3.63.13.08.18.3.28.44s.32.42.5.62a4.29,4.29,0,0,1,.72.83,1.28,1.28,0,0,0,1.23.8,9.33,9.33,0,0,1,4.27,1.11,3,3,0,0,0,1.46-2,.84.84,0,0,1,1-.73c1,.05,1.29-.36.86-1.24a1.76,1.76,0,0,1,.39-2.26,6.62,6.62,0,0,1,1.47-1.06,17.88,17.88,0,0,1,2-.78c.88-.31,1.63-.69,1.57-1.83a1.27,1.27,0,0,1,.39-.78c.29-.37.38-.63,0-1a2,2,0,0,1,0-2.59A3.17,3.17,0,0,0,235.8,279.12Z"/><path d="M208.43,247.59a.69.69,0,0,0,.81-.27,11.09,11.09,0,0,1,1.33-1.12c.29-.22.6-.41,1-.68-.71-.42-1.2-.76-1.73-1a2.59,2.59,0,0,0-1.32-.42c-1.12.22-2.21.59-3.31.92-.1,0-.19.17-.26.27a9.59,9.59,0,0,0-1.56,5,1.51,1.51,0,0,0,.47,1.07,3.35,3.35,0,0,0,2.75-.42,1.64,1.64,0,0,0,.33-1.18,10.49,10.49,0,0,0-.82-1.86C206.74,247.14,207.63,247.41,208.43,247.59Z"/></g></g></g><g id="PIEZA_GALÁPAGOS" data-name="PIEZA GALÁPAGOS"><g id="PiezaGalápagos"><g id="Galápagos"><path class="cls-59" d="M176.13,88a9.89,9.89,0,0,0,.7,4.58h0c2.27,5.6-.11,7-2.2,7l-29.25-2.55a1.69,1.69,0,0,0-1.82,1.53L141,127.9c-.39,2.35-2.12,4.08-7.24.89h0a9.94,9.94,0,1,0-1.54,17.61h0c5.6-2.27,7,.11,7,2.2l-2.55,29.25a1.66,1.66,0,0,0,1.37,1.78.86.86,0,0,0,.16,0l29.15,2.54a2.75,2.75,0,0,0,1.41-.32,1.89,1.89,0,0,0,.88-1.6,8.93,8.93,0,0,0-.84-3.89l-.52-1.27h.1a10.47,10.47,0,0,1-.33-3.7,10.77,10.77,0,1,1,21.45,1.86,10.62,10.62,0,0,1-1,3.6h.09l-.72,1.16a9.6,9.6,0,0,0-1.61,3.87c0,.49-.15,1.75,1.88,2.1l29.3,2.55a.76.76,0,0,1,.16,0,1.69,1.69,0,0,0,1.66-1.53L221.81,156a2.88,2.88,0,0,0-.32-1.41,1.92,1.92,0,0,0-1.6-.88,9,9,0,0,0-3.89.85l-1.28.51v-.09a10.77,10.77,0,1,1-1.84-21.13,10.62,10.62,0,0,1,3.6,1v-.08l1.16.71a9.46,9.46,0,0,0,3.87,1.61c.49.05,1.74.15,2.09-1.88l2.56-29.3v-.06a1.68,1.68,0,0,0-1.53-1.82l-29.32-2.55c-2.35-.39-4.08-2.12-.89-7.24h0A9.93,9.93,0,1,0,176.13,88Z"/><path class="cls-60" d="M217.55,185.54,188.25,183c-1-.18-1-.56-1-1a8.4,8.4,0,0,1,1.46-3.42l1.59-2.58-.38,0a10.9,10.9,0,0,0,.53-2.61,11.79,11.79,0,0,0-10.71-12.76c-.33,0-.65,0-1,0A11.79,11.79,0,0,0,167.09,174l-.29,0,.52,1.53.52,1.27a7.74,7.74,0,0,1,.77,3.42c-.05.62-.28.75-.38.82a1.94,1.94,0,0,1-.89.18l-29.11-2.54h-.11a.67.67,0,0,1-.46-.69l2.55-29.25c0-2.07-1.08-4.2-4.11-4.21a9.53,9.53,0,0,0-2.86.49v-.07l-1.4.56a8.92,8.92,0,0,1-3.38.66c-.24,0-.49,0-.73,0a8.92,8.92,0,0,1,.8-17.8c.24,0,.49,0,.74,0a8.87,8.87,0,0,1,3.95,1.32l1.54,1v-.1a8.17,8.17,0,0,0,3.55,1c2,0,3.32-1.26,3.69-3.48l2.57-29.4a.66.66,0,0,1,.66-.61l29.31,2.55A4.06,4.06,0,0,0,178.08,99c.82-1.23.89-3,.21-5.23h.08l-.6-1.5a8.65,8.65,0,0,1-.62-4.11,8.94,8.94,0,0,1,8.9-8.14q.38,0,.75,0a8.91,8.91,0,0,1,6.78,13.6L192.69,95h.08c-1.12,2.18-1.37,3.9-.77,5.23a3.87,3.87,0,0,0,3.16,2.12L224.57,105a.68.68,0,0,1,.6.73L222.61,135c-.17,1-.55,1-.78,1h-.22a8.29,8.29,0,0,1-3.41-1.46L215.62,133l0,.38a12.09,12.09,0,0,0-2.61-.53c-.33,0-.65,0-1,0a11.84,11.84,0,0,0-11.78,10.75,11.79,11.79,0,0,0,10.72,12.76c.32,0,.65,0,1,0a12,12,0,0,0,1.69-.12l0,.3,1.52-.53,1.28-.51a8.85,8.85,0,0,1,3.16-.79h.26c.62.06.76.29.81.39a1.78,1.78,0,0,1,.19.89l-2.53,29a.66.66,0,0,1-.58.6Z"/></g><g id="Galápagos_Mapa"><path d="M152.44,135.33c0,.16.11.3.15.46a.34.34,0,0,0,.26.28,3.67,3.67,0,0,1,.94.39.52.52,0,0,0,.4.12,1.72,1.72,0,0,1,.64,0,1.15,1.15,0,0,0,.91-.36.37.37,0,0,0,.13-.28.88.88,0,0,1,.17-.53.39.39,0,0,0,.09-.23,2,2,0,0,0-.09-.95c-.09-.18,0-.41-.23-.54a1.43,1.43,0,0,1-.32-.28.58.58,0,0,0-.6-.17c-.26.07-.53.11-.79.16a2.93,2.93,0,0,1-1,0,1.3,1.3,0,0,0-.62,0,.24.24,0,0,0-.23.28,1.47,1.47,0,0,1,0,.5A2,2,0,0,0,152.44,135.33Z"/><path d="M169.88,142.62c0-.17.11-.12.2-.1l.25,0c.43.09.42.09.66-.29a.36.36,0,0,1,.31-.2,1.47,1.47,0,0,0,.51-.45s0-.05,0-.07a1.94,1.94,0,0,1,.2-.86c.18-.38.18-.42-.14-.7s-.45-.3-.52-.6a8.18,8.18,0,0,0-.28-1.46.27.27,0,0,1,0-.18c0-.12,0-.24-.13-.26s-.22.09-.24.22a2.46,2.46,0,0,1-.17.83c-.16.3-.16.35-.5.28-.18,0-.36-.09-.51.08a.2.2,0,0,1-.24,0,1.5,1.5,0,0,0-.75-.11,5,5,0,0,0-1,.19.09.09,0,0,0-.07.06.47.47,0,0,1-.32.32.16.16,0,0,0-.09.15.45.45,0,0,1-.09.25,2.18,2.18,0,0,0-.24.69c0,.12.08.22.06.34a.6.6,0,0,0,.38.72c.22.12.51.2.62.47a.4.4,0,0,0,.21.23,1.21,1.21,0,0,1,.35.24.43.43,0,0,0,.26.13l1.12.12C169.78,142.73,169.88,142.72,169.88,142.62Z"/><path d="M166.64,150.51a1.5,1.5,0,0,0,.37,0c.5-.12.76-.54,1.08-.89a.2.2,0,0,0,0-.3c-.16-.13-.25-.32-.46-.4a.42.42,0,0,1-.24-.23c-.07-.16-.18-.15-.32-.1s-.23.13-.35,0-.24,0-.33.09c-.22.28-.27.65-.55.9-.08.07-.05.18,0,.28C165.94,150.25,166.33,150.33,166.64,150.51Z"/><path d="M167.16,136.45a.61.61,0,0,1,.3-.27.14.14,0,0,0,.11-.1.24.24,0,0,1,.24-.23.15.15,0,0,0,.13-.16.2.2,0,0,0-.12-.18.34.34,0,0,0-.31,0c-.15.07-.19,0-.18-.14a1.09,1.09,0,0,0-.49-.89,7,7,0,0,0-.91-.53c-.14-.08-.16-.28-.35-.3a.5.5,0,0,1-.32-.2,1,1,0,0,0-1.28-.12.35.35,0,0,0-.2.33.64.64,0,0,1-.42.64.62.62,0,0,0-.22.4c0,.09.06.12.13.16a.55.55,0,0,1,.28.61c0,.07-.09.17,0,.22a1.16,1.16,0,0,0,.43.15.7.7,0,0,1,.45.21c.12.11.22.26.43.25a3.1,3.1,0,0,1,1.49.4C166.76,136.86,166.93,136.82,167.16,136.45Z"/><path d="M153.86,143.48a.75.75,0,0,0,.2.15c.23.11.43.31.71.27a1.93,1.93,0,0,1,.93.11c.39.15.84.18,1.14.52,0,0,.09,0,.13,0a.67.67,0,0,1,.38.15.16.16,0,0,0,.24,0,1.41,1.41,0,0,1,.8-.32c.19,0,.38-.15.56,0s.08,0,.12,0a.72.72,0,0,1,.49-.15.26.26,0,0,0,.19-.06.66.66,0,0,1,.85-.16c.18.08.35-.06.53,0a.26.26,0,0,0,.31-.17.36.36,0,0,1,.42-.24c.16,0,.32,0,.34-.2a2.37,2.37,0,0,1,.31-.79c.13-.3.16-.68.62-.74a.41.41,0,0,0,.26-.58c-.07-.12-.21-.17-.3-.32a2.84,2.84,0,0,1-.48-1,.35.35,0,0,0-.14-.23c-.1,0-.12-.12-.14-.21-.09-.37-.17-.41-.52-.27a.24.24,0,0,1-.28,0,.27.27,0,0,1-.1-.28,7.36,7.36,0,0,1,.25-.95,3.19,3.19,0,0,0,.16-1.33c0-.06,0-.12-.07-.13-.28-.07-.33-.32-.44-.51a2.06,2.06,0,0,0-.72-.8,1.22,1.22,0,0,1-.59-.65,1.11,1.11,0,0,0-.3-.56,1.68,1.68,0,0,1-.45-1.91,3,3,0,0,0,.12-.84c0-.18,0-.37,0-.56a.22.22,0,0,0-.06-.14c-.18-.13-.23-.41-.51-.42,0,0-.05,0-.06-.06-.1-.2-.31-.37-.22-.64,0-.08-.05-.13-.09-.2a.74.74,0,0,1-.16-.71.36.36,0,0,0-.07-.4c-.2-.25-.51-.19-.76-.27-.06,0-.11,0-.16.08a1.51,1.51,0,0,1-1.42.37c-.2,0-.28,0-.28.21a.37.37,0,0,1-.24.38,2.94,2.94,0,0,1-.69.28,3.47,3.47,0,0,0-.55.16c-.23.08-.28.25-.12.43a.62.62,0,0,1,.15.35c0,.25.14.3.38.23s.71-.2,1.08-.28a.58.58,0,0,1,.69.55,8.05,8.05,0,0,1-.11,1.09.81.81,0,0,0,0,.53.58.58,0,0,1,0,.56.69.69,0,0,0,.05.74,1.09,1.09,0,0,1,.21.48,1.13,1.13,0,0,0,.61.8.73.73,0,0,1,.41.43.33.33,0,0,0,.22.21c.34.1.36.15.29.48l-.06.25a.86.86,0,0,0,.17.74c.47.53.93,1.07,1.39,1.61a.3.3,0,0,1-.17.51c-.31.06-.62.09-.81.39,0,0-.06,0-.08,0-.25.15-.42,0-.59-.17a.51.51,0,0,0-.61,0,.81.81,0,0,1-.48.09c-.3,0-.65-.21-.82.23-.39.11-.6.56-1.06.57a.13.13,0,0,0-.07,0l-.85.64a4.74,4.74,0,0,0-.51.37.78.78,0,0,0,.14,1.38c.2.13.27.23.19.43A.37.37,0,0,0,153.86,143.48Z"/><path d="M164.89,139.63a.51.51,0,0,0,.36.53.37.37,0,0,0,.37-.25.62.62,0,0,0-.37-.55A.33.33,0,0,0,164.89,139.63Z"/><path d="M166.09,123.8l.31.15a.21.21,0,0,0,.29-.09,1.08,1.08,0,0,0,.14-.32,1.2,1.2,0,0,0-.29-1c-.12-.14-.21-.3-.42-.22s-.18.25-.16.43a1,1,0,0,1-.05.53C165.8,123.57,165.9,123.69,166.09,123.8Z"/><path d="M173,143.56h-.14c-.12,0-.23-.08-.27,0s-.17.29,0,.4a1.12,1.12,0,0,0,.67.3.2.2,0,0,0,.22-.18C173.56,143.76,173.4,143.57,173,143.56Z"/><path d="M217.69,185.56a.66.66,0,0,0,.58-.6l2.53-29a1.78,1.78,0,0,0-.19-.89c-.05-.1-.19-.33-.81-.39h-.26a8.85,8.85,0,0,0-3.16.79l-1.28.51-1.52.53,0-.3a12,12,0,0,1-1.69.12c-.33,0-.66,0-1,0a11.79,11.79,0,0,1-10.72-12.76A11.84,11.84,0,0,1,212,132.76c.33,0,.65,0,1,0a12.09,12.09,0,0,1,2.61.53l0-.38,2.58,1.59a8.29,8.29,0,0,0,3.41,1.46h.22c.23,0,.61,0,.78-1l.92-10.48a20,20,0,0,0-1.18-1.94,5.41,5.41,0,0,0-1-.89c0,1.27-1,1.46-1.62,2.07l-.2-1a15.42,15.42,0,0,0-1.69,1.07,1,1,0,0,0-.36.85c.1.37.32.84.94.57a3.7,3.7,0,0,1,1.05-.08c-.16.12-.24.23-.32.24-1,.11-1.33.71-1.45,1.6,0,.2-.33.37-.6.66-.11-.51-.16-.84-.25-1.15-.34-1.06-1-1.24-1.82-.49a6.37,6.37,0,0,1-1,.94,3,3,0,0,1-1.34.58,25.48,25.48,0,0,1-2.61-.13,6.86,6.86,0,0,1-1.51-.07,2.9,2.9,0,0,0-2.85.62,2.29,2.29,0,0,1-1.68.5c-.59-.12-1-.24-1.45.35l0-.76c-.68.14-1.31.25-1.92.41a4.26,4.26,0,0,0-.9.4,7.58,7.58,0,0,1-1.37.79,18.13,18.13,0,0,1-2.54.51c-.54.08-1.09.07-1.63.12-.37,0-.84,0-1.09.21a3.09,3.09,0,0,0-1.06,2.68,1.25,1.25,0,0,0,.54.84c.74.44,1.2,2,.6,2.63-.93,1-.61,1.9-.07,2.8.35.58.31.93-.22,1.28l-.56-.59c-.17.62-.34,1.09-.42,1.58-.18,1.14.1,2.38-.7,3.39a27.33,27.33,0,0,1-2.1,2.64,19.41,19.41,0,0,1-2.54,1.85c-.6.41-1.2.86-2,.35-.52.53-1.25,1-1.5,1.6a3.32,3.32,0,0,1-2.18,1.88c-.75.27-.75.56-.52,1.19.51,1.38,1,2.79,1.46,4.19a.71.71,0,0,0,.37.41c.6.2,1.22.36,1.87.55a2.1,2.1,0,0,1-3-1.77,1.9,1.9,0,0,0-.61.62,12.7,12.7,0,0,0-1,1.34l-.33.6.63,0a11.79,11.79,0,0,1,10.71,12.76A10.9,10.9,0,0,1,190,176l.38,0-1.59,2.58a8.4,8.4,0,0,0-1.46,3.42c0,.44-.07.82,1,1l29.3,2.55Z"/><path d="M169.47,128.34a.14.14,0,0,0,.14.1c.42-.06.88,0,1.15-.46a.3.3,0,0,0-.1-.48,3.21,3.21,0,0,1-.53-.43.49.49,0,0,0-.54-.14.64.64,0,0,1-.28.07.46.46,0,0,0-.5.44.27.27,0,0,1,0,.09C168.77,128,169.31,128,169.47,128.34Z"/><path d="M176.61,129.1s.11-.07.13.05.16.13.26.07.18-.33.09-.58-.19-.16-.32-.15-.3.19-.36.35S176.43,129.11,176.61,129.1Z"/><path d="M180.25,145a.15.15,0,0,0-.24.11.38.38,0,0,1-.26.29,3.5,3.5,0,0,1-.56.24,1,1,0,0,0-.5.42.17.17,0,0,0,0,.23,2.76,2.76,0,0,0,1.24.71,1.5,1.5,0,0,0,.22,0,2,2,0,0,1,.77-.08,1,1,0,0,0,.85-.22,3.65,3.65,0,0,0,.78-1,.24.24,0,0,1,.2-.16c.47,0,.73-.36,1.05-.63.07-.05.11-.12.19-.15a1,1,0,0,0,.39-.37c.09-.1-.07-.18-.09-.28v0c0-.18-.1-.18-.23-.17s-.21.1-.28,0a1.25,1.25,0,0,0-.62-.28.45.45,0,0,0-.52.1.31.31,0,0,1-.24.12,1.43,1.43,0,0,0-.73.2.77.77,0,0,0-.46.34,2.69,2.69,0,0,0-.24.48.16.16,0,0,1-.17.13C180.63,145,180.44,145.11,180.25,145Z"/><path d="M177.64,152a.09.09,0,0,0,.05-.15.11.11,0,0,0-.17-.05c-.09.06-.17,0-.26,0a1.67,1.67,0,0,0-.94,0c-.23.09-.32.26-.16.39a2.46,2.46,0,0,0,1.39.69c.17,0,.38-.22.32-.4a.78.78,0,0,0-.22-.37C177.6,152.13,177.53,152.08,177.64,152Z"/></g></g></g><g id="DEDO_SIERRA" data-name="DEDO SIERRA"><path class="cls-7" d="M342.57,73.24,324.2,89.79l-11.33,13.49a8.14,8.14,0,1,1-12.39-10.55L310,81.4l14.93-23.18c3-4.19,9.82-4.22,15,.21S346.22,69.6,342.57,73.24Z"/></g><g id="DEDO_GALÁPAGOS" data-name="DEDO GALÁPAGOS"><path class="cls-61" d="M51.47-.64a2.78,2.78,0,0,0,.26,3C62.81,16,70,33.65,72,52.14a52.45,52.45,0,0,0,1.8,10.71c.82,2.48,4,1.9,4.11-.76h0c.08-2,2.09-3,3.47-1.79,2.37,2.14,5,3.76,7.93,3.56,7.22-.5,11.8-10.41,16.75-16.47,8.77-10.72,22.58-8.2,34.19-14.1l0,0c3.21-1.64,4.54-6.19,2.82-9.7a35.17,35.17,0,0,0-5.19-7.31L118.52-6.07a1.92,1.92,0,0,0-2.15-.59C97.13.37,75.32-.78,55.28-3.53,53.48-3.78,52.42-2.36,51.47-.64Z"/><use transform="matrix(0.12, 0.11, -0.02, 0.03, 141.96, 43.83)" xlink:href="#image"/><use transform="matrix(-0.07, -0.12, 0.03, -0.02, 112.88, 72.27)" xlink:href="#image"/><image width="230" height="225" transform="matrix(0.07, 0.1, -0.1, 0.07, 131.47, 39.06)" xlink:href="../../../../Downloads/MicrosoftTeams-image%20(13).png"/><path class="cls-21" d="M182.08,67.65a76.87,76.87,0,0,0-7-5.26c-.69,5.34-12.06,9.65-3.34,16.86a37.7,37.7,0,0,0,7.51,4.2c2.24.93,1.77,6.53,12.49,11.61,4.18,2,10.92-.52,10.32-4.8a106.25,106.25,0,0,1-9.74-9.94A112.15,112.15,0,0,1,182.08,67.65Z"/></g></svg>