<svg  viewBox="0 0 894 403" fill="none" xmlns="http://www.w3.org/2000/svg">
<g filter="url(#filter0_d_127_364)">
<path d="M41.7733 253.108C27.4416 242.884 15.863 226.489 7 203.96L56.1804 182.168C60.8948 194.039 66.4389 203.221 72.7939 209.753C79.1489 216.284 86.013 219.541 93.3863 219.541C98.987 219.541 103.287 217.988 106.228 214.865C109.17 211.76 110.66 207.519 110.66 202.18C110.358 197.144 107.567 191.881 102.249 186.39C96.9315 180.9 87.9176 172.986 75.2265 162.592L56.6141 147.03C41.2453 133.985 30.1005 122.115 23.1609 111.456C16.2213 100.778 12.7515 88.0365 12.7515 73.2125C12.7515 59.5811 16.3722 47.4076 23.6135 36.7487C30.8548 26.0708 40.5098 17.7027 52.6352 11.6254C64.7417 5.54811 77.7346 2.5 91.6137 2.5C112.583 2.5 130.083 8.21758 144.113 19.6149C158.143 31.0311 168.1 47.4076 174.021 68.7633L127.5 90.1191C124.539 80.6339 119.975 72.1144 113.771 64.5414C107.567 56.9685 100.778 53.2009 93.3863 53.2009C88.6531 53.2009 84.9004 54.5262 82.0906 57.1957C79.2809 59.8651 77.8854 63.4244 77.8854 67.8735C77.8854 73.2125 80.6198 78.8543 86.0884 84.7801C91.5571 90.706 100.778 99.0173 113.771 109.695L131.931 125.712C141.963 134.61 150.015 142.164 156.069 148.393C162.122 154.622 167.289 162.043 171.57 170.639C175.85 179.234 178 188.586 178 198.658C178 213.199 174.228 225.713 166.704 236.239C159.18 246.766 149.129 254.774 136.57 260.264C124.011 265.755 110.509 268.5 96.0264 268.5C74.1705 268.5 56.0861 263.388 41.7544 253.146L41.7733 253.108Z" fill="#246CB6"/>
<path d="M368.422 137.326C373.166 187.638 348.285 239.466 309.726 261.799C267.833 286.084 218.129 260.682 195.077 204.592C171.625 147.498 180.446 73.3751 215.69 31.4925C251.068 -10.5605 302.81 -10.5037 337.083 31.7009C338.855 33.8793 355.772 65.6464 357.353 68.1469C356.248 67.8248 344.703 83.8694 328.891 104.309C326.91 106.866 317.137 121.755 315.536 124.066C300.848 145.547 295.076 151.363 279.911 172.143C277.777 175.079 272.386 175.988 269.49 174.302C264.403 171.366 259.526 166.536 255.545 161.024C243.009 143.653 243.162 134.238 255.373 116.868C269.909 96.2012 275.605 91.3139 290.56 70.1169C263.337 52.4622 230.283 83.358 227.197 126.983C224.358 167.369 244.19 202.717 271.376 205.71C301.743 209.044 326.319 181.955 327.291 137.345" fill="#246CB6"/>
<path d="M373 6.5H441.728L462.881 171.21L482.272 6.5H551L498.568 264.5H424.12L373 6.5Z" fill="#246CB6"/>
<path d="M691.464 115.296C690.667 118.421 689.586 121.717 688.011 124.047C673.385 145.528 667.637 151.344 652.536 172.124C650.411 175.06 645.043 175.969 642.159 174.283C637.094 171.347 632.238 166.517 628.273 161.005C615.79 143.634 615.942 134.219 628.102 116.849C642.577 96.1822 648.249 91.295 663.141 70.098C636.032 52.4433 603.118 83.339 600.044 126.964C597.218 167.35 616.966 202.698 644.037 205.691C674.277 209.025 697.724 179.133 698.692 134.523C699.564 94.7426 709.467 61.4601 729.861 34.6181C772.697 -21.8126 841.2 -7.81383 874 68.6204C865.406 79.4178 855.712 90.5562 846.872 102.945C827.863 129.578 819.611 139.163 801.285 166.782C795.367 175.723 790.017 176.689 783.567 170.324C779.298 166.119 774.935 161.63 771.615 156.042C760.916 138.008 761.219 132.306 772.867 116.091C787.74 95.3488 792.123 92.0527 807.963 70.1169C775.201 52.4433 744.658 86.7487 742.913 137.837C740.883 197.545 720.565 239.447 682.187 261.799C640.471 286.084 590.976 260.682 568.022 204.592C544.669 147.498 553.452 73.3751 588.548 31.4925C623.777 -10.5605 675.301 -10.5037 709.429 31.7009C711.194 33.8793 712.616 36.626 714.21 39.1265C713.11 38.8044 698.009 89.628 691.445 115.314L691.464 115.296Z" fill="#246CB6"/>
<path d="M729 232.949C736.353 212.292 743.253 192.902 750.455 172.681C763.839 199.101 782.062 213.067 805.729 204.166C829.074 195.378 840.057 170.791 843.063 137H885.066C890.945 176.838 868.393 231.626 836.277 256.024C801.041 282.803 754.973 272.806 729 232.93V232.949Z" fill="#246CB6"/>
</g>
<path d="M22.2919 308.131C22.1555 306.756 21.5703 305.687 20.5362 304.926C19.5021 304.165 18.0987 303.784 16.326 303.784C15.1214 303.784 14.1044 303.955 13.2749 304.295C12.4453 304.625 11.8089 305.085 11.3658 305.676C10.9339 306.267 10.718 306.938 10.718 307.688C10.6953 308.312 10.826 308.858 11.1101 309.324C11.4055 309.79 11.8089 310.193 12.3203 310.534C12.8317 310.864 13.4226 311.153 14.093 311.403C14.7635 311.642 15.4794 311.847 16.2408 312.017L19.3771 312.767C20.8999 313.108 22.2976 313.562 23.5703 314.131C24.843 314.699 25.9453 315.398 26.8771 316.227C27.8089 317.057 28.5305 318.034 29.0419 319.159C29.5646 320.284 29.8317 321.574 29.843 323.028C29.8317 325.165 29.2862 327.017 28.2067 328.585C27.1385 330.142 25.593 331.352 23.5703 332.216C21.5589 333.068 19.1328 333.494 16.2919 333.494C13.4737 333.494 11.0192 333.062 8.92827 332.199C6.84872 331.335 5.22372 330.057 4.05327 328.364C2.89418 326.659 2.28622 324.551 2.2294 322.04H9.37145C9.45099 323.21 9.78622 324.187 10.3771 324.972C10.9794 325.744 11.7805 326.33 12.7805 326.727C13.7919 327.114 14.9339 327.307 16.2067 327.307C17.4567 327.307 18.5419 327.125 19.4624 326.761C20.3942 326.398 21.1158 325.892 21.6271 325.244C22.1385 324.597 22.3942 323.852 22.3942 323.011C22.3942 322.227 22.1612 321.568 21.6953 321.034C21.2408 320.5 20.5703 320.045 19.6839 319.67C18.8089 319.295 17.7351 318.955 16.4624 318.648L12.6612 317.693C9.71804 316.977 7.39418 315.858 5.68963 314.335C3.98509 312.812 3.13849 310.761 3.14986 308.182C3.13849 306.068 3.70099 304.222 4.83736 302.642C5.98509 301.062 7.55895 299.83 9.55895 298.943C11.5589 298.057 13.8317 297.614 16.3771 297.614C18.968 297.614 21.2294 298.057 23.1612 298.943C25.1044 299.83 26.6158 301.062 27.6953 302.642C28.7749 304.222 29.3317 306.051 29.3658 308.131H22.2919ZM34.6712 333V306.818H41.9325V333H34.6712ZM38.3189 303.443C37.2393 303.443 36.3132 303.085 35.5405 302.369C34.7791 301.642 34.3984 300.773 34.3984 299.761C34.3984 298.761 34.7791 297.903 35.5405 297.188C36.3132 296.46 37.2393 296.097 38.3189 296.097C39.3984 296.097 40.3189 296.46 41.0803 297.188C41.853 297.903 42.2393 298.761 42.2393 299.761C42.2393 300.773 41.853 301.642 41.0803 302.369C40.3189 303.085 39.3984 303.443 38.3189 303.443ZM69.5334 314.284L62.8857 314.693C62.772 314.125 62.5277 313.614 62.1527 313.159C61.7777 312.693 61.2834 312.324 60.6697 312.051C60.0675 311.767 59.3459 311.625 58.505 311.625C57.38 311.625 56.4311 311.864 55.6584 312.341C54.8857 312.807 54.4993 313.432 54.4993 314.216C54.4993 314.841 54.7493 315.369 55.2493 315.801C55.7493 316.233 56.6072 316.58 57.8232 316.841L62.5618 317.795C65.1072 318.318 67.005 319.159 68.255 320.318C69.505 321.477 70.13 323 70.13 324.886C70.13 326.602 69.6243 328.108 68.6129 329.403C67.6129 330.699 66.2379 331.71 64.4879 332.438C62.7493 333.153 60.7436 333.511 58.4709 333.511C55.005 333.511 52.2436 332.79 50.1868 331.347C48.1413 329.892 46.9425 327.915 46.5902 325.415L53.7322 325.04C53.9482 326.097 54.4709 326.903 55.3004 327.46C56.13 328.006 57.1925 328.278 58.4879 328.278C59.7607 328.278 60.7834 328.034 61.5561 327.545C62.3402 327.045 62.7379 326.403 62.7493 325.619C62.7379 324.96 62.4595 324.42 61.9141 324C61.3686 323.568 60.5277 323.239 59.3913 323.011L54.8572 322.108C52.3004 321.597 50.397 320.71 49.147 319.449C47.9084 318.187 47.2891 316.58 47.2891 314.625C47.2891 312.943 47.7436 311.494 48.6527 310.278C49.5732 309.062 50.8629 308.125 52.522 307.466C54.1925 306.807 56.147 306.477 58.3857 306.477C61.6925 306.477 64.2947 307.176 66.1925 308.574C68.1016 309.972 69.2152 311.875 69.5334 314.284ZM88.6286 306.818V312.273H72.8615V306.818H88.6286ZM76.4411 300.545H83.7024V324.955C83.7024 325.625 83.8047 326.148 84.0092 326.523C84.2138 326.886 84.4979 327.142 84.8615 327.29C85.2365 327.437 85.6683 327.511 86.157 327.511C86.4979 327.511 86.8388 327.483 87.1797 327.426C87.5206 327.358 87.782 327.307 87.9638 327.273L89.1058 332.676C88.7422 332.79 88.2308 332.92 87.5717 333.068C86.9126 333.227 86.1115 333.324 85.1683 333.358C83.4183 333.426 81.8842 333.193 80.5661 332.659C79.2592 332.125 78.2422 331.295 77.5149 330.17C76.7876 329.045 76.4297 327.625 76.4411 325.909V300.545ZM105.009 333.511C102.316 333.511 99.9979 332.966 98.0547 331.875C96.1229 330.773 94.6342 329.216 93.5888 327.205C92.5433 325.182 92.0206 322.79 92.0206 320.028C92.0206 317.335 92.5433 314.972 93.5888 312.938C94.6342 310.903 96.1058 309.318 98.0036 308.182C99.9126 307.045 102.151 306.477 104.719 306.477C106.447 306.477 108.055 306.756 109.543 307.312C111.043 307.858 112.35 308.682 113.464 309.784C114.589 310.886 115.464 312.273 116.089 313.943C116.714 315.602 117.026 317.545 117.026 319.773V321.767H94.9183V317.267H110.191C110.191 316.222 109.964 315.295 109.509 314.489C109.055 313.682 108.424 313.051 107.617 312.597C106.822 312.131 105.896 311.898 104.839 311.898C103.737 311.898 102.759 312.153 101.907 312.665C101.066 313.165 100.407 313.841 99.9297 314.693C99.4524 315.534 99.2081 316.472 99.1967 317.506V321.784C99.1967 323.08 99.4354 324.199 99.9126 325.142C100.401 326.085 101.089 326.812 101.975 327.324C102.862 327.835 103.913 328.091 105.129 328.091C105.935 328.091 106.674 327.977 107.344 327.75C108.015 327.523 108.589 327.182 109.066 326.727C109.543 326.273 109.907 325.716 110.157 325.057L116.873 325.5C116.532 327.114 115.833 328.523 114.776 329.727C113.731 330.92 112.379 331.852 110.719 332.523C109.072 333.182 107.168 333.511 105.009 333.511ZM121.765 333V306.818H128.685V311.438H128.992C129.538 309.903 130.447 308.693 131.719 307.807C132.992 306.92 134.515 306.477 136.288 306.477C138.083 306.477 139.612 306.926 140.873 307.824C142.134 308.71 142.975 309.915 143.396 311.438H143.668C144.202 309.938 145.168 308.739 146.566 307.841C147.975 306.932 149.64 306.477 151.56 306.477C154.004 306.477 155.987 307.256 157.509 308.812C159.043 310.358 159.81 312.551 159.81 315.392V333H152.566V316.824C152.566 315.369 152.18 314.278 151.407 313.551C150.634 312.824 149.668 312.46 148.509 312.46C147.191 312.46 146.163 312.881 145.424 313.722C144.685 314.551 144.316 315.648 144.316 317.011V333H137.276V316.67C137.276 315.386 136.907 314.364 136.168 313.602C135.441 312.841 134.481 312.46 133.288 312.46C132.481 312.46 131.754 312.665 131.106 313.074C130.469 313.472 129.964 314.034 129.589 314.761C129.214 315.477 129.026 316.318 129.026 317.284V333H121.765ZM173.012 333.494C171.342 333.494 169.853 333.205 168.546 332.625C167.239 332.034 166.205 331.165 165.444 330.017C164.694 328.858 164.319 327.415 164.319 325.688C164.319 324.233 164.586 323.011 165.12 322.023C165.654 321.034 166.381 320.239 167.302 319.636C168.222 319.034 169.268 318.58 170.438 318.273C171.62 317.966 172.859 317.75 174.154 317.625C175.677 317.466 176.904 317.318 177.836 317.182C178.768 317.034 179.444 316.818 179.864 316.534C180.285 316.25 180.495 315.83 180.495 315.273V315.17C180.495 314.091 180.154 313.256 179.472 312.665C178.802 312.074 177.847 311.778 176.609 311.778C175.302 311.778 174.262 312.068 173.489 312.648C172.717 313.216 172.205 313.932 171.955 314.795L165.239 314.25C165.58 312.659 166.251 311.284 167.251 310.125C168.251 308.955 169.54 308.057 171.12 307.432C172.711 306.795 174.552 306.477 176.643 306.477C178.097 306.477 179.489 306.648 180.819 306.989C182.16 307.33 183.347 307.858 184.381 308.574C185.427 309.29 186.251 310.21 186.853 311.335C187.455 312.449 187.756 313.784 187.756 315.341V333H180.87V329.369H180.665C180.245 330.188 179.683 330.909 178.978 331.534C178.273 332.148 177.427 332.631 176.438 332.983C175.45 333.324 174.308 333.494 173.012 333.494ZM175.092 328.483C176.16 328.483 177.103 328.273 177.921 327.852C178.739 327.42 179.381 326.841 179.847 326.114C180.313 325.386 180.546 324.562 180.546 323.642V320.864C180.319 321.011 180.006 321.148 179.609 321.273C179.222 321.386 178.785 321.494 178.296 321.597C177.808 321.687 177.319 321.773 176.83 321.852C176.342 321.92 175.898 321.983 175.501 322.04C174.648 322.165 173.904 322.364 173.268 322.636C172.631 322.909 172.137 323.278 171.785 323.744C171.433 324.199 171.256 324.767 171.256 325.449C171.256 326.438 171.614 327.193 172.33 327.716C173.058 328.227 173.978 328.483 175.092 328.483ZM204.636 333V298.091H228.158V304.176H212.016V312.494H226.948V318.58H212.016V326.915H228.227V333H204.636ZM245.719 333.511C243.038 333.511 240.731 332.943 238.799 331.807C236.879 330.659 235.401 329.068 234.367 327.034C233.344 325 232.833 322.659 232.833 320.011C232.833 317.33 233.35 314.977 234.384 312.955C235.43 310.92 236.913 309.335 238.833 308.199C240.754 307.051 243.038 306.477 245.685 306.477C247.969 306.477 249.969 306.892 251.685 307.722C253.401 308.551 254.759 309.716 255.759 311.216C256.759 312.716 257.31 314.477 257.413 316.5H250.56C250.367 315.193 249.856 314.142 249.026 313.347C248.208 312.54 247.134 312.136 245.805 312.136C244.68 312.136 243.697 312.443 242.856 313.057C242.026 313.659 241.379 314.54 240.913 315.699C240.447 316.858 240.214 318.261 240.214 319.909C240.214 321.58 240.441 323 240.896 324.17C241.362 325.341 242.015 326.233 242.856 326.847C243.697 327.46 244.68 327.767 245.805 327.767C246.634 327.767 247.379 327.597 248.038 327.256C248.708 326.915 249.259 326.42 249.691 325.773C250.134 325.114 250.424 324.324 250.56 323.403H257.413C257.299 325.403 256.754 327.165 255.776 328.688C254.81 330.199 253.475 331.381 251.771 332.233C250.066 333.085 248.049 333.511 245.719 333.511ZM278.852 321.852V306.818H286.113V333H279.141V328.244H278.869C278.278 329.778 277.295 331.011 275.92 331.943C274.556 332.875 272.891 333.341 270.925 333.341C269.175 333.341 267.636 332.943 266.306 332.148C264.977 331.352 263.937 330.222 263.187 328.756C262.448 327.29 262.073 325.534 262.062 323.489V306.818H269.323V322.193C269.335 323.739 269.749 324.96 270.567 325.858C271.386 326.756 272.482 327.205 273.857 327.205C274.732 327.205 275.55 327.006 276.312 326.608C277.073 326.199 277.687 325.597 278.153 324.801C278.63 324.006 278.863 323.023 278.852 321.852ZM299.387 333.494C297.717 333.494 296.228 333.205 294.921 332.625C293.614 332.034 292.58 331.165 291.819 330.017C291.069 328.858 290.694 327.415 290.694 325.688C290.694 324.233 290.961 323.011 291.495 322.023C292.029 321.034 292.756 320.239 293.677 319.636C294.597 319.034 295.643 318.58 296.813 318.273C297.995 317.966 299.234 317.75 300.529 317.625C302.052 317.466 303.279 317.318 304.211 317.182C305.143 317.034 305.819 316.818 306.239 316.534C306.66 316.25 306.87 315.83 306.87 315.273V315.17C306.87 314.091 306.529 313.256 305.847 312.665C305.177 312.074 304.222 311.778 302.984 311.778C301.677 311.778 300.637 312.068 299.864 312.648C299.092 313.216 298.58 313.932 298.33 314.795L291.614 314.25C291.955 312.659 292.626 311.284 293.626 310.125C294.626 308.955 295.915 308.057 297.495 307.432C299.086 306.795 300.927 306.477 303.018 306.477C304.472 306.477 305.864 306.648 307.194 306.989C308.535 307.33 309.722 307.858 310.756 308.574C311.802 309.29 312.626 310.21 313.228 311.335C313.83 312.449 314.131 313.784 314.131 315.341V333H307.245V329.369H307.04C306.62 330.188 306.058 330.909 305.353 331.534C304.648 332.148 303.802 332.631 302.813 332.983C301.825 333.324 300.683 333.494 299.387 333.494ZM301.467 328.483C302.535 328.483 303.478 328.273 304.296 327.852C305.114 327.42 305.756 326.841 306.222 326.114C306.688 325.386 306.921 324.562 306.921 323.642V320.864C306.694 321.011 306.381 321.148 305.984 321.273C305.597 321.386 305.16 321.494 304.671 321.597C304.183 321.687 303.694 321.773 303.205 321.852C302.717 321.92 302.273 321.983 301.876 322.04C301.023 322.165 300.279 322.364 299.643 322.636C299.006 322.909 298.512 323.278 298.16 323.744C297.808 324.199 297.631 324.767 297.631 325.449C297.631 326.438 297.989 327.193 298.705 327.716C299.433 328.227 300.353 328.483 301.467 328.483ZM333.691 306.818V312.273H317.924V306.818H333.691ZM321.504 300.545H328.765V324.955C328.765 325.625 328.867 326.148 329.072 326.523C329.276 326.886 329.56 327.142 329.924 327.29C330.299 327.437 330.731 327.511 331.219 327.511C331.56 327.511 331.901 327.483 332.242 327.426C332.583 327.358 332.844 327.307 333.026 327.273L334.168 332.676C333.805 332.79 333.293 332.92 332.634 333.068C331.975 333.227 331.174 333.324 330.231 333.358C328.481 333.426 326.947 333.193 325.629 332.659C324.322 332.125 323.305 331.295 322.577 330.17C321.85 329.045 321.492 327.625 321.504 325.909V300.545ZM349.969 333.511C347.322 333.511 345.032 332.949 343.1 331.824C341.18 330.687 339.697 329.108 338.651 327.085C337.606 325.051 337.083 322.693 337.083 320.011C337.083 317.307 337.606 314.943 338.651 312.92C339.697 310.886 341.18 309.307 343.1 308.182C345.032 307.045 347.322 306.477 349.969 306.477C352.617 306.477 354.901 307.045 356.822 308.182C358.754 309.307 360.242 310.886 361.288 312.92C362.333 314.943 362.856 317.307 362.856 320.011C362.856 322.693 362.333 325.051 361.288 327.085C360.242 329.108 358.754 330.687 356.822 331.824C354.901 332.949 352.617 333.511 349.969 333.511ZM350.004 327.886C351.208 327.886 352.214 327.545 353.021 326.864C353.827 326.17 354.435 325.227 354.844 324.034C355.265 322.841 355.475 321.483 355.475 319.96C355.475 318.438 355.265 317.08 354.844 315.886C354.435 314.693 353.827 313.75 353.021 313.057C352.214 312.364 351.208 312.017 350.004 312.017C348.788 312.017 347.765 312.364 346.935 313.057C346.117 313.75 345.498 314.693 345.077 315.886C344.668 317.08 344.464 318.438 344.464 319.96C344.464 321.483 344.668 322.841 345.077 324.034C345.498 325.227 346.117 326.17 346.935 326.864C347.765 327.545 348.788 327.886 350.004 327.886ZM367.577 333V306.818H374.617V311.386H374.89C375.367 309.761 376.168 308.534 377.293 307.705C378.418 306.864 379.714 306.443 381.18 306.443C381.543 306.443 381.935 306.466 382.356 306.511C382.776 306.557 383.146 306.619 383.464 306.699V313.142C383.123 313.04 382.651 312.949 382.049 312.869C381.447 312.79 380.896 312.75 380.396 312.75C379.327 312.75 378.373 312.983 377.532 313.449C376.702 313.903 376.043 314.54 375.555 315.358C375.077 316.176 374.839 317.119 374.839 318.188V333H367.577ZM387.218 333V306.818H394.479V333H387.218ZM390.866 303.443C389.786 303.443 388.86 303.085 388.087 302.369C387.326 301.642 386.945 300.773 386.945 299.761C386.945 298.761 387.326 297.903 388.087 297.188C388.86 296.46 389.786 296.097 390.866 296.097C391.945 296.097 392.866 296.46 393.627 297.188C394.4 297.903 394.786 298.761 394.786 299.761C394.786 300.773 394.4 301.642 393.627 302.369C392.866 303.085 391.945 303.443 390.866 303.443ZM407.762 333.494C406.092 333.494 404.603 333.205 403.296 332.625C401.989 332.034 400.955 331.165 400.194 330.017C399.444 328.858 399.069 327.415 399.069 325.688C399.069 324.233 399.336 323.011 399.87 322.023C400.404 321.034 401.131 320.239 402.052 319.636C402.972 319.034 404.018 318.58 405.188 318.273C406.37 317.966 407.609 317.75 408.904 317.625C410.427 317.466 411.654 317.318 412.586 317.182C413.518 317.034 414.194 316.818 414.614 316.534C415.035 316.25 415.245 315.83 415.245 315.273V315.17C415.245 314.091 414.904 313.256 414.222 312.665C413.552 312.074 412.597 311.778 411.359 311.778C410.052 311.778 409.012 312.068 408.239 312.648C407.467 313.216 406.955 313.932 406.705 314.795L399.989 314.25C400.33 312.659 401.001 311.284 402.001 310.125C403.001 308.955 404.29 308.057 405.87 307.432C407.461 306.795 409.302 306.477 411.393 306.477C412.847 306.477 414.239 306.648 415.569 306.989C416.91 307.33 418.097 307.858 419.131 308.574C420.177 309.29 421.001 310.21 421.603 311.335C422.205 312.449 422.506 313.784 422.506 315.341V333H415.62V329.369H415.415C414.995 330.188 414.433 330.909 413.728 331.534C413.023 332.148 412.177 332.631 411.188 332.983C410.2 333.324 409.058 333.494 407.762 333.494ZM409.842 328.483C410.91 328.483 411.853 328.273 412.671 327.852C413.489 327.42 414.131 326.841 414.597 326.114C415.063 325.386 415.296 324.562 415.296 323.642V320.864C415.069 321.011 414.756 321.148 414.359 321.273C413.972 321.386 413.535 321.494 413.046 321.597C412.558 321.687 412.069 321.773 411.58 321.852C411.092 321.92 410.648 321.983 410.251 322.04C409.398 322.165 408.654 322.364 408.018 322.636C407.381 322.909 406.887 323.278 406.535 323.744C406.183 324.199 406.006 324.767 406.006 325.449C406.006 326.438 406.364 327.193 407.08 327.716C407.808 328.227 408.728 328.483 409.842 328.483ZM435.401 317.864V333H428.14V306.818H435.06V311.438H435.367C435.947 309.915 436.918 308.71 438.282 307.824C439.646 306.926 441.299 306.477 443.242 306.477C445.06 306.477 446.646 306.875 447.998 307.67C449.35 308.466 450.401 309.602 451.151 311.08C451.901 312.545 452.276 314.295 452.276 316.33V333H445.015V317.625C445.026 316.023 444.617 314.773 443.788 313.875C442.958 312.966 441.816 312.511 440.362 312.511C439.384 312.511 438.521 312.722 437.771 313.142C437.032 313.562 436.452 314.176 436.032 314.983C435.623 315.778 435.413 316.739 435.401 317.864ZM469.829 333.511C467.181 333.511 464.891 332.949 462.96 331.824C461.039 330.687 459.556 329.108 458.511 327.085C457.465 325.051 456.942 322.693 456.942 320.011C456.942 317.307 457.465 314.943 458.511 312.92C459.556 310.886 461.039 309.307 462.96 308.182C464.891 307.045 467.181 306.477 469.829 306.477C472.477 306.477 474.761 307.045 476.681 308.182C478.613 309.307 480.102 310.886 481.147 312.92C482.192 314.943 482.715 317.307 482.715 320.011C482.715 322.693 482.192 325.051 481.147 327.085C480.102 329.108 478.613 330.687 476.681 331.824C474.761 332.949 472.477 333.511 469.829 333.511ZM469.863 327.886C471.067 327.886 472.073 327.545 472.88 326.864C473.687 326.17 474.295 325.227 474.704 324.034C475.124 322.841 475.335 321.483 475.335 319.96C475.335 318.438 475.124 317.08 474.704 315.886C474.295 314.693 473.687 313.75 472.88 313.057C472.073 312.364 471.067 312.017 469.863 312.017C468.647 312.017 467.624 312.364 466.795 313.057C465.977 313.75 465.357 314.693 464.937 315.886C464.528 317.08 464.323 318.438 464.323 319.96C464.323 321.483 464.528 322.841 464.937 324.034C465.357 325.227 465.977 326.17 466.795 326.864C467.624 327.545 468.647 327.886 469.863 327.886ZM508.194 333.426C506.205 333.426 504.404 332.915 502.79 331.892C501.188 330.858 499.915 329.341 498.972 327.341C498.04 325.33 497.575 322.864 497.575 319.943C497.575 316.943 498.058 314.449 499.023 312.46C499.989 310.46 501.273 308.966 502.876 307.977C504.489 306.977 506.256 306.477 508.177 306.477C509.643 306.477 510.864 306.727 511.842 307.227C512.83 307.716 513.626 308.33 514.228 309.068C514.842 309.795 515.308 310.511 515.626 311.216H515.847V298.091H523.092V333H515.933V328.807H515.626C515.285 329.534 514.802 330.256 514.177 330.972C513.563 331.676 512.762 332.261 511.773 332.727C510.796 333.193 509.603 333.426 508.194 333.426ZM510.495 327.648C511.665 327.648 512.654 327.33 513.461 326.693C514.279 326.045 514.904 325.142 515.336 323.983C515.779 322.824 516.001 321.466 516.001 319.909C516.001 318.352 515.785 317 515.353 315.852C514.921 314.705 514.296 313.818 513.478 313.193C512.66 312.568 511.665 312.256 510.495 312.256C509.302 312.256 508.296 312.58 507.478 313.227C506.66 313.875 506.04 314.773 505.62 315.92C505.2 317.068 504.989 318.398 504.989 319.909C504.989 321.432 505.2 322.778 505.62 323.949C506.052 325.108 506.671 326.017 507.478 326.676C508.296 327.324 509.302 327.648 510.495 327.648ZM540.994 333.511C538.3 333.511 535.982 332.966 534.039 331.875C532.107 330.773 530.619 329.216 529.573 327.205C528.528 325.182 528.005 322.79 528.005 320.028C528.005 317.335 528.528 314.972 529.573 312.938C530.619 310.903 532.09 309.318 533.988 308.182C535.897 307.045 538.136 306.477 540.704 306.477C542.431 306.477 544.039 306.756 545.528 307.312C547.028 307.858 548.335 308.682 549.448 309.784C550.573 310.886 551.448 312.273 552.073 313.943C552.698 315.602 553.011 317.545 553.011 319.773V321.767H530.903V317.267H546.175C546.175 316.222 545.948 315.295 545.494 314.489C545.039 313.682 544.408 313.051 543.602 312.597C542.806 312.131 541.88 311.898 540.823 311.898C539.721 311.898 538.744 312.153 537.891 312.665C537.05 313.165 536.391 313.841 535.914 314.693C535.437 315.534 535.192 316.472 535.181 317.506V321.784C535.181 323.08 535.42 324.199 535.897 325.142C536.386 326.085 537.073 326.812 537.96 327.324C538.846 327.835 539.897 328.091 541.113 328.091C541.92 328.091 542.658 327.977 543.329 327.75C543.999 327.523 544.573 327.182 545.05 326.727C545.528 326.273 545.891 325.716 546.141 325.057L552.857 325.5C552.516 327.114 551.817 328.523 550.761 329.727C549.715 330.92 548.363 331.852 546.704 332.523C545.056 333.182 543.153 333.511 540.994 333.511ZM575.302 298.091L583.739 324.614H584.063L592.518 298.091H600.7L588.665 333H579.154L567.103 298.091H575.302ZM604.765 333V306.818H612.026V333H604.765ZM608.413 303.443C607.333 303.443 606.407 303.085 605.634 302.369C604.873 301.642 604.492 300.773 604.492 299.761C604.492 298.761 604.873 297.903 605.634 297.188C606.407 296.46 607.333 296.097 608.413 296.097C609.492 296.097 610.413 296.46 611.174 297.188C611.947 297.903 612.333 298.761 612.333 299.761C612.333 300.773 611.947 301.642 611.174 302.369C610.413 303.085 609.492 303.443 608.413 303.443ZM639.627 314.284L632.979 314.693C632.866 314.125 632.621 313.614 632.246 313.159C631.871 312.693 631.377 312.324 630.763 312.051C630.161 311.767 629.44 311.625 628.599 311.625C627.474 311.625 626.525 311.864 625.752 312.341C624.979 312.807 624.593 313.432 624.593 314.216C624.593 314.841 624.843 315.369 625.343 315.801C625.843 316.233 626.701 316.58 627.917 316.841L632.656 317.795C635.201 318.318 637.099 319.159 638.349 320.318C639.599 321.477 640.224 323 640.224 324.886C640.224 326.602 639.718 328.108 638.707 329.403C637.707 330.699 636.332 331.71 634.582 332.438C632.843 333.153 630.837 333.511 628.565 333.511C625.099 333.511 622.337 332.79 620.281 331.347C618.235 329.892 617.036 327.915 616.684 325.415L623.826 325.04C624.042 326.097 624.565 326.903 625.394 327.46C626.224 328.006 627.286 328.278 628.582 328.278C629.854 328.278 630.877 328.034 631.65 327.545C632.434 327.045 632.832 326.403 632.843 325.619C632.832 324.96 632.553 324.42 632.008 324C631.462 323.568 630.621 323.239 629.485 323.011L624.951 322.108C622.394 321.597 620.491 320.71 619.241 319.449C618.002 318.187 617.383 316.58 617.383 314.625C617.383 312.943 617.837 311.494 618.746 310.278C619.667 309.062 620.957 308.125 622.616 307.466C624.286 306.807 626.241 306.477 628.479 306.477C631.786 306.477 634.388 307.176 636.286 308.574C638.195 309.972 639.309 311.875 639.627 314.284ZM661.586 321.852V306.818H668.847V333H661.876V328.244H661.603C661.012 329.778 660.029 331.011 658.654 331.943C657.29 332.875 655.626 333.341 653.66 333.341C651.91 333.341 650.37 332.943 649.04 332.148C647.711 331.352 646.671 330.222 645.921 328.756C645.183 327.29 644.808 325.534 644.796 323.489V306.818H652.058V322.193C652.069 323.739 652.484 324.96 653.302 325.858C654.12 326.756 655.217 327.205 656.592 327.205C657.467 327.205 658.285 327.006 659.046 326.608C659.808 326.199 660.421 325.597 660.887 324.801C661.364 324.006 661.597 323.023 661.586 321.852ZM682.121 333.494C680.451 333.494 678.962 333.205 677.656 332.625C676.349 332.034 675.315 331.165 674.553 330.017C673.803 328.858 673.428 327.415 673.428 325.688C673.428 324.233 673.695 323.011 674.229 322.023C674.763 321.034 675.491 320.239 676.411 319.636C677.332 319.034 678.377 318.58 679.548 318.273C680.729 317.966 681.968 317.75 683.263 317.625C684.786 317.466 686.013 317.318 686.945 317.182C687.877 317.034 688.553 316.818 688.974 316.534C689.394 316.25 689.604 315.83 689.604 315.273V315.17C689.604 314.091 689.263 313.256 688.582 312.665C687.911 312.074 686.957 311.778 685.718 311.778C684.411 311.778 683.371 312.068 682.599 312.648C681.826 313.216 681.315 313.932 681.065 314.795L674.349 314.25C674.69 312.659 675.36 311.284 676.36 310.125C677.36 308.955 678.65 308.057 680.229 307.432C681.82 306.795 683.661 306.477 685.752 306.477C687.207 306.477 688.599 306.648 689.928 306.989C691.269 307.33 692.457 307.858 693.491 308.574C694.536 309.29 695.36 310.21 695.962 311.335C696.565 312.449 696.866 313.784 696.866 315.341V333H689.979V329.369H689.775C689.354 330.188 688.792 330.909 688.087 331.534C687.383 332.148 686.536 332.631 685.548 332.983C684.559 333.324 683.417 333.494 682.121 333.494ZM684.201 328.483C685.269 328.483 686.212 328.273 687.031 327.852C687.849 327.42 688.491 326.841 688.957 326.114C689.423 325.386 689.656 324.562 689.656 323.642V320.864C689.428 321.011 689.116 321.148 688.718 321.273C688.332 321.386 687.894 321.494 687.406 321.597C686.917 321.687 686.428 321.773 685.94 321.852C685.451 321.92 685.008 321.983 684.61 322.04C683.758 322.165 683.013 322.364 682.377 322.636C681.741 322.909 681.246 323.278 680.894 323.744C680.542 324.199 680.366 324.767 680.366 325.449C680.366 326.438 680.724 327.193 681.44 327.716C682.167 328.227 683.087 328.483 684.201 328.483ZM709.761 298.091V333H702.499V298.091H709.761ZM715.577 333V306.818H722.839V333H715.577ZM719.225 303.443C718.146 303.443 717.219 303.085 716.447 302.369C715.685 301.642 715.305 300.773 715.305 299.761C715.305 298.761 715.685 297.903 716.447 297.188C717.219 296.46 718.146 296.097 719.225 296.097C720.305 296.097 721.225 296.46 721.987 297.188C722.759 297.903 723.146 298.761 723.146 299.761C723.146 300.773 722.759 301.642 721.987 302.369C721.225 303.085 720.305 303.443 719.225 303.443ZM728.519 333V328.67L741.337 312.801V312.614H728.962V306.818H750.082V311.54L738.048 327.017V327.205H750.525V333H728.519ZM763.543 333.494C761.873 333.494 760.384 333.205 759.077 332.625C757.771 332.034 756.737 331.165 755.975 330.017C755.225 328.858 754.85 327.415 754.85 325.688C754.85 324.233 755.117 323.011 755.651 322.023C756.185 321.034 756.913 320.239 757.833 319.636C758.754 319.034 759.799 318.58 760.969 318.273C762.151 317.966 763.39 317.75 764.685 317.625C766.208 317.466 767.435 317.318 768.367 317.182C769.299 317.034 769.975 316.818 770.396 316.534C770.816 316.25 771.026 315.83 771.026 315.273V315.17C771.026 314.091 770.685 313.256 770.004 312.665C769.333 312.074 768.379 311.778 767.14 311.778C765.833 311.778 764.793 312.068 764.021 312.648C763.248 313.216 762.737 313.932 762.487 314.795L755.771 314.25C756.112 312.659 756.782 311.284 757.782 310.125C758.782 308.955 760.072 308.057 761.651 307.432C763.242 306.795 765.083 306.477 767.174 306.477C768.629 306.477 770.021 306.648 771.35 306.989C772.691 307.33 773.879 307.858 774.913 308.574C775.958 309.29 776.782 310.21 777.384 311.335C777.987 312.449 778.288 313.784 778.288 315.341V333H771.401V329.369H771.197C770.776 330.188 770.214 330.909 769.509 331.534C768.805 332.148 767.958 332.631 766.969 332.983C765.981 333.324 764.839 333.494 763.543 333.494ZM765.623 328.483C766.691 328.483 767.634 328.273 768.452 327.852C769.271 327.42 769.913 326.841 770.379 326.114C770.844 325.386 771.077 324.562 771.077 323.642V320.864C770.85 321.011 770.538 321.148 770.14 321.273C769.754 321.386 769.316 321.494 768.827 321.597C768.339 321.687 767.85 321.773 767.362 321.852C766.873 321.92 766.43 321.983 766.032 322.04C765.18 322.165 764.435 322.364 763.799 322.636C763.163 322.909 762.668 323.278 762.316 323.744C761.964 324.199 761.788 324.767 761.788 325.449C761.788 326.438 762.146 327.193 762.862 327.716C763.589 328.227 764.509 328.483 765.623 328.483ZM795.751 333.511C793.069 333.511 790.762 332.943 788.83 331.807C786.91 330.659 785.433 329.068 784.398 327.034C783.376 325 782.864 322.659 782.864 320.011C782.864 317.33 783.381 314.977 784.415 312.955C785.461 310.92 786.944 309.335 788.864 308.199C790.785 307.051 793.069 306.477 795.717 306.477C798.001 306.477 800.001 306.892 801.717 307.722C803.433 308.551 804.79 309.716 805.79 311.216C806.79 312.716 807.342 314.477 807.444 316.5H800.592C800.398 315.193 799.887 314.142 799.058 313.347C798.239 312.54 797.165 312.136 795.836 312.136C794.711 312.136 793.728 312.443 792.887 313.057C792.058 313.659 791.41 314.54 790.944 315.699C790.478 316.858 790.245 318.261 790.245 319.909C790.245 321.58 790.472 323 790.927 324.17C791.393 325.341 792.046 326.233 792.887 326.847C793.728 327.46 794.711 327.767 795.836 327.767C796.665 327.767 797.41 327.597 798.069 327.256C798.739 326.915 799.29 326.42 799.722 325.773C800.165 325.114 800.455 324.324 800.592 323.403H807.444C807.33 325.403 806.785 327.165 805.808 328.688C804.842 330.199 803.506 331.381 801.802 332.233C800.097 333.085 798.08 333.511 795.751 333.511ZM812.093 333V306.818H819.354V333H812.093ZM815.741 303.443C814.661 303.443 813.735 303.085 812.962 302.369C812.201 301.642 811.82 300.773 811.82 299.761C811.82 298.761 812.201 297.903 812.962 297.188C813.735 296.46 814.661 296.097 815.741 296.097C816.82 296.097 817.741 296.46 818.502 297.188C819.275 297.903 819.661 298.761 819.661 299.761C819.661 300.773 819.275 301.642 818.502 302.369C817.741 303.085 816.82 303.443 815.741 303.443ZM837.001 333.511C834.353 333.511 832.063 332.949 830.131 331.824C828.211 330.687 826.728 329.108 825.683 327.085C824.637 325.051 824.114 322.693 824.114 320.011C824.114 317.307 824.637 314.943 825.683 312.92C826.728 310.886 828.211 309.307 830.131 308.182C832.063 307.045 834.353 306.477 837.001 306.477C839.648 306.477 841.933 307.045 843.853 308.182C845.785 309.307 847.273 310.886 848.319 312.92C849.364 314.943 849.887 317.307 849.887 320.011C849.887 322.693 849.364 325.051 848.319 327.085C847.273 329.108 845.785 330.687 843.853 331.824C841.933 332.949 839.648 333.511 837.001 333.511ZM837.035 327.886C838.239 327.886 839.245 327.545 840.052 326.864C840.859 326.17 841.467 325.227 841.876 324.034C842.296 322.841 842.506 321.483 842.506 319.96C842.506 318.438 842.296 317.08 841.876 315.886C841.467 314.693 840.859 313.75 840.052 313.057C839.245 312.364 838.239 312.017 837.035 312.017C835.819 312.017 834.796 312.364 833.967 313.057C833.148 313.75 832.529 314.693 832.109 315.886C831.7 317.08 831.495 318.438 831.495 319.96C831.495 321.483 831.7 322.841 832.109 324.034C832.529 325.227 833.148 326.17 833.967 326.864C834.796 327.545 835.819 327.886 837.035 327.886ZM834.393 303.443L838.006 295.688H844.722L839.523 303.443H834.393ZM861.87 317.864V333H854.609V306.818H861.529V311.438H861.836C862.415 309.915 863.387 308.71 864.751 307.824C866.114 306.926 867.768 306.477 869.711 306.477C871.529 306.477 873.114 306.875 874.467 307.67C875.819 308.466 876.87 309.602 877.62 311.08C878.37 312.545 878.745 314.295 878.745 316.33V333H871.484V317.625C871.495 316.023 871.086 314.773 870.256 313.875C869.427 312.966 868.285 312.511 866.83 312.511C865.853 312.511 864.989 312.722 864.239 313.142C863.501 313.562 862.921 314.176 862.501 314.983C862.092 315.778 861.881 316.739 861.87 317.864ZM184.288 391.426C182.299 391.426 180.498 390.915 178.884 389.892C177.282 388.858 176.009 387.341 175.066 385.341C174.134 383.33 173.668 380.864 173.668 377.943C173.668 374.943 174.151 372.449 175.117 370.46C176.083 368.46 177.367 366.966 178.969 365.977C180.583 364.977 182.35 364.477 184.271 364.477C185.737 364.477 186.958 364.727 187.935 365.227C188.924 365.716 189.719 366.33 190.322 367.068C190.935 367.795 191.401 368.511 191.719 369.216H191.941V356.091H199.185V391H192.026V386.807H191.719C191.379 387.534 190.896 388.256 190.271 388.972C189.657 389.676 188.856 390.261 187.867 390.727C186.89 391.193 185.697 391.426 184.288 391.426ZM186.589 385.648C187.759 385.648 188.748 385.33 189.555 384.693C190.373 384.045 190.998 383.142 191.43 381.983C191.873 380.824 192.094 379.466 192.094 377.909C192.094 376.352 191.879 375 191.447 373.852C191.015 372.705 190.39 371.818 189.572 371.193C188.754 370.568 187.759 370.256 186.589 370.256C185.396 370.256 184.39 370.58 183.572 371.227C182.754 371.875 182.134 372.773 181.714 373.92C181.293 375.068 181.083 376.398 181.083 377.909C181.083 379.432 181.293 380.778 181.714 381.949C182.146 383.108 182.765 384.017 183.572 384.676C184.39 385.324 185.396 385.648 186.589 385.648ZM217.087 391.511C214.394 391.511 212.076 390.966 210.133 389.875C208.201 388.773 206.712 387.216 205.667 385.205C204.621 383.182 204.099 380.79 204.099 378.028C204.099 375.335 204.621 372.972 205.667 370.938C206.712 368.903 208.184 367.318 210.082 366.182C211.991 365.045 214.229 364.477 216.798 364.477C218.525 364.477 220.133 364.756 221.621 365.312C223.121 365.858 224.428 366.682 225.542 367.784C226.667 368.886 227.542 370.273 228.167 371.943C228.792 373.602 229.104 375.545 229.104 377.773V379.767H206.996V375.267H222.269C222.269 374.222 222.042 373.295 221.587 372.489C221.133 371.682 220.502 371.051 219.695 370.597C218.9 370.131 217.974 369.898 216.917 369.898C215.815 369.898 214.837 370.153 213.985 370.665C213.144 371.165 212.485 371.841 212.008 372.693C211.531 373.534 211.286 374.472 211.275 375.506V379.784C211.275 381.08 211.513 382.199 211.991 383.142C212.479 384.085 213.167 384.812 214.053 385.324C214.94 385.835 215.991 386.091 217.207 386.091C218.013 386.091 218.752 385.977 219.423 385.75C220.093 385.523 220.667 385.182 221.144 384.727C221.621 384.273 221.985 383.716 222.235 383.057L228.951 383.5C228.61 385.114 227.911 386.523 226.854 387.727C225.809 388.92 224.457 389.852 222.798 390.523C221.15 391.182 219.246 391.511 217.087 391.511ZM245.089 391V356.091H268.612V362.176H252.469V370.494H267.401V376.58H252.469V384.915H268.68V391H245.089ZM296.127 372.284L289.479 372.693C289.366 372.125 289.121 371.614 288.746 371.159C288.371 370.693 287.877 370.324 287.263 370.051C286.661 369.767 285.94 369.625 285.099 369.625C283.974 369.625 283.025 369.864 282.252 370.341C281.479 370.807 281.093 371.432 281.093 372.216C281.093 372.841 281.343 373.369 281.843 373.801C282.343 374.233 283.201 374.58 284.417 374.841L289.156 375.795C291.701 376.318 293.599 377.159 294.849 378.318C296.099 379.477 296.724 381 296.724 382.886C296.724 384.602 296.218 386.108 295.207 387.403C294.207 388.699 292.832 389.71 291.082 390.438C289.343 391.153 287.337 391.511 285.065 391.511C281.599 391.511 278.837 390.79 276.781 389.347C274.735 387.892 273.536 385.915 273.184 383.415L280.326 383.04C280.542 384.097 281.065 384.903 281.894 385.46C282.724 386.006 283.786 386.278 285.082 386.278C286.354 386.278 287.377 386.034 288.15 385.545C288.934 385.045 289.332 384.403 289.343 383.619C289.332 382.96 289.053 382.42 288.508 382C287.962 381.568 287.121 381.239 285.985 381.011L281.451 380.108C278.894 379.597 276.991 378.71 275.741 377.449C274.502 376.187 273.883 374.58 273.883 372.625C273.883 370.943 274.337 369.494 275.246 368.278C276.167 367.062 277.457 366.125 279.116 365.466C280.786 364.807 282.741 364.477 284.979 364.477C288.286 364.477 290.888 365.176 292.786 366.574C294.695 367.972 295.809 369.875 296.127 372.284ZM315.222 364.818V370.273H299.455V364.818H315.222ZM303.035 358.545H310.296V382.955C310.296 383.625 310.398 384.148 310.603 384.523C310.808 384.886 311.092 385.142 311.455 385.29C311.83 385.437 312.262 385.511 312.751 385.511C313.092 385.511 313.433 385.483 313.773 385.426C314.114 385.358 314.376 385.307 314.558 385.273L315.7 390.676C315.336 390.79 314.825 390.92 314.165 391.068C313.506 391.227 312.705 391.324 311.762 391.358C310.012 391.426 308.478 391.193 307.16 390.659C305.853 390.125 304.836 389.295 304.109 388.17C303.381 387.045 303.023 385.625 303.035 383.909V358.545ZM327.418 391.494C325.748 391.494 324.259 391.205 322.952 390.625C321.646 390.034 320.612 389.165 319.85 388.017C319.1 386.858 318.725 385.415 318.725 383.688C318.725 382.233 318.992 381.011 319.526 380.023C320.06 379.034 320.788 378.239 321.708 377.636C322.629 377.034 323.674 376.58 324.844 376.273C326.026 375.966 327.265 375.75 328.56 375.625C330.083 375.466 331.31 375.318 332.242 375.182C333.174 375.034 333.85 374.818 334.271 374.534C334.691 374.25 334.901 373.83 334.901 373.273V373.17C334.901 372.091 334.56 371.256 333.879 370.665C333.208 370.074 332.254 369.778 331.015 369.778C329.708 369.778 328.668 370.068 327.896 370.648C327.123 371.216 326.612 371.932 326.362 372.795L319.646 372.25C319.987 370.659 320.657 369.284 321.657 368.125C322.657 366.955 323.947 366.057 325.526 365.432C327.117 364.795 328.958 364.477 331.049 364.477C332.504 364.477 333.896 364.648 335.225 364.989C336.566 365.33 337.754 365.858 338.788 366.574C339.833 367.29 340.657 368.21 341.259 369.335C341.862 370.449 342.163 371.784 342.163 373.341V391H335.276V387.369H335.072C334.651 388.188 334.089 388.909 333.384 389.534C332.68 390.148 331.833 390.631 330.844 390.983C329.856 391.324 328.714 391.494 327.418 391.494ZM329.498 386.483C330.566 386.483 331.509 386.273 332.327 385.852C333.146 385.42 333.788 384.841 334.254 384.114C334.719 383.386 334.952 382.562 334.952 381.642V378.864C334.725 379.011 334.413 379.148 334.015 379.273C333.629 379.386 333.191 379.494 332.702 379.597C332.214 379.687 331.725 379.773 331.237 379.852C330.748 379.92 330.305 379.983 329.907 380.04C329.055 380.165 328.31 380.364 327.674 380.636C327.038 380.909 326.543 381.278 326.191 381.744C325.839 382.199 325.663 382.767 325.663 383.449C325.663 384.438 326.021 385.193 326.737 385.716C327.464 386.227 328.384 386.483 329.498 386.483ZM357.444 391.426C355.455 391.426 353.654 390.915 352.04 389.892C350.438 388.858 349.165 387.341 348.222 385.341C347.29 383.33 346.825 380.864 346.825 377.943C346.825 374.943 347.308 372.449 348.273 370.46C349.239 368.46 350.523 366.966 352.126 365.977C353.739 364.977 355.506 364.477 357.427 364.477C358.893 364.477 360.114 364.727 361.092 365.227C362.08 365.716 362.876 366.33 363.478 367.068C364.092 367.795 364.558 368.511 364.876 369.216H365.097V356.091H372.342V391H365.183V386.807H364.876C364.535 387.534 364.052 388.256 363.427 388.972C362.813 389.676 362.012 390.261 361.023 390.727C360.046 391.193 358.853 391.426 357.444 391.426ZM359.745 385.648C360.915 385.648 361.904 385.33 362.711 384.693C363.529 384.045 364.154 383.142 364.586 381.983C365.029 380.824 365.251 379.466 365.251 377.909C365.251 376.352 365.035 375 364.603 373.852C364.171 372.705 363.546 371.818 362.728 371.193C361.91 370.568 360.915 370.256 359.745 370.256C358.552 370.256 357.546 370.58 356.728 371.227C355.91 371.875 355.29 372.773 354.87 373.92C354.45 375.068 354.239 376.398 354.239 377.909C354.239 379.432 354.45 380.778 354.87 381.949C355.302 383.108 355.921 384.017 356.728 384.676C357.546 385.324 358.552 385.648 359.745 385.648ZM378.312 391V364.818H385.573V391H378.312ZM379.352 361.443L382.965 353.688H389.681L384.482 361.443H379.352ZM413.174 372.284L406.526 372.693C406.413 372.125 406.168 371.614 405.793 371.159C405.418 370.693 404.924 370.324 404.31 370.051C403.708 369.767 402.987 369.625 402.146 369.625C401.021 369.625 400.072 369.864 399.299 370.341C398.526 370.807 398.14 371.432 398.14 372.216C398.14 372.841 398.39 373.369 398.89 373.801C399.39 374.233 400.248 374.58 401.464 374.841L406.202 375.795C408.748 376.318 410.646 377.159 411.896 378.318C413.146 379.477 413.771 381 413.771 382.886C413.771 384.602 413.265 386.108 412.254 387.403C411.254 388.699 409.879 389.71 408.129 390.438C406.39 391.153 404.384 391.511 402.112 391.511C398.646 391.511 395.884 390.79 393.827 389.347C391.782 387.892 390.583 385.915 390.231 383.415L397.373 383.04C397.589 384.097 398.112 384.903 398.941 385.46C399.771 386.006 400.833 386.278 402.129 386.278C403.401 386.278 404.424 386.034 405.197 385.545C405.981 385.045 406.379 384.403 406.39 383.619C406.379 382.96 406.1 382.42 405.555 382C405.009 381.568 404.168 381.239 403.032 381.011L398.498 380.108C395.941 379.597 394.038 378.71 392.788 377.449C391.549 376.187 390.93 374.58 390.93 372.625C390.93 370.943 391.384 369.494 392.293 368.278C393.214 367.062 394.504 366.125 396.163 365.466C397.833 364.807 399.788 364.477 402.026 364.477C405.333 364.477 407.935 365.176 409.833 366.574C411.742 367.972 412.856 369.875 413.174 372.284ZM432.269 364.818V370.273H416.502V364.818H432.269ZM420.082 358.545H427.343V382.955C427.343 383.625 427.445 384.148 427.65 384.523C427.854 384.886 428.138 385.142 428.502 385.29C428.877 385.437 429.309 385.511 429.798 385.511C430.138 385.511 430.479 385.483 430.82 385.426C431.161 385.358 431.423 385.307 431.604 385.273L432.746 390.676C432.383 390.79 431.871 390.92 431.212 391.068C430.553 391.227 429.752 391.324 428.809 391.358C427.059 391.426 425.525 391.193 424.207 390.659C422.9 390.125 421.883 389.295 421.156 388.17C420.428 387.045 420.07 385.625 420.082 383.909V358.545ZM436.999 391V364.818H444.261V391H436.999ZM440.647 361.443C439.567 361.443 438.641 361.085 437.869 360.369C437.107 359.642 436.727 358.773 436.727 357.761C436.727 356.761 437.107 355.903 437.869 355.188C438.641 354.46 439.567 354.097 440.647 354.097C441.727 354.097 442.647 354.46 443.408 355.188C444.181 355.903 444.567 356.761 444.567 357.761C444.567 358.773 444.181 359.642 443.408 360.369C442.647 361.085 441.727 361.443 440.647 361.443ZM461.907 391.511C459.225 391.511 456.918 390.943 454.987 389.807C453.066 388.659 451.589 387.068 450.555 385.034C449.532 383 449.021 380.659 449.021 378.011C449.021 375.33 449.538 372.977 450.572 370.955C451.617 368.92 453.1 367.335 455.021 366.199C456.941 365.051 459.225 364.477 461.873 364.477C464.157 364.477 466.157 364.892 467.873 365.722C469.589 366.551 470.947 367.716 471.947 369.216C472.947 370.716 473.498 372.477 473.6 374.5H466.748C466.555 373.193 466.043 372.142 465.214 371.347C464.396 370.54 463.322 370.136 461.992 370.136C460.867 370.136 459.884 370.443 459.043 371.057C458.214 371.659 457.566 372.54 457.1 373.699C456.634 374.858 456.401 376.261 456.401 377.909C456.401 379.58 456.629 381 457.083 382.17C457.549 383.341 458.202 384.233 459.043 384.847C459.884 385.46 460.867 385.767 461.992 385.767C462.822 385.767 463.566 385.597 464.225 385.256C464.896 384.915 465.447 384.42 465.879 383.773C466.322 383.114 466.612 382.324 466.748 381.403H473.6C473.487 383.403 472.941 385.165 471.964 386.688C470.998 388.199 469.663 389.381 467.958 390.233C466.254 391.085 464.237 391.511 461.907 391.511ZM485.715 391.494C484.045 391.494 482.556 391.205 481.249 390.625C479.942 390.034 478.908 389.165 478.147 388.017C477.397 386.858 477.022 385.415 477.022 383.688C477.022 382.233 477.289 381.011 477.823 380.023C478.357 379.034 479.085 378.239 480.005 377.636C480.925 377.034 481.971 376.58 483.141 376.273C484.323 375.966 485.562 375.75 486.857 375.625C488.38 375.466 489.607 375.318 490.539 375.182C491.471 375.034 492.147 374.818 492.567 374.534C492.988 374.25 493.198 373.83 493.198 373.273V373.17C493.198 372.091 492.857 371.256 492.175 370.665C491.505 370.074 490.55 369.778 489.312 369.778C488.005 369.778 486.965 370.068 486.192 370.648C485.42 371.216 484.908 371.932 484.658 372.795L477.942 372.25C478.283 370.659 478.954 369.284 479.954 368.125C480.954 366.955 482.244 366.057 483.823 365.432C485.414 364.795 487.255 364.477 489.346 364.477C490.8 364.477 492.192 364.648 493.522 364.989C494.863 365.33 496.05 365.858 497.085 366.574C498.13 367.29 498.954 368.21 499.556 369.335C500.158 370.449 500.46 371.784 500.46 373.341V391H493.573V387.369H493.369C492.948 388.188 492.386 388.909 491.681 389.534C490.977 390.148 490.13 390.631 489.141 390.983C488.153 391.324 487.011 391.494 485.715 391.494ZM487.795 386.483C488.863 386.483 489.806 386.273 490.624 385.852C491.442 385.42 492.085 384.841 492.55 384.114C493.016 383.386 493.249 382.562 493.249 381.642V378.864C493.022 379.011 492.71 379.148 492.312 379.273C491.925 379.386 491.488 379.494 490.999 379.597C490.511 379.687 490.022 379.773 489.533 379.852C489.045 379.92 488.602 379.983 488.204 380.04C487.352 380.165 486.607 380.364 485.971 380.636C485.335 380.909 484.84 381.278 484.488 381.744C484.136 382.199 483.96 382.767 483.96 383.449C483.96 384.438 484.317 385.193 485.033 385.716C485.761 386.227 486.681 386.483 487.795 386.483ZM517.339 391V356.091H540.862V362.176H524.719V370.494H539.651V376.58H524.719V384.915H540.93V391H517.339ZM553.854 356.091V391H546.593V356.091H553.854ZM571.603 391.511C568.91 391.511 566.592 390.966 564.648 389.875C562.717 388.773 561.228 387.216 560.183 385.205C559.137 383.182 558.614 380.79 558.614 378.028C558.614 375.335 559.137 372.972 560.183 370.938C561.228 368.903 562.7 367.318 564.597 366.182C566.506 365.045 568.745 364.477 571.313 364.477C573.04 364.477 574.648 364.756 576.137 365.312C577.637 365.858 578.944 366.682 580.058 367.784C581.183 368.886 582.058 370.273 582.683 371.943C583.308 373.602 583.62 375.545 583.62 377.773V379.767H561.512V375.267H576.785C576.785 374.222 576.558 373.295 576.103 372.489C575.648 371.682 575.018 371.051 574.211 370.597C573.415 370.131 572.489 369.898 571.433 369.898C570.33 369.898 569.353 370.153 568.501 370.665C567.66 371.165 567.001 371.841 566.523 372.693C566.046 373.534 565.802 374.472 565.79 375.506V379.784C565.79 381.08 566.029 382.199 566.506 383.142C566.995 384.085 567.683 384.812 568.569 385.324C569.455 385.835 570.506 386.091 571.722 386.091C572.529 386.091 573.268 385.977 573.938 385.75C574.609 385.523 575.183 385.182 575.66 384.727C576.137 384.273 576.501 383.716 576.751 383.057L583.467 383.5C583.126 385.114 582.427 386.523 581.37 387.727C580.325 388.92 578.972 389.852 577.313 390.523C575.665 391.182 573.762 391.511 571.603 391.511ZM600.188 391.511C597.506 391.511 595.2 390.943 593.268 389.807C591.347 388.659 589.87 387.068 588.836 385.034C587.813 383 587.302 380.659 587.302 378.011C587.302 375.33 587.819 372.977 588.853 370.955C589.898 368.92 591.381 367.335 593.302 366.199C595.222 365.051 597.506 364.477 600.154 364.477C602.438 364.477 604.438 364.892 606.154 365.722C607.87 366.551 609.228 367.716 610.228 369.216C611.228 370.716 611.779 372.477 611.881 374.5H605.029C604.836 373.193 604.325 372.142 603.495 371.347C602.677 370.54 601.603 370.136 600.273 370.136C599.148 370.136 598.165 370.443 597.325 371.057C596.495 371.659 595.847 372.54 595.381 373.699C594.915 374.858 594.683 376.261 594.683 377.909C594.683 379.58 594.91 381 595.364 382.17C595.83 383.341 596.484 384.233 597.325 384.847C598.165 385.46 599.148 385.767 600.273 385.767C601.103 385.767 601.847 385.597 602.506 385.256C603.177 384.915 603.728 384.42 604.16 383.773C604.603 383.114 604.893 382.324 605.029 381.403H611.881C611.768 383.403 611.222 385.165 610.245 386.688C609.279 388.199 607.944 389.381 606.239 390.233C604.535 391.085 602.518 391.511 600.188 391.511ZM630.457 364.818V370.273H614.69V364.818H630.457ZM618.269 358.545H625.531V382.955C625.531 383.625 625.633 384.148 625.837 384.523C626.042 384.886 626.326 385.142 626.69 385.29C627.065 385.437 627.496 385.511 627.985 385.511C628.326 385.511 628.667 385.483 629.008 385.426C629.349 385.358 629.61 385.307 629.792 385.273L630.934 390.676C630.57 390.79 630.059 390.92 629.4 391.068C628.741 391.227 627.94 391.324 626.996 391.358C625.246 391.426 623.712 391.193 622.394 390.659C621.087 390.125 620.07 389.295 619.343 388.17C618.616 387.045 618.258 385.625 618.269 383.909V358.545ZM646.735 391.511C644.087 391.511 641.798 390.949 639.866 389.824C637.945 388.687 636.462 387.108 635.417 385.085C634.371 383.051 633.849 380.693 633.849 378.011C633.849 375.307 634.371 372.943 635.417 370.92C636.462 368.886 637.945 367.307 639.866 366.182C641.798 365.045 644.087 364.477 646.735 364.477C649.383 364.477 651.667 365.045 653.587 366.182C655.519 367.307 657.008 368.886 658.053 370.92C659.099 372.943 659.621 375.307 659.621 378.011C659.621 380.693 659.099 383.051 658.053 385.085C657.008 387.108 655.519 388.687 653.587 389.824C651.667 390.949 649.383 391.511 646.735 391.511ZM646.769 385.886C647.974 385.886 648.979 385.545 649.786 384.864C650.593 384.17 651.201 383.227 651.61 382.034C652.031 380.841 652.241 379.483 652.241 377.96C652.241 376.438 652.031 375.08 651.61 373.886C651.201 372.693 650.593 371.75 649.786 371.057C648.979 370.364 647.974 370.017 646.769 370.017C645.553 370.017 644.531 370.364 643.701 371.057C642.883 371.75 642.263 372.693 641.843 373.886C641.434 375.08 641.229 376.438 641.229 377.96C641.229 379.483 641.434 380.841 641.843 382.034C642.263 383.227 642.883 384.17 643.701 384.864C644.531 385.545 645.553 385.886 646.769 385.886ZM664.343 391V364.818H671.383V369.386H671.656C672.133 367.761 672.934 366.534 674.059 365.705C675.184 364.864 676.479 364.443 677.945 364.443C678.309 364.443 678.701 364.466 679.121 364.511C679.542 364.557 679.911 364.619 680.229 364.699V371.142C679.888 371.04 679.417 370.949 678.815 370.869C678.212 370.79 677.661 370.75 677.161 370.75C676.093 370.75 675.138 370.983 674.298 371.449C673.468 371.903 672.809 372.54 672.32 373.358C671.843 374.176 671.604 375.119 671.604 376.188V391H664.343ZM690.7 391.494C689.029 391.494 687.54 391.205 686.234 390.625C684.927 390.034 683.893 389.165 683.131 388.017C682.381 386.858 682.006 385.415 682.006 383.688C682.006 382.233 682.273 381.011 682.808 380.023C683.342 379.034 684.069 378.239 684.989 377.636C685.91 377.034 686.955 376.58 688.126 376.273C689.308 375.966 690.546 375.75 691.842 375.625C693.364 375.466 694.592 375.318 695.523 375.182C696.455 375.034 697.131 374.818 697.552 374.534C697.972 374.25 698.183 373.83 698.183 373.273V373.17C698.183 372.091 697.842 371.256 697.16 370.665C696.489 370.074 695.535 369.778 694.296 369.778C692.989 369.778 691.95 370.068 691.177 370.648C690.404 371.216 689.893 371.932 689.643 372.795L682.927 372.25C683.268 370.659 683.938 369.284 684.938 368.125C685.938 366.955 687.228 366.057 688.808 365.432C690.398 364.795 692.239 364.477 694.33 364.477C695.785 364.477 697.177 364.648 698.506 364.989C699.847 365.33 701.035 365.858 702.069 366.574C703.114 367.29 703.938 368.21 704.54 369.335C705.143 370.449 705.444 371.784 705.444 373.341V391H698.558V387.369H698.353C697.933 388.188 697.37 388.909 696.665 389.534C695.961 390.148 695.114 390.631 694.126 390.983C693.137 391.324 691.995 391.494 690.7 391.494ZM692.779 386.483C693.847 386.483 694.79 386.273 695.609 385.852C696.427 385.42 697.069 384.841 697.535 384.114C698.001 383.386 698.234 382.562 698.234 381.642V378.864C698.006 379.011 697.694 379.148 697.296 379.273C696.91 379.386 696.472 379.494 695.984 379.597C695.495 379.687 695.006 379.773 694.518 379.852C694.029 379.92 693.586 379.983 693.188 380.04C692.336 380.165 691.592 380.364 690.955 380.636C690.319 380.909 689.825 381.278 689.472 381.744C689.12 382.199 688.944 382.767 688.944 383.449C688.944 384.438 689.302 385.193 690.018 385.716C690.745 386.227 691.665 386.483 692.779 386.483ZM718.339 356.091V391H711.077V356.091H718.339Z" fill="black"/>
<defs>
<filter id="filter0_d_127_364" x="7" y="0" width="887" height="279" filterUnits="userSpaceOnUse" color-interpolation-filters="sRGB">
<feFlood flood-opacity="0" result="BackgroundImageFix"/>
<feColorMatrix in="SourceAlpha" type="matrix" values="0 0 0 0 0 0 0 0 0 0 0 0 0 0 0 0 0 0 127 0" result="hardAlpha"/>
<feOffset dx="4" dy="4"/>
<feGaussianBlur stdDeviation="2"/>
<feComposite in2="hardAlpha" operator="out"/>
<feColorMatrix type="matrix" values="0 0 0 0 0 0 0 0 0 0 0 0 0 0 0 0 0 0 0.25 0"/>
<feBlend mode="normal" in2="BackgroundImageFix" result="effect1_dropShadow_127_364"/>
<feBlend mode="normal" in="SourceGraphic" in2="effect1_dropShadow_127_364" result="shape"/>
</filter>
</defs>
</svg>
