<svg xmlns="http://www.w3.org/2000/svg" fill="none" viewBox="0 0 879 271"><path fill="#246CB6" d="M34.7733 253.108C20.4416 242.884 8.863 226.489 0 203.96l49.1804-21.792c4.7144 11.871 10.2585 21.053 16.6135 27.585 6.355 6.531 13.2191 9.788 20.5924 9.788 5.6007 0 9.9002-1.553 12.842-4.676 2.9417-3.105 4.4317-7.346 4.4317-12.685-.302-5.036-3.093-10.299-8.4107-15.79-5.3178-5.49-14.3317-13.404-27.0228-23.798L49.6141 147.03c-15.3688-13.045-26.5136-24.915-33.4532-35.574C9.2213 100.778 5.7515 88.0365 5.7515 73.2125c0-13.6314 3.6207-25.8049 10.862-36.4638 7.2413-10.6779 16.8963-19.046 29.0217-25.1233C57.7417 5.5481 70.7346 2.5 84.6137 2.5c20.9693 0 38.4693 5.7176 52.4993 17.1149 14.03 11.4162 23.987 27.7927 29.908 49.1484L120.5 90.1191c-2.961-9.4852-7.525-18.0047-13.729-25.5777-6.204-7.5729-12.9926-11.3405-20.3847-11.3405-4.7332 0-8.4859 1.3253-11.2957 3.9948-2.8097 2.6694-4.2052 6.2287-4.2052 10.6778 0 5.339 2.7344 10.9808 8.203 16.9066 5.4687 5.9259 14.6901 14.2372 27.6826 24.9149l18.16 16.017c10.032 8.898 18.084 16.452 24.138 22.681 6.053 6.229 11.22 13.65 15.501 22.246 4.28 8.595 6.43 17.947 6.43 28.019 0 14.541-3.772 27.055-11.296 37.581-7.524 10.527-17.575 18.535-30.134 24.025-12.559 5.491-26.061 8.236-40.5436 8.236-21.8559 0-39.9403-5.112-54.272-15.354l.0189-.038ZM361.422 137.326c4.744 50.312-20.137 102.14-58.696 124.473-41.893 24.285-91.597-1.117-114.649-57.207-23.452-57.094-14.631-131.2169 20.613-173.0995 35.378-42.053 87.12-41.9962 121.393.2084 1.772 2.1784 18.689 33.9455 20.27 36.446-1.105-.3221-12.65 15.7225-28.462 36.1621-1.981 2.557-11.754 17.446-13.355 19.757-14.688 21.481-20.46 27.297-35.625 48.077-2.134 2.936-7.525 3.845-10.421 2.159-5.087-2.936-9.964-7.766-13.945-13.278-12.536-17.371-12.383-26.786-.172-44.156 14.536-20.6668 20.232-25.5541 35.187-46.7511-27.223-17.6547-60.277 13.2411-63.363 56.8661-2.839 40.386 16.993 75.734 44.179 78.727 30.367 3.334 54.943-23.755 55.915-68.365M366 6.5h68.728l21.153 164.71L475.272 6.5H544l-52.432 258H417.12L366 6.5ZM684.464 115.296c-.797 3.125-1.878 6.421-3.453 8.751-14.626 21.481-20.374 27.297-35.475 48.077-2.125 2.936-7.493 3.845-10.377 2.159-5.065-2.936-9.921-7.766-13.886-13.278-12.483-17.371-12.331-26.786-.171-44.156 14.475-20.6668 20.147-25.554 35.039-46.751-27.109-17.6547-60.023 13.241-63.097 56.866-2.826 40.386 16.922 75.734 43.993 78.727 30.24 3.334 53.687-26.558 54.655-71.168.872-39.7804 10.775-73.0629 31.169-99.9049C765.697-21.8126 834.2-7.8139 867 68.6204c-8.594 10.7974-18.288 21.9358-27.128 34.3246-19.009 26.633-27.261 36.218-45.587 63.837-5.918 8.941-11.268 9.907-17.718 3.542-4.269-4.205-8.632-8.694-11.952-14.282-10.699-18.034-10.396-23.736 1.252-39.951 14.873-20.7422 19.256-24.0383 35.096-45.9741-32.762-17.6736-63.305 16.6318-65.05 67.7201-2.03 59.708-22.348 101.61-60.726 123.962-41.716 24.285-91.211-1.117-114.165-57.207-23.353-57.094-14.57-131.2169 20.526-173.0995 35.229-42.053 86.753-41.9962 120.881.2084 1.765 2.1784 3.187 4.9251 4.781 7.4256-1.1-.3221-16.201 50.5015-22.765 76.1875l.019-.018Z"/><path fill="#246CB6" d="M722 232.949c7.353-20.657 14.253-40.047 21.455-60.268 13.384 26.42 31.607 40.386 55.274 31.485 23.345-8.788 34.328-33.375 37.334-67.166h42.003c5.879 39.838-16.673 94.626-48.789 119.024-35.236 26.779-81.304 16.782-107.277-23.094v.019Z"/></svg>